<svg width="175" height="335" viewBox="0 0 175 335" fill="none" xmlns="http://www.w3.org/2000/svg">
<path d="M118.811 47.0307H57.6719C67.4031 25.9156 77.3299 10.777 82.8867 3.00164C85.0885 -0.0770102 89.6574 -0.11386 91.9098 2.92794C96.7788 9.51069 104.956 21.296 113.365 36.6323C115.176 39.9387 117 43.4093 118.807 47.0307H118.811Z" fill="#E8E8E8"/>
<path d="M35.5043 220.47C31.7379 222.718 27.5197 225.864 23.9523 230.085C20.6883 233.947 17.6941 238.165 15.3641 241.682C12.9094 245.384 7.302 244.892 5.57561 240.805C1.46193 231.056 -2.46967 213.368 6.30393 188.893C9.57464 179.781 18.2876 170.552 25.1931 164.287C28.5009 192.109 34.6849 217.224 35.5043 220.47Z" fill="#E8E8E8"/>
<path d="M141.741 106.282C140.203 88.7047 131.571 71.8843 123.573 57.2113H52.5143C45.3794 71.2311 37.8669 87.7432 34.4006 106.282C31.5413 121.592 31.3322 141.467 33.5509 160.12C36.8587 187.942 43.0427 213.057 43.8621 216.306C43.9194 216.544 43.9498 216.661 43.9498 216.661H65.6747V187.932C65.6747 175.952 75.4531 166.21 87.4739 166.21C93.2903 166.21 98.7595 168.468 102.887 172.565C107.004 176.676 109.27 182.129 109.27 187.932V216.661H131.726C131.726 216.661 131.746 216.578 131.777 216.41C132.38 213.633 137.796 188.123 141.043 159.339C143.073 141.343 143.116 122.077 141.741 106.282ZM98.1054 136.305C97.6097 136.502 96.7263 136.714 95.7518 136.911C95.2359 137.018 94.7402 137.183 94.2749 137.407C92.3698 138.308 90.9907 140.11 90.6771 142.258C90.4242 143.98 90.0972 145.762 89.7364 146.747C89.1598 148.375 86.4488 148.402 85.8284 146.787C85.4406 145.785 85.0663 143.993 84.7528 142.285C84.3245 139.896 82.5779 137.963 80.2682 137.283C80.0962 137.229 79.9209 137.186 79.7422 137.149C78.7373 136.941 77.8067 136.717 77.2841 136.523C75.6824 135.936 75.6622 133.943 77.2537 133.327C77.7393 133.132 78.5923 132.935 79.5331 132.757C82.2306 132.248 84.2874 130.07 84.6752 127.364C84.9213 125.648 85.2316 123.893 85.5789 122.925C86.1656 121.28 88.8766 121.257 89.5071 122.885C89.8847 123.886 90.2725 125.672 90.5928 127.364C91.0683 129.873 92.997 131.859 95.4989 132.419C96.5509 132.66 97.5321 132.901 98.0683 133.096C99.6733 133.699 99.6901 135.678 98.102 136.308L98.1054 136.305ZM102.202 94.8385C101.501 95.1166 100.253 95.4147 98.8809 95.6961C98.1492 95.8469 97.4478 96.0814 96.7937 96.3929C94.1029 97.6659 92.1574 100.212 91.7089 103.244C91.3515 105.676 90.8896 108.195 90.3804 109.585C89.5678 111.887 85.7373 111.924 84.8607 109.646C84.311 108.228 83.7817 105.699 83.3433 103.284C82.7397 99.9071 80.2682 97.1835 77.0076 96.2154C76.7648 96.1417 76.5153 96.078 76.2624 96.0278C74.8428 95.7363 73.5278 95.4181 72.786 95.14C70.5268 94.3126 70.4965 91.4952 72.7422 90.6242C73.4266 90.3462 74.6338 90.0681 75.9623 89.8202C79.7725 89.1 82.6757 86.0247 83.2253 82.2057C83.576 79.7836 84.0109 77.3046 84.5032 75.9378C85.3361 73.6129 89.1632 73.5794 90.0533 75.8809C90.5861 77.2946 91.1357 79.8171 91.5842 82.2057C92.2552 85.7533 94.983 88.5539 98.5134 89.3445C100 89.6829 101.386 90.0246 102.141 90.2993C104.407 91.1502 104.434 93.9508 102.189 94.8385H102.202Z" fill="#E8E8E8"/>
<path d="M98.1054 136.305C97.6097 136.502 96.7263 136.714 95.7518 136.911C95.2359 137.018 94.7402 137.183 94.2749 137.407C92.3698 138.308 90.9907 140.11 90.6771 142.258C90.4242 143.98 90.0972 145.762 89.7364 146.747C89.1598 148.375 86.4488 148.402 85.8284 146.787C85.4406 145.785 85.0663 143.993 84.7528 142.285C84.3245 139.896 82.5779 137.963 80.2682 137.283C80.0962 137.229 79.9209 137.186 79.7422 137.149C78.7373 136.941 77.8067 136.717 77.2841 136.523C75.6824 135.936 75.6622 133.943 77.2537 133.327C77.7393 133.132 78.5923 132.935 79.5331 132.757C82.2306 132.248 84.2874 130.07 84.6752 127.364C84.9213 125.648 85.2316 123.893 85.5789 122.925C86.1656 121.28 88.8766 121.257 89.5071 122.885C89.8847 123.886 90.2725 125.672 90.5928 127.364C91.0683 129.873 92.997 131.859 95.4989 132.419C96.5509 132.66 97.5321 132.901 98.0683 133.096C99.6733 133.699 99.6901 135.678 98.102 136.308L98.1054 136.305Z" fill="#080808"/>
<path d="M102.202 94.8385C101.501 95.1166 100.253 95.4147 98.8809 95.6961C98.1492 95.8469 97.4478 96.0814 96.7937 96.3929C94.1029 97.6659 92.1574 100.212 91.7089 103.244C91.3515 105.676 90.8896 108.195 90.3804 109.585C89.5678 111.887 85.7373 111.924 84.8607 109.646C84.311 108.228 83.7817 105.699 83.3433 103.284C82.7397 99.9071 80.2682 97.1835 77.0076 96.2154C76.7648 96.1417 76.5153 96.078 76.2624 96.0278C74.8428 95.7363 73.5278 95.4181 72.786 95.14C70.5268 94.3126 70.4965 91.4952 72.7422 90.6242C73.4266 90.3462 74.6338 90.0681 75.9623 89.8202C79.7725 89.1 82.6757 86.0247 83.2253 82.2057C83.576 79.7836 84.0109 77.3046 84.5032 75.9378C85.3361 73.6129 89.1632 73.5794 90.0533 75.8809C90.5861 77.2946 91.1357 79.8171 91.5842 82.2057C92.2552 85.7533 94.983 88.5539 98.5134 89.3445C100 89.6829 101.386 90.0246 102.141 90.2993C104.407 91.1502 104.434 93.9508 102.189 94.8385H102.202Z" fill="#080808"/>
<path d="M169.426 240.801C167.699 244.888 162.092 245.381 159.637 241.679C157.183 237.977 154.31 233.944 151.049 230.081C147.539 225.924 143.398 222.815 139.676 220.574C140.279 217.797 145.695 192.287 148.942 163.5C155.969 169.761 165.295 179.386 168.697 188.886C177.468 213.362 173.539 231.05 169.426 240.798V240.801Z" fill="#E8E8E8"/>
<path d="M102.307 187.932V236.135C102.307 244.295 95.6643 250.915 87.4774 250.915C79.2905 250.915 72.6445 244.295 72.6445 236.135V187.932C72.6445 179.771 79.2871 173.151 87.4774 173.151C91.5742 173.151 95.2799 174.81 97.9639 177.48C100.648 180.156 102.307 183.851 102.307 187.932Z" fill="#E8E8E8"/>
<path d="M87.4759 334.33C85.4191 334.33 83.75 332.668 83.75 330.618V266.111C83.75 264.06 85.4191 262.399 87.4759 262.399C89.5328 262.399 91.2018 264.06 91.2018 266.111V330.618C91.2018 332.668 89.5328 334.33 87.4759 334.33Z" fill="#E8E8E8"/>
<path d="M60.2337 290.804C58.1769 290.804 56.5078 289.142 56.5078 287.092V251.722C56.5078 249.672 58.1769 248.011 60.2337 248.011C62.2906 248.011 63.9596 249.672 63.9596 251.722V287.092C63.9596 289.142 62.2906 290.804 60.2337 290.804Z" fill="#E8E8E8"/>
<path d="M114.718 290.804C112.661 290.804 110.992 289.142 110.992 287.092V251.722C110.992 249.672 112.661 248.011 114.718 248.011C116.775 248.011 118.444 249.672 118.444 251.722V287.092C118.444 289.142 116.775 290.804 114.718 290.804Z" fill="#E8E8E8"/>
</svg>
