<svg width="1500" height="619" viewBox="0 0 1500 619" fill="none" xmlns="http://www.w3.org/2000/svg">
<g clip-path="url(#clip0_490_175)">
<path d="M428.82 263.02C426.96 265.94 424.52 268.18 421.48 269.78C418.42 271.37 415.46 272.16 412.54 272.16C409.88 272.16 407.57 271.37 405.58 269.78C403.61 268.19 402.61 265.55 402.61 261.84V156.61C402.61 143.64 400.08 132.71 395.06 123.84C390.03 114.98 383.48 107.75 375.41 102.2C367.32 96.64 358.07 92.61 347.61 90.09C337.14 87.57 326.49 86.1899 315.64 85.9199H312.45C301.86 85.9199 291.61 87.2499 281.68 89.8799C271.75 92.5399 262.87 96.31 255.07 101.2C247.26 106.11 240.97 111.99 236.21 118.88C231.44 125.77 229.07 133.45 229.07 141.91C229.07 147.73 230.12 152.7 232.24 156.8C234.36 160.91 237.14 164.21 240.58 166.73C244.02 169.25 247.94 171.1 252.29 172.29C256.66 173.49 261.09 174.09 265.6 174.09C271.68 174.09 277.37 173.1 282.68 171.11C287.97 169.12 292.07 166.28 294.98 162.57C292.33 160.98 290.48 158.01 289.42 153.63C288.37 149.26 287.84 145.35 287.84 141.92V139.54C288.63 129.48 291.93 121.28 297.77 114.91C303.59 108.56 309.67 105.39 316.03 105.39C321.85 105.39 327.01 108.62 331.52 115.11C336.01 121.6 338.26 132.38 338.26 147.47V151.84C336.42 157.92 333.04 162.69 328.14 166.13C323.24 169.58 317.42 172.36 310.66 174.48C303.9 176.6 296.69 178.44 289.02 180.04C281.34 181.62 254.2 187.95 235.99 202.81C217.34 217.55 181.08 252.3 154.76 258.15C142.77 260.81 120.12 255.77 111.11 250.74C102.12 245.71 94.6998 239.03 88.8798 230.68C83.0498 222.34 78.6898 212.96 75.7798 202.49C72.8598 192.03 71.4098 181.39 71.4098 170.52C71.4098 158.08 73.1198 146.7 76.5698 136.37C80.2698 123.66 85.5098 114.52 92.2498 108.97C99.0098 103.41 105.82 100.63 112.71 100.63C120.12 100.63 126.54 103.6 131.97 109.57C137.4 115.52 140.12 124.06 140.12 135.18C140.12 136.77 140.05 138.29 139.92 139.74C139.79 141.2 139.58 142.87 139.33 144.71C138.53 150.53 136.87 156.03 134.36 161.19C131.84 166.35 128.73 170.52 125.03 173.69C129.26 179.79 134.62 184.42 141.12 187.6C147.6 190.77 154.41 192.37 161.56 192.37C166.33 192.37 170.89 191.64 175.26 190.18C179.63 188.73 183.54 186.48 186.97 183.44C190.41 180.4 193.19 176.68 195.31 172.31C197.43 167.95 198.5 162.85 198.5 157.03C198.5 156.23 198.43 155.51 198.3 154.84C198.17 154.18 198.11 153.32 198.11 152.27C197.31 143.28 194.34 134.87 189.17 127.06C184.01 119.25 177.52 112.36 169.71 106.4C161.9 100.45 152.97 95.7499 142.9 92.2999C132.84 88.8599 122.38 87.14 111.53 87.14H109.15C99.6198 87.42 90.2098 88.8099 80.9598 91.3199C71.6898 93.8399 62.9398 97.6099 54.7398 102.62C46.5398 107.67 39.0598 113.94 32.3098 121.48C25.5498 129.03 19.8098 137.96 15.0398 148.29C12.1298 155.18 9.79977 162.33 8.07977 169.74C6.36977 177.15 5.50977 184.83 5.50977 192.77C5.50977 207.34 8.22977 220.96 13.6598 233.67C19.0898 246.38 26.4998 257.49 35.8898 267.03C45.2898 276.56 56.2798 284.11 68.8498 289.67C81.4298 295.23 94.8698 298.13 109.17 298.01C150.41 297.66 199.4 249.09 220.6 228.93C217.68 233.32 216.78 241.14 216.78 244.8C216.78 252.74 218.3 259.76 221.34 265.86C224.38 271.94 228.36 277.11 233.26 281.35C238.14 285.58 243.77 288.76 250.14 290.87C256.49 292.99 263.24 294.06 270.39 294.06C280.98 294.06 291.43 291.68 301.76 286.91C309.44 283.2 316.33 278.5 322.41 272.81C328.49 267.12 333.79 260.83 338.29 253.95V263.48C338.29 269.04 339.55 273.8 342.06 277.77C344.58 281.75 347.88 285.05 351.99 287.7C356.1 290.35 360.79 292.26 366.09 293.46C371.38 294.64 376.82 295.24 382.38 295.24C390.06 295.24 397.4 294.19 404.42 292.07C411.42 289.95 417.05 286.91 421.3 282.93C423.42 280.82 425.6 278.5 427.85 275.98C430.1 273.46 432.15 270.89 434.01 268.23L428.85 263.07L428.82 263.02ZM338.27 236.02C335.9 241.05 333.11 245.15 329.93 248.33C326.76 251.5 323.58 254.02 320.4 255.88C314.84 259.05 309.55 260.63 304.52 260.63C297.63 260.63 292.15 258.26 288.04 253.49C283.93 248.72 281.88 242.9 281.88 236.01C281.88 228.6 284.4 221.18 289.43 213.77C295.53 205.3 303.13 197.49 312.27 190.34C321.4 183.19 330.07 176.97 338.27 171.68V236.01V236.02Z" fill="white"/>
<path d="M454.63 207.83C457.27 213.39 460.05 219.15 462.97 225.1C465.88 231.06 468.99 236.88 472.3 242.57C475.61 248.27 479.25 253.63 483.22 258.65C487.19 263.68 491.56 267.92 496.33 271.36C501.36 275.07 506.46 277.78 511.62 279.5C516.78 281.23 521.88 282.08 526.91 282.08C535.38 282.08 542.46 280.03 548.16 275.92C553.85 271.82 556.7 266.59 556.7 260.23C556.7 255.73 554.84 250.9 551.14 245.73C547.43 240.57 541.34 235.47 532.87 230.44C525.19 225.41 516.12 220.45 505.67 215.55C495.21 210.65 485.22 205.09 475.69 198.87C466.16 192.65 458.02 185.5 451.27 177.43C444.52 169.36 441.14 159.76 441.14 148.64C441.14 139.38 443.32 130.77 447.69 122.83C452.06 114.89 458.08 108.07 465.76 102.38C473.44 96.6899 482.7 92.1899 493.56 88.8799C504.41 85.5699 516.33 83.9199 529.3 83.9199H532.08C539.49 83.9199 546.18 84.5799 552.13 85.9099C558.09 87.2399 563.65 89.02 568.81 91.27C573.97 93.52 578.94 96.0999 583.7 99.0099C588.46 101.93 593.49 105.1 598.79 108.54L593.63 156.19H586.48C583.04 149.58 579.13 142.63 574.77 135.34C570.4 128.06 565.44 121.51 559.88 115.68C553.79 109.07 547.57 104.36 541.21 101.58C534.86 98.8 528.9 97.4099 523.34 97.4099C515.66 97.4099 509.37 99.5299 504.48 103.76C499.58 108 497.13 113.29 497.13 119.64C497.13 124.41 498.85 129.51 502.29 134.93C505.73 140.36 511.55 145.72 519.76 151.01C530.88 157.9 542.66 164.58 555.1 171.06C567.54 177.55 579.45 184.63 590.84 192.31C597.72 197.08 602.82 202.77 606.13 209.39C609.44 216.01 611.09 223.03 611.09 230.44C611.09 245 605.53 257.84 594.41 268.96C585.93 277.96 574.88 285.31 561.25 291C547.61 296.7 532.46 299.54 515.78 299.54H513C497.91 299.01 484.01 296.1 471.3 290.8C458.59 285.51 447.47 280.21 437.94 274.92L447.07 207.81H454.62L454.63 207.83Z" fill="white"/>
<path d="M842.22 268.19C840.36 270.84 838.31 273.42 836.06 275.93C833.81 278.45 831.62 280.76 829.51 282.88C825.27 286.85 819.64 289.9 812.63 292.01C805.61 294.13 798.26 295.19 790.59 295.19C785.03 295.19 779.6 294.59 774.31 293.4C769.01 292.21 764.31 290.29 760.21 287.64C756.1 285 752.79 281.68 750.28 277.71C747.76 273.74 746.51 268.97 746.51 263.41V253.88C742.01 260.77 736.71 267.05 730.63 272.74C724.54 278.44 717.66 283.13 709.98 286.84C699.65 291.61 689.19 293.99 678.61 293.99C671.46 293.99 664.71 292.94 658.36 290.81C652.01 288.69 646.38 285.52 641.48 281.28C636.58 277.05 632.61 271.89 629.57 265.79C626.53 259.7 625 252.69 625 244.74C625 238.92 625.99 233.02 627.98 227.07C629.97 221.11 633.01 215.55 637.11 210.39C641.22 205.23 646.37 200.46 652.6 196.09C658.82 191.72 666.3 188.22 675.04 185.57C682.19 183.45 689.6 181.6 697.28 180.01C704.95 178.42 712.17 176.57 718.92 174.45C725.67 172.33 731.49 169.55 736.39 166.11C741.29 162.67 744.66 157.91 746.52 151.81V147.44C746.52 132.35 744.27 121.57 739.77 115.08C735.26 108.6 730.1 105.35 724.28 105.35C717.93 105.35 711.83 108.53 706.01 114.88C700.18 121.23 696.88 129.44 696.08 139.5V141.88C696.08 145.32 696.61 149.23 697.67 153.6C698.72 157.97 700.58 160.95 703.23 162.53C700.31 166.24 696.21 169.08 690.92 171.07C685.62 173.06 679.93 174.05 673.84 174.05C669.34 174.05 664.9 173.45 660.54 172.26C656.17 171.07 652.26 169.22 648.82 166.7C645.38 164.19 642.6 160.88 640.48 156.77C638.36 152.67 637.3 147.7 637.3 141.88C637.3 133.41 639.68 125.73 644.45 118.85C649.22 111.97 655.5 106.08 663.31 101.18C671.12 96.2796 679.99 92.5096 689.92 89.8596C699.85 87.2196 710.1 85.8896 720.7 85.8896H723.88C734.73 86.1596 745.39 87.5496 755.85 90.0596C766.31 92.5796 775.57 96.6096 783.65 102.17C791.72 107.73 798.28 114.95 803.31 123.81C808.34 132.68 810.85 143.6 810.85 156.57V261.81C810.85 265.52 811.84 268.16 813.83 269.75C815.82 271.34 818.13 272.13 820.78 272.13C823.69 272.13 826.67 271.34 829.72 269.75C832.76 268.16 835.21 265.91 837.07 263L842.23 268.16L842.22 268.19ZM728.64 255.88C731.82 254.03 734.99 251.51 738.17 248.33C741.35 245.15 744.13 241.05 746.51 236.02V171.69C738.3 176.99 729.63 183.21 720.5 190.35C711.37 197.49 703.75 205.31 697.67 213.78C692.64 221.19 690.12 228.61 690.12 236.02C690.12 242.91 692.17 248.73 696.28 253.49C700.38 258.26 705.87 260.64 712.76 260.64C717.79 260.64 723.09 259.05 728.64 255.87V255.88Z" fill="white"/>
<path d="M920.05 263.82C920.05 270.97 921.7 276.6 925.01 280.7C928.32 284.81 931.56 286.86 934.74 286.86V294.01H840.62V286.86C844.06 286.86 847.44 284.61 850.75 280.11C854.06 275.61 855.71 269.52 855.71 261.84V133.97C855.71 126.29 854.12 120.27 850.94 115.9C847.76 111.53 844.46 109.35 841.01 109.35V102.2C853.99 102.2 867.22 100.61 880.72 97.4305C894.22 94.2505 905.34 90.2805 914.08 85.5205L920.04 89.8905V263.83L920.05 263.82ZM886.09 70.0305C880.82 70.0305 875.95 69.1105 871.48 67.2505C867 65.4005 863.12 62.8805 859.83 59.7005C856.55 56.5205 853.91 52.8204 851.93 48.5804C849.96 44.3504 848.97 39.8404 848.97 35.0804C848.97 30.3204 849.96 25.7505 851.93 21.3805C853.91 17.0105 856.55 13.2405 859.83 10.0605C863.12 6.88046 867 4.37047 871.48 2.51047C875.95 0.660468 880.83 -0.269531 886.09 -0.269531C896.09 -0.269531 904.59 3.17046 911.57 10.0605C918.54 16.9505 922.04 25.2904 922.04 35.0804C922.04 39.8504 921.12 44.3504 919.27 48.5804C917.43 52.8204 914.86 56.5205 911.57 59.7005C908.28 62.8805 904.46 65.4005 900.12 67.2505C895.78 69.1105 891.1 70.0305 886.1 70.0305H886.09Z" fill="white"/>
<path d="M968.89 207.83C971.53 213.39 974.31 219.15 977.23 225.1C980.14 231.06 983.25 236.88 986.56 242.57C989.87 248.27 993.51 253.63 997.48 258.65C1001.45 263.68 1005.82 267.92 1010.59 271.36C1015.62 275.07 1020.72 277.78 1025.88 279.5C1031.04 281.23 1036.14 282.08 1041.17 282.08C1049.64 282.08 1056.72 280.03 1062.42 275.92C1068.11 271.82 1070.96 266.59 1070.96 260.23C1070.96 255.73 1069.1 250.9 1065.4 245.73C1061.69 240.57 1055.6 235.47 1047.13 230.44C1039.45 225.41 1030.38 220.45 1019.93 215.55C1009.47 210.65 999.48 205.09 989.95 198.87C980.42 192.65 972.28 185.5 965.53 177.43C958.78 169.36 955.4 159.76 955.4 148.64C955.4 139.38 957.58 130.77 961.95 122.83C966.32 114.89 972.34 108.07 980.02 102.38C987.7 96.6899 996.96 92.1899 1007.82 88.8799C1018.67 85.5699 1030.59 83.9199 1043.56 83.9199H1046.34C1053.75 83.9199 1060.44 84.5799 1066.39 85.9099C1072.35 87.2399 1077.91 89.02 1083.07 91.27C1088.23 93.52 1093.2 96.0999 1097.96 99.0099C1102.72 101.93 1107.75 105.1 1113.05 108.54L1107.89 156.19H1100.74C1097.3 149.58 1093.39 142.63 1089.03 135.34C1084.66 128.06 1079.7 121.51 1074.14 115.68C1068.05 109.07 1061.83 104.36 1055.47 101.58C1049.12 98.8 1043.16 97.4099 1037.6 97.4099C1029.92 97.4099 1023.63 99.5299 1018.74 103.76C1013.84 108 1011.39 113.29 1011.39 119.64C1011.39 124.41 1013.11 129.51 1016.55 134.93C1019.99 140.36 1025.81 145.72 1034.02 151.01C1045.14 157.9 1056.92 164.58 1069.36 171.06C1081.8 177.55 1093.71 184.63 1105.1 192.31C1111.98 197.08 1117.08 202.77 1120.39 209.39C1123.7 216.01 1125.35 223.03 1125.35 230.44C1125.35 245 1119.79 257.84 1108.67 268.96C1100.19 277.96 1089.14 285.31 1075.51 291C1061.87 296.7 1046.72 299.54 1030.04 299.54H1027.26C1012.17 299.01 998.27 296.1 985.56 290.8C972.85 285.51 961.73 280.21 952.2 274.92L961.33 207.81H968.88L968.89 207.83Z" fill="white"/>
<path d="M409.85 549.5C411.89 553.8 414.04 558.25 416.3 562.85C418.55 567.45 420.95 571.96 423.51 576.36C426.07 580.76 428.88 584.91 431.95 588.79C435.02 592.68 438.4 595.96 442.08 598.61C445.97 601.48 449.91 603.57 453.9 604.9C457.89 606.23 461.83 606.9 465.72 606.9C472.27 606.9 477.74 605.32 482.14 602.14C486.54 598.97 488.74 594.93 488.74 590.01C488.74 586.53 487.31 582.8 484.44 578.8C481.57 574.81 476.87 570.87 470.32 566.98C464.38 563.09 457.37 559.26 449.29 555.47C441.2 551.69 433.48 547.39 426.11 542.58C418.74 537.77 412.45 532.25 407.23 526C402.01 519.76 399.4 512.34 399.4 503.74C399.4 496.58 401.09 489.93 404.47 483.78C407.85 477.64 412.5 472.37 418.44 467.97C424.37 463.57 431.54 460.09 439.93 457.53C448.32 454.97 457.53 453.69 467.56 453.69H469.71C475.44 453.69 480.61 454.2 485.21 455.22C489.82 456.25 494.11 457.63 498.11 459.36C502.1 461.1 505.94 463.1 509.62 465.35C513.3 467.6 517.19 470.06 521.29 472.72L517.3 509.56H511.77C509.11 504.45 506.09 499.07 502.71 493.44C499.33 487.81 495.5 482.75 491.2 478.24C486.49 473.13 481.68 469.49 476.77 467.34C471.86 465.19 467.25 464.12 462.96 464.12C457.02 464.12 452.16 465.76 448.38 469.03C444.59 472.31 442.7 476.4 442.7 481.31C442.7 484.99 444.03 488.94 446.69 493.13C449.35 497.33 453.85 501.47 460.2 505.56C468.8 510.88 477.9 516.05 487.52 521.06C497.14 526.08 506.35 531.55 515.15 537.48C520.47 541.16 524.41 545.57 526.97 550.68C529.53 555.8 530.81 561.22 530.81 566.95C530.81 578.21 526.51 588.13 517.92 596.73C511.37 603.69 502.82 609.37 492.28 613.77C481.74 618.17 470.02 620.37 457.13 620.37H454.98C443.31 619.96 432.57 617.71 422.74 613.62C412.92 609.53 404.32 605.44 396.95 601.34L404.01 549.46H409.84L409.85 549.5Z" fill="white"/>
<path d="M699.82 600.93C702.38 604.31 704.99 606 707.65 606V611.53H703.05C693.6 611.53 684.04 612.45 674.36 614.29C664.68 616.13 656.75 618.79 650.58 622.27L645.95 618.59L646.15 592.49C639.94 602.31 632.5 609.48 623.81 613.98C615.12 618.48 606.44 620.73 597.75 620.73C591.45 620.73 585.39 619.55 579.6 617.2C573.8 614.85 568.67 611.42 564.19 606.91C559.71 602.41 556.15 596.83 553.51 590.18C550.87 583.53 549.55 575.8 549.55 567V489.94C549.55 484.62 548.27 480.53 545.71 477.66C543.15 474.8 540.64 473.36 538.19 473.36V467.83C548.41 467.83 558.65 466.6 568.92 464.15C579.19 461.69 587.89 458.62 595.01 454.94L599.28 458.32V569.46C599.28 578.88 601.03 585.53 604.53 589.42C608.03 593.31 612.25 595.25 617.2 595.25C620.5 595.25 623.9 594.48 627.4 592.95C630.9 591.41 634.04 589.42 636.83 586.96C639.61 584.5 641.88 581.64 643.63 578.36C645.38 575.09 646.26 571.71 646.26 568.23V491.78C646.26 485.85 644.98 481.29 642.42 478.12C639.86 474.95 637.25 473.36 634.59 473.36V467.83C644.84 467.83 655.11 466.6 665.41 464.15C675.7 461.69 684.46 458.62 691.66 454.94L695.99 458.32V586.96C695.99 592.9 697.27 597.55 699.83 600.93H699.82Z" fill="white"/>
<path d="M866.37 506.52C866.37 507.34 866.42 508.01 866.52 508.52C866.62 509.03 866.67 509.59 866.67 510.21C866.67 514.71 865.85 518.65 864.21 522.03C862.57 525.41 860.42 528.28 857.76 530.63C855.1 532.99 852.08 534.73 848.7 535.85C845.32 536.98 841.79 537.54 838.11 537.54C832.58 537.54 827.31 536.31 822.3 533.86C817.28 531.4 813.14 527.83 809.87 523.11C812.73 520.65 815.14 517.43 817.08 513.44C819.02 509.45 820.3 505.2 820.92 500.7C821.12 499.27 821.27 497.99 821.38 496.86C821.48 495.74 821.53 494.56 821.53 493.33C821.53 484.73 819.43 478.13 815.24 473.53C811.04 468.93 806.08 466.62 800.35 466.62C795.03 466.62 789.76 468.77 784.54 473.07C779.32 477.37 775.28 484.43 772.41 494.25C769.75 502.23 768.42 511.03 768.42 520.65C768.42 529.04 769.54 537.28 771.8 545.36C774.05 553.45 777.43 560.71 781.93 567.16C786.43 573.61 792.16 578.78 799.12 582.66C806.08 586.55 814.26 588.49 823.68 588.49H828.28C829.71 588.49 831.25 588.29 832.89 587.88C839.85 586.86 846.24 584.56 852.08 580.97C857.91 577.39 862.57 572.43 866.05 566.08L871.58 567.92C868.51 575.49 864.52 582.4 859.61 588.64C854.7 594.89 849.02 600.26 842.57 604.76C836.12 609.26 829.11 612.79 821.54 615.35C813.97 617.91 805.98 619.19 797.59 619.19C786.54 619.19 776.15 617.04 766.43 612.74C756.71 608.44 748.21 602.61 740.95 595.24C733.68 587.87 727.95 579.28 723.76 569.45C719.57 559.63 717.47 549.09 717.47 537.83C717.47 531.69 718.14 525.76 719.47 520.02C720.8 514.29 722.59 508.77 724.84 503.44C728.52 495.46 732.98 488.55 738.19 482.72C743.41 476.89 749.19 472.03 755.54 468.14C761.88 464.25 768.64 461.34 775.8 459.39C782.96 457.45 790.23 456.37 797.6 456.17H799.44C807.83 456.17 815.91 457.5 823.69 460.16C831.47 462.82 838.37 466.45 844.41 471.06C850.44 475.66 855.46 480.99 859.45 487.02C863.44 493.06 865.74 499.56 866.36 506.52H866.37Z" fill="white"/>
<path d="M993.47 587.88C1001.65 586.86 1008.61 584.2 1014.35 579.9C1020.08 575.6 1024.48 570.9 1027.55 565.78L1033.08 567.62C1030.01 574.99 1026.17 581.8 1021.57 588.04C1016.97 594.29 1011.49 599.71 1005.15 604.31C998.8 608.91 991.8 612.55 984.12 615.21C976.44 617.87 968 619.2 958.79 619.2C947.74 619.2 937.35 617.05 927.63 612.75C917.91 608.45 909.41 602.57 902.15 595.1C894.89 587.63 889.15 578.98 884.96 569.16C880.77 559.34 878.67 548.9 878.67 537.84C878.67 526.78 880.77 516.35 884.96 506.52C889.16 496.7 894.89 488.05 902.15 480.58C909.41 473.11 917.91 467.18 927.63 462.77C937.35 458.37 947.74 456.17 958.79 456.17C969.84 456.17 980.07 458.37 989.49 462.77C998.9 467.17 1006.99 473.11 1013.74 480.58C1020.49 488.05 1025.81 496.7 1029.7 506.52C1033.59 516.34 1035.53 526.78 1035.53 537.84H931.15C932.38 544.59 934.42 551.04 937.29 557.18C940.15 563.32 943.79 568.69 948.19 573.3C952.59 577.9 957.91 581.59 964.15 584.35C970.39 587.11 977.61 588.49 985.79 588.49C987.02 588.49 988.25 588.44 989.47 588.34C990.7 588.24 992.03 588.08 993.46 587.88H993.47ZM985.18 527.4C981.7 508.16 976.79 494.2 970.44 485.49C964.09 476.79 957.65 472.44 951.1 472.44C944.96 472.44 939.63 476.08 935.14 483.34C930.64 490.61 928.39 500.99 928.39 514.5C928.39 518.6 928.7 522.9 929.31 527.39H985.19L985.18 527.4Z" fill="white"/>
<path d="M1058.55 549.5C1060.59 553.8 1062.74 558.25 1065 562.85C1067.25 567.45 1069.65 571.96 1072.21 576.36C1074.77 580.76 1077.58 584.91 1080.65 588.79C1083.72 592.68 1087.1 595.96 1090.78 598.61C1094.67 601.48 1098.61 603.57 1102.6 604.9C1106.59 606.23 1110.53 606.9 1114.42 606.9C1120.97 606.9 1126.44 605.32 1130.84 602.14C1135.24 598.97 1137.44 594.93 1137.44 590.01C1137.44 586.53 1136.01 582.8 1133.14 578.8C1130.27 574.81 1125.57 570.87 1119.02 566.98C1113.08 563.09 1106.07 559.26 1097.99 555.47C1089.9 551.69 1082.18 547.39 1074.81 542.58C1067.44 537.77 1061.15 532.25 1055.93 526C1050.71 519.76 1048.1 512.34 1048.1 503.74C1048.1 496.58 1049.79 489.93 1053.17 483.78C1056.55 477.64 1061.2 472.37 1067.14 467.97C1073.07 463.57 1080.24 460.09 1088.63 457.53C1097.02 454.97 1106.23 453.69 1116.26 453.69H1118.41C1124.14 453.69 1129.31 454.2 1133.91 455.22C1138.52 456.25 1142.81 457.63 1146.81 459.36C1150.8 461.1 1154.64 463.1 1158.32 465.35C1162 467.6 1165.89 470.06 1169.99 472.72L1166 509.56H1160.47C1157.81 504.45 1154.79 499.07 1151.41 493.44C1148.03 487.81 1144.2 482.75 1139.9 478.24C1135.19 473.13 1130.38 469.49 1125.47 467.34C1120.56 465.19 1115.95 464.12 1111.66 464.12C1105.72 464.12 1100.86 465.76 1097.08 469.03C1093.29 472.31 1091.4 476.4 1091.4 481.31C1091.4 484.99 1092.73 488.94 1095.39 493.13C1098.05 497.33 1102.55 501.47 1108.9 505.56C1117.5 510.88 1126.6 516.05 1136.22 521.06C1145.84 526.08 1155.05 531.55 1163.85 537.48C1169.17 541.16 1173.11 545.57 1175.67 550.68C1178.23 555.8 1179.51 561.22 1179.51 566.95C1179.51 578.21 1175.21 588.13 1166.62 596.73C1160.07 603.69 1151.52 609.37 1140.98 613.77C1130.44 618.17 1118.72 620.37 1105.83 620.37H1103.68C1092.01 619.96 1081.27 617.71 1071.44 613.62C1061.62 609.53 1053.02 605.44 1045.65 601.34L1052.71 549.46H1058.54L1058.55 549.5Z" fill="white"/>
<path d="M1204.07 549.5C1206.11 553.8 1208.26 558.25 1210.52 562.85C1212.77 567.45 1215.17 571.96 1217.73 576.36C1220.29 580.76 1223.1 584.91 1226.17 588.79C1229.24 592.68 1232.62 595.96 1236.3 598.61C1240.19 601.48 1244.13 603.57 1248.12 604.9C1252.11 606.23 1256.05 606.9 1259.94 606.9C1266.49 606.9 1271.96 605.32 1276.36 602.14C1280.76 598.97 1282.96 594.93 1282.96 590.01C1282.96 586.53 1281.53 582.8 1278.66 578.8C1275.79 574.81 1271.09 570.87 1264.54 566.98C1258.6 563.09 1251.59 559.26 1243.51 555.47C1235.42 551.69 1227.7 547.39 1220.33 542.58C1212.96 537.77 1206.67 532.25 1201.45 526C1196.23 519.76 1193.62 512.34 1193.62 503.74C1193.62 496.58 1195.31 489.93 1198.69 483.78C1202.07 477.64 1206.72 472.37 1212.66 467.97C1218.59 463.57 1225.76 460.09 1234.15 457.53C1242.54 454.97 1251.75 453.69 1261.78 453.69H1263.93C1269.66 453.69 1274.83 454.2 1279.43 455.22C1284.04 456.25 1288.33 457.63 1292.33 459.36C1296.32 461.1 1300.16 463.1 1303.84 465.35C1307.52 467.6 1311.41 470.06 1315.51 472.72L1311.52 509.56H1305.99C1303.33 504.45 1300.31 499.07 1296.93 493.44C1293.55 487.81 1289.72 482.75 1285.42 478.24C1280.71 473.13 1275.9 469.49 1270.99 467.34C1266.08 465.19 1261.47 464.12 1257.18 464.12C1251.24 464.12 1246.38 465.76 1242.6 469.03C1238.81 472.31 1236.92 476.4 1236.92 481.31C1236.92 484.99 1238.25 488.94 1240.91 493.13C1243.57 497.33 1248.07 501.47 1254.42 505.56C1263.02 510.88 1272.12 516.05 1281.74 521.06C1291.36 526.08 1300.57 531.55 1309.37 537.48C1314.69 541.16 1318.63 545.57 1321.19 550.68C1323.75 555.8 1325.03 561.22 1325.03 566.95C1325.03 578.21 1320.73 588.13 1312.14 596.73C1305.59 603.69 1297.04 609.37 1286.5 613.77C1275.96 618.17 1264.24 620.37 1251.35 620.37H1249.2C1237.53 619.96 1226.79 617.71 1216.96 613.62C1207.14 609.53 1198.54 605.44 1191.17 601.34L1198.23 549.46H1204.06L1204.07 549.5Z" fill="white"/>
<path d="M1414.06 456.48C1425.11 456.48 1435.55 458.581 1445.38 462.771C1455.2 466.971 1463.75 472.75 1471.01 480.12C1478.27 487.49 1484.01 496.08 1488.2 505.91C1492.39 515.73 1494.49 526.17 1494.49 537.23C1494.49 548.29 1492.39 558.671 1488.2 568.391C1484 578.111 1478.27 586.661 1471.01 594.021C1463.74 601.391 1455.2 607.17 1445.38 611.37C1435.56 615.57 1425.12 617.661 1414.06 617.661C1403 617.661 1392.57 615.56 1382.74 611.37C1372.92 607.18 1364.37 601.391 1357.11 594.021C1349.84 586.651 1344.11 578.111 1339.92 568.391C1335.73 558.671 1333.63 548.28 1333.63 537.23C1333.63 526.18 1335.73 515.74 1339.92 505.91C1344.12 496.09 1349.85 487.49 1357.11 480.12C1364.37 472.75 1372.92 466.971 1382.74 462.771C1392.56 458.581 1403 456.48 1414.06 456.48ZM1414.06 469.37C1410.38 469.37 1406.89 471.211 1403.62 474.891C1400.34 478.561 1397.48 483.571 1395.02 489.901C1392.56 496.231 1390.62 503.69 1389.19 512.26C1387.76 520.84 1387.04 529.931 1387.04 539.521C1387.04 549.111 1387.76 558.521 1389.19 567.091C1390.62 575.671 1392.57 583.12 1395.02 589.45C1397.48 595.78 1400.34 600.79 1403.62 604.46C1406.89 608.13 1410.37 609.97 1414.06 609.97C1417.75 609.97 1421.22 608.13 1424.5 604.46C1427.77 600.78 1430.64 595.78 1433.1 589.45C1435.56 583.12 1437.5 575.661 1438.93 567.091C1440.36 558.511 1441.08 549.321 1441.08 539.521C1441.08 529.721 1440.36 520.84 1438.93 512.26C1437.5 503.68 1435.55 496.231 1433.1 489.901C1430.64 483.571 1427.78 478.561 1424.5 474.891C1421.22 471.211 1417.75 469.37 1414.06 469.37Z" fill="white"/>
<path d="M1122.47 356.14C1122.47 356.14 1122.46 356.2 1122.46 356.14V356.11C1122.46 356.11 1122.47 356.12 1122.47 356.14Z" fill="white"/>
<path d="M1209.23 357.9H1209.24C1209.24 357.9 1209.27 357.93 1209.28 357.93C1209.27 357.9 1209.24 357.9 1209.22 357.9H1209.23Z" fill="white"/>
<path d="M147.33 544.31C145.47 544.36 143.7 543.86 142.17 542.98C139.92 541.69 138.16 539.53 137.49 536.89C136.62 533.39 135 527.94 132.84 521.62C128.24 508 121.07 490.5 112.83 480.18C112.17 479.33 111.44 478.52 110.74 477.74C98.55 464.64 61.82 455.24 48.68 452.69C44.14 451.82 40.83 447.93 40.67 443.29V443.25C40.54 438.67 43.6 434.58 48.04 433.38C60.55 430.15 95.59 418.4 107.42 403.39C107.54 403.23 107.66 403.06 107.76 402.9C125.37 380.28 132.21 344.97 132.27 344.61C133.14 340 137.08 336.65 141.76 336.56C146.43 336.47 150.56 339.65 151.64 344.17C151.72 344.56 160.51 381.15 179.34 402.11C179.74 402.52 180.11 402.96 180.53 403.37C198.91 422.71 239.32 427.99 239.73 428.07C240.92 428.23 242.08 428.59 243.12 429.13C246.14 430.7 248.19 433.74 248.41 437.26V437.61C248.52 441.26 246.62 444.55 243.62 446.3C242.8 446.84 241.91 447.21 240.92 447.47C228.8 450.54 194.77 461.67 182.86 476.57L182.74 476.7C164.52 499.83 156.84 536.04 156.76 536.41C155.82 540.9 151.9 544.18 147.32 544.3L147.33 544.31Z" fill="white"/>
<path d="M271.81 610.96C275.44 610.85 278.53 608.25 279.27 604.69C279.3 604.6 280.42 599.23 282.87 592.2C285.29 585.17 289.04 576.47 294.35 569.73C301.05 561.19 321.43 554.47 328.06 552.8C331.61 551.91 334.08 548.64 333.97 544.98C333.97 544.92 333.97 544.82 333.93 544.73C333.69 540.95 330.81 537.9 327.07 537.45C320.5 536.65 301.51 532.55 292.77 523.38C283.23 513.39 277.32 495.11 275.84 488.89C274.98 485.28 271.71 482.78 268.01 482.86C264.32 482.97 261.17 485.64 260.5 489.29C260.47 489.48 256.47 510.47 246.15 523.66C240.17 531.27 221.84 538.37 211.7 541.05C208.16 541.97 205.75 545.21 205.86 548.84V548.9C206 552.53 208.63 555.62 212.23 556.29C222.91 558.32 242.2 564 248.38 570.59C255.89 578.64 262.22 598.25 264.02 605.12C264.94 608.63 268.18 611.07 271.81 610.96Z" fill="white"/>
<path d="M1266.12 282.92C1260.45 289.68 1254.64 296.33 1248.66 302.87C1254.36 296.11 1260.18 289.46 1266.12 282.92Z" fill="white"/>
<path d="M1272.32 289.12C1267.22 295.2 1261.95 301.17 1256.6 307.05C1261.75 301 1266.97 295.01 1272.32 289.12Z" fill="white"/>
<path d="M1394.14 363.47C1369.41 369.6 1343.02 372 1317.59 371C1313.22 370.82 1303.39 370.42 1294.7 368.41C1306.62 363.31 1323.79 351.77 1323.79 336.91C1323.79 319.48 1300.45 324.71 1291.18 329.92C1280.84 335.71 1266.25 347.6 1270.37 361.38C1270.88 363.09 1271.66 364.63 1272.64 366C1268.08 366.94 1263.5 367.62 1259.13 368.18C1248.34 369.54 1230.64 371.09 1223.64 360.47C1218.8 353.09 1229.36 341.47 1233.8 335.41C1239.09 328.19 1244.74 321.2 1250.49 314.31C1252.48 311.93 1254.47 309.56 1256.47 307.2C1256.51 307.14 1256.56 307.1 1256.6 307.05C1261.75 301 1266.97 295.01 1272.32 289.12C1275.9 284.86 1269.95 278.69 1266.12 282.92C1260.45 289.68 1254.64 296.33 1248.66 302.87C1240.08 312.32 1231.18 321.52 1222 330.39C1216.22 329.34 1210.27 328.62 1204.28 328.31C1204.21 328.3 1204.12 328.3 1204.03 328.3C1192.43 327.41 1180.85 327.83 1169.3 331.01C1152.09 335.75 1136.67 344.86 1121.13 353.35C1117.36 355.43 1113.5 357.36 1109.59 359.16C1104.44 361.54 1101.63 362.71 1096.22 364.78C1069.47 375.05 1041.25 381.25 1013.06 385.93C966.62 393.65 919.45 396.97 872.44 398.73C799.94 401.44 727.3 400.02 654.84 396.87C550.71 392.34 446.75 384 343.02 373.82C328 372.36 313.01 370.84 298.01 369.29C292.39 368.71 292.44 377.49 298.01 378.06C405.68 389.19 513.58 398.5 621.69 404.06C697.51 407.96 773.51 410.11 849.44 408.21C899.66 406.95 949.96 403.98 999.71 396.82C1030.16 392.43 1060.66 386.51 1089.79 376.43C1099.59 373.05 1109.24 369.16 1118.55 364.57C1125.26 361.27 1131.84 357.67 1138.42 354.19C1137.95 354.99 1137.54 355.83 1137.18 356.68C1132.81 366.71 1138.57 375.38 1148.54 378.41C1167.36 384.11 1187.8 370.88 1201.95 359.82C1206.32 356.4 1210.58 352.84 1214.73 349.17C1213.65 352.08 1213.09 355.05 1213.46 358.03C1215.57 375.18 1237.78 378.3 1251.34 377.64C1261.08 377.16 1271.54 375.68 1281.39 372.98C1285.85 375.19 1290.92 376.5 1295.3 377.38C1312.06 380.71 1329.61 380.38 1346.58 379.21C1363.31 378.07 1380.19 375.98 1396.48 371.93C1401.96 370.58 1399.64 362.12 1394.15 363.48L1394.14 363.47ZM1175.27 366.34C1167.31 369.85 1156.2 373.37 1148 368.71C1137.38 362.67 1152.99 349.36 1158.89 345.82C1172.55 337.67 1189.89 335.86 1206.31 337.15C1206.38 337.15 1206.46 337.15 1206.53 337.18C1208.97 337.43 1211.41 337.75 1213.84 338.09C1202.26 348.87 1189.86 359.91 1175.26 366.34H1175.27ZM1280.63 350.34C1284.52 343.83 1292.33 338.73 1299.1 335.7C1302.38 334.22 1311.5 330.99 1314.5 334.95C1316.69 337.86 1312.89 343.33 1311.28 345.51C1307.05 351.23 1301 355.56 1294.74 358.76C1290.95 360.7 1286.84 362.26 1282.57 363.53C1278.55 360.53 1277.04 356.31 1280.63 350.34Z" fill="white"/>
</g>
<defs>
<clipPath id="clip0_490_175">
<rect width="1500" height="619" fill="white"/>
</clipPath>
</defs>
</svg>
