<?xml version="1.0" encoding="UTF-8"?><svg id="_ícones" xmlns="http://www.w3.org/2000/svg" viewBox="0 0 1000 1000"><defs><style>.cls-1{fill:#010101;}</style></defs><g id="adicionar_imagem"><path class="cls-1" d="m980.69,843H19.32c-10.93,0-17.36-14.3-11.47-24.92.22-.4.47-.78.71-1.16,9.19-14.05,186.46-285.16,246.04-371.18,19-27.44,49.02-38.97,70.52-14.24l115.13,132.47c5.65,6.51,14.78,6.03,19.93-1.02l202.15-299.28c32.38-44.35,91.29-31.09,111.09,22.56,48.76,132.12,209.83,510.87,219.56,533.73.31.72.6,1.45.79,2.22,2.66,10.22-3.81,20.81-13.09,20.81Z"/><path class="cls-1" d="m486.31,332.19c-2.83,1.14-7.79,2.29-13.27,3.33-15.67,2.98-27.64,15.68-29.91,31.47-1.44,10.01-3.26,20.25-5.25,25.9-3.42,9.59-19.2,9.76-22.86.24-2.18-5.85-4.45-16.27-6.31-26.15-2.76-14.66-14-26.23-28.55-29.51-6.11-1.38-11.81-2.8-14.94-3.93-9.31-3.52-9.43-15.08-.19-18.75,2.87-1.15,8.02-2.39,13.68-3.55,15.43-3.16,27.22-15.62,29.52-31.2,1.48-10.06,3.37-20.44,5.47-26.19,3.35-9.51,19.13-9.67,22.74-.23,2.24,5.84,4.44,16.29,6.22,26.28,2.68,15.01,14.22,26.89,29.15,29.99,5.85,1.21,11.26,2.51,14.3,3.66,9.31,3.42,9.43,15.04.19,18.65Z"/><path class="cls-1" d="m538.02,235.3c-1.55.62-4.25,1.25-7.25,1.82-8.56,1.63-15.1,8.56-16.34,17.19-.79,5.47-1.78,11.06-2.87,14.15-1.87,5.24-10.49,5.33-12.49.13-1.19-3.19-2.43-8.89-3.44-14.28-1.51-8.01-7.65-14.33-15.59-16.12-3.34-.75-6.45-1.53-8.16-2.15-5.09-1.92-5.15-8.24-.11-10.24,1.57-.63,4.38-1.31,7.47-1.94,8.43-1.73,14.87-8.53,16.12-17.04.81-5.49,1.84-11.17,2.99-14.31,1.83-5.2,10.45-5.28,12.42-.13,1.22,3.19,2.43,8.9,3.4,14.35,1.46,8.2,7.77,14.69,15.92,16.38,3.2.66,6.15,1.37,7.81,2,5.09,1.87,5.15,8.21.11,10.19Z"/></g></svg>