<?xml version="1.0" encoding="UTF-8"?><svg id="_ícones" xmlns="http://www.w3.org/2000/svg" viewBox="0 0 1000 1000"><defs><style>.cls-1{fill:#010101;}</style></defs><g id="aniversário"><path class="cls-1" d="m409.17,615.63c-83.58-99.68-128.56-205.39-113.36-262.12l-152.66,299.63L6.24,921.85c-11.64,22.86,10.01,48.45,34.48,40.75l287.67-90.5s251.08-77.33,334.16-105.03c9.98-3.33-100.59,30.76-253.39-151.44Zm-52.62,97.98c-3.59,1.45-9.89,2.91-16.84,4.22-19.92,3.77-35.12,19.92-37.99,39.97-1.83,12.7-4.14,25.72-6.68,32.89-4.34,12.19-24.37,12.4-29.03.3-2.76-7.42-5.64-20.65-8-33.2-3.51-18.61-17.79-33.3-36.26-37.48-7.76-1.75-15-3.56-18.97-4.99-11.84-4.47-11.99-19.15-.25-23.81,3.64-1.46,10.18-3.04,17.37-4.52,19.59-4.01,34.57-19.84,37.49-39.62,1.88-12.77,4.27-25.95,6.93-33.27,4.26-12.07,24.29-12.29,28.9-.3,2.83,7.42,5.64,20.68,7.9,33.39,3.41,19.05,18.07,34.15,37.03,38.08,7.43,1.55,14.3,3.19,18.16,4.66,11.84,4.34,11.99,19.1.25,23.69Z"/><path class="cls-1" d="m715.24,721.88c-.38.33-.76.65-1.16.95-48.96,39.16-169.27-23.95-270.01-142.09-84.43-98.96-128.56-205.39-113.36-262.13,0,0,6.02-20.3,17.36-28.43,24.79-17.76,59.04-16.29,98,.35-4.06,7.13-8.55,13.95-13.41,20.43-.28.35-.71.89-.91,1.14l-.13.16c-.26.33-.52.66-.77,1-.07.09-.15.18-.22.27-1.32,1.64-2.69,3.28-4.06,4.87-2.64,3.06-5.39,6.05-8.2,8.91-4.77,4.85-10.14,9.68-16.38,14.72-.21.16-.42.32-.63.48-.46.36-1.02.8-1.35,1.05-.82.6-1.64,1.2-2.47,1.79-1.82,1.3-3.69,2.58-5.56,3.8-3.68,2.41-7.58,4.73-11.6,6.92-10.83,5.9-18.84,16.33-21.98,28.62-3.11,12.2-1.1,25.09,5.53,35.38,8.86,13.73,23.46,21.27,38.56,21.27,7.45,0,15.03-1.84,22.08-5.68,22.43-12.21,42.98-28.01,61.06-46.96,14.53-15.22,27.22-32.06,37.84-50.18,8.38,6.64,16.83,13.76,25.3,21.32-1.13,2.02-2.29,4-3.48,5.96-2.66,4.4-5.54,8.77-8.53,12.98-1.41,1.97-2.91,3.99-4.26,5.76-.3.39-.61.78-.93,1.18-.83,1.03-1.65,2.05-2.5,3.07-6.54,7.91-13.7,15.36-21.27,22.18-1.88,1.69-3.8,3.36-5.73,4.97-.94.79-1.88,1.56-2.84,2.33-.47.38-.94.76-1.39,1.1-.16.13-.39.3-.61.47-4.32,3.24-7.99,5.84-11.48,8.12-9.11,5.96-18.74,11.15-28.68,15.47-.6.24-1.2.49-1.8.73-3.93,1.57-15.86,6.37-23.68,19.72-6.44,11.01-8,24.65-4.18,36.48,3.78,11.68,11.5,21.09,21.75,26.5,7.05,3.73,14.63,5.62,22.02,5.62,2.64,0,5.25-.24,7.82-.73,2.56-.48,5.08-1.21,7.5-2.18,37.79-15.15,72.42-38.85,100.16-68.52,10-10.7,19.21-22.22,27.52-34.36,1.48,1.7,2.95,3.41,4.42,5.14,36.21,42.46,65.01,86.28,84.88,126.97-9.08,3.81-17.83,8.02-26.2,12.59-25.51,13.93-47.4,31.12-65.07,51.11-4.67,5.29-9.25,11.02-13.97,17.51-9,12.36-9.21,27.64-6.4,37.83,3.27,11.86,11.55,22.29,22.16,27.89,11.26,5.96,23.77,7.19,35.22,3.48,9.62-3.11,17.69-9.08,23.99-17.71.44-.6.87-1.2,1.3-1.77l.09-.13c.68-.85,1.41-1.76,2.13-2.64,1.76-2.12,3.64-4.23,5.55-6.27,3.8-4.05,7.96-7.98,12.34-11.69,1.05-.89,2.13-1.78,3.21-2.65.32-.26.65-.52.97-.77l.48-.38c2.29-1.73,4.69-3.44,7.12-5.08,4.77-3.23,9.86-6.33,15.12-9.2,3.63-1.98,7.42-3.9,11.35-5.72,5.45,34.29.1,61.5-17.67,76.67Z"/><g id="_."><path class="cls-1" d="m817.26,179.82c-4.75,1.91-13.09,3.85-22.29,5.59-26.36,4.99-46.46,26.36-50.27,52.89-2.42,16.81-5.48,34.04-8.84,43.52-5.74,16.13-32.25,16.41-38.41.4-3.65-9.81-7.46-27.33-10.58-43.94-4.64-24.62-23.54-44.07-47.98-49.59-10.27-2.31-19.84-4.71-25.1-6.6-15.66-5.92-15.86-25.35-.33-31.51,4.82-1.94,13.46-4.03,22.99-5.98,25.92-5.3,45.74-26.25,49.61-52.43,2.49-16.9,5.65-34.34,9.17-44.02,5.63-15.97,32.14-16.26,38.24-.4,3.74,9.81,7.46,27.37,10.45,44.18,4.51,25.21,23.91,45.19,48.99,50.38,9.83,2.05,18.92,4.22,24.02,6.16,15.66,5.74,15.86,25.28.33,31.35Z"/></g><circle class="cls-1" cx="871.2" cy="443.69" r="60.69"/><path class="cls-1" d="m395.5,147.71c-.6.96-1.23,1.89-1.89,2.81-1.3,1.83,2.05-2.43.57-.75-.37.42-.72.86-1.1,1.28-1.44,1.6-3,3.09-4.65,4.46s.77-.39.98-.73c-.24.38-.98.72-1.36.99-.92.64-1.87,1.25-2.84,1.83-1.94,1.15-3.96,2.15-6.04,3.03l2.98-1.26c-3.85,1.57-7.84,2.66-11.95,3.25l3.31-.45c-4.1.54-8.22.57-12.33.05l3.31.45c-3.73-.53-7.34-1.5-10.81-2.96l2.98,1.26c-2.6-1.14-5.09-2.52-7.41-4.17-.81-.57-2.18-1.97.71.59-.56-.5-1.17-.95-1.74-1.45-.99-.87-1.94-1.79-2.85-2.75s-1.72-2.01-2.6-3c2.76,3.09.85,1.11.25.25-.33-.47-.65-.94-.95-1.41-1.55-2.39-2.87-4.92-4-7.54l1.26,2.98c-1.61-3.87-2.73-7.88-3.32-12.02l.45,3.32c-.52-3.95-.55-7.91-.03-11.86-.15,1.11-.3,2.21-.45,3.32.53-3.66,1.53-7.19,2.94-10.61l-1.26,2.98c1.64-3.85,3.82-7.23,6.2-10.66-2.46,3.54-.26.4.48-.44s1.45-1.61,2.21-2.39c1.46-1.49,3-2.91,4.6-4.25.38-.32.77-.64,1.16-.95,1.56-1.28-2.05,1.54-.86.65.89-.66,1.79-1.32,2.7-1.96,1.76-1.22,3.57-2.36,5.42-3.44,3.82-2.23,7.8-4.17,11.87-5.89l-2.98,1.26c10.79-4.49,22.24-7.46,33.81-9.05l-3.31.45c9.53-1.25,19.16-1.45,28.71-.23-1.1-.15-2.21-.3-3.31-.45,7.73,1.05,15.26,3.03,22.46,6.06l-2.98-1.26c6,2.57,11.69,5.78,17.01,9.56.69.49,1.36.99,2.04,1.49,1.73,1.27-2.58-2.06-.03,0,1.15.93,2.28,1.88,3.39,2.85,2.46,2.17,4.82,4.45,7.07,6.84s4.29,4.98,6.44,7.48c-2.66-3.1-.58-.75-.02.01.38.51.75,1.03,1.13,1.55.99,1.38,1.95,2.79,2.87,4.21,3.81,5.87,7.03,12.07,9.77,18.5l-1.26-2.98c5.26,12.52,8.57,25.72,10.39,39.17l-.45-3.32c2.42,18.51,2.17,37.33-.27,55.82.15-1.11.3-2.21.45-3.32-2.75,20.43-8.24,40.42-16.21,59.42.42-.99.84-1.99,1.26-2.98-7.43,17.6-16.94,34.31-28.43,49.59-.59.79-2.99,3.76-.31.44-.78.97-1.53,1.95-2.31,2.92-1.56,1.93-3.15,3.84-4.77,5.72-3.1,3.6-6.32,7.1-9.65,10.49-6.53,6.64-13.5,12.75-20.78,18.55,3.51-2.79-.55.4-1.42,1.05-1,.74-2,1.47-3.01,2.19-2.19,1.56-4.41,3.08-6.66,4.55-4.51,2.95-9.14,5.71-13.88,8.29-5.74,3.12-8.05,11.52-4.47,17.06,3.75,5.82,10.93,7.81,17.06,4.47,19.59-10.67,37.56-24.62,52.96-40.75,15.51-16.25,28.79-34.83,39.14-54.77,10.35-19.94,18.19-41.33,22.76-63.33,4.85-23.36,6.61-47.63,3.99-71.38-2.89-26.17-10.51-52.38-26.35-73.77-14.76-19.93-34.91-35.91-59.19-42.31-13.49-3.55-27.8-4.27-41.62-2.58-13.03,1.59-25.9,4.44-38.06,9.45-22.12,9.11-43.87,24.88-49.75,49.45-5.72,23.9,5.3,50.13,26.13,63.06,9.73,6.04,21.94,8.78,33.32,7.55,12.71-1.37,24.08-5.98,33.95-14.13,4.34-3.58,8.01-8.08,10.97-12.84,3.45-5.55,1.37-13.98-4.47-17.06-6.11-3.23-13.38-1.45-17.06,4.47h0Z"/><path class="cls-1" d="m474.22,498.89c33.49-13.43,63.66-34.03,88.31-60.41,24.62-26.35,43.59-57.68,55.41-91.75,6.61-19.05,10.61-38.93,12.24-59.03.53-6.52-6.11-12.75-12.47-12.47-7.21.32-11.9,5.49-12.47,12.47-.31,3.84-.72,7.67-1.23,11.49.15-1.11.3-2.21.45-3.32-2.71,20.08-8.17,39.71-16,58.39.42-.99.84-1.99,1.26-2.98-4.61,10.92-10.01,21.51-16.15,31.65-3.1,5.12-6.39,10.12-9.86,14.99-1.7,2.4-3.46,4.75-5.24,7.1-.79,1.05,1.18-1.5,1.02-1.32-.26.3-.5.64-.75.96-.44.56-.88,1.12-1.32,1.67-.95,1.19-1.91,2.37-2.88,3.54-7.57,9.13-15.79,17.71-24.61,25.65-2.18,1.96-4.4,3.89-6.65,5.77-1.09.91-2.18,1.81-3.29,2.7-.55.44-1.11.89-1.66,1.33-.74.58-3.5,2.67-.11.1-4.69,3.54-9.44,6.97-14.35,10.19-11.19,7.32-23.01,13.64-35.32,18.86l2.98-1.26c-1.31.55-2.62,1.09-3.94,1.62-3.13,1.25-5.69,2.71-7.45,5.73-1.56,2.67-2.23,6.61-1.26,9.61s2.85,5.93,5.73,7.45c2.77,1.47,6.56,2.48,9.61,1.26h0Z"/><path class="cls-1" d="m686.04,422.69c14.14-16.42,29.8-31.5,46.71-45.05,1.01-.81,2.03-1.62,3.06-2.42.51-.4,1.03-.79,1.54-1.2-3.06,2.42-1.13.88-.46.37,2.24-1.71,4.5-3.39,6.77-5.05,4.38-3.18,8.83-6.27,13.35-9.26,9.04-5.98,18.34-11.55,27.86-16.72,10.67-5.79,21.63-11.04,32.81-15.78l-2.98,1.26c23.67-9.98,48.33-17.58,73.54-22.52,7.12-1.4,14.28-2.58,21.47-3.56-1.1.15-2.21.3-3.31.45,25.56-3.43,51.44-4.16,77.14-1.98,3.02.26,6.74-1.58,8.82-3.65,2.16-2.16,3.79-5.71,3.65-8.82-.32-7.23-5.49-11.88-12.47-12.47-22.35-1.89-44.85-1.61-67.15.77-23.2,2.48-46.16,6.88-68.54,13.5-22.43,6.63-44.3,15.36-65.19,25.85-20.04,10.07-39.17,21.93-57.06,35.46-18.58,14.05-35.97,29.54-51.59,46.83-1.89,2.09-3.75,4.21-5.59,6.35-2.19,2.54-3.65,5.37-3.65,8.82,0,3.06,1.36,6.71,3.65,8.82,4.67,4.29,13.09,5.28,17.64,0h0Z"/><path class="cls-1" d="m646.52,672.03c.53-.72,1.06-1.45,1.59-2.16.2-.27.41-.53.61-.8.92-1.24-1.68,2.14-.72.93,1.11-1.4,2.22-2.8,3.36-4.18,2.21-2.66,4.51-5.25,6.88-7.77,4.74-5.04,9.78-9.8,15.06-14.27,1.28-1.08,2.57-2.15,3.88-3.2.61-.49,1.23-.97,1.84-1.46,1.56-1.24-.84.64-.93.72.43-.35.89-.68,1.34-1.02,2.77-2.09,5.6-4.11,8.47-6.05,5.76-3.9,11.72-7.51,17.82-10.85,6.9-3.77,13.99-7.16,21.22-10.23-.99.42-1.99.84-2.98,1.26,26.4-11.12,54.46-17.65,82.79-21.46l-3.31.45c13.17-1.75,26.43-3,39.69-3.68,12.97-.67,26-.63,38.9,1.06l-3.31-.45c10.09,1.38,20,3.79,29.42,7.69l-2.98-1.26c5.76,2.43,11.28,5.39,16.48,8.87,1.39.93,2.75,1.89,4.08,2.88,2.61,1.94-1.71-1.4-.05-.05.49.39.98.78,1.46,1.18,2.49,2.05,4.89,4.23,7.18,6.51,2.21,2.21,4.32,4.52,6.33,6.92.47.56.92,1.13,1.38,1.7,1.36,1.66-1.99-2.66-.04-.05.94,1.25,1.84,2.53,2.72,3.82,3.57,5.27,6.61,10.86,9.11,16.71-.42-.99-.84-1.99-1.26-2.98,3.36,8,5.61,16.38,6.78,24.97l-.45-3.32c1.17,9.03,1.13,18.15-.08,27.17.15-1.11.3-2.21.45-3.32-1.21,8.55-3.46,16.89-6.76,24.87.42-.99.84-1.99,1.26-2.98-1.91,4.52-4.12,8.92-6.72,13.08-1.23,1.97-2.55,3.85-3.9,5.73s1.78-2.22.41-.52c-.4.49-.79.99-1.19,1.47-.74.89-1.5,1.76-2.27,2.62-1.55,1.71-3.17,3.35-4.87,4.91-.85.78-1.71,1.53-2.59,2.27-.47.39-.94.85-1.45,1.18.56-.35,2.42-1.83.79-.63-3.74,2.75-7.76,5.08-12.02,6.93l2.98-1.26c-4.37,1.84-8.92,3.13-13.62,3.76l3.31-.45c-4.04.49-8.09.45-12.13-.08,1.1.15,2.21.3,3.31.45-4.41-.64-8.68-1.84-12.8-3.55l2.98,1.26c-2.94-1.26-5.78-2.75-8.46-4.5-.73-.48-1.45-.97-2.16-1.48-.3-.21-.61-.53-.94-.69.17.09,2.42,1.93,1.15.88s-2.52-2.12-3.7-3.27c-1.11-1.08-2.18-2.2-3.19-3.37-.51-.58-.99-1.19-1.48-1.79-.93-1.14,1.87,2.53.72.91-.22-.32-.45-.63-.67-.94-1.87-2.7-3.45-5.57-4.76-8.58.42.99.84,1.99,1.26,2.98-1.57-3.74-2.64-7.62-3.2-11.64l.45,3.32c-.52-4.13-.5-8.27.03-12.4l-.45,3.32c.65-4.7,1.92-9.25,3.76-13.62-.42.99-.84,1.99-1.26,2.98,1.24-2.87,2.7-5.64,4.41-8.27.46-.72.94-1.42,1.44-2.11.21-.29.51-.6.67-.92-.07.15-1.95,2.45-.91,1.18,1.02-1.25,2.06-2.46,3.18-3.63,1.05-1.09,2.14-2.13,3.28-3.13.57-.5,1.15-.97,1.74-1.45,1.13-.93-2.55,1.89-.95.75.31-.22.61-.44.92-.66,2.63-1.84,5.43-3.39,8.37-4.68-.99.42-1.99.84-2.98,1.26,1.4-.59,2.82-1.11,4.26-1.58,6.2-1.98,10.84-8.75,8.71-15.34-2.01-6.22-8.69-10.84-15.34-8.71-21.81,6.97-39.13,26.69-43.05,49.34-1,5.77-1.52,11.56-.81,17.39.84,6.88,2.52,12.95,5.41,19.27,4.85,10.63,13.38,19.48,23.03,25.91s21.33,10.11,32.93,10.5c12.14.4,24.52-3.45,34.8-9.78,21.34-13.16,35.61-36.16,41.34-60.25,6.09-25.59,3.22-52.58-8.37-76.2-10.08-20.54-27.28-38.15-47.48-48.87-24.03-12.74-51.56-15.44-78.35-14.39-27.24,1.07-54.72,4.36-81.32,10.38-25.28,5.72-50.07,14.45-72.85,26.89-20.87,11.39-40.37,26.14-56.14,43.98-4.25,4.81-8.23,9.88-12.01,15.07-1.79,2.46-2.03,6.8-1.26,9.61.8,2.89,3.03,6.03,5.73,7.45,2.89,1.53,6.4,2.3,9.61,1.26,3.26-1.06,5.44-2.97,7.45-5.73h0Z"/></g></svg>