<?xml version="1.0" encoding="UTF-8"?><svg id="_ícones" xmlns="http://www.w3.org/2000/svg" viewBox="0 0 1000 1000"><defs><style>.cls-1{fill:#010101;}</style></defs><g id="calendário"><path class="cls-1" d="m878.98,195.46c-10.73-2-22-1.65-32.78,1.27-21.63,5.88-38.86,21.56-46.16,41.98-2.83,7.81-7.16,22.23-12.32,57.02,0,.05-.01.09-.02.14l-.06.4c-.26,1.78-.74,3.5-1.41,5.13H8.5v-93.78c0-36.41,29.79-66.2,66.2-66.2h124.12v-74.47c0-34.93,28.52-63.44,63.44-63.44,17.44,0,33.32,7.12,44.79,18.65,11.48,11.47,18.65,27.36,18.65,44.79v74.47h237.21v-74.47c0-34.93,28.51-63.44,63.44-63.44,17.43,0,33.32,7.12,44.79,18.65,11.47,11.47,18.65,27.36,18.65,44.79v74.47h124.12c32.26,0,59.32,23.38,65.07,54.04Z"/><path class="cls-1" d="m867.82,572.64c-7.85,0-15.73-1.24-23.27-3.77-19.35-6.49-34.54-20.87-41.69-39.43l-.17-.46c-2.82-7.55-7.32-21.59-13.83-56.15-1.63-8.64-8.27-15.47-16.92-17.42-20.46-4.6-28.84-7.31-33.35-8.94l-.63-.24c-26.19-9.91-43.26-33.83-43.48-60.94-.05-6.08.75-12.02,2.32-17.68H8.5v562.68c0,36.41,29.79,66.2,66.2,66.2h739.21c36.41,0,66.2-29.79,66.2-66.2v-358.67c-4.05.69-8.16,1.03-12.28,1.03Zm-596.41,271.86c0,23.94-19.59,43.47-43.53,43.47h-76.07c-23.94,0-43.52-19.53-43.52-43.47v-72.99c0-23.94,19.58-43.52,43.52-43.52h76.07c23.94,0,43.53,19.58,43.53,43.52v72.99Zm0-237.21c0,23.94-19.59,43.47-43.53,43.47h-76.07c-23.94,0-43.52-19.53-43.52-43.47v-72.99c0-23.94,19.58-43.53,43.52-43.53h76.07c23.94,0,43.53,19.59,43.53,43.53v72.99Zm245.48,237.21c0,23.94-19.58,43.47-43.52,43.47h-76.07c-23.94,0-43.52-19.53-43.52-43.47v-72.99c0-23.94,19.58-43.52,43.52-43.52h76.07c23.94,0,43.52,19.58,43.52,43.52v72.99Zm0-237.21c0,23.94-19.58,43.47-43.52,43.47h-76.07c-23.94,0-43.52-19.53-43.52-43.47v-72.99c0-23.94,19.58-43.53,43.52-43.53h76.07c23.94,0,43.52,19.59,43.52,43.53v72.99Zm245.49,237.21c0,23.94-19.58,43.47-43.53,43.47h-76.07c-23.94,0-43.52-19.53-43.52-43.47v-72.99c0-23.94,19.58-43.52,43.52-43.52h76.07c23.95,0,43.53,19.58,43.53,43.52v72.99Zm1.59-266.26c-3.92,1.6-10.78,3.15-18.37,4.59-21.68,4.13-38.24,21.68-41.34,43.56-2.01,13.83-4.54,28.02-7.28,35.81-4.74,13.27-26.58,13.52-31.64.36-3.04-8.11-6.14-22.56-8.72-36.18-3.82-20.29-19.36-36.34-39.49-40.82-8.46-1.91-16.36-3.87-20.69-5.48-12.9-4.85-13.06-20.85-.26-25.9,3.98-1.6,11.1-3.36,18.94-4.96,21.32-4.33,37.62-21.57,40.83-43.15,2.07-13.93,4.64-28.28,7.53-36.23,4.64-13.16,26.48-13.42,31.48-.31,3.1,8.05,6.14,22.5,8.62,36.34,3.71,20.75,19.66,37.21,40.35,41.49,8.11,1.65,15.54,3.46,19.77,5.06,12.9,4.75,13.06,20.8.26,25.8Z"/><path class="cls-1" d="m978.8,399.69c-5.24,2.11-14.42,4.24-24.56,6.17-29.02,5.51-51.18,29.02-55.39,58.26-2.66,18.52-6.03,37.49-9.72,47.96-1.55,4.35-4.47,7.65-8.1,9.89-11.19,6.94-29.1,3.85-34.23-9.46-4.04-10.82-8.23-30.12-11.68-48.41-5.1-27.13-25.92-48.56-52.85-54.63-11.32-2.55-21.87-5.18-27.66-7.28-17.24-6.52-17.47-27.92-.36-34.72,2.55-1.01,6.05-2.07,10.16-3.13,4.48-1.16,9.69-2.32,15.16-3.44,28.57-5.85,50.4-28.92,54.65-57.77.02-.11.03-.22.05-.33,2.74-18.51,6.22-37.58,10.07-48.16,5.1-14.49,25.78-17.27,36.68-8.05,2.35,1.98,4.25,4.51,5.43,7.62,4.14,10.81,8.22,30.16,11.52,48.65,4.97,27.8,26.33,49.8,53.98,55.53,10.84,2.24,20.84,4.64,26.48,6.78,17.24,6.33,17.46,27.85.36,34.53Z"/></g></svg>