<?xml version="1.0" encoding="UTF-8"?><svg id="_ícones" xmlns="http://www.w3.org/2000/svg" viewBox="0 0 1000 1000"><defs><style>.cls-1{fill:#010101;}</style></defs><g id="carrossel_para_direita"><path class="cls-1" d="m612.86,388.85c-5.35,2.03-14.9,4.18-25.41,6.16-28.63,5.38-50.81,28.06-55.53,56.81-3.04,18.55-6.84,37.71-10.89,48.28-6.49,17.49-35.67,17.31-42.08-.26-3.24-8.88-6.34-23.49-9.02-38.66-.59-3.36-1.15-6.76-1.7-10.12-.74-4.52-1.9-8.9-3.46-13.09-5.72-15.36-16.73-28.15-30.91-36.11-5.74-3.23-12-5.66-18.64-7.15-2.8-.63-5.54-1.27-8.16-1.9-7.5-1.82-14.04-3.65-18.18-5.3-17.12-6.61-16.99-28.1.2-34.5,5.26-2.02,14.47-4,24.64-5.76,3.87-.67,7.62-1.65,11.22-2.94,14.78-5.24,27.17-15.38,35.35-28.46,4.84-7.74,8.2-16.5,9.71-25.89,2.96-18.47,6.63-37.35,10.5-47.75,6.61-17.64,35.79-17.47,42.29.25,3.85,10.88,7.73,30.22,10.87,48.55,4.66,27.19,25.1,48.93,51.9,55.43,11.27,2.73,21.76,5.53,27.51,7.72,17.12,6.8,16.99,28.17-.21,34.69Z"/><path class="cls-1" d="m598.24,488.72c2.82-1.08,7.75-2.14,13.2-3.08,15.57-2.69,27.64-15.08,30.14-30.69,1.59-9.89,3.55-20,5.62-25.57,3.54-9.45,19.17-9.35,22.65.14,2.07,5.83,4.14,16.19,5.82,26,2.5,14.56,13.44,26.21,27.8,29.69,6.03,1.46,11.66,2.96,14.73,4.14,9.17,3.64,9.1,15.09-.11,18.58-2.86,1.09-7.98,2.24-13.61,3.3-15.33,2.88-27.22,15.03-29.74,30.43-1.63,9.94-3.67,20.2-5.84,25.86-3.47,9.37-19.1,9.27-22.53-.13-2.12-5.82-4.14-16.2-5.74-26.13-2.41-14.91-13.65-26.87-28.39-30.18-5.78-1.3-11.11-2.67-14.11-3.86-9.17-3.54-9.1-15.05.11-18.48Z"/><path class="cls-1" d="m849.45,706.98c-90.54,38.32-211.64,60.96-340.99,63.76-122.92,2.65-249.92-23.23-348.47-70.99C62.47,652.47,5.8,591.27,4.52,531.86c-.78-35.79,18.22-70.99,54.53-102.47,15.89-13.78,35.1-26.84,57.42-38.94,55.03-29.82,165.69-57.45,207.97-67.36,8.66-2.03,16.94,4.55,16.94,13.44h0c0,6.49-4.52,12.1-10.86,13.48-36.32,7.92-154.05,34.85-202.78,61.25-65.11,35.28-100.47,77.93-99.56,120.08,1.07,49.48,54.2,104.47,142.13,147.09,95.28,46.18,218.34,71.19,337.64,68.62,198.77-4.29,367.95-56.66,434.1-126.52-31.69,19.79-71.28,35.74-100.78,46.15-93.8,33.14-207.6,54.17-304.41,56.25-95.25,2.06-196.58-15-278-46.81-80.97-31.63-127.87-71.46-128.69-109.3-.67-31.66,27.79-61.12,82.31-85.22,42.77-18.9,99.82-33.99,165.24-43.27,7.11-1.01,13.36,4.74,12.93,11.9,0,.1-.01.19-.02.29-.33,5.41-4.43,9.82-9.8,10.56-64.8,8.9-116.88,23.65-158.79,42.17-43.8,19.36-68.66,42.35-68.22,63.06.57,26.57,45.18,61.03,113.64,87.77,78.63,30.71,176.62,47.19,268.88,45.19,94.43-2.02,205.47-22.55,297.03-54.9,96.23-34,138.85-69.74,138.41-90.08-.14-6.54,5.05-11.95,11.58-12.09,6.54-.14,11.95,5.04,12.09,11.58,0,.03,0,.07,0,.11,1.19,58.37-50.67,112.73-146.03,153.09Z"/><path class="cls-1" d="m311.68,400.94c0,2.92-1.98,5.46-4.81,6.18-28.85,7.3-154.75,40.72-194.68,81.8-19.66,20.21-29.45,42.27-29.1,65.58.05,3.27-2.56,5.95-5.83,6-3.27.05-5.95-2.56-6-5.82-.4-26.57,10.52-51.47,32.45-74.01,3.23-3.33,6.7-6.59,10.37-9.77,39.65-34.38,154.64-66.83,189.6-76.11,4.05-1.07,8.01,1.98,8.01,6.16h0Z"/></g></svg>