<?xml version="1.0" encoding="UTF-8"?><svg id="_ícones" xmlns="http://www.w3.org/2000/svg" viewBox="0 0 1000 1000"><defs><style>.cls-1{fill:#cc101d;}.cls-2{fill:#010101;}</style></defs><g id="notificação"><path class="cls-2" d="m787.59,828.99c0,33.71-24.33,61.82-56.36,67.7-.1.01-.19.04-.29.05-3.96.71-8.02,1.08-12.17,1.08h-161.5c-17.66,57.62-67.58,99.14-126.39,99.14s-108.71-41.52-126.37-99.14h-162.88c-37.96,0-68.82-30.86-68.82-68.82v-.44c.14-21.77,10.83-42.48,28.65-55.44,51.94-37.82,82.95-98.7,82.95-162.85v-.38c-.01-5.23-.23-10.52-.63-15.72-.03-.37-.05-.73-.1-1.1-.85-8.9-3.89-22.5-6.83-35.66-3.79-16.98-7.37-33.01-8.13-46.01-.12-1.96-.18-4-.19-6.12,0-.45-.01-.9-.01-1.38.07-26.74,7.75-64.19,19.27-92.57,19.33-47.67,52.05-88.29,94.62-117.5,33.11-22.73,70.53-37.31,109.87-43.01.42-.05.84-.12,1.26-.18.93-.14,1.85-.26,2.79-.38.6-.08,1.22-.16,1.82-.22,1.18-.15,2.36-.29,3.53-.41,1.47-.16,2.94-.31,4.42-.45,2.15-.19,4.3-.36,6.45-.49.97-.07,1.97-.14,2.94-.19-2.18,3.89-4.03,7.97-5.52,12.2-3.03,8.5-4.57,17.43-4.6,26.56-.07,33.66,21.07,63.7,53.88,76.52l1.27.48c11.08,4.09,28.11,8.82,53.5,14.83,27.88,6.6,49.1,28.97,54.06,57.02,7.71,43.48,14.8,73.93,21.7,93.07l.12.36c11.49,30.81,40.04,51.84,74.56,54.92,2.82.27,5.76.41,8.85.41,1.52,0,3.04-.04,4.56-.11-.53,3.05-.93,5.86-1.16,8.31-.04.38-.07.74-.1,1.1-.41,5.33-.63,10.75-.63,16.1,0,64.15,31.01,125.03,82.95,162.85,17.94,13.05,28.65,33.95,28.65,55.87Z"/><g id="_."><path class="cls-1" d="m927.19,270.38c0,21.21-13.19,39.41-34.41,47.47-9.42,3.65-24.62,7.33-46.42,11.22-42.81,7.64-76.08,41.93-82.8,85.31-6.37,41.09-12.69,70.42-18.81,87.15-6.43,17.46-21.98,30.21-41.56,34.1-4.17.82-8.42,1.24-12.67,1.24-2.15,0-4.12-.09-6-.27-22.6-1.97-41.21-15.4-48.53-35.02-6.23-17.27-13.07-46.89-20.36-88.03-7.11-40.16-37.45-72.2-77.31-81.64-24.24-5.74-40.72-10.3-50.4-13.93l-.24-.08c-21.19-8.29-34.33-26.59-34.29-47.78.01-5.6.96-11.08,2.82-16.28,3.38-9.57,9.73-17.91,18.38-24.1,4.01-2.89,8.46-5.27,13.23-7.09,9.46-3.66,25-7.55,47.51-11.9,42.18-8.17,75.04-42.14,81.76-84.57,6.55-41.42,13.14-71.07,19.53-88.11,7.79-21.21,28.95-34.98,53.9-35.05h.19c25.06,0,46.36,13.79,54.27,35.12,6.39,17.24,13.16,47.05,20.12,88.59,6.94,41.44,37.92,74.01,78.9,82.98,23.13,5.05,39.11,9.36,48.86,13.16,21.19,8.09,34.35,26.29,34.34,47.49Z"/></g></g></svg>