<?xml version="1.0" encoding="UTF-8"?><svg id="_ícones" xmlns="http://www.w3.org/2000/svg" viewBox="0 0 1000 1000"><defs><style>.cls-1{fill:#010101;}</style></defs><g id="editar_perfil"><g id="editar_perfil-2"><circle class="cls-1" cx="405.84" cy="250.67" r="223.12"/><path class="cls-1" d="m605.87,964.84H75.83c-26,0-46.66-21.97-44.96-47.91.01-.23.03-.47.04-.7,17.67-257.94,178.83-381.03,375.03-381.03,65.5,0,127.09,13.98,180.74,42.23l-19.77,19.72c-22.12,22.06-25.28,56.05-9.44,81.52-11.99,2.71-22.99,8.73-31.88,17.61-12.49,12.44-19.38,29-19.4,46.62l-.06,39.59c-.03,30.6,20.91,56.43,49.23,63.87-15.18,25.3-11.91,58.68,9.85,80.51l27.95,28.02c3.86,3.87,8.12,7.21,12.69,9.96Z"/></g><path class="cls-1" d="m944.5,715.29l-22.1-.03c-9.52-.01-17.7-5.49-21.33-14.29-3.64-8.8-1.7-18.45,5.04-25.18l16-15.96c9.66-9.64,9.68-25.34.04-35.01l-27.95-28.02c-9.63-9.66-25.34-9.69-35-.05l-18.41,18.36c-6.74,6.72-16.39,8.63-25.18,4.97l-.1-.04c-8.73-3.68-14.15-11.84-14.14-21.33l.04-26.91c.02-13.64-11.07-24.76-24.72-24.78l-39.58-.06c-6.6,0-12.83,2.56-17.51,7.22-4.68,4.68-7.26,10.89-7.27,17.5l-.03,22.37c-.01,9.52-5.49,17.69-14.29,21.33-8.81,3.63-18.45,1.7-25.18-5.04l-15.08-15.12c-4.67-4.68-10.88-7.26-17.49-7.27-6.62-.01-12.83,2.55-17.51,7.22l-7.56,7.54-20.46,20.41c-9.66,9.64-9.69,25.34-.05,35l17.48,17.52c6.72,6.74,8.63,16.4,4.97,25.19-3.66,8.8-11.84,14.25-21.37,14.23l-24.87-.03c-6.61,0-12.83,2.56-17.51,7.23-4.68,4.66-7.27,10.87-7.28,17.49l-.06,39.57c-.01,13.65,11.07,24.77,24.72,24.79l22.1.03c9.52.01,17.7,5.49,21.33,14.29,3.63,8.81,1.7,18.45-5.04,25.18l-16,15.96c-9.66,9.64-9.68,25.34-.05,35.01l27.95,28.02c9.64,9.66,25.34,9.68,35,.04l18.41-18.35c6.74-6.73,16.39-8.63,25.19-4.97l.1.04c8.74,3.68,14.16,11.84,14.14,21.32l-.04,26.91c-.01,6.61,2.55,12.83,7.22,17.51,2.31,2.31,5,4.12,7.92,5.35,2.61,1.1,5.41,1.74,8.3,1.89.42.02.85.03,1.27.03l39.58.05c6.61.01,12.83-2.56,17.51-7.22,4.68-4.67,7.26-10.88,7.28-17.5l.03-22.37c.01-9.52,5.49-17.69,14.29-21.32,8.8-3.63,18.45-1.7,25.18,5.04l15.08,15.11c4.67,4.68,10.88,7.26,17.49,7.28,6.61,0,12.83-2.56,17.51-7.23l28.02-27.95c4.68-4.66,7.27-10.88,7.28-17.49,0-6.61-2.56-12.83-7.23-17.51l-17.47-17.52c-6.72-6.74-8.63-16.39-4.97-25.19,3.66-8.8,11.84-14.25,21.37-14.23l24.87.03c6.61.01,12.83-2.55,17.51-7.22,4.68-4.67,7.26-10.88,7.28-17.49l.05-39.58c.02-13.64-11.07-24.77-24.72-24.78Zm-112.78,55.39c-3.43,1.36-9.43,2.71-16.06,3.93-18.98,3.49-33.55,18.76-36.41,37.85-1.81,12.09-4.08,24.46-6.54,31.29-.73,2.02-1.91,3.68-3.38,4.99-7.01,6.27-20.67,4.66-24.27-4.87-2.6-7.09-5.26-19.71-7.44-31.67-3.23-17.75-16.74-31.83-34.32-35.89-7.38-1.71-14.27-3.47-18.04-4.87-11.24-4.33-11.3-18.31-.1-22.68,3.48-1.37,9.72-2.83,16.58-4.2,10.39-2.07,19.44-7.62,25.93-15.37,5.18-6.19,8.72-13.79,10-22.15,1.86-12.15,4.22-24.71,6.8-31.65,4.12-11.48,23.21-11.56,27.51-.12,2.66,7.07,5.25,19.73,7.34,31.83,3.13,18.18,17.01,32.63,35.04,36.48,7.07,1.51,13.6,3.11,17.27,4.53,11.24,4.21,11.3,18.26.1,22.56Z"/></g></svg>