<?xml version="1.0" encoding="UTF-8"?><svg id="_ícones" xmlns="http://www.w3.org/2000/svg" viewBox="0 0 1000 1000"><g id="contato_carta"><path d="m993.76,276.02v15.77l-446.63,341.67c-7.7-9.03-13.07-20.08-15.24-32.27-3.26-18.26-7.3-37.38-11.38-48.05-6.61-17.26-35.46-16.97-41.58.43-3.83,10.51-7.3,29.51-10,47.89-1.92,13-7.45,24.82-15.58,34.37L6.24,303.77v-27.75c0-59.1,48.36-107.47,107.47-107.47h772.57c59.11,0,107.48,48.36,107.48,107.47Z"/><path d="m993.76,364.07v414.45c0,59.11-48.36,107.48-107.48,107.48H113.71c-59.1,0-107.47-48.36-107.47-107.48v-403.25l388.06,288.22c-1.66.52-3.14,1.02-4.37,1.52-16.9,6.71-16.67,27.84.35,34.28,5.71,2.08,16.14,4.67,27.32,7.19,26.6,6,47.15,27.16,52.2,53.96,3.4,18.05,7.54,37.11,11.53,47.81,6.7,17.41,35.55,17.11,41.8-.43,3.65-10.34,6.98-29.07,9.6-47.36,4.15-28.88,26.04-52.1,54.7-57.54,10.02-1.9,19.09-4,24.26-6.09,16.9-6.61,16.67-27.85-.35-34.1-1.55-.59-3.45-1.2-5.61-1.82l388.03-296.84Z"/></g></svg>