<?xml version="1.0" encoding="UTF-8"?><svg id="_ícones" xmlns="http://www.w3.org/2000/svg" viewBox="0 0 1000 1000"><g id="dados"><path d="m616.41,203.96c-58.94,0-108.21,41.39-120.26,96.7l-286.03,119.81c-20.42-15.05-45.64-23.92-72.96-23.92-68.04,0-123.17,55.14-123.17,123.17s55.14,123.17,123.17,123.17c12.45,0,24.46-1.84,35.74-5.29l243.3,215.57c-.9,5.91-1.34,11.96-1.34,18.14,0,68.04,55.14,123.17,123.17,123.17s123.17-55.14,123.17-123.17c0-36.24-15.63-68.8-40.53-91.33l44.57-339.78c43.76-18.86,74.35-62.39,74.35-113.09,0-68.04-55.14-123.17-123.17-123.17Zm-134.55,557.77l-228.16-202.18c4.21-12.14,6.49-25.13,6.58-38.65l264.89-110.99c8.2,9,17.65,16.75,28.13,23.02l-41.7,318.1c-10.48,2.28-20.47,5.87-29.74,10.7Z"/><path d="m915.59,166.36c-5.32,2.14-14.64,4.3-24.94,6.26-29.47,5.59-51.97,29.47-56.23,59.16-2.7,18.81-6.12,38.06-9.87,48.69-6.43,18.03-36.09,18.34-42.98.44-4.1-10.99-8.36-30.59-11.85-49.15-5.18-27.55-26.32-49.31-53.67-55.47-11.49-2.59-22.2-5.26-28.08-7.39-17.51-6.62-17.73-28.35-.36-35.25,5.4-2.15,15.07-4.49,25.72-6.67,29-5.94,51.17-29.36,55.49-58.65,2.78-18.9,6.33-38.43,10.28-49.24,6.3-17.88,35.96-18.19,42.76-.44,4.2,10.97,8.35,30.62,11.7,49.4,5.04,28.22,26.74,50.56,54.81,56.38,11,2.28,21.16,4.72,26.88,6.89,17.5,6.43,17.73,28.27.36,35.06Z"/><path d="m976.92,382.42c-3.75,1.51-10.32,3.04-17.59,4.41-20.78,3.95-36.65,20.78-39.66,41.72-1.91,13.27-4.32,26.85-6.96,34.34-4.53,12.72-25.45,12.94-30.31.31-2.89-7.75-5.9-21.57-8.36-34.67-3.66-19.43-18.56-34.78-37.85-39.12-8.1-1.82-15.66-3.71-19.81-5.21-12.35-4.67-12.5-19.99-.26-24.86,3.81-1.52,10.63-3.17,18.14-4.71,20.45-4.19,36.09-20.71,39.13-41.37,1.96-13.33,4.47-27.11,7.25-34.73,4.44-12.61,25.36-12.83,30.16-.31,2.96,7.74,5.89,21.59,8.25,34.84,3.55,19.9,18.86,35.66,38.65,39.76,7.76,1.61,14.93,3.33,18.96,4.86,12.35,4.53,12.5,19.94.26,24.73Z"/></g></svg>