<?xml version="1.0" encoding="UTF-8"?><svg id="_ícones" xmlns="http://www.w3.org/2000/svg" viewBox="0 0 1000 1000"><defs><style>.cls-1{fill:#010101;}</style></defs><g id="editar_página"><path class="cls-1" d="m537.48,297.12c-64.03,0-116.41-52.39-116.41-116.41V16.61H121.91C57.89,16.61,5.5,69,5.5,133.02v707.4c0,64,50.35,119.38,114.35,119.38l373.06,1.32,55.61-133.23c3.59-8.59,8.82-16.39,15.39-22.97l127.27-127.24v-380.55h-153.7Zm16.93,389.69H150.31c-12.01,0-21.74-9.73-21.74-21.74s9.73-21.74,21.74-21.74h404.1c12.01,0,21.74,9.73,21.74,21.74s-9.73,21.74-21.74,21.74Zm0-129.96H150.31c-12.01,0-21.74-9.73-21.74-21.74s9.73-21.74,21.74-21.74h404.1c12.01,0,21.74,9.73,21.74,21.74s-9.73,21.74-21.74,21.74Zm0-129.96H150.31c-12.01,0-21.74-9.73-21.74-21.74s9.73-21.74,21.74-21.74h404.1c12.01,0,21.74,9.73,21.74,21.74s-9.73,21.74-21.74,21.74Z"/><path class="cls-1" d="m688.45,254.99v9.17h-125.33c-62.18,0-113.05-50.87-113.05-113.05V16.61h0c131.11,0,238.39,107.27,238.39,238.39Z"/><g id="caneta"><path class="cls-1" d="m994.5,565.1c0,14.13-5.37,28.29-16.16,39.08l-46.05,46.16-78.35-78.35,46.08-46.05c21.62-21.62,56.66-21.62,78.27,0,10.82,10.82,16.22,24.98,16.22,39.16Z"/><path class="cls-1" d="m911.21,671.47l-189.04,189.54-58.5,58.65-129.37,62.81c-.32.16-.65.29-.96.4h-5.87c-4.58-1.65-7.57-7.05-5.05-12.25l57.25-118.78c3.48-7.22,8.16-13.81,13.83-19.48l128.67-128.64,110.66-110.63,78.38,78.38Z"/><path class="cls-1" d="m533.34,982.87c-2.04.73-4.08.65-5.87,0h5.87Z"/><path class="cls-1" d="m908.2,370.29c-3.73,1.5-10.27,3.01-17.49,4.38-20.67,3.91-36.45,20.65-39.45,41.47-1.9,13.19-4.3,26.69-6.94,34.14-4.51,12.65-25.31,12.85-30.14.3-2.87-7.71-5.85-21.45-8.3-34.47-3.63-19.32-18.44-34.59-37.62-38.91-8.06-1.82-15.57-3.7-19.69-5.19-12.28-4.65-12.43-19.88-.25-24.72,3.78-1.51,10.57-3.15,18.04-4.67,20.34-4.16,35.9-20.58,38.93-41.12,1.96-13.26,4.45-26.95,7.22-34.53,4.42-12.54,25.22-12.74,29.99-.3,2.94,7.69,5.85,21.47,8.19,34.64,3.53,19.79,18.74,35.46,38.42,39.55,7.72,1.6,14.84,3.31,18.85,4.84,12.27,4.51,12.43,19.83.24,24.59Z"/><path class="cls-1" d="m805.76,194.82c-2.16.87-5.94,1.74-10.12,2.54-11.96,2.27-21.1,11.95-22.83,24-1.1,7.63-2.49,15.45-4.02,19.76-2.61,7.32-14.65,7.44-17.44.17-1.66-4.46-3.39-12.42-4.8-19.95-2.1-11.18-10.67-20.02-21.77-22.52-4.66-1.05-9.01-2.14-11.4-3-7.1-2.69-7.19-11.51-.14-14.31,2.19-.87,6.12-1.82,10.44-2.71,11.77-2.41,20.78-11.91,22.53-23.8,1.13-7.67,2.58-15.6,4.18-19.98,2.56-7.26,14.6-7.38,17.35-.17,1.7,4.45,3.38,12.43,4.74,20.05,2.04,11.45,10.84,20.53,22.24,22.89,4.47.93,8.59,1.92,10.91,2.8,7.1,2.61,7.19,11.48.14,14.23Z"/></g></g></svg>