<?xml version="1.0" encoding="UTF-8"?><svg id="_ícones" xmlns="http://www.w3.org/2000/svg" viewBox="0 0 1000 1000"><defs><style>.cls-1{fill:#010101;}</style></defs><path id="estrela_cinco_pontas" class="cls-1" d="m130.77,89.14l286.95,132.14c10.25,4.72,22.33,2.87,30.69-4.71L684.81,2.28c21.82-19.78,56.46-1.69,52.7,27.52l-40.67,315.79c-1.48,11.47,4.21,22.68,14.34,28.26l278.28,153.29c26.07,14.36,19.74,53.5-9.53,58.91l-313.94,58c-11.51,2.13-20.5,11.15-22.59,22.66l-56.89,313.26c-5.3,29.17-44.19,35.73-58.76,9.91l-156.22-276.77c-5.6-9.92-16.63-15.49-27.94-14.11l-313.82,38.3c-29.11,3.55-47.01-30.95-27.33-52.7l208.85-230.91c7.42-8.21,9.35-20,4.93-30.15L88.47,130.58c-11.63-26.68,15.85-53.61,42.29-41.44Z"/></svg>