<?xml version="1.0" encoding="UTF-8"?><svg id="_ícones" xmlns="http://www.w3.org/2000/svg" viewBox="0 0 1000 1000"><defs><style>.cls-1{fill:#010101;}</style></defs><path id="estrela_4_pontas" class="cls-1" d="m890.63,556.63c-18.22,7.35-50.16,14.75-85.46,21.45-100.97,19.17-178.08,100.98-192.7,202.71-9.27,64.46-20.97,130.43-33.83,166.85-22.03,61.8-123.66,62.85-147.27,1.52-14.05-37.67-28.64-104.81-40.62-168.43-17.77-94.41-90.18-168.97-183.9-190.07-39.37-8.86-76.09-18.03-96.23-25.33-59.99-22.68-60.76-97.13-1.25-120.79,18.49-7.38,51.65-15.4,88.14-22.87,99.37-20.36,175.36-100.62,190.13-200.98,9.54-64.77,21.71-131.7,35.21-168.74,21.59-61.27,123.22-62.32,146.52-1.51,14.4,37.59,28.61,104.91,40.1,169.26,17.27,96.7,91.62,173.25,187.8,193.19,37.7,7.82,72.52,16.16,92.12,23.59,59.98,22.03,60.75,96.87,1.24,120.14Z"/></svg>