<?xml version="1.0" encoding="UTF-8"?><svg id="_ícones" xmlns="http://www.w3.org/2000/svg" viewBox="0 0 1000 1000"><defs><style>.cls-1{fill:#010101;}</style></defs><g id="estrela_cadente"><path class="cls-1" d="m458.22,614.4c-6.8,2.74-18.73,5.51-31.91,8.01-37.7,7.16-66.48,37.7-71.94,75.68-3.46,24.07-7.83,48.7-12.63,62.29-8.23,23.07-46.17,23.46-54.98.57-5.25-14.06-10.69-39.13-15.16-62.88-6.63-35.25-33.67-63.08-68.66-70.96-14.7-3.31-28.41-6.73-35.93-9.46-22.4-8.47-22.68-36.26-.47-45.1,6.9-2.76,19.28-5.75,32.91-8.54,37.1-7.6,65.47-37.57,70.98-75.03,3.56-24.18,8.1-49.17,13.15-63,8.06-22.88,46-23.27,54.7-.56,5.38,14.03,10.68,39.17,14.97,63.19,6.45,36.1,34.21,64.68,70.12,72.13,14.08,2.92,27.07,6.03,34.39,8.81,22.39,8.23,22.68,36.17.46,44.85Z"/><path class="cls-1" d="m273.87,351.71c-3.64,1.47-10.03,2.95-17.09,4.29-20.19,3.83-35.61,20.19-38.53,40.53-1.85,12.89-4.19,26.08-6.77,33.36-4.41,12.36-24.73,12.57-29.45.3-2.81-7.53-5.73-20.96-8.12-33.68-3.55-18.88-18.03-33.79-36.77-38.01-7.87-1.77-15.21-3.61-19.24-5.06-12-4.54-12.15-19.42-.25-24.15,3.7-1.48,10.33-3.08,17.62-4.57,19.87-4.07,35.06-20.12,38.02-40.19,1.91-12.95,4.34-26.33,7.04-33.74,4.32-12.25,24.64-12.46,29.3-.3,2.88,7.52,5.72,20.98,8.02,33.85,3.45,19.34,18.32,34.64,37.55,38.63,7.54,1.56,14.5,3.23,18.42,4.72,11.99,4.41,12.15,19.37.25,24.02Z"/><path class="cls-1" d="m821.04,985.77c-27.35,0-57.34-3.52-89.57-10.65-100.54-22.24-219.12-78.4-333.88-158.14-6.98-4.85-8.71-14.44-3.86-21.42,4.85-6.98,14.44-8.71,21.42-3.86,111.55,77.5,226.25,131.97,322.97,153.36,94.01,20.79,165.08,9.02,200.08-33.16,41.1-49.52,35.74-148.79-14.34-265.56-54.27-126.52-153.86-255.91-273.24-354.99C451.68,126.27,240.87,33.62,116.39,45.9c47.98,7.55,100.46,25.61,138.31,40.49,120.38,47.34,250.08,123.61,346.96,204.02,95.33,79.11,180.34,182.17,233.23,282.77,52.6,100.03,64.75,179.12,33.32,216.99-26.3,31.67-79.36,36.38-153.45,13.61-67.02-20.6-149.83-63.6-233.18-121.08-7-4.83-8.76-14.41-3.93-21.41,4.82-6.99,14.4-8.76,21.41-3.93,80.83,55.75,160.65,97.3,224.74,117,59.52,18.29,103.51,16.88,120.73-3.85,22.07-26.59,7.6-98.43-36.88-183-51.08-97.14-133.33-196.79-225.65-273.41-94.5-78.44-221.06-152.85-338.56-199.06C119.95,66.47,47.63,65.28,30.73,85.64c0,0,0,0,0,0-5.43,6.54-15.13,7.44-21.67,2.01-6.54-5.43-7.44-15.13-2.01-21.67.03-.04.06-.07.09-.11C55.68,7.52,152.93-1.72,280.98,39.86c121.58,39.48,259.83,120.38,389.28,227.8,123.01,102.09,225.74,235.69,281.87,366.55,55.55,129.5,59.1,237.88,9.74,297.35-29.72,35.82-78.37,54.21-140.84,54.21Z"/><path class="cls-1" d="m802.32,898.13c-103.95,0-246.78-68.82-387.21-187.46-3.25-2.74-3.65-7.6-.91-10.84,2.75-3.25,7.6-3.65,10.84-.91,143.73,121.43,294.94,191.63,394.48,183.11,36.53-3.11,64.94-16.44,84.45-39.63,2.74-3.25,7.59-3.67,10.84-.93,3.25,2.74,3.67,7.59.93,10.84-22.24,26.43-54.17,41.59-94.91,45.06-6.02.51-12.2.77-18.51.77Z"/></g></svg>