<?xml version="1.0" encoding="UTF-8"?><svg id="_ícones" xmlns="http://www.w3.org/2000/svg" viewBox="0 0 1000 1000"><defs><style>.cls-1{fill:#010101;}</style></defs><g id="gráficos"><rect class="cls-1" x="93.48" y="587.76" width="223.27" height="407.22" rx="111.63" ry="111.63"/><rect class="cls-1" x="388.37" y="427.68" width="223.27" height="567.3" rx="111.63" ry="111.63"/><rect class="cls-1" x="683.25" y="238.12" width="223.27" height="756.86" rx="111.63" ry="111.63"/><path class="cls-1" d="m856.17,90.34c-2.82,1.14-7.76,2.28-13.23,3.32-15.63,2.97-27.56,15.63-29.83,31.38-1.43,9.98-3.25,20.19-5.24,25.83-3.41,9.57-19.14,9.73-22.8.24-2.17-5.83-4.43-16.22-6.29-26.07-2.75-14.61-13.96-26.15-28.47-29.42-6.09-1.37-11.78-2.79-14.9-3.92-9.29-3.51-9.4-15.04-.19-18.7,2.86-1.14,7.99-2.38,13.64-3.54,15.38-3.15,27.14-15.58,29.43-31.11,1.48-10.03,3.36-20.39,5.45-26.12,3.34-9.48,19.07-9.65,22.68-.23,2.23,5.82,4.43,16.24,6.21,26.2,2.67,14.97,14.18,26.82,29.07,29.9,5.84,1.21,11.22,2.5,14.26,3.65,9.28,3.41,9.4,15,.19,18.6Z"/><path class="cls-1" d="m706.45,116.29c0-4.94-4.28-8.77-9.2-8.25-17.75,1.88-38.38,6.29-61.34,13.23-64.81,19.56-136.4,56.18-196.36,100.46-60.97,45.02-111.88,95.44-166.81,160.47-17.8,21.07-59.75,81.66-84.98,112.87,13.94-65.73,100.91-222.41,238.6-316.17,77.18-52.56,163.78-97.6,243.24-115.61,19-4.31,24.05-7.1,40.35-8.42,4.21-.34,7.48-3.8,7.56-8.02v-.17c.1-4.88-4.06-8.78-8.93-8.34-16.62,1.49-22.03,4.36-40.99,8.66-82.19,18.63-173.73,62.09-251.12,119.23-81.44,60.14-144.94,132.67-187.27,194.57-37.27,54.53-58.58,139.43-59.78,156.86-.22,3.19,1.46,6.2,4.27,7.7h0c3.22,1.72,7.19,1.07,9.7-1.57,12.54-13.22,65.06-81.16,98.61-124.86,45.37-59.11,107.97-120.62,167.44-164.52,58.07-42.89,127.29-78.34,189.89-97.22,22.35-6.75,42.66-10.97,59.61-12.63,4.26-.42,7.51-3.98,7.51-8.26h0Z"/></g></svg>