<?xml version="1.0" encoding="UTF-8"?><svg id="_ícones" xmlns="http://www.w3.org/2000/svg" viewBox="0 0 1000 1000"><defs><style>.cls-1{fill:#010101;}</style></defs><g id="home"><path class="cls-1" d="m991.06,558.73l-261.17-310.77c-.6,1.33-1.01,2.76-1.22,4.24-3.32,23.09-6.08,32.48-7.87,37.54l-.03.09c-6.19,17.37-22.66,28.75-41.93,29-.21,0-.42,0-.64,0-19.05,0-35.53-10.94-42.11-27.99l-.12-.32c-1.85-4.97-4.81-14.21-9.12-37.04-1.15-6.11-5.84-10.94-11.96-12.32-13.56-3.05-19.04-4.83-21.99-5.9l-.38-.13c-16.97-6.41-28.04-21.9-28.19-39.46-.15-17.52,10.61-33.16,27.42-39.85,4.27-1.71,9.88-3.3,17.67-4.99l3.26-.7c.17-.03.34-.07.51-.1l.49-.11c1.11-.22,2.2-.57,3.24-1.03,4.93-2.19,8.35-6.69,9.14-12.04.56-3.85,1.12-7.32,1.65-10.45l-88.72-105.57c-21.9-23.76-56.13-23.76-78.03,0L8.97,558.73c-7.6,8.24-2.54,22.92,7.88,22.92h104.61c11.7,0,21.17,10.91,21.17,24.39v320.77c0,38.18,26.9,69.18,60.05,69.18h131.79c33.19,0,60.05-31,60.05-69.18v-207.46c0-38.18,26.9-69.18,60.05-69.18h93.87c33.19,0,60.05,31,60.05,69.18v207.46c0,38.18,26.9,69.18,60.05,69.18h128.78c33.19,0,60.05-31,60.05-69.18v-320.77c0-13.48,9.51-24.39,21.21-24.39h104.56c10.42,0,15.48-14.68,7.92-22.92Zm-373.71-136.92c-5.63,2.26-15.49,4.55-26.41,6.63-5.18.98-10.17,2.5-14.89,4.49h0c-16.83,7.1-30.38,20.23-38.16,36.62-3.17,6.69-5.38,13.92-6.47,21.51-2.87,19.92-6.49,40.3-10.47,51.56-6.81,19.09-38.2,19.42-45.51.48-4.34-11.65-8.85-32.4-12.55-52.05-5.48-29.17-27.86-52.21-56.82-58.73-12.16-2.74-23.5-5.58-29.72-7.83-18.54-7-18.78-30.01-.39-37.31,4.63-1.85,12.24-3.83,20.95-5.74h0c2.03-.45,4.14-.89,6.27-1.33,5.32-1.09,10.44-2.75,15.27-4.88,23.02-10.2,39.71-31.6,43.49-57.22,2.95-20.02,6.71-40.7,10.87-52.14,6.68-18.94,38.07-19.26,45.28-.47,4.45,11.62,8.83,32.42,12.39,52.3,5.33,29.87,28.31,53.53,58.02,59.7,11.65,2.41,22.41,4.98,28.46,7.29,18.53,6.81,18.77,29.93.39,37.13Z"/><path class="cls-1" d="m751.74,205.22c-3.47,1.39-9.55,2.81-16.28,4.08-3.19.6-6.27,1.54-9.18,2.77h0c-10.37,4.38-18.72,12.46-23.52,22.57-1.95,4.12-3.32,8.58-3.99,13.26-1.77,12.28-4,24.84-6.45,31.78-4.2,11.77-23.54,11.97-28.05.29-2.68-7.18-5.45-19.97-7.74-32.08-3.38-17.98-17.17-32.18-35.02-36.19-7.49-1.69-14.48-3.44-18.32-4.83-11.43-4.32-11.57-18.5-.24-23,2.85-1.14,7.54-2.36,12.91-3.53h0c1.26-.28,2.55-.55,3.87-.82,3.28-.67,6.43-1.69,9.41-3.01,14.19-6.29,24.47-19.47,26.8-35.26,1.82-12.34,4.13-25.08,6.7-32.13,4.12-11.67,23.47-11.87,27.91-.29,2.74,7.16,5.45,19.98,7.64,32.23,3.29,18.41,17.45,32.99,35.76,36.79,7.18,1.48,13.81,3.07,17.54,4.49,11.42,4.2,11.57,18.44.24,22.88Z"/></g></svg>