<?xml version="1.0" encoding="UTF-8"?><svg id="_ícones" xmlns="http://www.w3.org/2000/svg" viewBox="0 0 1000 1000"><defs><style>.cls-1{stroke:#010101;stroke-miterlimit:10;stroke-width:.81px;}.cls-1,.cls-2{fill:#010101;}</style></defs><path class="cls-1" d="m734.21,13h-468.41C126.76,13,13,126.76,13,265.79v468.41c0,139.04,113.76,252.79,252.79,252.79h468.41c139.03,0,252.79-113.76,252.79-252.79v-468.41c0-139.04-113.76-252.79-252.79-252.79Zm-234.21,716.27c-126.62,0-229.27-102.65-229.27-229.27s102.65-229.27,229.27-229.27,229.27,102.65,229.27,229.27-102.65,229.27-229.27,229.27ZM875.61,211.82c-3.56,1.43-9.7,2.88-16.54,4.2-.25.05-.51.1-.77.15-20.45,3.89-36.07,20.45-39.03,41.05-1.88,13.06-4.24,26.42-6.85,33.8-4.46,12.52-25.05,12.73-29.82.31-2.85-7.63-5.8-21.23-8.23-34.11-3.6-19.12-18.27-34.22-37.25-38.5-7.97-1.79-15.41-3.65-19.49-5.13-12.15-4.59-12.3-19.67-.25-24.46,3.75-1.5,10.46-3.12,17.85-4.63,20.13-4.12,35.51-20.38,38.5-40.71.05-.31.09-.62.14-.93,1.91-12.83,4.33-25.92,7-33.24,4.37-12.41,24.95-12.63,29.67-.31,2.92,7.62,5.8,21.25,8.12,34.29,3.5,19.58,18.56,35.08,38.04,39.12,7.63,1.59,14.68,3.28,18.65,4.78,12.15,4.46,12.31,19.62.25,24.33Z"/><path class="cls-2" d="m616.9,516.95c-5.26,2.12-14.33,4.25-24.43,6.2-.38.07-.76.15-1.14.22-30.22,5.73-53.29,30.22-57.67,60.66-2.78,19.29-6.27,39.03-10.13,49.94-6.59,18.5-37.01,18.81-44.07.45-4.2-11.27-8.57-31.36-12.15-50.4-5.32-28.25-26.99-50.57-55.04-56.88-11.78-2.65-22.77-5.4-28.8-7.58-17.95-6.79-18.18-29.07-.37-36.15,5.53-2.21,15.45-4.61,26.38-6.85,29.74-6.09,52.47-30.11,56.9-60.15.07-.45.13-.92.2-1.37,2.83-18.95,6.38-38.3,10.34-49.12,6.45-18.34,36.87-18.65,43.85-.45,4.31,11.25,8.56,31.4,12,50.66,5.17,28.94,27.42,51.84,56.2,57.82,11.28,2.34,21.7,4.83,27.57,7.06,17.95,6.59,18.18,28.99.37,35.96Z"/></svg>