<?xml version="1.0" encoding="UTF-8"?><svg id="_ícones" xmlns="http://www.w3.org/2000/svg" viewBox="0 0 1000 1000"><defs><style>.cls-1{fill:#010101;}</style></defs><g id="blog_jornal"><path class="cls-1" d="m904.94,30.34H277.85c-49.72,0-89.99,42.57-89.99,95.12v686.65c0,16.41-12.6,29.73-28.12,29.73-7.76,0-14.79-3.33-19.91-8.68-5.06-5.41-8.21-12.84-8.21-21.05V216.12c0-36.92-28.35-66.88-63.27-66.88-17.49,0-33.29,7.49-44.71,19.62-11.47,12.07-18.56,28.77-18.56,47.26v658.41c0,52.55,40.27,95.12,89.99,95.12h809.88c49.72,0,89.99-42.57,89.99-95.12V125.46c0-52.55-40.27-95.12-89.99-95.12Zm-53.43,609.37h-196.8c-16.42,0-29.73-13.31-29.73-29.73h0c0-16.42,13.31-29.73,29.73-29.73h196.8c15.52,0,28.12,13.32,28.12,29.73s-12.6,29.73-28.12,29.73Zm-1.34,157.07h-196.8c-16.42,0-29.73-13.31-29.73-29.73h0c0-16.42,13.31-29.73,29.73-29.73h196.8c15.52,0,28.12,13.32,28.12,29.73s-12.6,29.73-28.12,29.73Zm-324.16-153.72h-196.8c-16.42,0-29.73-13.31-29.73-29.73h0c0-16.42,13.31-29.73,29.73-29.73h196.8c15.52,0,28.12,13.32,28.12,29.73s-12.6,29.73-28.12,29.73Zm-1.34,157.07h-196.8c-16.42,0-29.73-13.31-29.73-29.73h0c0-16.42,13.31-29.73,29.73-29.73h196.8c15.52,0,28.12,13.32,28.12,29.73s-12.6,29.73-28.12,29.73Zm354.95-436.09c0,37.34-28.64,67.61-63.96,67.61h-451.37c-35.32,0-63.96-30.27-63.96-67.61v-144.2c0-37.34,28.64-67.61,63.96-67.61h451.37c35.32,0,63.96,30.27,63.96,67.61v144.2Z"/><path class="cls-1" d="m801.18,338.5c-2.84,1.14-7.82,2.3-13.32,3.34-15.73,2.99-27.75,15.74-30.03,31.59-1.44,10.04-3.27,20.32-5.27,26-3.43,9.63-19.27,9.79-22.95.24-2.19-5.87-4.46-16.33-6.33-26.25-2.77-14.71-14.05-26.33-28.66-29.62-6.13-1.38-11.86-2.81-14.99-3.95-9.35-3.53-9.47-15.14-.19-18.82,2.88-1.15,8.05-2.4,13.73-3.56,15.49-3.17,27.33-15.68,29.63-31.32,1.49-10.09,3.38-20.52,5.49-26.29,3.36-9.55,19.2-9.71,22.83-.24,2.24,5.86,4.46,16.35,6.25,26.38,2.69,15.07,14.28,27,29.27,30.1,5.88,1.22,11.3,2.52,14.35,3.68,9.35,3.43,9.47,15.1.19,18.72Z"/><path class="cls-1" d="m850.4,245.42c-1.75.71-4.82,1.42-8.21,2.06-9.7,1.84-17.11,9.7-18.52,19.48-.89,6.19-2.02,12.53-3.25,16.03-2.12,5.94-11.88,6.04-14.15.15-1.35-3.62-2.75-10.07-3.9-16.19-1.71-9.07-8.67-16.24-17.67-18.27-3.78-.85-7.31-1.73-9.25-2.43-5.77-2.18-5.84-9.33-.12-11.61,1.78-.71,4.96-1.48,8.47-2.2,9.55-1.96,16.85-9.67,18.27-19.31.92-6.22,2.09-12.66,3.38-16.22,2.07-5.89,11.84-5.99,14.08-.15,1.38,3.61,2.75,10.08,3.85,16.27,1.66,9.29,8.8,16.65,18.05,18.57,3.62.75,6.97,1.55,8.85,2.27,5.76,2.12,5.84,9.31.12,11.55Z"/></g></svg>