<?xml version="1.0" encoding="UTF-8"?><svg id="_ícones" xmlns="http://www.w3.org/2000/svg" viewBox="0 0 1000 1000"><defs><style>.cls-1{fill:#010101;}</style></defs><g id="lixeira"><path class="cls-1" d="m730.72,551.63c-.45,0-.9.02-1.34.02-41.44,0-77.43-23.93-91.68-60.94l-.24-.64c-6.37-17.07-12.89-43.57-19.93-80.99-2.55-13.58-13.01-24.33-26.64-27.4-29.59-6.66-41.59-10.53-48.03-12.87l-.86-.32c-20.15-7.61-36.47-21.11-47.19-38.01H80.7v500.2c0,89.4,72.43,161.83,161.83,161.83h338.36c89.4,0,161.83-72.43,161.83-161.83v-279.86c-3.93.5-7.94.77-12,.82Zm-446.51,281.49c0,20.35-16.48,36.78-36.78,36.78s-36.78-16.43-36.78-36.78v-362.89c0-20.3,16.47-36.78,36.78-36.78,10.15,0,19.37,4.12,25.99,10.79,6.67,6.62,10.79,15.84,10.79,25.98v362.89Zm164.28,0c0,20.35-16.48,36.78-36.78,36.78s-36.78-16.43-36.78-36.78v-362.89c0-20.3,16.47-36.78,36.78-36.78,10.15,0,19.37,4.12,25.99,10.79,6.67,6.62,10.79,15.84,10.79,25.98v362.89Zm164.28,0c0,20.35-16.48,36.78-36.78,36.78s-36.78-16.43-36.78-36.78v-362.89c0-20.3,16.47-36.78,36.78-36.78,10.15,0,19.37,4.12,25.99,10.79,6.67,6.62,10.79,15.84,10.79,25.98v362.89Z"/><path class="cls-1" d="m602.12,176.83c-4.03,3.02-8.75,5.19-13.88,6.24-28.8,5.9-41.08,10.16-47.79,12.84-32.52,12.93-54.65,41.22-58.98,74.1H31.85c0-25.73,9.19-49.03,24.06-65.89,14.87-16.87,35.41-27.29,58.1-27.29h175.91c3.81-15.88,11.2-30.05,21.19-41.34,14.83-16.87,35.42-27.32,58.08-27.32h85.02c37.92,0,69.8,29.08,79.26,68.65h68.64Z"/><path class="cls-1" d="m960.62,101.37c-3.1,1.25-8.54,2.51-14.55,3.65-17.19,3.26-30.33,17.2-32.82,34.52-1.58,10.98-3.57,22.21-5.76,28.41-3.75,10.52-21.06,10.7-25.08.26-2.39-6.41-4.88-17.85-6.92-28.68-3.03-16.08-15.36-28.77-31.32-32.37-6.7-1.51-12.96-3.07-16.39-4.31-10.22-3.86-10.35-16.54-.21-20.57,3.15-1.26,8.8-2.62,15.01-3.89,16.92-3.47,29.86-17.14,32.38-34.23,1.62-11.03,3.7-22.43,6-28.73,3.68-10.43,20.98-10.61,24.95-.26,2.45,6.4,4.87,17.87,6.83,28.82,2.94,16.47,15.6,29.5,31.98,32.9,6.42,1.33,12.35,2.75,15.69,4.02,10.21,3.75,10.35,16.5.21,20.46Z"/><path class="cls-1" d="m890.32,303.54c-7.6,3.06-20.91,6.15-35.62,8.94-42.09,7.99-74.23,42.09-80.32,84.5-3.86,26.87-8.74,54.37-14.1,69.55-9.18,25.76-51.55,26.2-61.39.63-5.86-15.7-11.94-43.69-16.93-70.21-7.41-39.35-37.59-70.43-76.66-79.23-16.41-3.69-31.72-7.52-40.11-10.56-25.01-9.45-25.33-40.49-.52-50.35,7.71-3.08,21.53-6.42,36.74-9.53,41.42-8.49,73.09-41.94,79.25-83.78,3.98-27,9.05-54.9,14.68-70.33,9-25.54,51.36-25.98,61.07-.63,6,15.67,11.92,43.73,16.71,70.55,7.2,40.31,38.19,72.22,78.28,80.53,15.72,3.26,30.23,6.73,38.4,9.84,25,9.18,25.32,40.38.52,50.08Z"/></g></svg>