<?xml version="1.0" encoding="UTF-8"?><svg id="_ícones" xmlns="http://www.w3.org/2000/svg" viewBox="0 0 1000 1000"><defs><style>.cls-1{fill:#010101;}</style></defs><g id="lupa"><path class="cls-1" d="m974.86,934.58c0,15.81-6.05,31.68-18.15,43.77-24.19,24.19-63.34,24.19-87.54,0l-247.08-247.08c-61.92,44.78-138.05,71.15-220.28,71.15-208.08,0-376.69-168.61-376.69-376.69S193.74,49.06,401.83,49.06c21.02,0,41.66,1.72,61.76,5.05-9.52,5.86-16.89,14.64-20.73,25.41-4.45,12.26-8.64,32.01-12.82,60.37-1.01,6.81-3.32,13.23-6.88,19.06-2.45,4.01-5.43,7.64-8.83,10.78-4.14-.2-8.31-.3-12.5-.3-141.6,0-256.36,114.76-256.36,256.31s114.76,256.36,256.36,256.36,256.3-114.76,256.3-256.36c0-52.35-15.7-101.01-42.62-141.57,6.73-1.63,12.02-3.24,16.21-4.91,19.58-7.72,32.1-25.69,31.89-45.79-.09-9.24-2.87-17.96-7.75-25.4,2.18-3.07,3.97-6.47,5.28-10.15,2.86-8.08,5.41-20.04,7.99-37.52,67.59,68.05,109.38,161.84,109.38,265.34,0,81.12-25.62,156.19-69.18,217.68l247.39,247.39c12.1,12.1,18.15,27.96,18.15,43.77Z"/><path class="cls-1" d="m616.02,249.09c-5,2.01-13.39,4.04-22.85,5.92-1.1.22-2.22.43-3.34.65-30.94,5.87-54.57,30.94-59.05,62.12-2.84,19.75-6.43,39.97-10.37,51.13-6.75,18.94-37.9,19.27-45.13.47-4.31-11.54-8.78-32.12-12.45-51.62-5.45-28.93-27.64-51.78-56.36-58.25-12.06-2.72-23.32-5.52-29.49-7.76-18.38-6.95-18.62-29.77-.38-37.02,5.67-2.26,15.83-4.72,27.01-7,20.54-4.21,37.81-16.77,48.28-33.93,5.05-8.29,8.51-17.65,9.99-27.66,2.92-19.85,6.65-40.36,10.79-51.71,6.62-18.78,37.76-19.1,44.9-.46,4.41,11.52,8.77,32.15,12.29,51.87,5.3,29.63,28.08,53.09,57.56,59.2,11.56,2.39,22.22,4.95,28.23,7.23,18.38,6.75,18.62,29.69.38,36.82Z"/><path class="cls-1" d="m689.88,111.55c-3.57,1.44-9.83,2.89-16.75,4.2-15.01,2.84-27.33,12.76-33.66,26.09-2.01,4.24-3.42,8.83-4.11,13.65-1.82,12.64-4.11,25.57-6.64,32.71-4.32,12.11-24.24,12.32-28.87.3-2.76-7.39-5.61-20.55-7.96-33.02-3.48-18.5-17.67-33.12-36.05-37.26-7.72-1.74-14.91-3.54-18.86-4.97-11.76-4.44-11.91-19.04-.24-23.67,2.93-1.17,7.76-2.43,13.28-3.64h0c1.3-.29,2.63-.57,3.98-.84,19.48-3.99,34.37-19.72,37.27-39.4,1.87-12.7,4.25-25.82,6.9-33.08,4.24-12.01,24.16-12.22,28.72-.3,2.83,7.37,5.61,20.57,7.86,33.18,3.38,18.95,17.96,33.96,36.81,37.87,7.39,1.53,14.22,3.16,18.06,4.62,11.75,4.32,11.91,18.99.24,23.55Z"/></g></svg>