<?xml version="1.0" encoding="UTF-8"?><svg id="_ícones" xmlns="http://www.w3.org/2000/svg" viewBox="0 0 1000 1000"><defs><style>.cls-1{fill:#010101;}</style></defs><path class="cls-1" d="m986.68,282.21c0-15.2-12.33-27.52-27.54-27.52h-37.17c-6.6,15.07-18.36,40.45-35.05,75.38l-.08.16c-.1.21-.2.43-.3.64-11.66,24.42-60.86,125.76-70.35,145.15-9.3,18.99-28.16,30.74-49.27,30.74h-.35c-21.25-.13-40.12-12.13-49.23-31.33-20.4-42.97-70.7-148.78-97.1-203-3.51-7.21-6.36-13.12-8.64-17.74H188.39c-15.21,0-27.54,12.33-27.54,27.54v546.87c0,14.83-11.5,26.09-26.05,26.97-14.12.85-26.97-12.15-26.97-26.05V200.21c0-26.25-21.03-48.04-47.28-48.12-13.15-.03-25.06,5.28-33.67,13.89-8.58,8.58-13.89,20.43-13.89,33.53v660.8c0-10.04.35,0,.36.52.83,48.91,40.74,88.31,89.85,88.31h793.94c24.82,0,47.28-10.06,63.54-26.32,15.92-15.93,25.9-38.57,26.31-62.77,0-21.22-.25-462.27-.32-577.84Zm-752.52,125.51c2.15-.86,6.02-1.79,10.28-2.67,11.6-2.37,20.45-11.74,22.18-23.45,1.11-7.56,2.53-15.36,4.11-19.68,2.52-7.15,14.38-7.27,17.09-.18,1.68,4.38,3.34,12.24,4.68,19.74,2.02,11.29,10.69,20.21,21.91,22.54,4.4.91,8.46,1.88,10.74,2.75,7,2.58,7.09,11.3.15,14.02-2.13.85-5.85,1.72-9.97,2.5-11.78,2.24-20.77,11.78-22.48,23.65-1.08,7.52-2.44,15.22-3.95,19.47-2.57,7.2-14.42,7.33-17.18.18-1.64-4.4-3.34-12.23-4.74-19.66-2.07-11.01-10.52-19.71-21.45-22.17-4.6-1.04-8.88-2.11-11.23-2.96-7-2.64-7.09-11.33-.14-14.09Zm66.67,119.31v160.44c0,11.41-9.25,20.66-20.66,20.66s-20.66-9.25-20.66-20.66v-160.44c0-11.41,9.25-20.66,20.66-20.66s20.66,9.25,20.66,20.66Zm14.83,278.55c-1.65.67-4.55,1.34-7.75,1.95-9.16,1.74-16.15,9.15-17.48,18.38-.84,5.85-1.9,11.83-3.06,15.14-2,5.6-11.22,5.7-13.36.14-1.27-3.42-2.6-9.51-3.68-15.27-1.61-8.57-8.18-15.33-16.68-17.24-3.57-.81-6.9-1.63-8.72-2.29-5.45-2.06-5.52-8.81-.12-10.96,1.68-.67,4.68-1.4,7.99-2.07,9.01-1.85,15.9-9.13,17.24-18.23.87-5.88,1.97-11.95,3.2-15.31,1.96-5.56,11.18-5.65,13.29-.14,1.3,3.41,2.59,9.52,3.64,15.36,1.56,8.77,8.3,15.71,17.03,17.52,3.42.71,6.58,1.47,8.35,2.14,5.44,2,5.52,8.79.12,10.89Zm34.06-413.17c0-11.41,9.25-20.66,20.66-20.66l283.7,88.14c11.41,0,20.66,9.25,20.66,20.66s-9.25,20.66-20.66,20.66l-283.7-88.14c-11.41,0-20.66-9.25-20.66-20.66Zm356.51,374.6c-2.76,1.12-7.6,2.25-12.96,3.26-15.32,2.9-27.02,15.32-29.23,30.75-1.41,9.78-3.18,19.79-5.14,25.31-3.34,9.38-18.75,9.54-22.33.23-2.13-5.71-4.35-15.89-6.16-25.55-2.7-14.33-13.68-25.63-27.9-28.83-5.98-1.35-11.54-2.74-14.61-3.85-9.1-3.44-9.21-14.73-.18-18.33,2.8-1.12,7.83-2.34,13.37-3.47,15.07-3.09,26.6-15.26,28.84-30.49,1.44-9.82,3.29-19.98,5.34-25.59,3.27-9.29,18.68-9.46,22.22-.23,2.19,5.7,4.34,15.91,6.08,25.67,2.63,14.67,13.9,26.28,28.5,29.3,5.71,1.19,11,2.45,13.97,3.58,9.1,3.34,9.21,14.7.18,18.22Zm5.37-54.06c-.65,0-1.31-.03-1.97-.09-11.36-1.07-19.7-11.16-18.63-22.51l42-114.31c1.07-11.36,11.15-19.69,22.51-18.63,11.36,1.07,19.7,11.16,18.63,22.51l-42,114.31c-1.01,10.7-10.01,18.72-20.54,18.72Zm133.56,30.64c-9.32,0-16.87-7.55-16.87-16.87s7.55-16.87,16.87-16.87,16.87,7.55,16.87,16.87-7.55,16.87-16.87,16.87Zm39.59,147.36c-14.83,0-26.85-12.02-26.85-26.85s12.02-26.85,26.85-26.85,26.85,12.02,26.85,26.85-12.02,26.85-26.85,26.85Z"/><g id="localização"><path class="cls-1" d="m888.49,162.23c-6.85-42.73-42.85-109.1-118.39-111.3-79.4-2.31-126.44,58.92-126.44,125.52,0,12.21,4.16,35.15,9.71,46.25,2.59,5.18,6,12.14,10.03,20.42,24.21,49.72,70.5,147.05,91.9,192.13,4.6,9.69,18.36,9.77,23.08.14,15.4-31.46,43.24-88.51,66.34-136.87.11-.23.21-.46.33-.68,14.9-31.2,27.78-58.72,34.03-73.29,5.55-12.95,10.64-35.89,10.64-48.1,0-4.3-.4-9.09-1.23-14.22Zm-108.11,86.84c-3.66,10.26-20.53,10.44-24.44.26-.65-1.74-1.3-3.84-1.95-6.21-1.69-6.18-3.36-14.12-4.79-21.75-2.95-15.67-14.97-28.05-30.53-31.55-6.53-1.47-12.63-2.99-15.97-4.2-9.96-3.77-10.09-16.12-.21-20.05,3.07-1.22,8.57-2.56,14.63-3.79,11.12-2.28,20.49-9.08,26.15-18.38,2.73-4.49,4.61-9.56,5.41-14.98,1.58-10.75,3.6-21.86,5.84-28.01,3.58-10.17,20.45-10.34,24.32-.25,2.39,6.24,4.76,17.41,6.66,28.09,2.86,16.05,15.2,28.76,31.17,32.07,6.26,1.29,12.04,2.68,15.29,3.92,9.95,3.66,10.08,16.08.21,19.94-2.71,1.09-7.25,2.19-12.37,3.21-.6.12-1.2.23-1.82.35-16.76,3.18-29.56,16.76-31.98,33.65-1.11,7.77-2.45,15.68-3.91,21.74-.55,2.28-1.12,4.3-1.7,5.95Z"/></g></svg>