<?xml version="1.0" encoding="UTF-8"?><svg id="_ícones" xmlns="http://www.w3.org/2000/svg" viewBox="0 0 1000 1000"><defs><style>.cls-1{fill:#010101;}</style></defs><g id="marca-texto"><path class="cls-1" d="m317.17,864.01l-16.11,16.11c-3.95,3.95-9.76,5.42-15.18,3.87l-86.83-25.33c-4.88-1.39-6.43-7.44-2.87-11l52.36-52.28,68.63,68.63Z"/><path class="cls-1" d="m561.16,743.95l-65.45,71.18c-12.55,13.63-33.77,14.1-46.86,1.01-11.54-11.54-26.72-17.35-41.9-17.35s-30.36,5.81-41.9,17.35l-23.24,23.24-68.63-68.63,23.24-23.24c23.16-23.16,23.16-60.65,0-83.81l-4.96-4.96c-13.09-13.09-12.63-34.32,1.01-46.86l71.18-65.45,197.52,197.52Z"/><path class="cls-1" d="m986.72,281.3l-401.93,437.02-195.5-195.5L826.3,120.88c11.23-10.3,28.66-9.99,39.51.85l120.06,120.06c10.85,10.85,11.16,28.27.85,39.51Z"/><path class="cls-1" d="m169.34,799.85c-3.61,1.46-9.94,2.92-16.94,4.25-20.01,3.8-35.29,20.01-38.19,40.17-1.84,12.77-4.16,25.85-6.7,33.06-4.37,12.25-24.51,12.45-29.18.3-2.78-7.46-5.68-20.77-8.05-33.38-3.52-18.71-17.87-33.48-36.44-37.66-7.8-1.76-15.08-3.57-19.07-5.02-11.89-4.49-12.04-19.25-.25-23.94,3.66-1.46,10.23-3.05,17.47-4.53,19.69-4.03,34.75-19.94,37.68-39.83,1.89-12.84,4.3-26.1,6.98-33.44,4.28-12.14,24.42-12.35,29.03-.3,2.85,7.45,5.67,20.79,7.95,33.54,3.42,19.16,18.16,34.33,37.22,38.28,7.47,1.55,14.37,3.2,18.25,4.68,11.89,4.37,12.04,19.2.25,23.81Z"/><path class="cls-1" d="m211.13,628.02c-2.09.84-5.75,1.69-9.8,2.46-11.58,2.2-20.42,11.58-22.1,23.25-1.06,7.39-2.41,14.96-3.88,19.14-2.53,7.09-14.18,7.21-16.89.17-1.61-4.32-3.29-12.02-4.66-19.32-2.04-10.83-10.34-19.38-21.09-21.8-4.51-1.02-8.73-2.07-11.04-2.9-6.88-2.6-6.97-11.14-.14-13.85,2.12-.85,5.92-1.77,10.11-2.62,11.4-2.34,20.11-11.54,21.81-23.05,1.09-7.43,2.49-15.1,4.04-19.35,2.48-7.03,14.13-7.15,16.8-.17,1.65,4.31,3.28,12.03,4.6,19.41,1.98,11.09,10.51,19.87,21.54,22.16,4.32.9,8.32,1.85,10.56,2.71,6.88,2.53,6.97,11.11.14,13.78Z"/></g></svg>