<?xml version="1.0" encoding="UTF-8"?><svg id="_ícones" xmlns="http://www.w3.org/2000/svg" viewBox="0 0 1000 1000"><defs><style>.cls-1{fill:#010101;}</style></defs><g id="godê_criar_nova_tag"><path class="cls-1" d="m907.46,535.93c-11.91-51.31-32.83-100.65-61.4-145.01-4.71,1.6-10.42,3.14-17.9,4.81-1.45.33-2.95.65-4.47.97l-1.93.41c-5.01,1.03-8.87,5.11-9.62,10.15-4.29,29.22-7.98,41.45-10.39,48.1-8.61,24.04-31.34,39.79-57.98,40.15-.32,0-.63,0-.95,0-26.41,0-49.26-15.2-58.37-38.95-3.97-10.31-7.68-25.49-11.66-47.72-.86-4.83-4.63-8.71-9.41-9.7-16.51-3.42-23.92-5.86-28.05-7.42-23.72-8.79-39.2-30.34-39.45-54.97-.25-24.6,14.73-46.44,38.2-55.75,6.8-2.74,15.54-5.03,28.22-7.4,4.97-.97,8.81-5.09,9.56-10.28.53-3.72,1-6.82,1.48-9.73.93-5.91,1.87-11.22,2.83-16-2.9-1.42-5.81-2.8-8.75-4.14-1.73.86-3.51,1.65-5.35,2.38-8.39,3.34-20.02,6.45-37.67,10.07-3.14.65-6.12,1.65-8.89,2.98-11.65,5.54-19.69,16.43-21.56,29.15-4.49,30.7-9.15,52.48-14.23,66.52-9.68,27.1-35.52,44.86-65.92,45.27-.35,0-.71,0-1.07,0-30.1,0-56.04-17.1-66.3-43.8-2.66-6.91-5.27-15.62-7.92-26.54-2.64-10.91-5.33-24.02-8.15-39.72v-.07c-2.53-14.12-13.03-25.88-26.75-29.95l-.43-.13c-.8-.25-1.67-.47-2.59-.66l-.21-.04c-23.03-4.81-32.75-7.97-38.04-9.96-6.53-2.42-12.52-5.69-17.82-9.65-148.44,60.54-255.78,203.31-262.98,373.94-5.71,135.85,49.51,264.2,149.75,340.96,125.38,96.01,245.31,50.27,253.98-105.68,4.57-81.98,86.57-155.02,163.49-118.87,206.48,96.95,305.51,18.17,258.72-183.72Zm-677.64,97.73c-27.94-1.17-49.64-24.78-48.45-52.72,1.17-27.97,24.76-49.64,52.72-48.47,27.94,1.16,49.64,24.78,48.47,52.72-1.19,27.97-24.78,49.67-52.74,48.48Zm115.43,174.95c-1.19,27.96-24.78,49.63-52.74,48.47-27.95-1.17-49.64-24.78-48.47-52.72,1.18-27.97,24.78-49.66,52.74-48.47,27.94,1.16,49.63,24.78,48.47,52.72Zm40.48-426.34c-1.19,27.97-24.78,49.66-52.74,48.47-27.95-1.17-49.64-24.78-48.47-52.72,1.19-27.96,24.78-49.63,52.74-48.47,27.94,1.17,49.63,24.78,48.47,52.72Zm459.78,235.64c-1.51,36.02-31.94,63.99-67.95,62.48-36.04-1.53-63.99-31.94-62.48-67.97,1.5-36.02,31.94-63.99,67.95-62.46,36.04,1.51,63.99,31.92,62.48,67.95Z"/><circle class="cls-1" cx="723.82" cy="53.52" r="26.56"/><circle class="cls-1" cx="856.63" cy="186.33" r="17"/><circle class="cls-1" cx="255.26" cy="182.08" r="17"/><path class="cls-1" d="m645.75,194.68c-6.37,2.55-17.74,5.29-30.28,7.86-6.67,1.38-13.05,3.53-19.02,6.37-24.52,11.67-42.22,34.93-46.3,62.67-3.25,22.25-7.46,45.26-12.09,57.99-7.42,21.04-42.33,21.4-50.32.53-4.99-12.96-9.84-36.08-13.81-58.18-5.5-30.88-28.01-55.8-57.74-64.62-2.21-.68-4.48-1.25-6.78-1.72-12.94-2.7-24.93-5.59-31.66-8.12-20.61-7.56-20.87-33.32-.4-41.29,6.25-2.53,17.21-5.08,29.37-7.37,34.7-6.57,61.18-34.68,66.19-69.64,3.19-22.14,7.18-44.82,11.65-57.31,7.56-21.25,42.48-21.59,50.6-.53,4.82,12.92,9.84,36,13.94,57.84,6.1,32.45,30.98,58.08,63.18,65.3,13.54,3.08,26.16,6.2,33.06,8.71,20.63,7.8,20.89,33.38.42,41.5Z"/><path class="cls-1" d="m833.51,348.38c-3.38,1.34-8.82,2.76-15.09,4.16-1.79.4-3.65.79-5.55,1.19-23.27,4.76-41.08,23.57-44.54,47.07-2.23,15.17-5.08,30.88-8.24,39.55-5.06,14.34-28.86,14.6-34.32.36-3.4-8.84-6.71-24.61-9.41-39.67-4.04-22.63-21.46-40.57-43.99-45.24-8.82-1.83-16.98-3.8-21.59-5.55-14.05-5.14-14.24-22.69-.28-28.13,4.27-1.74,11.73-3.46,20.04-5.02,23.65-4.5,41.71-23.65,45.13-47.49.43-3,.87-5.99,1.36-8.95,1.89-11.98,4.12-23.29,6.57-30.13,5.14-14.49,28.96-14.73,34.49-.36,3.29,8.8,6.72,24.54,9.52,39.44,4.17,22.12,21.12,39.61,43.07,44.52,9.22,2.1,17.83,4.25,22.55,5.95,14.07,5.31,14.24,22.76.28,28.3Z"/></g></svg>