<?xml version="1.0" encoding="UTF-8"?><svg id="_ícones" xmlns="http://www.w3.org/2000/svg" viewBox="0 0 1000 1000"><defs><style>.cls-1{fill:#010101;}</style></defs><g id="adicionar_foto"><circle class="cls-1" cx="439.17" cy="240.14" r="236.15"/><path class="cls-1" d="m788.45,996.01c27.6,0,49.53-23.39,47.58-50.92-.01-.18-.03-.35-.04-.53-19.77-271.53-189.84-403.28-396.71-403.28S61.04,671.56,42.35,944.56c-.02.24-.03.49-.05.73-1.8,27.45,20.08,50.71,47.59,50.71h698.56Z"/><path id="estrela_4_pontas" class="cls-1" d="m950.96,322.17c-2.82,1.14-7.78,2.29-13.25,3.32-15.65,2.97-27.6,15.65-29.87,31.42-1.44,9.99-3.25,20.22-5.24,25.86-3.42,9.58-19.17,9.74-22.83.24-2.18-5.84-4.44-16.25-6.3-26.11-2.75-14.63-13.98-26.19-28.51-29.46-6.1-1.37-11.79-2.8-14.92-3.93-9.3-3.52-9.42-15.06-.19-18.72,2.87-1.14,8.01-2.39,13.66-3.55,15.4-3.16,27.18-15.6,29.47-31.15,1.48-10.04,3.36-20.41,5.46-26.16,3.35-9.5,19.1-9.66,22.71-.23,2.23,5.83,4.43,16.26,6.22,26.24,2.68,14.99,14.2,26.85,29.11,29.95,5.84,1.21,11.24,2.5,14.28,3.66,9.3,3.41,9.42,15.02.19,18.62Z"/><path id="estrela_4_pontas-2" class="cls-1" d="m859.86,483.25c-5,2.02-13.77,4.05-23.46,5.89-27.72,5.26-48.89,27.72-52.9,55.65-2.54,17.7-5.76,35.81-9.29,45.81-6.05,16.97-33.95,17.25-40.43.42-3.86-10.34-7.86-28.77-11.15-46.24-4.88-25.92-24.76-46.39-50.49-52.18-10.81-2.43-20.89-4.95-26.42-6.95-16.47-6.23-16.68-26.67-.34-33.16,5.08-2.03,14.18-4.23,24.2-6.28,27.28-5.59,48.14-27.62,52.2-55.17,2.62-17.78,5.96-36.15,9.67-46.32,5.93-16.82,33.83-17.11,40.22-.42,3.95,10.32,7.85,28.8,11.01,46.47,4.74,26.55,25.15,47.56,51.56,53.04,10.35,2.15,19.91,4.44,25.29,6.48,16.47,6.05,16.68,26.59.34,32.98Z"/></g></svg>