<svg width="1000" height="1000" viewBox="0 0 1000 1000" fill="none" xmlns="http://www.w3.org/2000/svg">
<path d="M439.17 476.29C569.592 476.29 675.32 370.562 675.32 240.14C675.32 109.718 569.592 3.99 439.17 3.99C308.748 3.99 203.02 109.718 203.02 240.14C203.02 370.562 308.748 476.29 439.17 476.29Z" fill="#010101"/>
<path d="M788.449 996.01C816.049 996.01 837.979 972.62 836.029 945.09C836.019 944.91 835.999 944.74 835.989 944.56C816.219 673.03 646.149 541.28 439.279 541.28C232.409 541.28 61.0389 671.56 42.3489 944.56C42.3289 944.8 42.3189 945.05 42.2989 945.29C40.4989 972.74 62.3789 996 89.8889 996H788.449V996.01Z" fill="#010101"/>
<path d="M950.96 322.17C948.14 323.31 943.18 324.46 937.71 325.49C922.06 328.46 910.11 341.14 907.84 356.91C906.4 366.9 904.59 377.13 902.6 382.77C899.18 392.35 883.43 392.51 879.77 383.01C877.59 377.17 875.33 366.76 873.47 356.9C870.72 342.27 859.49 330.71 844.96 327.44C838.86 326.07 833.17 324.64 830.04 323.51C820.74 319.99 820.62 308.45 829.85 304.79C832.72 303.65 837.86 302.4 843.51 301.24C858.91 298.08 870.69 285.64 872.98 270.09C874.46 260.05 876.34 249.68 878.44 243.93C881.79 234.43 897.54 234.27 901.15 243.7C903.38 249.53 905.58 259.96 907.37 269.94C910.05 284.93 921.57 296.79 936.48 299.89C942.32 301.1 947.72 302.39 950.76 303.55C960.06 306.96 960.18 318.57 950.95 322.17H950.96Z" fill="#010101"/>
<path d="M859.861 483.25C854.861 485.27 846.091 487.3 836.401 489.14C808.681 494.4 787.511 516.86 783.501 544.79C780.961 562.49 777.741 580.6 774.211 590.6C768.161 607.57 740.261 607.85 733.781 591.02C729.921 580.68 725.921 562.25 722.631 544.78C717.751 518.86 697.871 498.39 672.141 492.6C661.331 490.17 651.251 487.65 645.721 485.65C629.251 479.42 629.041 458.98 645.381 452.49C650.461 450.46 659.561 448.26 669.581 446.21C696.861 440.62 717.721 418.59 721.781 391.04C724.401 373.26 727.741 354.89 731.451 344.72C737.381 327.9 765.281 327.61 771.671 344.3C775.621 354.62 779.521 373.1 782.681 390.77C787.421 417.32 807.831 438.33 834.241 443.81C844.591 445.96 854.151 448.25 859.531 450.29C876.001 456.34 876.211 476.88 859.871 483.27L859.861 483.25Z" fill="#010101"/>
</svg>
