<?xml version="1.0" encoding="UTF-8"?><svg id="_ícones" xmlns="http://www.w3.org/2000/svg" viewBox="0 0 1000 1000"><defs><style>.cls-1{fill:#010101;}</style></defs><path class="cls-1" d="m713.68,411.55c.1-12.07,3.53-23.51,9.63-33.36-30.92-168.09-178.2-295.43-355.22-295.43C168.61,82.76,6.9,244.47,6.9,443.96s161.71,361.2,361.2,361.2c25.81,0,50.98-2.7,75.26-7.86-13.56-3.62-23.65-6.71-31-9.5l-.65-.26c-32.37-12.86-53.11-42.65-52.85-75.9.26-33.18,21.41-62.58,53.87-74.9,3.58-1.36,8.69-3.12,16.98-5.3,8.3-2.19,19.79-4.81,36.12-7.88,30.64-5.76,54.61-30.28,59.66-61.02,7.25-44.29,14.35-75.22,21.71-94.5,12.31-32.88,44.39-54.07,81.85-54.07h.28c37.82.1,70.1,21.7,82.25,55.02,3.84,10.54,7.64,24.48,11.47,42.19,3.5-18.62,5.58-37.74,6.1-57.25-9.93-11.66-15.58-26.53-15.46-42.39Zm-241.9,158.89c-7.82,7.81-18.05,11.71-28.29,11.71s-20.47-3.9-28.29-11.71l-98.2-98.2c-7.5-7.5-11.71-17.68-11.71-28.29v-138c0-22.09,17.91-40,40-40s40,17.91,40,40v121.43l86.49,86.48c15.62,15.62,15.62,40.95,0,56.58Z"/><path class="cls-1" d="m461.76,681.26c7.9-3,22-6.17,37.53-9.09,42.28-7.95,75.05-41.45,82.01-83.91,4.49-27.39,10.11-55.7,16.09-71.31,9.58-25.83,52.69-25.57,62.15.38,4.79,13.12,9.37,34.69,13.32,57.1.87,4.96,1.7,9.98,2.51,14.94,1.09,6.68,2.8,13.15,5.11,19.33,8.44,22.69,24.7,41.58,45.65,53.33,8.47,4.77,17.72,8.35,27.53,10.56,4.14.93,8.18,1.87,12.05,2.81,11.08,2.69,20.74,5.39,26.85,7.83,25.28,9.76,25.09,41.5-.3,50.95-7.78,2.99-21.37,5.91-36.39,8.51-5.71.99-11.25,2.44-16.58,4.34-21.83,7.75-40.13,22.72-52.21,42.04-7.15,11.42-12.11,24.37-14.34,38.24-4.38,27.27-9.79,55.17-15.5,70.52-9.77,26.06-52.87,25.8-62.46-.37-5.69-16.07-11.41-44.64-16.06-71.71-6.88-40.15-37.06-72.27-76.66-81.86-16.64-4.04-32.14-8.17-40.63-11.4-25.28-10.04-25.09-41.61.31-51.23Z"/><path class="cls-1" d="m981.34,427.16c-4.77,1.84-13.12,3.63-22.34,5.22-26.36,4.56-46.78,25.53-51.02,51.95-2.69,16.74-6.01,33.86-9.52,43.29-6,15.99-32.46,15.84-38.34-.23-3.5-9.86-7.01-27.4-9.86-44.02-4.22-24.65-22.76-44.37-47.07-50.26-10.21-2.47-19.73-5.02-24.94-7-15.52-6.16-15.4-25.54.19-31.45,4.84-1.84,13.51-3.79,23.04-5.58,25.95-4.88,46.07-25.45,50.35-51.51,2.76-16.82,6.21-34.19,9.88-43.77,5.88-15.86,32.34-15.7,38.15.23,3.59,9.85,7,27.43,9.72,44.23,4.09,25.25,23.11,45.49,48.07,51.09,9.78,2.19,18.81,4.51,23.88,6.53,15.52,5.99,15.4,25.48-.19,31.28Z"/></svg>