<?xml version="1.0" encoding="UTF-8"?><svg id="_ícones" xmlns="http://www.w3.org/2000/svg" viewBox="0 0 1000 1000"><g id="salvar"><path d="m566.92,531.04l-127.7-168.5c-6.43-8.47.06-20.21,11.2-20.21h78.51v-121.34c0-26.89,23.37-48.68,52.14-48.68s52.14,21.79,52.14,48.68v121.34h78.54c11.14,0,17.63,11.73,11.2,20.21l-127.7,168.5c-6.92,9.1-21.4,9.1-28.31,0Z"/><path d="m995.25,550.89c0,93.36-76.39,190.93-169.74,190.93h-486.09c-5.72,0-11.37-.29-16.95-.85,21.01-4.13,36.11-7.96,46.03-11.67l.32-.12c21.19-8.16,34.68-28.92,34.38-52.88-.3-23.91-14.28-44.27-35.61-51.87l-.08-.03c-11.11-3.93-28.77-7.6-53.97-11.23-1.24-.23-7.45-3.47-15.2-15.05-6.81-10.17-12.51-23.6-14.53-34.24-2.66-13.97-5.17-23.66-7.9-30.47-8.1-20.54-26.95-33.71-48.17-33.71h-.53c-21.44.22-40.25,13.84-47.99,34.7-2.55,6.76-5.15,16.68-8.16,31.21-.17.84-.34,1.65-.52,2.45-.58-5.65-.87-11.37-.87-17.17v-121.27c3.79-44.45,39.31-79.83,83.83-83.38h68.84c36.26,0,65.65,29.39,65.65,65.65,0,18.13-7.35,34.53-19.22,46.41-6.64,6.64-14.71,11.86-23.69,15.18-7.08,2.62-14.74,4.04-22.74,4.04-4.92,0-9.37,1.99-12.59,5.22-3.22,3.22-5.23,7.68-5.23,12.6v16.86c.02,1.94.07,3.84.13,5.71,2.4,71.31,35.53,92.63,77.04,92.63h405.23c39.88,0,72.73-48.88,76.75-90.07.27-2.8.41-5.55.41-8.27v-16.86c0-9.84-7.98-17.82-17.82-17.82h-4.34c-8.44,0-16.52-1.6-23.93-4.51h0c-24.41-9.56-41.7-33.33-41.7-61.13,0-18.13,7.35-34.54,19.22-46.43,11.88-11.88,28.29-19.22,46.42-19.22h67.84c47.12,3.75,84.17,43.18,84.17,91.25,0-48.08,1.31,113.39,1.31,113.39Z"/><path d="m244.82,545.76c2.1,5.2,4.21,14.31,6.12,24.38,5.46,28.8,28.8,71.98,57.82,76.14,18.39,2.65,37.21,5.99,47.6,9.66,17.63,6.28,17.93,35.27.43,42.01-10.75,4.01-29.9,8.17-48.05,11.59-12.66,2.38-24.07,8.21-33.23,16.49-10.33,9.34-17.8,47.08-20.99,61.25-2.53,11.23-5.14,21.7-7.22,27.45-6.47,17.11-27.71,17.33-34.46.35-2.11-5.28-4.39-14.73-6.53-25.14-5.8-28.34-28.7-75.3-57.33-79.51-18.48-2.72-37.57-6.19-48.14-10.05-17.48-6.16-17.78-35.15-.43-41.79,10.72-4.11,29.93-8.16,48.28-11.44,13.39-2.4,25.44-8.63,34.93-17.55,10.06-9.44,17.26-43.08,20.18-57.2,2.23-10.76,4.61-20.69,6.73-26.28,6.28-17.11,27.63-17.33,34.27-.35Z"/><path d="m126.31,552.65c-2.68,1.08-7.39,2.17-12.59,3.16-14.87,2.82-26.23,14.87-28.38,29.85-1.36,9.49-3.09,19.21-4.98,24.57-3.24,9.1-18.21,9.26-21.69.22-2.07-5.55-4.22-15.44-5.98-24.81-2.62-13.9-13.28-24.88-27.08-27.99-5.8-1.31-11.21-2.66-14.17-3.73-8.83-3.34-8.95-14.31-.18-17.79,2.72-1.09,7.61-2.27,12.98-3.37,14.64-3,25.83-14.82,28-29.6,1.4-9.54,3.2-19.4,5.19-24.85,3.18-9.02,18.15-9.18,21.58-.22,2.12,5.54,4.21,15.45,5.91,24.93,2.54,14.24,13.49,25.51,27.66,28.45,5.55,1.15,10.68,2.38,13.57,3.47,8.83,3.24,8.95,14.27.18,17.69Z"/></g></svg>