<?xml version="1.0" encoding="UTF-8"?><svg id="_ícones" xmlns="http://www.w3.org/2000/svg" viewBox="0 0 1000 1000"><g id="site"><path d="m347.11,22.57c-17.33,24.49-33.16,54.82-47.05,90.68-22.12,56.89-38.39,124.48-48.16,198.11H49.07C98.59,170.61,209.59,61.94,347.11,22.57Z"/><path d="m874.01,311.37h-202.82c-9.73-73.63-25.99-141.22-48.12-198.11-13.89-35.86-29.72-66.19-47.05-90.68,137.52,39.37,248.47,148.04,297.99,288.8Z"/><path d="m902.03,476.72c0,41.08-4.94,80.92-14.18,118.85h-211.49c3.58-38.5,5.42-78.34,5.42-118.85,0-36.89-1.5-73.22-4.5-108.51h212.94c7.75,34.83,11.81,71.15,11.81,108.51Z"/><path d="m705.75,868.09c-39.26,28.01-82.97,49.4-129.73,62.78,17.33-24.49,33.16-54.82,47.05-90.68,13.26-34.16,24.44-72.19,33.3-113.01l49.37,140.91Z"/><path d="m870.23,652.41c-4.55,12.04-9.54,23.77-14.96,35.29l-86.4-35.29h101.36Z"/><path d="m347.11,930.87c-134.13-38.39-243-142.72-294.26-278.46h200.5c9.83,69.6,25.66,133.57,46.71,187.78,13.89,35.86,29.72,66.19,47.05,90.68Z"/><path d="m246.72,595.57H35.28c-9.29-37.93-14.23-77.77-14.23-118.85,0-37.36,4.07-73.69,11.81-108.51h212.94c-3,35.29-4.5,71.62-4.5,108.51,0,40.51,1.84,80.35,5.42,118.85Z"/><path d="m615.86,652.41c-27.11,179.67-93.37,294.53-154.32,294.53s-127.21-114.87-154.32-294.53h308.64Z"/><path d="m628.54,476.72c0,41.65-1.98,81.38-5.61,118.85h-322.72c-3.68-37.46-5.66-77.2-5.66-118.85,0-37.82,1.65-74.1,4.65-108.51h324.71c3,34.41,4.65,70.69,4.65,108.51Z"/><path d="m617.41,311.37h-311.73C331.81,125.76,399.48,6.5,461.54,6.5s129.73,119.26,155.87,304.87Z"/><path d="m890.07,854.7l80.36,85.78c11.36,12.13,11.36,31.79,0,43.92h0c-11.36,12.13-29.78,12.13-41.14,0l-80.28-85.7c-3.95-4.22-10.61-3.03-13.07,2.33l-30.77,67.27c-5.68,12.42-22.53,11.56-27.07-1.39l-96.41-274.92c-4.46-12.7,7.22-25.08,19.09-20.23l256.5,104.79c11.99,4.9,12.8,22.67,1.32,28.79l-66.41,35.45c-4.97,2.65-6.04,9.72-2.11,13.91Z"/></g></svg>