<?xml version="1.0" encoding="UTF-8"?><svg id="_ícones" xmlns="http://www.w3.org/2000/svg" viewBox="0 0 1000 1000"><defs><style>.cls-1{fill:#010101;}</style></defs><g id="tag"><path class="cls-1" d="m407.93,144.83L57.57,60.24c-27.07-2.86-54.28,24.36-51.43,51.43l84.59,350.37c2.52,10.37,7.55,19.52,14.73,26.7l403.33,403.33c25.93,25.93,73.11,20.83,105.37-11.43l212.37-212.37c32.26-32.26,37.36-79.44,11.43-105.37L434.63,159.56c-7.18-7.18-16.32-12.22-26.7-14.73Zm-100.13,91.54c-1.79,4.1-5.81,10.39-10.48,17.1-13.36,19.2-12.87,44.78.95,63.65,8.76,11.96,17.36,24.55,21.07,32.52,6.26,13.56-10.1,29.91-23.7,23.7-8.28-3.89-21.35-12.48-33.43-20.92-17.92-12.52-41.57-13.11-60.17-1.61-7.81,4.83-15.24,9.19-19.68,11.21-13.37,5.87-25.35-6.12-19.44-19.44,1.83-4.15,5.95-10.73,10.69-17.76,12.91-19.14,12.49-44.29-1.1-62.96-8.77-12.05-17.45-24.87-21.15-33.04-6.25-13.4,10.11-29.76,23.58-23.58,8.33,3.82,21.36,12.5,33.48,21.13,18.21,12.97,42.49,13.58,61.3,1.5,7.37-4.73,14.36-8.92,18.74-10.84,13.26-5.97,25.31,6.07,19.34,19.34Z"/><path class="cls-1" d="m992.56,618.12c-4.59,27.16-19.34,54.34-41.54,76.54l-236.67,236.66c-5.73,5.73-13.16,8.65-20.33,8.65-6.34,0-12.48-2.27-17.09-6.89-9.83-9.83-9.04-26.62,1.77-37.43l236.66-236.66c24.65-24.65,23.16-67.1,8.88-81.38l-369.07-369.78c-4.86-4.86-7.36-11.78-6.85-18.98.49-6.83,3.55-13.38,8.61-18.44,10.8-10.8,27.59-11.6,37.43-1.77l379.32,379.32c16.95,16.95,23.66,41.87,18.88,70.15Z"/></g></svg>