<?xml version="1.0" encoding="UTF-8"?><svg id="_ícones" xmlns="http://www.w3.org/2000/svg" viewBox="0 0 1000 1000"><defs><style>.cls-1{fill:#010101;}</style></defs><g id="telefone"><path d="m112.59,73.39c7.77-6.27,16.58-10.65,25.8-13.09,23.46-6.35,49.56-.3,68,18.14l113.69,113.69c30.26,46.4-17.71,82.43-31.41,113.84-34.27,78.49-34.29,167.19,3.21,242.94,13.03,26.31,30.58,51.08,52.81,73.31l39.54,39.54c22.86,22.86,48.41,40.79,75.59,53.92,75.24,36.39,162.96,36.03,240.66,2.1,31.41-13.7,68.47-60.64,109.8-35.44l117.73,117.73c18.44,18.44,24.49,44.54,18.14,68-1.47,5.59-3.67,11.05-6.6,16.16-3.05,5.47-6.9,10.61-11.54,15.25,0,0-55.74,62.26-79.72,75.69-27.36,15.32-76.96,20.6-124.47,15.41-59.69-6.51-125.67-14.4-190.55-40.99-82.73-33.92-200.74-129.74-273.62-202.62-76.4-76.4-166.17-188.36-201.12-272.13-25.84-61.93-32.95-125.39-40.69-182.79-7.41-54.96.04-110.71,18.16-141.41,13.82-23.42,74.66-75.67,76.6-77.24Z"/><path d="m981.74,444.32c-13.22-102.85-65.34-204.43-146.74-286.02C753.6,76.71,652.14,24.35,549.32,10.88c-24.5-3.21-48.42-4.11-71.55-2.81-15.45.87-27.49,13.72-27.51,29.19,0,.41,0,.82,0,1.22-.02,16.81,14.09,29.87,30.88,29.22,101.28-3.93,217.23,43,309.18,135.17,97.91,98.14,144.44,223.35,132.95,328.97-1.88,17.24,11.66,32.25,29,32.27h.96c14.7.02,27.23-10.87,29.05-25.46,3.75-30.08,3.65-61.68-.55-94.34Z"/><path d="m694.87,298.1c-62.59-62.74-141.45-96.23-214.75-98.13-16.46-.43-30.07,12.76-30.08,29.23,0,.34,0,.69,0,1.03-.02,15.53,12.1,28.4,27.61,29.18,57.38,2.87,120.96,31.57,172.54,83.27,57.15,57.29,86.02,129.25,82.83,191.09-.85,16.46,12.7,30.1,29.18,30.12h.55c15.42.02,28.15-11.94,29.24-27.32,5.65-79.58-27.79-168.97-97.12-238.47Z"/><path class="cls-1" d="m596.43,502.27c-4.2,1.7-11.57,3.4-19.72,4.95-23.3,4.42-41.09,23.3-44.46,46.77-2.14,14.87-4.84,30.1-7.81,38.5-5.08,14.26-28.53,14.5-33.98.35-3.24-8.69-6.61-24.18-9.37-38.86-4.1-21.78-20.81-38.99-42.43-43.86-9.08-2.05-17.56-4.16-22.2-5.84-13.84-5.23-14.02-22.41-.29-27.87,4.27-1.7,11.92-3.55,20.34-5.28,22.93-4.7,40.46-23.22,43.87-46.37,2.2-14.95,5.01-30.39,8.13-38.93,4.98-14.14,28.43-14.38,33.81-.35,3.32,8.67,6.6,24.21,9.25,39.06,3.98,22.31,21.14,39.97,43.33,44.58,8.7,1.8,16.73,3.73,21.25,5.44,13.84,5.08,14.02,22.35.29,27.72Z"/></g></svg>