<?xml version="1.0" encoding="UTF-8"?><svg id="_ícones" xmlns="http://www.w3.org/2000/svg" viewBox="0 0 1000 1000"><defs><style>.cls-1{fill:#010101;}</style></defs><path class="cls-1" d="m911.8,234.53c-5.86,1.53-12.69,3.04-20.68,4.58l-.53.1c-.33.06-.66.13-1,.19-14.02,2.71-24.81,14.18-26.88,28.59-5.81,40.38-10.56,56.57-13.62,65.24l-.04.13c-10.09,28.28-36.96,46.8-68.46,47.19-.34,0-.68,0-1.02,0-31.14,0-58.05-17.8-68.74-45.59l-.17-.46c-5.04-13.52-10.23-34.63-15.85-64.53-2.49-13.22-12.66-23.7-25.92-26.68-23.57-5.31-33.05-8.37-38.13-10.2l-.63-.24c-27.61-10.44-45.6-35.59-45.83-64.06-.24-28.44,17.31-53.85,44.68-64.73,8.47-3.38,20.09-6.49,37.67-10.09,13.96-2.86,24.74-14.24,26.81-28.33l.1-.67c.05-.35.1-.69.15-1.04.83-5.52,1.63-10.58,2.41-15.23-60-26.43-126.34-41.1-196.11-41.1C231.04,7.61,13,225.65,13,494.61c0,88.9,23.82,172.23,65.42,243.96l-63.48,216.21c-6.5,22.11,13.89,42.72,36.07,36.47l225.88-63.64c66.84,34.51,142.71,54,223.11,54,268.96,0,487-218.04,487-487,0-95.64-27.57-184.84-75.2-260.08Zm-138.12,467.55c-.87,3.29-2.17,6.51-3.89,9.52-1.8,3.22-4.06,6.25-6.8,8.99,0,0-32.86,36.69-46.99,44.61-16.12,9.02-45.35,12.13-73.35,9.08-35.17-3.83-74.06-8.48-112.31-24.16-48.76-19.98-118.31-76.46-161.26-119.41-45.02-45.03-97.94-111.01-118.53-160.38-15.23-36.5-19.42-73.9-23.98-107.73-4.37-32.39.02-65.25,10.69-83.34,8.15-13.8,44.01-44.6,45.15-45.53,4.57-3.69,9.77-6.28,15.2-7.72,13.83-3.74,29.21-.17,40.08,10.69l67.01,67.01c17.83,27.34-10.44,48.57-18.51,67.09-20.2,46.26-20.21,98.53,1.89,143.18,7.68,15.5,18.02,30.1,31.13,43.2l23.3,23.31c13.47,13.46,28.53,24.04,44.55,31.78,44.35,21.45,96.04,21.23,141.83,1.24,18.51-8.08,40.35-35.74,64.72-20.89l69.38,69.38c10.87,10.87,14.43,26.25,10.68,40.08Z"/><path class="cls-1" d="m893.47,181.34c-5.31,2.14-14.46,4.29-24.66,6.26-.38.07-.76.15-1.15.22-30.5,5.79-53.79,30.5-58.21,61.23-2.8,19.47-6.33,39.4-10.22,50.4-6.66,18.67-37.35,18.99-44.48.46-4.24-11.38-8.65-31.66-12.27-50.88-5.37-28.52-27.25-51.04-55.56-57.41-11.89-2.68-22.98-5.45-29.07-7.65-18.12-6.85-18.35-29.34-.37-36.49,5.58-2.23,15.6-4.65,26.62-6.91,30.02-6.15,52.97-30.39,57.43-60.71.07-.46.13-.92.2-1.38,2.85-19.13,6.44-38.66,10.43-49.59,6.51-18.51,37.22-18.82,44.26-.46,4.35,11.36,8.64,31.69,12.11,51.13,5.22,29.21,27.68,52.33,56.73,58.36,11.39,2.36,21.9,4.88,27.82,7.12,18.12,6.66,18.35,29.26.37,36.29Z"/></svg>