<svg width="1920" height="540" viewBox="0 0 1920 540" fill="none" xmlns="http://www.w3.org/2000/svg">
<path d="M137.5 522L138.667 529.091L143 531L138.667 532.909L137.5 540L136.333 532.909L132 531L136.333 529.091L137.5 522Z" fill="#E8E8E8"/>
<path d="M1308.5 192L1309.67 199.091L1314 201L1309.67 202.909L1308.5 210L1307.33 202.909L1303 201L1307.33 199.091L1308.5 192Z" fill="#E8E8E8"/>
<path d="M1797.5 235L1798.67 242.091L1803 244L1798.67 245.909L1797.5 253L1796.33 245.909L1792 244L1796.33 242.091L1797.5 235Z" fill="#E8E8E8"/>
<path d="M959.5 100L960.667 107.091L965 109L960.667 110.909L959.5 118L958.333 110.909L954 109L958.333 107.091L959.5 100Z" fill="#E8E8E8"/>
<path d="M717.5 12L718.317 19.6636L723 21L718.317 22.3364L717.5 30L716.683 22.3364L712 21L716.683 19.6636L717.5 12Z" fill="#E8E8E8"/>
<path d="M392 102L393.273 107.909L398 109.5L393.273 111.091L392 117L390.727 111.091L386 109.5L390.727 107.909L392 102Z" fill="#E8E8E8"/>
<path d="M68 131C68 132.105 67.1046 133 66 133C64.8954 133 64 132.105 64 131C64 129.895 64.8954 129 66 129C67.1046 129 68 129.895 68 131Z" fill="#E8E8E8"/>
<path d="M2 321C2 321.552 1.55228 322 1 322C0.447715 322 0 321.552 0 321C0 320.448 0.447715 320 1 320C1.55228 320 2 320.448 2 321Z" fill="#E8E8E8"/>
<path d="M27 486C27 486.552 26.5523 487 26 487C25.4477 487 25 486.552 25 486C25 485.448 25.4477 485 26 485C26.5523 485 27 485.448 27 486Z" fill="#E8E8E8"/>
<path d="M77 457.5C77 458.328 76.3284 459 75.5 459C74.6716 459 74 458.328 74 457.5C74 456.672 74.6716 456 75.5 456C76.3284 456 77 456.672 77 457.5Z" fill="#E8E8E8"/>
<path d="M200 346C200 346.552 199.552 347 199 347C198.448 347 198 346.552 198 346C198 345.448 198.448 345 199 345C199.552 345 200 345.448 200 346Z" fill="#E8E8E8"/>
<path d="M261 378C261 378.552 260.552 379 260 379C259.448 379 259 378.552 259 378C259 377.448 259.448 377 260 377C260.552 377 261 377.448 261 378Z" fill="#E8E8E8"/>
<path d="M298 525C298 526.105 297.105 527 296 527C294.895 527 294 526.105 294 525C294 523.895 294.895 523 296 523C297.105 523 298 523.895 298 525Z" fill="#E8E8E8"/>
<path d="M323 524C323 525.105 322.105 526 321 526C319.895 526 319 525.105 319 524C319 522.895 319.895 522 321 522C322.105 522 323 522.895 323 524Z" fill="#E8E8E8"/>
<path d="M398 294C398 294.552 397.552 295 397 295C396.448 295 396 294.552 396 294C396 293.448 396.448 293 397 293C397.552 293 398 293.448 398 294Z" fill="#E8E8E8"/>
<path d="M435 207.5C435 208.881 433.881 210 432.5 210C431.119 210 430 208.881 430 207.5C430 206.119 431.119 205 432.5 205C433.881 205 435 206.119 435 207.5Z" fill="#E8E8E8"/>
<path d="M540 82C540 82.5523 539.552 83 539 83C538.448 83 538 82.5523 538 82C538 81.4477 538.448 81 539 81C539.552 81 540 81.4477 540 82Z" fill="#E8E8E8"/>
<path d="M553 83C553 83.5523 552.552 84 552 84C551.448 84 551 83.5523 551 83C551 82.4477 551.448 82 552 82C552.552 82 553 82.4477 553 83Z" fill="#E8E8E8"/>
<path d="M769 495C769 495.552 768.552 496 768 496C767.448 496 767 495.552 767 495C767 494.448 767.448 494 768 494C768.552 494 769 494.448 769 495Z" fill="#E8E8E8"/>
<path d="M815 481C815 481.552 814.552 482 814 482C813.448 482 813 481.552 813 481C813 480.448 813.448 480 814 480C814.552 480 815 480.448 815 481Z" fill="#E8E8E8"/>
<path d="M899 474C899 474.552 898.552 475 898 475C897.448 475 897 474.552 897 474C897 473.448 897.448 473 898 473C898.552 473 899 473.448 899 474Z" fill="#E8E8E8"/>
<path d="M965 495C965 495.552 964.552 496 964 496C963.448 496 963 495.552 963 495C963 494.448 963.448 494 964 494C964.552 494 965 494.448 965 495Z" fill="#E8E8E8"/>
<path d="M919 412C919 412.552 918.552 413 918 413C917.448 413 917 412.552 917 412C917 411.448 917.448 411 918 411C918.552 411 919 411.448 919 412Z" fill="#E8E8E8"/>
<path d="M1137 505C1137 505.552 1136.55 506 1136 506C1135.45 506 1135 505.552 1135 505C1135 504.448 1135.45 504 1136 504C1136.55 504 1137 504.448 1137 505Z" fill="#E8E8E8"/>
<path d="M1097 458C1097 459.105 1096.1 460 1095 460C1093.9 460 1093 459.105 1093 458C1093 456.895 1093.9 456 1095 456C1096.1 456 1097 456.895 1097 458Z" fill="#E8E8E8"/>
<path d="M1111 386C1111 386.552 1110.55 387 1110 387C1109.45 387 1109 386.552 1109 386C1109 385.448 1109.45 385 1110 385C1110.55 385 1111 385.448 1111 386Z" fill="#E8E8E8"/>
<path d="M697 410C697 410.552 696.552 411 696 411C695.448 411 695 410.552 695 410C695 409.448 695.448 409 696 409C696.552 409 697 409.448 697 410Z" fill="#E8E8E8"/>
<path d="M778 431.5C778 432.328 777.328 433 776.5 433C775.672 433 775 432.328 775 431.5C775 430.672 775.672 430 776.5 430C777.328 430 778 430.672 778 431.5Z" fill="#E8E8E8"/>
<path d="M830 363C830 363.552 829.552 364 829 364C828.448 364 828 363.552 828 363C828 362.448 828.448 362 829 362C829.552 362 830 362.448 830 363Z" fill="#E8E8E8"/>
<path d="M860 319C860 320.105 859.105 321 858 321C856.895 321 856 320.105 856 319C856 317.895 856.895 317 858 317C859.105 317 860 317.895 860 319Z" fill="#E8E8E8"/>
<path d="M727 296C727 297.657 725.657 299 724 299C722.343 299 721 297.657 721 296C721 294.343 722.343 293 724 293C725.657 293 727 294.343 727 296Z" fill="#E8E8E8"/>
<path d="M691 249C691 249.552 690.552 250 690 250C689.448 250 689 249.552 689 249C689 248.448 689.448 248 690 248C690.552 248 691 248.448 691 249Z" fill="#E8E8E8"/>
<path d="M677 217.5C677 218.328 676.328 219 675.5 219C674.672 219 674 218.328 674 217.5C674 216.672 674.672 216 675.5 216C676.328 216 677 216.672 677 217.5Z" fill="#E8E8E8"/>
<path d="M612 234C612 234.552 611.552 235 611 235C610.448 235 610 234.552 610 234C610 233.448 610.448 233 611 233C611.552 233 612 233.448 612 234Z" fill="#E8E8E8"/>
<path d="M729 197.5C729 198.328 728.328 199 727.5 199C726.672 199 726 198.328 726 197.5C726 196.672 726.672 196 727.5 196C728.328 196 729 196.672 729 197.5Z" fill="#E8E8E8"/>
<path d="M838 218C838 218.552 837.552 219 837 219C836.448 219 836 218.552 836 218C836 217.448 836.448 217 837 217C837.552 217 838 217.448 838 218Z" fill="#E8E8E8"/>
<path d="M797 163C797 164.105 796.105 165 795 165C793.895 165 793 164.105 793 163C793 161.895 793.895 161 795 161C796.105 161 797 161.895 797 163Z" fill="#E8E8E8"/>
<path d="M780 46.5C780 47.3284 779.328 48 778.5 48C777.672 48 777 47.3284 777 46.5C777 45.6716 777.672 45 778.5 45C779.328 45 780 45.6716 780 46.5Z" fill="#E8E8E8"/>
<path d="M1108 208C1108 208.552 1107.55 209 1107 209C1106.45 209 1106 208.552 1106 208C1106 207.448 1106.45 207 1107 207C1107.55 207 1108 207.448 1108 208Z" fill="#E8E8E8"/>
<path d="M1182 255.5C1182 256.328 1181.33 257 1180.5 257C1179.67 257 1179 256.328 1179 255.5C1179 254.672 1179.67 254 1180.5 254C1181.33 254 1182 254.672 1182 255.5Z" fill="#E8E8E8"/>
<path d="M1342 288.5C1342 289.328 1341.33 290 1340.5 290C1339.67 290 1339 289.328 1339 288.5C1339 287.672 1339.67 287 1340.5 287C1341.33 287 1342 287.672 1342 288.5Z" fill="#E8E8E8"/>
<path d="M1372 357C1372 358.105 1371.1 359 1370 359C1368.9 359 1368 358.105 1368 357C1368 355.895 1368.9 355 1370 355C1371.1 355 1372 355.895 1372 357Z" fill="#E8E8E8"/>
<path d="M1517 317C1517 317.552 1516.55 318 1516 318C1515.45 318 1515 317.552 1515 317C1515 316.448 1515.45 316 1516 316C1516.55 316 1517 316.448 1517 317Z" fill="#E8E8E8"/>
<path d="M1688 375C1688 376.105 1687.1 377 1686 377C1684.9 377 1684 376.105 1684 375C1684 373.895 1684.9 373 1686 373C1687.1 373 1688 373.895 1688 375Z" fill="#E8E8E8"/>
<path d="M1600 290C1600 290.552 1599.55 291 1599 291C1598.45 291 1598 290.552 1598 290C1598 289.448 1598.45 289 1599 289C1599.55 289 1600 289.448 1600 290Z" fill="#E8E8E8"/>
<path d="M1715 297C1715 297.552 1714.55 298 1714 298C1713.45 298 1713 297.552 1713 297C1713 296.448 1713.45 296 1714 296C1714.55 296 1715 296.448 1715 297Z" fill="#E8E8E8"/>
<path d="M1900 290C1900 290.552 1899.55 291 1899 291C1898.45 291 1898 290.552 1898 290C1898 289.448 1898.45 289 1899 289C1899.55 289 1900 289.448 1900 290Z" fill="#E8E8E8"/>
<path d="M1920 209C1920 209.552 1919.55 210 1919 210C1918.45 210 1918 209.552 1918 209C1918 208.448 1918.45 208 1919 208C1919.55 208 1920 208.448 1920 209Z" fill="#E8E8E8"/>
<path d="M1800 153C1800 153.552 1799.55 154 1799 154C1798.45 154 1798 153.552 1798 153C1798 152.448 1798.45 152 1799 152C1799.55 152 1800 152.448 1800 153Z" fill="#E8E8E8"/>
<path d="M1715 153C1715 153.552 1714.55 154 1714 154C1713.45 154 1713 153.552 1713 153C1713 152.448 1713.45 152 1714 152C1714.55 152 1715 152.448 1715 153Z" fill="#E8E8E8"/>
<path d="M1068 1C1068 1.55228 1067.55 2 1067 2C1066.45 2 1066 1.55228 1066 1C1066 0.447715 1066.45 0 1067 0C1067.55 0 1068 0.447715 1068 1Z" fill="#E8E8E8"/>
<path d="M1149 51C1149 51.5523 1148.55 52 1148 52C1147.45 52 1147 51.5523 1147 51C1147 50.4477 1147.45 50 1148 50C1148.55 50 1149 50.4477 1149 51Z" fill="#E8E8E8"/>
<path d="M1200 91.5C1200 92.8807 1198.88 94 1197.5 94C1196.12 94 1195 92.8807 1195 91.5C1195 90.1193 1196.12 89 1197.5 89C1198.88 89 1200 90.1193 1200 91.5Z" fill="#E8E8E8"/>
<path d="M1310 56C1310 56.5523 1309.55 57 1309 57C1308.45 57 1308 56.5523 1308 56C1308 55.4477 1308.45 55 1309 55C1309.55 55 1310 55.4477 1310 56Z" fill="#E8E8E8"/>
<path d="M1445 78C1445 78.5523 1444.55 79 1444 79C1443.45 79 1443 78.5523 1443 78C1443 77.4477 1443.45 77 1444 77C1444.55 77 1445 77.4477 1445 78Z" fill="#E8E8E8"/>
<path d="M1517 32C1517 33.1046 1516.1 34 1515 34C1513.9 34 1513 33.1046 1513 32C1513 30.8954 1513.9 30 1515 30C1516.1 30 1517 30.8954 1517 32Z" fill="#E8E8E8"/>
<path d="M1468 9C1468 10.6569 1466.66 12 1465 12C1463.34 12 1462 10.6569 1462 9C1462 7.34315 1463.34 6 1465 6C1466.66 6 1468 7.34315 1468 9Z" fill="#E8E8E8"/>
<path d="M1566 524C1566 525.657 1564.66 527 1563 527C1561.34 527 1560 525.657 1560 524C1560 522.343 1561.34 521 1563 521C1564.66 521 1566 522.343 1566 524Z" fill="#E8E8E8"/>
<path d="M1530 477C1530 477.552 1529.55 478 1529 478C1528.45 478 1528 477.552 1528 477C1528 476.448 1528.45 476 1529 476C1529.55 476 1530 476.448 1530 477Z" fill="#E8E8E8"/>
<path d="M1516 445.5C1516 446.328 1515.33 447 1514.5 447C1513.67 447 1513 446.328 1513 445.5C1513 444.672 1513.67 444 1514.5 444C1515.33 444 1516 444.672 1516 445.5Z" fill="#E8E8E8"/>
<path d="M1451 462C1451 462.552 1450.55 463 1450 463C1449.45 463 1449 462.552 1449 462C1449 461.448 1449.45 461 1450 461C1450.55 461 1451 461.448 1451 462Z" fill="#E8E8E8"/>
<path d="M1568 425.5C1568 426.328 1567.33 427 1566.5 427C1565.67 427 1565 426.328 1565 425.5C1565 424.672 1565.67 424 1566.5 424C1567.33 424 1568 424.672 1568 425.5Z" fill="#E8E8E8"/>
<path d="M1858 465L1859.17 472.091L1863.5 474L1859.17 475.909L1858 483L1856.83 475.909L1852.5 474L1856.83 472.091L1858 465Z" fill="#E8E8E8"/>
<path d="M690 249C690 249.552 689.552 250 689 250C688.448 250 688 249.552 688 249C688 248.448 688.448 248 689 248C689.552 248 690 248.448 690 249Z" fill="#E8E8E8"/>
<path d="M676 217.5C676 218.328 675.328 219 674.5 219C673.672 219 673 218.328 673 217.5C673 216.672 673.672 216 674.5 216C675.328 216 676 216.672 676 217.5Z" fill="#E8E8E8"/>
<path d="M611 234C611 234.552 610.552 235 610 235C609.448 235 609 234.552 609 234C609 233.448 609.448 233 610 233C610.552 233 611 233.448 611 234Z" fill="#E8E8E8"/>
<path d="M728 197.5C728 198.328 727.328 199 726.5 199C725.672 199 725 198.328 725 197.5C725 196.672 725.672 196 726.5 196C727.328 196 728 196.672 728 197.5Z" fill="#E8E8E8"/>
<path d="M138 199C138 199.552 137.552 200 137 200C136.448 200 136 199.552 136 199C136 198.448 136.448 198 137 198C137.552 198 138 198.448 138 199Z" fill="#E8E8E8"/>
<path d="M124 167.5C124 168.328 123.328 169 122.5 169C121.672 169 121 168.328 121 167.5C121 166.672 121.672 166 122.5 166C123.328 166 124 166.672 124 167.5Z" fill="#E8E8E8"/>
<path d="M59 184C59 184.552 58.5523 185 58 185C57.4477 185 57 184.552 57 184C57 183.448 57.4477 183 58 183C58.5523 183 59 183.448 59 184Z" fill="#E8E8E8"/>
<path d="M176 147.5C176 148.328 175.328 149 174.5 149C173.672 149 173 148.328 173 147.5C173 146.672 173.672 146 174.5 146C175.328 146 176 146.672 176 147.5Z" fill="#E8E8E8"/>
<path d="M1795 469C1795 469.552 1794.55 470 1794 470C1793.45 470 1793 469.552 1793 469C1793 468.448 1793.45 468 1794 468C1794.55 468 1795 468.448 1795 469Z" fill="#E8E8E8"/>
<path d="M1867 423C1867 424.105 1866.1 425 1865 425C1863.9 425 1863 424.105 1863 423C1863 421.895 1863.9 421 1865 421C1866.1 421 1867 421.895 1867 423Z" fill="#E8E8E8"/>
</svg>
