<svg width="1863" height="270" viewBox="0 0 1863 270" fill="none" xmlns="http://www.w3.org/2000/svg">
<path d="M1251.5 205L1252.67 212.091L1257 214L1252.67 215.909L1251.5 223L1250.33 215.909L1246 214L1250.33 212.091L1251.5 205Z" fill="#E8E8E8"/>
<path d="M1740.5 235L1741.67 242.091L1746 244L1741.67 245.909L1740.5 253L1739.33 245.909L1735 244L1739.33 242.091L1740.5 235Z" fill="#E8E8E8"/>
<path d="M902.5 100L903.667 107.091L908 109L903.667 110.909L902.5 118L901.333 110.909L897 109L901.333 107.091L902.5 100Z" fill="#E8E8E8"/>
<path d="M660.5 12L661.317 19.6636L666 21L661.317 22.3364L660.5 30L659.683 22.3364L655 21L659.683 19.6636L660.5 12Z" fill="#E8E8E8"/>
<path d="M335 102L336.273 107.909L341 109.5L336.273 111.091L335 117L333.727 111.091L329 109.5L333.727 107.909L335 102Z" fill="#E8E8E8"/>
<path d="M11 131C11 132.105 10.1046 133 9 133C7.89543 133 7 132.105 7 131C7 129.895 7.89543 129 9 129C10.1046 129 11 129.895 11 131Z" fill="#E8E8E8"/>
<path d="M378 207.5C378 208.881 376.881 210 375.5 210C374.119 210 373 208.881 373 207.5C373 206.119 374.119 205 375.5 205C376.881 205 378 206.119 378 207.5Z" fill="#E8E8E8"/>
<path d="M483 82C483 82.5523 482.552 83 482 83C481.448 83 481 82.5523 481 82C481 81.4477 481.448 81 482 81C482.552 81 483 81.4477 483 82Z" fill="#E8E8E8"/>
<path d="M496 83C496 83.5523 495.552 84 495 84C494.448 84 494 83.5523 494 83C494 82.4477 494.448 82 495 82C495.552 82 496 82.4477 496 83Z" fill="#E8E8E8"/>
<path d="M634 259C634 259.552 633.552 260 633 260C632.448 260 632 259.552 632 259C632 258.448 632.448 258 633 258C633.552 258 634 258.448 634 259Z" fill="#E8E8E8"/>
<path d="M620 227.5C620 228.328 619.328 229 618.5 229C617.672 229 617 228.328 617 227.5C617 226.672 617.672 226 618.5 226C619.328 226 620 226.672 620 227.5Z" fill="#E8E8E8"/>
<path d="M555 244C555 244.552 554.552 245 554 245C553.448 245 553 244.552 553 244C553 243.448 553.448 243 554 243C554.552 243 555 243.448 555 244Z" fill="#E8E8E8"/>
<path d="M672 207.5C672 208.328 671.328 209 670.5 209C669.672 209 669 208.328 669 207.5C669 206.672 669.672 206 670.5 206C671.328 206 672 206.672 672 207.5Z" fill="#E8E8E8"/>
<path d="M781 228C781 228.552 780.552 229 780 229C779.448 229 779 228.552 779 228C779 227.448 779.448 227 780 227C780.552 227 781 227.448 781 228Z" fill="#E8E8E8"/>
<path d="M740 173C740 174.105 739.105 175 738 175C736.895 175 736 174.105 736 173C736 171.895 736.895 171 738 171C739.105 171 740 171.895 740 173Z" fill="#E8E8E8"/>
<path d="M723 46.5C723 47.3284 722.328 48 721.5 48C720.672 48 720 47.3284 720 46.5C720 45.6716 720.672 45 721.5 45C722.328 45 723 45.6716 723 46.5Z" fill="#E8E8E8"/>
<path d="M1051 221C1051 221.552 1050.55 222 1050 222C1049.45 222 1049 221.552 1049 221C1049 220.448 1049.45 220 1050 220C1050.55 220 1051 220.448 1051 221Z" fill="#E8E8E8"/>
<path d="M1125 268.5C1125 269.328 1124.33 270 1123.5 270C1122.67 270 1122 269.328 1122 268.5C1122 267.672 1122.67 267 1123.5 267C1124.33 267 1125 267.672 1125 268.5Z" fill="#E8E8E8"/>
<path d="M1863 209C1863 209.552 1862.55 210 1862 210C1861.45 210 1861 209.552 1861 209C1861 208.448 1861.45 208 1862 208C1862.55 208 1863 208.448 1863 209Z" fill="#E8E8E8"/>
<path d="M1743 153C1743 153.552 1742.55 154 1742 154C1741.45 154 1741 153.552 1741 153C1741 152.448 1741.45 152 1742 152C1742.55 152 1743 152.448 1743 153Z" fill="#E8E8E8"/>
<path d="M1658 153C1658 153.552 1657.55 154 1657 154C1656.45 154 1656 153.552 1656 153C1656 152.448 1656.45 152 1657 152C1657.55 152 1658 152.448 1658 153Z" fill="#E8E8E8"/>
<path d="M1011 1C1011 1.55228 1010.55 2 1010 2C1009.45 2 1009 1.55228 1009 1C1009 0.447715 1009.45 0 1010 0C1010.55 0 1011 0.447715 1011 1Z" fill="#E8E8E8"/>
<path d="M1092 51C1092 51.5523 1091.55 52 1091 52C1090.45 52 1090 51.5523 1090 51C1090 50.4477 1090.45 50 1091 50C1091.55 50 1092 50.4477 1092 51Z" fill="#E8E8E8"/>
<path d="M1143 91.5C1143 92.8807 1141.88 94 1140.5 94C1139.12 94 1138 92.8807 1138 91.5C1138 90.1193 1139.12 89 1140.5 89C1141.88 89 1143 90.1193 1143 91.5Z" fill="#E8E8E8"/>
<path d="M1253 56C1253 56.5523 1252.55 57 1252 57C1251.45 57 1251 56.5523 1251 56C1251 55.4477 1251.45 55 1252 55C1252.55 55 1253 55.4477 1253 56Z" fill="#E8E8E8"/>
<path d="M1388 78C1388 78.5523 1387.55 79 1387 79C1386.45 79 1386 78.5523 1386 78C1386 77.4477 1386.45 77 1387 77C1387.55 77 1388 77.4477 1388 78Z" fill="#E8E8E8"/>
<path d="M1460 32C1460 33.1046 1459.1 34 1458 34C1456.9 34 1456 33.1046 1456 32C1456 30.8954 1456.9 30 1458 30C1459.1 30 1460 30.8954 1460 32Z" fill="#E8E8E8"/>
<path d="M1411 9C1411 10.6569 1409.66 12 1408 12C1406.34 12 1405 10.6569 1405 9C1405 7.34315 1406.34 6 1408 6C1409.66 6 1411 7.34315 1411 9Z" fill="#E8E8E8"/>
<path d="M633 259C633 259.552 632.552 260 632 260C631.448 260 631 259.552 631 259C631 258.448 631.448 258 632 258C632.552 258 633 258.448 633 259Z" fill="#E8E8E8"/>
<path d="M619 227.5C619 228.328 618.328 229 617.5 229C616.672 229 616 228.328 616 227.5C616 226.672 616.672 226 617.5 226C618.328 226 619 226.672 619 227.5Z" fill="#E8E8E8"/>
<path d="M554 244C554 244.552 553.552 245 553 245C552.448 245 552 244.552 552 244C552 243.448 552.448 243 553 243C553.552 243 554 243.448 554 244Z" fill="#E8E8E8"/>
<path d="M671 207.5C671 208.328 670.328 209 669.5 209C668.672 209 668 208.328 668 207.5C668 206.672 668.672 206 669.5 206C670.328 206 671 206.672 671 207.5Z" fill="#E8E8E8"/>
<path d="M81 199C81 199.552 80.5523 200 80 200C79.4477 200 79 199.552 79 199C79 198.448 79.4477 198 80 198C80.5523 198 81 198.448 81 199Z" fill="#E8E8E8"/>
<path d="M67 167.5C67 168.328 66.3284 169 65.5 169C64.6716 169 64 168.328 64 167.5C64 166.672 64.6716 166 65.5 166C66.3284 166 67 166.672 67 167.5Z" fill="#E8E8E8"/>
<path d="M2 184C2 184.552 1.55228 185 1 185C0.447715 185 0 184.552 0 184C0 183.448 0.447715 183 1 183C1.55228 183 2 183.448 2 184Z" fill="#E8E8E8"/>
<path d="M119 147.5C119 148.328 118.328 149 117.5 149C116.672 149 116 148.328 116 147.5C116 146.672 116.672 146 117.5 146C118.328 146 119 146.672 119 147.5Z" fill="#E8E8E8"/>
</svg>
