<svg width="1920" height="1080" viewBox="0 0 1920 1080" fill="none" xmlns="http://www.w3.org/2000/svg">
<path d="M1550.5 915L1551.67 922.091L1556 924L1551.67 925.909L1550.5 933L1549.33 925.909L1545 924L1549.33 922.091L1550.5 915Z" fill="#E8E8E8"/>
<path d="M929.5 864L930.667 871.091L935 873L930.667 874.909L929.5 882L928.333 874.909L924 873L928.333 871.091L929.5 864Z" fill="#E8E8E8"/>
<path d="M137.5 502L138.667 509.091L143 511L138.667 512.909L137.5 520L136.333 512.909L132 511L136.333 509.091L137.5 502Z" fill="#E8E8E8"/>
<path d="M474.5 924L475.667 931.091L480 933L475.667 934.909L474.5 942L473.333 934.909L469 933L473.333 931.091L474.5 924Z" fill="#E8E8E8"/>
<path d="M1109.5 616L1110.67 623.091L1115 625L1110.67 626.909L1109.5 634L1108.33 626.909L1104 625L1108.33 623.091L1109.5 616Z" fill="#E8E8E8"/>
<path d="M1308.5 192L1309.67 199.091L1314 201L1309.67 202.909L1308.5 210L1307.33 202.909L1303 201L1307.33 199.091L1308.5 192Z" fill="#E8E8E8"/>
<path d="M1808.5 688L1809.67 695.091L1814 697L1809.67 698.909L1808.5 706L1807.33 698.909L1803 697L1807.33 695.091L1808.5 688Z" fill="#E8E8E8"/>
<path d="M1783.5 235L1784.67 242.091L1789 244L1784.67 245.909L1783.5 253L1782.33 245.909L1778 244L1782.33 242.091L1783.5 235Z" fill="#E8E8E8"/>
<path d="M959.5 100L960.667 107.091L965 109L960.667 110.909L959.5 118L958.333 110.909L954 109L958.333 107.091L959.5 100Z" fill="#E8E8E8"/>
<path d="M717.5 12L718.317 19.6636L723 21L718.317 22.3364L717.5 30L716.683 22.3364L712 21L716.683 19.6636L717.5 12Z" fill="#E8E8E8"/>
<path d="M392 102L393.273 107.909L398 109.5L393.273 111.091L392 117L390.727 111.091L386 109.5L390.727 107.909L392 102Z" fill="#E8E8E8"/>
<path d="M68 131C68 132.105 67.1046 133 66 133C64.8954 133 64 132.105 64 131C64 129.895 64.8954 129 66 129C67.1046 129 68 129.895 68 131Z" fill="#E8E8E8"/>
<path d="M2 321C2 321.552 1.55228 322 1 322C0.447715 322 0 321.552 0 321C0 320.448 0.447715 320 1 320C1.55228 320 2 320.448 2 321Z" fill="#E8E8E8"/>
<path d="M27 466C27 466.552 26.5523 467 26 467C25.4477 467 25 466.552 25 466C25 465.448 25.4477 465 26 465C26.5523 465 27 465.448 27 466Z" fill="#E8E8E8"/>
<path d="M77 437.5C77 438.328 76.3284 439 75.5 439C74.6716 439 74 438.328 74 437.5C74 436.672 74.6716 436 75.5 436C76.3284 436 77 436.672 77 437.5Z" fill="#E8E8E8"/>
<path d="M200 346C200 346.552 199.552 347 199 347C198.448 347 198 346.552 198 346C198 345.448 198.448 345 199 345C199.552 345 200 345.448 200 346Z" fill="#E8E8E8"/>
<path d="M261 378C261 378.552 260.552 379 260 379C259.448 379 259 378.552 259 378C259 377.448 259.448 377 260 377C260.552 377 261 377.448 261 378Z" fill="#E8E8E8"/>
<path d="M298 505C298 506.105 297.105 507 296 507C294.895 507 294 506.105 294 505C294 503.895 294.895 503 296 503C297.105 503 298 503.895 298 505Z" fill="#E8E8E8"/>
<path d="M323 504C323 505.105 322.105 506 321 506C319.895 506 319 505.105 319 504C319 502.895 319.895 502 321 502C322.105 502 323 502.895 323 504Z" fill="#E8E8E8"/>
<path d="M313 722.5C313 723.881 311.881 725 310.5 725C309.119 725 308 723.881 308 722.5C308 721.119 309.119 720 310.5 720C311.881 720 313 721.119 313 722.5Z" fill="#E8E8E8"/>
<path d="M137 834C137 834.552 136.552 835 136 835C135.448 835 135 834.552 135 834C135 833.448 135.448 833 136 833C136.552 833 137 833.448 137 834Z" fill="#E8E8E8"/>
<path d="M41 829C41 829.552 40.5523 830 40 830C39.4477 830 39 829.552 39 829C39 828.448 39.4477 828 40 828C40.5523 828 41 828.448 41 829Z" fill="#E8E8E8"/>
<path d="M398 294C398 294.552 397.552 295 397 295C396.448 295 396 294.552 396 294C396 293.448 396.448 293 397 293C397.552 293 398 293.448 398 294Z" fill="#E8E8E8"/>
<path d="M435 207.5C435 208.881 433.881 210 432.5 210C431.119 210 430 208.881 430 207.5C430 206.119 431.119 205 432.5 205C433.881 205 435 206.119 435 207.5Z" fill="#E8E8E8"/>
<path d="M540 82C540 82.5523 539.552 83 539 83C538.448 83 538 82.5523 538 82C538 81.4477 538.448 81 539 81C539.552 81 540 81.4477 540 82Z" fill="#E8E8E8"/>
<path d="M553 83C553 83.5523 552.552 84 552 84C551.448 84 551 83.5523 551 83C551 82.4477 551.448 82 552 82C552.552 82 553 82.4477 553 83Z" fill="#E8E8E8"/>
<path d="M94 1072C94 1072.55 93.5523 1073 93 1073C92.4477 1073 92 1072.55 92 1072C92 1071.45 92.4477 1071 93 1071C93.5523 1071 94 1071.45 94 1072Z" fill="#E8E8E8"/>
<path d="M102 997C102 997.552 101.552 998 101 998C100.448 998 100 997.552 100 997C100 996.448 100.448 996 101 996C101.552 996 102 996.448 102 997Z" fill="#E8E8E8"/>
<path d="M187 959.5C187 960.328 186.328 961 185.5 961C184.672 961 184 960.328 184 959.5C184 958.672 184.672 958 185.5 958C186.328 958 187 958.672 187 959.5Z" fill="#E8E8E8"/>
<path d="M230 1003C230 1003.55 229.552 1004 229 1004C228.448 1004 228 1003.55 228 1003C228 1002.45 228.448 1002 229 1002C229.552 1002 230 1002.45 230 1003Z" fill="#E8E8E8"/>
<path d="M281 965C281 965.552 280.552 966 280 966C279.448 966 279 965.552 279 965C279 964.448 279.448 964 280 964C280.552 964 281 964.448 281 965Z" fill="#E8E8E8"/>
<path d="M265 1078C265 1079.1 264.105 1080 263 1080C261.895 1080 261 1079.1 261 1078C261 1076.9 261.895 1076 263 1076C264.105 1076 265 1076.9 265 1078Z" fill="#E8E8E8"/>
<path d="M381 1050C381 1050.55 380.552 1051 380 1051C379.448 1051 379 1050.55 379 1050C379 1049.45 379.448 1049 380 1049C380.552 1049 381 1049.45 381 1050Z" fill="#E8E8E8"/>
<path d="M424 1003C424 1004.1 423.105 1005 422 1005C420.895 1005 420 1004.1 420 1003C420 1001.9 420.895 1001 422 1001C423.105 1001 424 1001.9 424 1003Z" fill="#E8E8E8"/>
<path d="M464 723C464 723.552 463.552 724 463 724C462.448 724 462 723.552 462 723C462 722.448 462.448 722 463 722C463.552 722 464 722.448 464 723Z" fill="#E8E8E8"/>
<path d="M615 626C615 626.552 614.552 627 614 627C613.448 627 613 626.552 613 626C613 625.448 613.448 625 614 625C614.552 625 615 625.448 615 626Z" fill="#E8E8E8"/>
<path d="M557 584C557 585.105 556.105 586 555 586C553.895 586 553 585.105 553 584C553 582.895 553.895 582 555 582C556.105 582 557 582.895 557 584Z" fill="#E8E8E8"/>
<path d="M616 549C616 549.552 615.552 550 615 550C614.448 550 614 549.552 614 549C614 548.448 614.448 548 615 548C615.552 548 616 548.448 616 549Z" fill="#E8E8E8"/>
<path d="M673 1063.5C673 1064.88 671.881 1066 670.5 1066C669.119 1066 668 1064.88 668 1063.5C668 1062.12 669.119 1061 670.5 1061C671.881 1061 673 1062.12 673 1063.5Z" fill="#E8E8E8"/>
<path d="M805 1065C805 1065.55 804.552 1066 804 1066C803.448 1066 803 1065.55 803 1065C803 1064.45 803.448 1064 804 1064C804.552 1064 805 1064.45 805 1065Z" fill="#E8E8E8"/>
<path d="M922 1057C922 1057.55 921.552 1058 921 1058C920.448 1058 920 1057.55 920 1057C920 1056.45 920.448 1056 921 1056C921.552 1056 922 1056.45 922 1057Z" fill="#E8E8E8"/>
<path d="M1074 1068.5C1074 1069.88 1072.88 1071 1071.5 1071C1070.12 1071 1069 1069.88 1069 1068.5C1069 1067.12 1070.12 1066 1071.5 1066C1072.88 1066 1074 1067.12 1074 1068.5Z" fill="#E8E8E8"/>
<path d="M1093 999C1093 999.552 1092.55 1000 1092 1000C1091.45 1000 1091 999.552 1091 999C1091 998.448 1091.45 998 1092 998C1092.55 998 1093 998.448 1093 999Z" fill="#E8E8E8"/>
<path d="M1017 969C1017 970.105 1016.1 971 1015 971C1013.9 971 1013 970.105 1013 969C1013 967.895 1013.9 967 1015 967C1016.1 967 1017 967.895 1017 969Z" fill="#E8E8E8"/>
<path d="M865 1001.5C865 1002.88 863.881 1004 862.5 1004C861.119 1004 860 1002.88 860 1001.5C860 1000.12 861.119 999 862.5 999C863.881 999 865 1000.12 865 1001.5Z" fill="#E8E8E8"/>
<path d="M838 924.5C838 925.328 837.328 926 836.5 926C835.672 926 835 925.328 835 924.5C835 923.672 835.672 923 836.5 923C837.328 923 838 923.672 838 924.5Z" fill="#E8E8E8"/>
<path d="M1101 935.5C1101 936.328 1100.33 937 1099.5 937C1098.67 937 1098 936.328 1098 935.5C1098 934.672 1098.67 934 1099.5 934C1100.33 934 1101 934.672 1101 935.5Z" fill="#E8E8E8"/>
<path d="M1090 866C1090 867.105 1089.1 868 1088 868C1086.9 868 1086 867.105 1086 866C1086 864.895 1086.9 864 1088 864C1089.1 864 1090 864.895 1090 866Z" fill="#E8E8E8"/>
<path d="M1460 984.5C1460 985.328 1459.33 986 1458.5 986C1457.67 986 1457 985.328 1457 984.5C1457 983.672 1457.67 983 1458.5 983C1459.33 983 1460 983.672 1460 984.5Z" fill="#E8E8E8"/>
<path d="M1494 1014.5C1494 1015.33 1493.33 1016 1492.5 1016C1491.67 1016 1491 1015.33 1491 1014.5C1491 1013.67 1491.67 1013 1492.5 1013C1493.33 1013 1494 1013.67 1494 1014.5Z" fill="#E8E8E8"/>
<path d="M1470 1073C1470 1073.55 1469.55 1074 1469 1074C1468.45 1074 1468 1073.55 1468 1073C1468 1072.45 1468.45 1072 1469 1072C1469.55 1072 1470 1072.45 1470 1073Z" fill="#E8E8E8"/>
<path d="M1617 1039C1617 1040.1 1616.1 1041 1615 1041C1613.9 1041 1613 1040.1 1613 1039C1613 1037.9 1613.9 1037 1615 1037C1616.1 1037 1617 1037.9 1617 1039Z" fill="#E8E8E8"/>
<path d="M1830 1066C1830 1067.66 1828.66 1069 1827 1069C1825.34 1069 1824 1067.66 1824 1066C1824 1064.34 1825.34 1063 1827 1063C1828.66 1063 1830 1064.34 1830 1066Z" fill="#E8E8E8"/>
<path d="M1920 1042C1920 1043.1 1919.1 1044 1918 1044C1916.9 1044 1916 1043.1 1916 1042C1916 1040.9 1916.9 1040 1918 1040C1919.1 1040 1920 1040.9 1920 1042Z" fill="#E8E8E8"/>
<path d="M1656 954C1656 954.552 1655.55 955 1655 955C1654.45 955 1654 954.552 1654 954C1654 953.448 1654.45 953 1655 953C1655.55 953 1656 953.448 1656 954Z" fill="#E8E8E8"/>
<path d="M1814 621C1814 622.657 1812.66 624 1811 624C1809.34 624 1808 622.657 1808 621C1808 619.343 1809.34 618 1811 618C1812.66 618 1814 619.343 1814 621Z" fill="#E8E8E8"/>
<path d="M1889 671.5C1889 672.328 1888.33 673 1887.5 673C1886.67 673 1886 672.328 1886 671.5C1886 670.672 1886.67 670 1887.5 670C1888.33 670 1889 670.672 1889 671.5Z" fill="#E8E8E8"/>
<path d="M1906 753.5C1906 754.328 1905.33 755 1904.5 755C1903.67 755 1903 754.328 1903 753.5C1903 752.672 1903.67 752 1904.5 752C1905.33 752 1906 752.672 1906 753.5Z" fill="#E8E8E8"/>
<path d="M1198 788.5C1198 789.328 1197.33 790 1196.5 790C1195.67 790 1195 789.328 1195 788.5C1195 787.672 1195.67 787 1196.5 787C1197.33 787 1198 787.672 1198 788.5Z" fill="#E8E8E8"/>
<path d="M1255 822C1255 822.552 1254.55 823 1254 823C1253.45 823 1253 822.552 1253 822C1253 821.448 1253.45 821 1254 821C1254.55 821 1255 821.448 1255 822Z" fill="#E8E8E8"/>
<path d="M1315 667C1315 667.552 1314.55 668 1314 668C1313.45 668 1313 667.552 1313 667C1313 666.448 1313.45 666 1314 666C1314.55 666 1315 666.448 1315 667Z" fill="#E8E8E8"/>
<path d="M1427 659.5C1427 660.328 1426.33 661 1425.5 661C1424.67 661 1424 660.328 1424 659.5C1424 658.672 1424.67 658 1425.5 658C1426.33 658 1427 658.672 1427 659.5Z" fill="#E8E8E8"/>
<path d="M1396 606.5C1396 607.328 1395.33 608 1394.5 608C1393.67 608 1393 607.328 1393 606.5C1393 605.672 1393.67 605 1394.5 605C1395.33 605 1396 605.672 1396 606.5Z" fill="#E8E8E8"/>
<path d="M1315 576.5C1315 577.881 1313.88 579 1312.5 579C1311.12 579 1310 577.881 1310 576.5C1310 575.119 1311.12 574 1312.5 574C1313.88 574 1315 575.119 1315 576.5Z" fill="#E8E8E8"/>
<path d="M1614 582.5C1614 583.328 1613.33 584 1612.5 584C1611.67 584 1611 583.328 1611 582.5C1611 581.672 1611.67 581 1612.5 581C1613.33 581 1614 581.672 1614 582.5Z" fill="#E8E8E8"/>
<path d="M1022 760C1022 760.552 1021.55 761 1021 761C1020.45 761 1020 760.552 1020 760C1020 759.448 1020.45 759 1021 759C1021.55 759 1022 759.448 1022 760Z" fill="#E8E8E8"/>
<path d="M838 780.5C838 781.328 837.328 782 836.5 782C835.672 782 835 781.328 835 780.5C835 779.672 835.672 779 836.5 779C837.328 779 838 779.672 838 780.5Z" fill="#E8E8E8"/>
<path d="M867 703C867 704.105 866.105 705 865 705C863.895 705 863 704.105 863 703C863 701.895 863.895 701 865 701C866.105 701 867 701.895 867 703Z" fill="#E8E8E8"/>
<path d="M790 651C790 652.105 789.105 653 788 653C786.895 653 786 652.105 786 651C786 649.895 786.895 649 788 649C789.105 649 790 649.895 790 651Z" fill="#E8E8E8"/>
<path d="M749 628.5C749 629.328 748.328 630 747.5 630C746.672 630 746 629.328 746 628.5C746 627.672 746.672 627 747.5 627C748.328 627 749 627.672 749 628.5Z" fill="#E8E8E8"/>
<path d="M824 564C824 565.105 823.105 566 822 566C820.895 566 820 565.105 820 564C820 562.895 820.895 562 822 562C823.105 562 824 562.895 824 564Z" fill="#E8E8E8"/>
<path d="M784 556.5C784 557.328 783.328 558 782.5 558C781.672 558 781 557.328 781 556.5C781 555.672 781.672 555 782.5 555C783.328 555 784 555.672 784 556.5Z" fill="#E8E8E8"/>
<path d="M729 495C729 495.552 728.552 496 728 496C727.448 496 727 495.552 727 495C727 494.448 727.448 494 728 494C728.552 494 729 494.448 729 495Z" fill="#E8E8E8"/>
<path d="M775 481C775 481.552 774.552 482 774 482C773.448 482 773 481.552 773 481C773 480.448 773.448 480 774 480C774.552 480 775 480.448 775 481Z" fill="#E8E8E8"/>
<path d="M859 474C859 474.552 858.552 475 858 475C857.448 475 857 474.552 857 474C857 473.448 857.448 473 858 473C858.552 473 859 473.448 859 474Z" fill="#E8E8E8"/>
<path d="M925 495C925 495.552 924.552 496 924 496C923.448 496 923 495.552 923 495C923 494.448 923.448 494 924 494C924.552 494 925 494.448 925 495Z" fill="#E8E8E8"/>
<path d="M879 412C879 412.552 878.552 413 878 413C877.448 413 877 412.552 877 412C877 411.448 877.448 411 878 411C878.552 411 879 411.448 879 412Z" fill="#E8E8E8"/>
<path d="M1097 505C1097 505.552 1096.55 506 1096 506C1095.45 506 1095 505.552 1095 505C1095 504.448 1095.45 504 1096 504C1096.55 504 1097 504.448 1097 505Z" fill="#E8E8E8"/>
<path d="M1057 458C1057 459.105 1056.1 460 1055 460C1053.9 460 1053 459.105 1053 458C1053 456.895 1053.9 456 1055 456C1056.1 456 1057 456.895 1057 458Z" fill="#E8E8E8"/>
<path d="M1071 386C1071 386.552 1070.55 387 1070 387C1069.45 387 1069 386.552 1069 386C1069 385.448 1069.45 385 1070 385C1070.55 385 1071 385.448 1071 386Z" fill="#E8E8E8"/>
<path d="M657 410C657 410.552 656.552 411 656 411C655.448 411 655 410.552 655 410C655 409.448 655.448 409 656 409C656.552 409 657 409.448 657 410Z" fill="#E8E8E8"/>
<path d="M738 431.5C738 432.328 737.328 433 736.5 433C735.672 433 735 432.328 735 431.5C735 430.672 735.672 430 736.5 430C737.328 430 738 430.672 738 431.5Z" fill="#E8E8E8"/>
<path d="M830 363C830 363.552 829.552 364 829 364C828.448 364 828 363.552 828 363C828 362.448 828.448 362 829 362C829.552 362 830 362.448 830 363Z" fill="#E8E8E8"/>
<path d="M860 319C860 320.105 859.105 321 858 321C856.895 321 856 320.105 856 319C856 317.895 856.895 317 858 317C859.105 317 860 317.895 860 319Z" fill="#E8E8E8"/>
<path d="M727 296C727 297.657 725.657 299 724 299C722.343 299 721 297.657 721 296C721 294.343 722.343 293 724 293C725.657 293 727 294.343 727 296Z" fill="#E8E8E8"/>
<path d="M691 249C691 249.552 690.552 250 690 250C689.448 250 689 249.552 689 249C689 248.448 689.448 248 690 248C690.552 248 691 248.448 691 249Z" fill="#E8E8E8"/>
<path d="M677 217.5C677 218.328 676.328 219 675.5 219C674.672 219 674 218.328 674 217.5C674 216.672 674.672 216 675.5 216C676.328 216 677 216.672 677 217.5Z" fill="#E8E8E8"/>
<path d="M612 234C612 234.552 611.552 235 611 235C610.448 235 610 234.552 610 234C610 233.448 610.448 233 611 233C611.552 233 612 233.448 612 234Z" fill="#E8E8E8"/>
<path d="M729 197.5C729 198.328 728.328 199 727.5 199C726.672 199 726 198.328 726 197.5C726 196.672 726.672 196 727.5 196C728.328 196 729 196.672 729 197.5Z" fill="#E8E8E8"/>
<path d="M838 218C838 218.552 837.552 219 837 219C836.448 219 836 218.552 836 218C836 217.448 836.448 217 837 217C837.552 217 838 217.448 838 218Z" fill="#E8E8E8"/>
<path d="M797 163C797 164.105 796.105 165 795 165C793.895 165 793 164.105 793 163C793 161.895 793.895 161 795 161C796.105 161 797 161.895 797 163Z" fill="#E8E8E8"/>
<path d="M780 46.5C780 47.3284 779.328 48 778.5 48C777.672 48 777 47.3284 777 46.5C777 45.6716 777.672 45 778.5 45C779.328 45 780 45.6716 780 46.5Z" fill="#E8E8E8"/>
<path d="M1108 208C1108 208.552 1107.55 209 1107 209C1106.45 209 1106 208.552 1106 208C1106 207.448 1106.45 207 1107 207C1107.55 207 1108 207.448 1108 208Z" fill="#E8E8E8"/>
<path d="M1182 255.5C1182 256.328 1181.33 257 1180.5 257C1179.67 257 1179 256.328 1179 255.5C1179 254.672 1179.67 254 1180.5 254C1181.33 254 1182 254.672 1182 255.5Z" fill="#E8E8E8"/>
<path d="M1342 288.5C1342 289.328 1341.33 290 1340.5 290C1339.67 290 1339 289.328 1339 288.5C1339 287.672 1339.67 287 1340.5 287C1341.33 287 1342 287.672 1342 288.5Z" fill="#E8E8E8"/>
<path d="M1372 357C1372 358.105 1371.1 359 1370 359C1368.9 359 1368 358.105 1368 357C1368 355.895 1368.9 355 1370 355C1371.1 355 1372 355.895 1372 357Z" fill="#E8E8E8"/>
<path d="M1517 317C1517 317.552 1516.55 318 1516 318C1515.45 318 1515 317.552 1515 317C1515 316.448 1515.45 316 1516 316C1516.55 316 1517 316.448 1517 317Z" fill="#E8E8E8"/>
<path d="M1674 375C1674 376.105 1673.1 377 1672 377C1670.9 377 1670 376.105 1670 375C1670 373.895 1670.9 373 1672 373C1673.1 373 1674 373.895 1674 375Z" fill="#E8E8E8"/>
<path d="M1600 290C1600 290.552 1599.55 291 1599 291C1598.45 291 1598 290.552 1598 290C1598 289.448 1598.45 289 1599 289C1599.55 289 1600 289.448 1600 290Z" fill="#E8E8E8"/>
<path d="M1701 297C1701 297.552 1700.55 298 1700 298C1699.45 298 1699 297.552 1699 297C1699 296.448 1699.45 296 1700 296C1700.55 296 1701 296.448 1701 297Z" fill="#E8E8E8"/>
<path d="M1886 290C1886 290.552 1885.55 291 1885 291C1884.45 291 1884 290.552 1884 290C1884 289.448 1884.45 289 1885 289C1885.55 289 1886 289.448 1886 290Z" fill="#E8E8E8"/>
<path d="M1906 209C1906 209.552 1905.55 210 1905 210C1904.45 210 1904 209.552 1904 209C1904 208.448 1904.45 208 1905 208C1905.55 208 1906 208.448 1906 209Z" fill="#E8E8E8"/>
<path d="M1786 153C1786 153.552 1785.55 154 1785 154C1784.45 154 1784 153.552 1784 153C1784 152.448 1784.45 152 1785 152C1785.55 152 1786 152.448 1786 153Z" fill="#E8E8E8"/>
<path d="M1701 153C1701 153.552 1700.55 154 1700 154C1699.45 154 1699 153.552 1699 153C1699 152.448 1699.45 152 1700 152C1700.55 152 1701 152.448 1701 153Z" fill="#E8E8E8"/>
<path d="M1068 1C1068 1.55228 1067.55 2 1067 2C1066.45 2 1066 1.55228 1066 1C1066 0.447715 1066.45 0 1067 0C1067.55 0 1068 0.447715 1068 1Z" fill="#E8E8E8"/>
<path d="M1149 51C1149 51.5523 1148.55 52 1148 52C1147.45 52 1147 51.5523 1147 51C1147 50.4477 1147.45 50 1148 50C1148.55 50 1149 50.4477 1149 51Z" fill="#E8E8E8"/>
<path d="M1200 91.5C1200 92.8807 1198.88 94 1197.5 94C1196.12 94 1195 92.8807 1195 91.5C1195 90.1193 1196.12 89 1197.5 89C1198.88 89 1200 90.1193 1200 91.5Z" fill="#E8E8E8"/>
<path d="M1310 56C1310 56.5523 1309.55 57 1309 57C1308.45 57 1308 56.5523 1308 56C1308 55.4477 1308.45 55 1309 55C1309.55 55 1310 55.4477 1310 56Z" fill="#E8E8E8"/>
<path d="M1445 78C1445 78.5523 1444.55 79 1444 79C1443.45 79 1443 78.5523 1443 78C1443 77.4477 1443.45 77 1444 77C1444.55 77 1445 77.4477 1445 78Z" fill="#E8E8E8"/>
<path d="M1517 32C1517 33.1046 1516.1 34 1515 34C1513.9 34 1513 33.1046 1513 32C1513 30.8954 1513.9 30 1515 30C1516.1 30 1517 30.8954 1517 32Z" fill="#E8E8E8"/>
<path d="M1468 9C1468 10.6569 1466.66 12 1465 12C1463.34 12 1462 10.6569 1462 9C1462 7.34315 1463.34 6 1465 6C1466.66 6 1468 7.34315 1468 9Z" fill="#E8E8E8"/>
</svg>
