<svg width="40" height="40" viewBox="0 0 40 40" fill="none" xmlns="http://www.w3.org/2000/svg">
<path d="M34.7525 18.6523C34.8616 18.6105 35.0522 18.5694 35.2629 18.5331C35.8653 18.4289 36.332 17.9497 36.4288 17.3459C36.4901 16.9633 36.5661 16.5721 36.6461 16.3566C36.7832 15.991 37.3877 15.9947 37.5224 16.3619C37.6024 16.5873 37.6826 16.9881 37.7477 17.3678C37.8442 17.931 38.2677 18.3817 38.8232 18.5163C39.0565 18.5729 39.2741 18.631 39.393 18.6763C39.7477 18.8171 39.745 19.2601 39.3888 19.395C39.2781 19.4371 39.08 19.4817 38.8624 19.5225C38.2693 19.6339 37.8096 20.1041 37.712 20.6995C37.649 21.0838 37.5701 21.4809 37.4861 21.6998C37.3517 22.0622 36.7472 22.0585 36.6144 21.6945C36.5322 21.4694 36.4544 21.0675 36.3922 20.6838C36.2989 20.107 35.864 19.6443 35.2938 19.5163C35.0704 19.4662 34.864 19.4131 34.7482 19.367C34.3936 19.2302 34.3962 18.7849 34.7525 18.6523Z" fill="#010101"/>
<path d="M11.0034 12.291C10.9973 12.4038 10.9157 12.4979 10.805 12.5198C9.67571 12.7419 6.53544 13.4726 4.90824 14.9771C4.10691 15.7171 3.68344 16.5491 3.64851 17.4502C3.64371 17.5766 3.53704 17.6747 3.41091 17.6699C3.28478 17.6651 3.18611 17.5587 3.19118 17.4326C3.23064 16.4057 3.70398 15.4662 4.59758 14.6409C4.72931 14.519 4.87011 14.4003 5.01838 14.2849C6.62131 13.0387 9.33758 12.3233 10.7072 12.0369C10.8656 12.0038 11.012 12.1291 11.0034 12.291Z" fill="#010101"/>
<path d="M35.7362 25.7033C35.5296 25.7819 35.16 25.8649 34.7533 25.9414C33.6458 26.1494 32.7877 27.027 32.6053 28.139C32.4877 28.8566 32.3405 29.5977 32.184 30.0067C31.933 30.6833 30.804 30.6763 30.5562 29.9969C30.4309 29.6531 30.3109 29.0883 30.2074 28.5014C30.1848 28.3713 30.1629 28.2401 30.1416 28.1099C30.113 27.935 30.0682 27.7657 30.0077 27.6035C29.7866 27.0091 29.1509 26.3211 28.4984 26.1123C27.3632 25.7491 22.5578 26.5787 19.8381 26.6374C15.0832 26.7398 10.1701 25.7387 6.35784 23.891C2.58478 22.0625 0.392509 19.6953 0.343176 17.3966C0.313042 16.0121 1.04824 14.6505 2.45251 13.4329C3.06718 12.9001 3.81038 12.3945 4.67384 11.9265C6.80264 10.7729 10.1173 9.88674 11.7525 9.50354C12.0874 9.42514 12.4082 9.67954 12.4082 10.0233C12.4082 10.2745 12.2336 10.4915 11.9882 10.5449C10.5832 10.8513 6.99518 11.7102 5.11038 12.7315C2.59171 14.0963 1.22371 15.7462 1.25891 17.3766C1.30024 19.2907 3.35544 21.4179 6.75731 23.0667C10.4429 24.8531 15.2034 25.8209 19.8184 25.7214C20.1192 25.715 20.4178 25.7054 20.7149 25.6934C20.2549 25.6529 19.7954 25.6054 19.3368 25.5523C17.6749 25.3601 16.021 25.0918 14.3856 24.7387C12.801 24.3966 11.2293 23.9769 9.70078 23.4337C8.37571 22.963 7.06318 22.4038 5.87171 21.6505C4.94611 21.0654 4.04211 20.3379 3.49118 19.3737C3.36051 19.1451 3.71304 18.9403 3.84318 19.1678C3.90051 19.2681 3.96184 19.3657 4.02691 19.4611C4.06184 19.5121 4.09811 19.5625 4.13518 19.6121C4.14158 19.6206 4.14798 19.6291 4.15438 19.6377C4.15518 19.6385 4.15598 19.6401 4.15651 19.6409C4.15704 19.6417 4.15784 19.6427 4.15864 19.6435C4.15918 19.6443 4.15971 19.6451 4.16051 19.6462C4.16131 19.6473 4.16211 19.6481 4.16264 19.6491C4.16398 19.6505 4.16478 19.6518 4.16558 19.6526C4.18504 19.6777 4.20504 19.7025 4.22478 19.727C4.30504 19.8254 4.38878 19.9209 4.47544 20.0134C4.65891 20.2094 4.85624 20.3929 5.06158 20.5657C5.49384 20.9289 6.00318 21.2678 6.52024 21.5665C7.74878 22.275 9.06238 22.7998 10.4056 23.2457C11.9477 23.7574 13.5269 24.1547 15.1186 24.4763C16.7157 24.799 18.3288 25.0446 19.9496 25.2121C21.2704 25.3486 21.3954 25.3027 20.4802 25.1697C16.8328 24.6401 13.0264 23.5571 10.0738 21.9089C7.13811 20.2694 5.55064 18.4953 5.71918 17.0409C5.86024 15.8241 7.09811 14.8139 9.32318 14.2094C10.5861 13.8662 12.2312 13.3702 14.8397 13.0838C15.1157 13.0534 15.3266 13.3358 15.2725 13.6081C15.2717 13.6118 15.2709 13.6153 15.2701 13.619C15.229 13.8249 15.0474 13.9505 14.8386 13.9721C12.3352 14.2318 10.7162 14.7801 9.57544 15.0894C7.78771 15.5737 6.72104 16.3499 6.62824 17.1462C6.50984 18.1675 8.03731 19.7235 10.52 21.1091C13.3709 22.7011 17.0397 23.8497 20.5856 24.2601C22.5504 24.4878 27.0093 24.5977 28.4664 23.9801C29.025 23.7433 29.5176 23.3851 29.8338 22.879C30.021 22.5798 30.1512 22.2406 30.2093 21.8774C30.324 21.163 30.4658 20.4323 30.6154 20.0305C30.8714 19.3481 32 19.3547 32.2512 20.0401C32.4002 20.4609 32.5501 21.2094 32.6717 21.9182C32.852 22.9699 33.6424 23.8113 34.6797 24.0625C35.1154 24.1683 35.5216 24.2766 35.744 24.3611C36.4061 24.6241 36.4013 25.4513 35.7362 25.7033Z" fill="#010101"/>
</svg>
