<svg width="226" height="324" viewBox="0 0 226 324" fill="none" xmlns="http://www.w3.org/2000/svg">
<path d="M72 286C88 290.5 126.5 296.8 152.5 286M72 286L63 307.5C113 325.9 147.5 315.167 158.5 307.5L152.5 286M72 286C69.3435 275.868 67.0425 266.036 65.0713 256.5M152.5 286C152.5 285.337 155.696 275.646 159.61 260M56.5539 197.5C47.7605 83.6313 91.0136 24.1704 119 7C174.032 55.9177 178.233 135.736 171.11 197.5M56.5539 197.5C40.8692 212.833 8.8 249.9 6 275.5C6.16667 277.5 8.6 282.4 17 286L65.0713 256.5M56.5539 197.5C57.9634 215.752 60.7101 235.402 65.0713 256.5M171.11 197.5C186.407 215.5 217.6 257.7 220 282.5C217.833 285.333 212.2 291 207 291C201.8 291 173.24 270.333 159.61 260M171.11 197.5C168.25 222.301 163.564 244.191 159.61 260" stroke="#E8E8E8" stroke-width="11"/>
</svg>
