<?xml version="1.0" encoding="UTF-8"?><svg id="Camada_1" xmlns="http://www.w3.org/2000/svg" viewBox="0 0 1000 1000"><defs><style>.cls-1{fill:#d9d9d9;}.cls-1,.cls-2,.cls-3,.cls-4{stroke:#e8e8e8;stroke-miterlimit:10;stroke-width:.66px;}.cls-2{fill:#efefef;}.cls-3{fill:none;}.cls-4{fill:#bfbfbf;}</style></defs><ellipse class="cls-2" cx="500" cy="500" rx="487.02" ry="488.52"/><ellipse class="cls-4" cx="683.83" cy="817.43" rx="79.79" ry="56.15" transform="translate(-358.19 593.8) rotate(-37.97)"/><ellipse class="cls-1" cx="825.76" cy="706.46" rx="43.48" ry="36.34"/><ellipse class="cls-1" cx="255.68" cy="820.07" rx="43.48" ry="36.34"/><ellipse class="cls-4" cx="211.21" cy="635.32" rx="71.18" ry="91.17" transform="translate(-385.47 331.64) rotate(-44.64)"/><line class="cls-3" x1="283.93" y1="724.84" x2="348.11" y2="739.99"/><line class="cls-3" x1="317.91" y1="645.32" x2="385.87" y2="641.53"/><line class="cls-3" x1="283.93" y1="558.22" x2="336.79" y2="520.35"/><line class="cls-3" x1="212.2" y1="512.77" x2="212.2" y2="467.33"/><line class="cls-3" x1="134.54" y1="543.56" x2="123.75" y2="485.77"/><ellipse class="cls-1" cx="465.68" cy="161.92" rx="38.66" ry="49.38" transform="translate(218.12 588.29) rotate(-79.03)"/><line class="cls-3" x1="525.49" y1="179.87" x2="558.9" y2="167.06"/><line class="cls-3" x1="516.59" y1="133.8" x2="545.94" y2="111.34"/><line class="cls-3" x1="474.89" y1="105.1" x2="487.11" y2="71.96"/><line class="cls-3" x1="428.9" y1="106.63" x2="415.1" y2="86.23"/><line class="cls-3" x1="403.4" y1="144.17" x2="381.01" y2="121.54"/><ellipse class="cls-1" cx="246.51" cy="359.72" rx="15.3" ry="20.48"/><ellipse class="cls-1" cx="151.06" cy="324.27" rx="22.44" ry="30.03"/></svg>