<?xml version="1.0" encoding="UTF-8"?><svg id="Camada_1" xmlns="http://www.w3.org/2000/svg" viewBox="0 0 1000 1000"><defs><style>.cls-1{fill:#d9d9d9;}.cls-1,.cls-2,.cls-3,.cls-4{stroke:#e8e8e8;stroke-miterlimit:10;stroke-width:.66px;}.cls-2{fill:#efefef;}.cls-3{fill:none;}.cls-4{fill:#bfbfbf;}</style></defs><ellipse class="cls-2" cx="500" cy="500" rx="487.02" ry="488.52"/><ellipse class="cls-1" cx="458.51" cy="858.96" rx="91.09" ry="69.98" transform="translate(-392.58 386) rotate(-32.85)"/><ellipse class="cls-1" cx="424.88" cy="161.3" rx="129.18" ry="74.68" transform="translate(-14.63 45.65) rotate(-6.05)"/><ellipse class="cls-4" cx="286.44" cy="802.6" rx="36.23" ry="43.61"/><ellipse class="cls-4" cx="395.07" cy="525.84" rx="18.2" ry="24.36"/><ellipse class="cls-1" cx="675.38" cy="631.87" rx="26.69" ry="35.72"/><ellipse class="cls-4" cx="885.83" cy="456.33" rx="57.16" ry="90.79" transform="translate(-70.23 175.48) rotate(-10.88)"/><line class="cls-3" x1="865.99" y1="342.88" x2="825.53" y2="298.67"/><line class="cls-3" x1="813.1" y1="396.14" x2="763.13" y2="366.69"/><line class="cls-3" x1="806.09" y1="488.79" x2="754.68" y2="496.47"/><line class="cls-3" x1="841.07" y1="563.16" x2="824.73" y2="602.96"/><line class="cls-3" x1="907.68" y1="573.65" x2="894.63" y2="629.45"/><ellipse class="cls-1" cx="94.86" cy="497.56" rx="63.92" ry="40.26" transform="translate(-405.06 579.09) rotate(-88.47)"/><line class="cls-3" x1="91.35" y1="578.57" x2="112.49" y2="615.08"/><line class="cls-3" x1="135.79" y1="549.94" x2="165.71" y2="577.73"/><line class="cls-3" x1="154.63" y1="487.28" x2="191.16" y2="489.77"/><line class="cls-3" x1="141.82" y1="430.86" x2="159.08" y2="405.96"/><line class="cls-3" x1="97.58" y1="413.59" x2="115" y2="377.19"/></svg>