<?xml version="1.0" encoding="UTF-8"?><svg id="Camada_1" xmlns="http://www.w3.org/2000/svg" viewBox="0 0 1000 1000"><defs><style>.cls-1{fill:#d9d9d9;}.cls-1,.cls-2,.cls-3,.cls-4,.cls-5{stroke:#e8e8e8;stroke-width:.66px;}.cls-1,.cls-2,.cls-4,.cls-5{stroke-miterlimit:10;}.cls-2{fill:#efefef;}.cls-3{stroke-linecap:round;stroke-linejoin:round;}.cls-3,.cls-4{fill:none;}.cls-5{fill:#bfbfbf;}</style></defs><ellipse class="cls-2" cx="500" cy="500" rx="487.02" ry="488.52"/><ellipse class="cls-1" cx="243.69" cy="261.09" rx="35.04" ry="53.42"/><ellipse class="cls-5" cx="148.77" cy="476" rx="86.2" ry="130.14"/><ellipse class="cls-1" cx="694.49" cy="198.77" rx="55.09" ry="66.11" transform="translate(59.89 543.9) rotate(-44.51)"/><ellipse class="cls-1" cx="821" cy="685.28" rx="91.26" ry="71.11" transform="translate(-147.38 1139.02) rotate(-64.96)"/><line class="cls-4" x1="880.55" y1="586.44" x2="873.15" y2="520.73"/><line class="cls-4" x1="794.45" y1="581.13" x2="768.01" y2="518.22"/><line class="cls-4" x1="724.13" y1="642.56" x2="670.79" y2="605.39"/><line class="cls-4" x1="705.63" y1="725.61" x2="662.97" y2="740.91"/><line class="cls-4" x1="760.68" y1="788.59" x2="710.07" y2="818.24"/><ellipse class="cls-5" cx="363.56" cy="862.74" rx="38.67" ry="64.23" transform="translate(-551.7 1059.72) rotate(-79.3)"/><line class="cls-4" x1="434.9" y1="894.31" x2="482.34" y2="890.39"/><line class="cls-4" x1="438.73" y1="848.67" x2="484.14" y2="834.65"/><line class="cls-4" x1="394.39" y1="811.39" x2="421.23" y2="783.11"/><line class="cls-4" x1="334.44" y1="801.58" x2="323.4" y2="778.97"/><line class="cls-3" x1="288.98" y1="830.77" x2="267.57" y2="803.94"/></svg>