<?xml version="1.0" encoding="UTF-8"?><svg id="Camada_1" xmlns="http://www.w3.org/2000/svg" viewBox="0 0 1000 1000"><defs><style>.cls-1{fill:#d9d9d9;}.cls-1,.cls-2,.cls-3,.cls-4{stroke:#e8e8e8;stroke-miterlimit:10;stroke-width:.66px;}.cls-2{fill:#efefef;}.cls-3{fill:none;}.cls-4{fill:#bfbfbf;}</style></defs><ellipse class="cls-2" cx="500" cy="500" rx="487.02" ry="488.52"/><ellipse class="cls-4" cx="411.8" cy="207.41" rx="91.17" ry="71.18" transform="translate(-25.12 354.71) rotate(-45.36)"/><ellipse class="cls-1" cx="155.27" cy="311.36" rx="53.34" ry="35.09" transform="translate(-175.12 202.27) rotate(-45.22)"/><ellipse class="cls-1" cx="718.78" cy="706.58" rx="129.94" ry="108.28" transform="translate(-288.99 723.8) rotate(-45.49)"/><ellipse class="cls-1" cx="884.43" cy="509.66" rx="55" ry="66.21"/><line class="cls-3" x1="322.56" y1="280.36" x2="307.46" y2="344.73"/><line class="cls-3" x1="401.84" y1="314.44" x2="405.62" y2="382.6"/><line class="cls-3" x1="488.67" y1="280.36" x2="526.43" y2="333.37"/><line class="cls-3" x1="533.98" y1="208.4" x2="579.28" y2="208.4"/><line class="cls-3" x1="503.29" y1="130.5" x2="560.89" y2="119.68"/><ellipse class="cls-4" cx="524.93" cy="884.12" rx="36.23" ry="43.61"/><ellipse class="cls-4" cx="271.13" cy="686.88" rx="18.2" ry="24.36"/><ellipse class="cls-1" cx="189.01" cy="671.74" rx="26.69" ry="35.72"/></svg>