<svg width="1000" height="1000" viewBox="0 0 1000 1000" fill="none" xmlns="http://www.w3.org/2000/svg">
<path d="M763.57 789.25C755.15 797.69 749.93 809.33 749.93 822.14C749.93 847.76 770.82 868.71 796.36 868.71H826.48C739.65 946.12 625.3 993.14 500 993.14C316.65 993.14 156.73 892.45 72.21 743.19H349.18C361.95 743.19 373.56 737.95 381.97 729.51C390.39 721.07 395.61 709.43 395.61 696.62C395.61 671 374.72 650.05 349.18 650.05H474.31C487.08 650.05 498.69 644.81 507.1 636.37C515.52 627.93 520.74 616.29 520.74 603.48C520.74 577.86 499.85 556.91 474.31 556.91H11.61C9.46999 538.24 8.37 519.25 8.37 500.01C8.37 404.23 35.59 314.83 82.7 239.16H345.24C358.01 239.16 369.62 233.92 378.03 225.48C386.45 217.04 391.67 205.4 391.67 192.59C391.67 166.97 370.78 146.02 345.24 146.02H157.72C246.23 59.8799 366.94 6.85986 500 6.85986C712.07 6.85986 892.79 141.56 961.75 330.32H501.98C489.21 330.32 477.6 335.56 469.19 344C460.77 352.44 455.55 364.08 455.55 376.89C455.55 402.51 476.44 423.46 501.98 423.46H985.74C989.62 448.4 991.63 473.96 991.63 500C991.63 602.06 960.72 696.89 907.77 775.56H796.36C783.59 775.56 771.98 780.8 763.57 789.24V789.25Z" fill="#F9884E"/>
<path d="M391.66 192.58C391.66 205.39 386.44 217.04 378.02 225.47C369.61 233.91 358 239.15 345.23 239.15H82.7C103.91 205.1 129.13 173.82 157.72 146H345.24C370.78 146 391.67 166.95 391.67 192.57L391.66 192.58Z" fill="#FF9C69"/>
<path d="M985.74 423.46H501.98C476.44 423.46 455.55 402.51 455.55 376.89C455.55 364.08 460.77 352.43 469.19 344C477.6 335.56 489.21 330.32 501.98 330.32H961.75C972.64 360.13 980.74 391.28 985.74 423.47V423.46Z" fill="#D9662B"/>
<path d="M907.77 775.56C884.63 809.94 857.29 841.24 826.48 868.71H796.36C770.82 868.71 749.93 847.76 749.93 822.14C749.93 809.33 755.15 797.68 763.57 789.25C771.98 780.81 783.59 775.57 796.36 775.57H907.77V775.56Z" fill="#D9662B"/>
<path d="M520.75 603.48C520.75 616.29 515.53 627.94 507.11 636.37C498.7 644.81 487.09 650.05 474.32 650.05H31.55C22.03 620.14 15.29 588.99 11.61 556.9H474.31C499.85 556.9 520.74 577.85 520.74 603.47L520.75 603.48Z" fill="#FF9C69"/>
<path d="M395.62 696.62C395.62 709.43 390.4 721.08 381.98 729.51C373.57 737.95 361.96 743.19 349.19 743.19H72.21C55.61 713.89 41.93 682.7 31.54 650.04H349.18C374.72 650.04 395.61 670.99 395.61 696.61L395.62 696.62Z" fill="#D9662B"/>
<path d="M500 993.8C771.884 993.8 992.29 772.718 992.29 500C992.29 227.282 771.884 6.2002 500 6.2002C228.116 6.2002 7.70996 227.282 7.70996 500C7.70996 772.718 228.116 993.8 500 993.8Z" stroke="#E8E8E8" stroke-miterlimit="10"/>
</svg>
