<svg width="1000" height="1000" viewBox="0 0 1000 1000" fill="none" xmlns="http://www.w3.org/2000/svg">
<path d="M981 563C978.516 584.453 974.649 605.487 969.48 626C910.689 624.52 839.936 620.402 761 613.744C839.826 596.729 913.714 579.665 981 563Z" fill="#9300B2"/>
<path d="M283 648.773C189.391 664.499 105.379 677.138 36.5444 686C30.0758 669.555 24.467 652.66 19.7781 635.386C17.7485 627.892 15.8789 620.339 14.2193 612.706C13.0595 607.501 11.9898 602.275 11 597C22.7174 599.598 34.6348 602.205 46.7221 604.773C64.2383 608.5 82.1543 612.196 100.44 615.843C157.958 627.343 219.094 638.383 283 648.754V648.773Z" fill="#9300B2"/>
<path d="M19 378.07C15.6154 390.86 12.7285 403.829 10.3493 417C9.56291 416.99 8.78642 416.97 8 416.96C10.3593 403.779 13.2362 390.789 16.6108 378C17.4072 378.02 18.2036 378.05 19 378.07Z" fill="#621FBF"/>
<path d="M817 876.497C730.61 952.767 617.401 999 493.452 999C343.375 999 209.026 931.224 119 824.404C162.901 788.475 226.99 776.12 284.877 782.685C360.566 791.27 430.766 825.057 503.551 847.676C604.527 879.06 712.036 888.731 817 876.487V876.497Z" fill="#B015D1"/>
<path d="M936.867 717.35C907.975 778.109 867.018 831.986 817.101 875.888C712.107 888.078 604.568 878.452 503.562 847.181C430.767 824.644 360.537 790.979 284.826 782.426C226.922 775.885 162.815 788.195 118.901 823.993C96.704 797.771 77.2124 769.194 60.8274 738.684C179.07 722.578 314.379 700.873 458.406 674.41C464.559 675.231 470.742 676.032 476.936 676.834C644.423 698.449 801.869 711.901 936.857 717.36L936.867 717.35Z" fill="#9300B2"/>
<path d="M60.8274 738.684C179.07 722.578 314.379 700.873 458.406 674.41C464.559 675.231 470.742 676.032 476.936 676.834C644.423 698.449 801.869 711.901 936.857 717.36C952.905 692.065 985 614.071 985 504.453L48.802 472L1 499.044C1.30064 518.876 3.70578 566.294 10.9212 597.304L37.077 685.648C39.5591 693.961 47.7842 716.208 60.8274 738.684Z" fill="#9300B2"/>
<path d="M987 504.096C986.238 504.296 985.466 504.497 984.684 504.698C961.005 510.825 934.99 517.274 906.92 523.974C815.07 545.907 701.335 570.439 576.162 595C547.711 591.71 518.688 588.14 489.234 584.349C437.906 577.71 388.051 570.699 340.282 563.408C317.835 559.988 295.87 556.508 274.427 553.008H274.407C168 535.587 74.6167 517.214 2.3258 499.713C1.54384 499.533 0.771932 499.332 0 499.151C0.340853 470.929 3.02756 443.279 7.8797 416.381C10.2556 403.203 13.1529 390.215 16.5514 377.428C72.7119 165.863 264.963 10 493.485 10C741.014 10 945.977 192.861 981.536 431.314C982.699 439.067 983.672 446.88 984.464 454.742C986.028 470.217 986.88 485.893 986.99 501.749C986.99 502.531 987 503.324 986.99 504.106L987 504.096Z" fill="#9300B2"/>
<path d="M919 256.656C880.672 263.441 840.649 257.607 802.171 264.432C754.757 272.838 712.699 299.856 666.338 312.896C619.977 325.935 561.171 319.73 536.783 278.171C513.136 237.863 535.248 183.456 572.233 154.926C609.227 126.396 656.851 116.759 702.239 105.732C720.972 101.178 740.076 95.9849 758.207 89C824.223 131.199 879.499 188.759 919 256.656Z" fill="#B015D1"/>
<path d="M494 999C766.276 999 987 777.605 987 504.5C987 231.395 766.276 10 494 10C221.724 10 1 231.395 1 504.5C1 777.605 221.724 999 494 999Z" stroke="#E8E8E8" stroke-miterlimit="10"/>
</svg>
