<svg width="1000" height="1000" viewBox="0 0 1000 1000" fill="none" xmlns="http://www.w3.org/2000/svg">
<path d="M984.43 401.13C897.38 439.68 795.61 445.6 705.77 413.57C596.67 374.67 512.52 288.2 417.97 221.17C344.44 169.05 252.89 127.74 166.18 134.39C254.12 53.5402 371.32 4.22021 500 4.22021C569.69 4.22021 636.02 18.6902 696.14 44.7902C688.66 55.1202 682.96 66.7002 679.69 78.9802C666.15 129.79 688.82 185.77 727.86 220.87C766.91 255.97 819.72 272.42 871.96 276.91C895.01 278.89 918.24 278.72 941.27 276.43C960.9 315.33 975.56 357.18 984.43 401.13Z" fill="#CA2FEB"/>
<path d="M984.43 401.13C897.38 439.68 795.61 445.6 705.77 413.57C596.67 374.67 512.52 288.2 417.97 221.17C344.44 169.05 252.89 127.74 166.18 134.39C137.13 161.09 111.27 191.22 89.26 224.15C116.98 233.41 141.06 255.23 150.06 283.35C165.29 330.97 137.51 387.24 91.71 406.97C67.2 417.53 39.33 417.67 13.95 409.55C8.55999 438.88 5.73999 469.12 5.73999 500.01C5.73999 536.51 9.66999 572.1 17.14 606.36C68.9 536.05 172.89 512.51 259.65 534.14C355.6 558.07 434.9 623.98 509.26 689.34C583.63 754.71 659.65 823.21 753.51 854.38C778.05 862.53 804.21 867.39 830.5 868.67C931.04 777.92 994.27 646.38 994.27 500.02C994.27 466.16 990.88 433.1 984.44 401.15L984.43 401.13ZM772.32 744.43C709.94 744.43 659.37 693.71 659.37 631.14C659.37 568.57 709.94 517.85 772.32 517.85C834.7 517.85 885.27 568.57 885.27 631.14C885.27 693.71 834.7 744.43 772.32 744.43Z" fill="#B015D1"/>
<path d="M830.49 868.65C781.11 913.22 722.73 947.96 658.42 969.77C617.2 949.71 579.61 917.51 549.58 882.72C491.5 815.44 446.86 734.57 374.87 682.55C277.91 612.48 137.89 612.35 37.98 676.51C29.38 653.87 22.38 630.45 17.14 606.35C68.9 536.04 172.89 512.49 259.65 534.12C355.6 558.05 434.9 623.96 509.26 689.32C583.63 754.69 659.65 823.19 753.51 854.36C778.05 862.51 804.21 867.37 830.5 868.65H830.49Z" fill="#9300B2"/>
<path d="M658.43 969.77C608.69 986.64 555.42 995.78 500 995.78C444.58 995.78 387.81 986.02 336.69 968.07C347.04 935.4 346.62 899.19 334.18 867.2C314.94 817.71 267.7 780.31 215.25 773.04C177.41 767.79 137.94 778.36 106.91 800.58C78.35 763.06 55.02 721.35 37.98 676.51C137.89 612.35 277.91 612.48 374.87 682.55C446.86 734.57 491.5 815.44 549.58 882.72C579.61 917.51 617.2 949.71 658.42 969.77H658.43Z" fill="#B015D1"/>
<path d="M336.69 968.08C244.61 935.76 164.97 876.88 106.91 800.59C137.94 778.37 177.41 767.8 215.25 773.05C267.71 780.32 314.94 817.72 334.18 867.21C346.62 899.2 347.04 935.4 336.69 968.08Z" fill="#CA2FEB"/>
<path d="M941.27 276.43C918.25 278.72 895.01 278.89 871.96 276.91C819.72 272.42 766.9 255.97 727.86 220.87C688.82 185.77 666.15 129.79 679.69 78.98C682.96 66.71 688.66 55.12 696.14 44.79C802.35 90.9 889.25 173.31 941.27 276.43Z" fill="#9300B2"/>
<path d="M91.71 406.97C67.2 417.53 39.33 417.67 13.95 409.55C26.38 341.95 52.47 279.15 89.26 224.15C116.98 233.41 141.06 255.23 150.06 283.35C165.29 330.97 137.51 387.24 91.71 406.97Z" fill="#9300B2"/>
<path d="M772.32 744.42C834.701 744.42 885.27 693.698 885.27 631.13C885.27 568.561 834.701 517.84 772.32 517.84C709.939 517.84 659.37 568.561 659.37 631.13C659.37 693.698 709.939 744.42 772.32 744.42Z" fill="#9300B2"/>
<path d="M500 996C772.829 996 994 773.933 994 500C994 226.067 772.829 4 500 4C227.171 4 6 226.067 6 500C6 773.933 227.171 996 500 996Z" stroke="#E8E8E8" stroke-miterlimit="10"/>
</svg>
