<svg width="1000" height="1000" viewBox="0 0 1000 1000" fill="none" xmlns="http://www.w3.org/2000/svg">
<path d="M947.77 297.69C884.61 311.01 817.64 306.15 753.52 295.01C673.55 281.12 595.15 257.88 514.43 249.36C355.2 232.56 196.89 273.61 42.8201 320.14C55.5401 287.62 71.6101 256.79 90.6001 228.08C138.22 231.35 185.98 230.72 230.88 215.65C285.84 197.22 331.42 158.88 379.32 126.16C448.01 79.2202 523.83 42.9102 603.27 18.4302C655.3 29.5902 704.26 49.0402 748.73 75.3002C708.63 81.4202 668.71 88.7202 629.03 97.1802C606.8 101.92 580.07 111.81 577.38 134.45C575.73 148.25 584.81 161.58 596.55 168.96C608.3 176.35 622.33 178.95 636.01 181.19C720.56 195.01 806.13 200.28 891.81 203.15C913.8 232.3 932.63 263.98 947.79 297.69H947.77Z" fill="#4B0AA6"/>
<path d="M891.79 203.15C806.11 200.28 720.54 195.01 635.99 181.19C622.31 178.95 608.28 176.35 596.53 168.96C584.79 161.58 575.71 148.25 577.36 134.45C580.05 111.81 606.78 101.92 629.01 97.1798C668.69 88.7198 708.61 81.4198 748.71 75.2998C804.36 108.16 852.98 151.71 891.77 203.15H891.79Z" fill="#3A008C"/>
<path d="M987.42 440.45C943.43 461.09 892.63 468.68 843.73 466.08C770.81 462.21 700.63 438.14 631.91 413.36C563.19 388.59 493.95 362.67 421.35 354.81C339.32 345.94 256.13 360.66 177.78 386.56C120.44 405.52 65.3099 430.36 10.8999 456.74C15.0399 408.92 26.0099 363.05 42.8099 320.13C196.88 273.6 355.19 232.55 514.42 249.35C595.14 257.87 673.54 281.11 753.51 295C817.63 306.14 884.6 311 947.76 297.68C967.75 342.15 981.37 390.13 987.41 440.44L987.42 440.45Z" fill="#621FBF"/>
<path d="M990.97 500C990.97 506.41 990.84 512.8 990.6 519.15C968.25 527.45 943.53 530.99 919.74 530.93C871.38 530.8 823.82 518.61 775.52 516.04C727.23 513.47 674.8 522.45 640.89 557.04C605.25 593.39 598.24 648.83 571.96 692.47C542.73 741.01 491.49 771.89 439.51 794.21C387.54 816.53 332.55 832.43 283.65 860.9C262.04 873.48 241.44 889.17 224.32 907.58C184.83 880.66 149.47 848.12 119.36 811.1C144.97 785.9 178.46 768.17 212.6 755.94C260.17 738.89 310.45 730.69 358.56 715.24C406.68 699.78 454.28 675.56 484.02 634.59C513.75 593.63 520.66 532.95 489.41 493.14C459.93 455.58 406.78 446.28 359.23 449.28C237.81 456.92 129.25 524.79 12.55 559.33C10.22 539.88 9.02002 520.08 9.02002 500C9.02002 485.43 9.65002 471 10.89 456.75C65.3 430.37 120.43 405.53 177.77 386.57C256.12 360.67 339.31 345.95 421.34 354.82C493.94 362.67 563.18 388.6 631.9 413.37C700.62 438.15 770.8 462.22 843.72 466.09C892.62 468.69 943.42 461.1 987.41 440.46C989.75 459.98 990.96 479.85 990.96 500.01L990.97 500Z" fill="#3A008C"/>
<path d="M484.04 634.59C454.3 675.55 406.7 699.78 358.58 715.24C310.47 730.69 260.19 738.89 212.62 755.94C178.48 768.17 144.99 785.9 119.38 811.1C96.9801 783.56 77.4901 753.54 61.3901 721.52C157.79 676.03 278.19 671.62 356.68 598.27C367.5 588.16 377.83 572.12 369.88 559.6C363.25 549.16 348.4 548.81 336.11 549.98C229.01 560.15 124.44 595.71 33.0501 652.6C23.3301 622.67 16.4001 591.48 12.5601 559.34C129.26 524.8 237.82 456.93 359.24 449.29C406.8 446.29 459.94 455.6 489.42 493.15C520.67 532.96 513.77 593.63 484.03 634.6L484.04 634.59Z" fill="#4B0AA6"/>
<path d="M356.68 598.27C278.18 671.62 157.79 676.03 61.3901 721.52C50.2901 699.45 40.7901 676.42 33.0601 652.59C124.45 595.71 229.03 560.14 336.12 549.97C348.41 548.81 363.25 549.15 369.89 559.59C377.84 572.11 367.51 588.15 356.69 598.26L356.68 598.27Z" fill="#3A008C"/>
<path d="M990.6 519.16C989.08 559.13 982.81 597.88 972.33 634.86C921.73 635.94 870.94 641.13 826.95 665.14C756.81 703.42 719.06 780.58 669.52 843.38C619.19 907.19 553.27 958.42 479.43 992.05C385.09 988.15 297.62 957.55 224.34 907.58C241.46 889.17 262.06 873.48 283.67 860.9C332.57 832.43 387.55 816.53 439.53 794.21C491.51 771.89 542.74 741.01 571.98 692.47C598.26 648.83 605.28 593.39 640.91 557.04C674.81 522.46 727.25 513.47 775.54 516.04C823.83 518.61 871.4 530.8 919.76 530.93C943.55 530.99 968.27 527.46 990.62 519.16H990.6Z" fill="#621FBF"/>
<path d="M972.33 634.86C913.87 841.29 724.53 992.48 500 992.48C493.1 992.48 486.25 992.33 479.43 992.05C553.27 958.42 619.19 907.2 669.52 843.38C719.06 780.58 756.81 703.41 826.95 665.14C870.94 641.13 921.73 635.94 972.33 634.86Z" fill="#4B0AA6"/>
<path d="M603.26 18.43C523.82 42.91 448 79.23 379.31 126.16C331.42 158.89 285.83 197.22 230.87 215.65C185.96 230.71 138.2 231.35 90.5901 228.08C178.51 95.16 329.05 7.52002 500 7.52002C535.42 7.52002 569.97 11.29 603.26 18.43Z" fill="#3A008C"/>
<path d="M500 993.8C771.884 993.8 992.29 772.718 992.29 500C992.29 227.282 771.884 6.2002 500 6.2002C228.116 6.2002 7.70996 227.282 7.70996 500C7.70996 772.718 228.116 993.8 500 993.8Z" stroke="#E8E8E8" stroke-miterlimit="10"/>
</svg>
