<svg width="1000" height="1000" viewBox="0 0 1000 1000" fill="none" xmlns="http://www.w3.org/2000/svg">
<path d="M820.63 474.08C837.3 466.81 856.29 473.91 874.4 475.5C892.51 477.1 915.68 467.15 914.14 448.99C911.8 421.45 861.73 425.74 852.75 399.6C845.1 377.34 873.85 360.54 882.8 338.77C894.06 311.35 871.6 281.93 848.13 263.89C824.66 245.84 796.33 228.47 789.8 199.54C784.42 175.69 796.53 150.61 814.44 134.02C817.06 131.59 819.79 129.32 822.61 127.17C736.21 51.9099 623.41 6.35986 500 6.35986C407.82 6.35986 321.56 31.7699 247.79 75.9899C260.39 95.9199 290.32 93.2299 313.94 89.4699C395.52 76.4699 480.22 83.5999 558.5 110.04C563.8 111.83 569.5 114.04 572.36 118.86C579.11 130.24 564.68 142.98 551.75 145.65C538.82 148.33 523.09 148.75 516.24 160.07C507.59 174.36 522.73 192.97 539.13 195.9C555.52 198.83 571.97 192.41 588.47 190.17C604.98 187.92 625.15 192.15 631.42 207.63C637.93 223.69 624.45 242.01 608.19 247.88C591.94 253.75 574.06 251.07 556.81 250.02C502.44 246.69 447.13 260.75 400.91 289.66C387.08 298.31 372.88 316.9 384.06 328.79C389.3 334.36 397.81 334.98 404.56 338.54C423.99 348.8 420.86 380.25 404.2 394.6C387.53 408.95 364 411.1 342.14 413.2C263.91 420.7 186.39 435.7 110.98 457.9C103.45 460.12 94.93 463.33 92.31 470.76C88.79 480.74 98.81 490.71 108.98 493.53C119.15 496.35 130.25 495.21 140.06 499.1C149.88 502.99 157.71 515.68 151.24 524.04C105.82 539.7 58.4 549.54 10.52 553.31C18.49 628.09 43.11 697.88 80.58 758.87C83.05 755.8 85.68 752.87 88.43 750.1C110.74 727.69 140.14 714.1 168.87 700.98C210 682.18 251.13 663.39 292.26 644.6C305.86 638.39 322.94 632.51 334.65 641.81C354.85 657.87 331.82 691.41 339.91 715.96C346.58 736.18 371.37 742.89 392.46 745.33C413.55 747.77 438.03 750.96 448.98 769.2C459.72 787.09 452.61 813.09 466.89 828.31C475.62 837.62 489.39 839.46 501.38 843.78C531.68 854.68 552.79 883.51 562.63 914.26C570.29 938.18 572.16 963.39 572.7 988.62C686.36 971.75 787.35 915.91 861.76 835.07C861.37 834.02 861 832.97 860.67 831.9C850.31 798.72 860.44 763.03 869.54 729.48C878.64 695.92 886.48 659.04 872.16 627.37C859.3 598.9 831.13 580.73 812.95 555.34C794.78 529.96 792.04 486.54 820.62 474.09L820.63 474.08ZM667.06 485.8C659.05 505 632.97 516.97 635.54 537.62C637.65 554.49 658.84 564.28 660.23 581.23C661.21 593.24 651.54 603.54 641.23 609.76C630.92 615.97 619.1 620.06 610.55 628.54C603.16 635.88 598.98 645.77 593.9 654.88C588.82 663.99 582.02 673.02 572.14 676.29C562.25 679.56 547.47 648.75 542.76 639.44C529.52 613.21 499.02 594.9 486.63 568.26C483.45 561.43 480.55 553.77 482.65 546.54C487.07 531.36 507.5 530.27 522.09 524.26C549.4 513.02 559.25 479.9 578.81 457.72C593.43 441.14 616.28 430.22 637.75 435.35C659.21 440.49 675.57 465.39 667.05 485.81L667.06 485.8Z" fill="#E62633"/>
<path d="M572.71 988.61C548.99 992.14 524.71 993.96 500 993.96C322.68 993.96 167.26 899.92 80.59 758.85C83.06 755.78 85.69 752.85 88.44 750.08C110.75 727.67 140.15 714.08 168.88 700.96C210.01 682.16 251.14 663.37 292.27 644.58C305.87 638.37 322.95 632.49 334.66 641.79C354.86 657.85 331.83 691.39 339.92 715.94C346.59 736.16 371.38 742.87 392.47 745.31C413.56 747.75 438.04 750.94 448.99 769.18C459.73 787.07 452.62 813.07 466.9 828.29C475.63 837.6 489.4 839.44 501.39 843.76C531.69 854.66 552.8 883.49 562.64 914.24C570.3 938.16 572.17 963.37 572.71 988.6V988.61Z" fill="#CC101D"/>
<path d="M992.29 500.16C992.29 629.4 942.79 747.05 861.78 835.06C861.39 834.01 861.02 832.96 860.69 831.89C850.33 798.71 860.46 763.02 869.56 729.47C878.66 695.91 886.5 659.03 872.18 627.36C859.32 598.89 831.15 580.72 812.97 555.33C794.8 529.95 792.06 486.53 820.64 474.08C837.31 466.81 856.3 473.91 874.41 475.5C892.52 477.1 915.69 467.15 914.15 448.99C911.81 421.45 861.74 425.74 852.76 399.6C845.11 377.34 873.86 360.54 882.81 338.77C894.07 311.35 871.61 281.93 848.14 263.89C824.67 245.84 796.34 228.47 789.81 199.54C784.43 175.69 796.54 150.61 814.45 134.02C817.07 131.59 819.8 129.32 822.62 127.17C926.57 217.7 992.3 351.24 992.3 500.17L992.29 500.16Z" fill="#FF4551"/>
<path d="M608.2 247.88C591.95 253.75 574.07 251.07 556.82 250.02C502.45 246.69 447.14 260.75 400.92 289.66C387.09 298.31 372.89 316.9 384.07 328.79C389.31 334.36 397.82 334.98 404.57 338.54C424 348.8 420.87 380.25 404.21 394.6C387.54 408.95 364.01 411.1 342.15 413.2C263.92 420.7 186.4 435.7 110.99 457.9C103.46 460.12 94.94 463.33 92.32 470.76C88.8 480.74 98.82 490.71 108.99 493.53C119.16 496.35 130.26 495.21 140.07 499.1C149.89 502.99 157.72 515.68 151.25 524.04C105.83 539.7 58.41 549.54 10.53 553.31C8.66002 535.86 7.71002 518.13 7.71002 500.17C7.71002 319.92 104 162.21 247.79 76C260.39 95.93 290.32 93.24 313.94 89.48C395.52 76.48 480.22 83.61 558.5 110.05C563.8 111.84 569.5 114.05 572.36 118.87C579.11 130.25 564.68 142.99 551.75 145.66C538.82 148.34 523.09 148.76 516.24 160.08C507.59 174.37 522.73 192.98 539.13 195.91C555.52 198.84 571.97 192.42 588.47 190.18C604.98 187.93 625.15 192.16 631.42 207.64C637.93 223.7 624.45 242.02 608.19 247.89L608.2 247.88Z" fill="#FF4551"/>
<path d="M667.06 485.8C659.05 505 632.97 516.97 635.54 537.62C637.65 554.49 658.84 564.28 660.23 581.23C661.21 593.24 651.54 603.54 641.23 609.76C630.92 615.97 619.1 620.06 610.55 628.54C603.16 635.88 598.98 645.77 593.9 654.88C588.82 663.99 582.02 673.02 572.14 676.29C562.25 679.56 547.47 648.75 542.76 639.44C529.52 613.21 499.02 594.9 486.63 568.26C483.45 561.43 480.55 553.77 482.65 546.54C487.07 531.36 507.5 530.27 522.09 524.26C549.4 513.02 559.25 479.9 578.81 457.72C593.43 441.14 616.28 430.22 637.75 435.35C659.21 440.49 675.57 465.39 667.05 485.81L667.06 485.8Z" fill="#CC101D"/>
<path d="M500 993.64C771.884 993.64 992.29 772.558 992.29 499.84C992.29 227.122 771.884 6.04004 500 6.04004C228.116 6.04004 7.71002 227.122 7.71002 499.84C7.71002 772.558 228.116 993.64 500 993.64Z" stroke="#E8E8E8" stroke-miterlimit="10"/>
</svg>
