<svg width="1000" height="1000" viewBox="0 0 1000 1000" fill="none" xmlns="http://www.w3.org/2000/svg">
<g clip-path="url(#clip0_464_59)">
<path d="M461 999C283.634 985.697 132.277 878.234 56 726C72.3293 728.33 88.971 730.529 105.905 732.596C110.146 733.11 114.397 733.615 118.658 734.129C127.492 735.168 136.418 736.156 145.434 737.125C149.463 737.568 153.523 737.992 157.582 738.416C161.833 738.859 166.105 739.283 170.386 739.707C172.35 739.898 174.295 740.09 176.249 740.271C179.553 740.604 182.877 740.927 186.202 741.219C191.208 741.673 196.245 742.137 201.282 742.581C205.634 742.964 209.996 743.358 214.388 743.711C217.742 743.993 221.127 744.275 224.491 744.538C228.329 744.85 232.178 745.153 236.026 745.435C239.038 745.677 242.05 745.909 245.052 746.121C248.457 746.363 251.861 746.615 255.276 746.857C263.396 747.422 271.555 747.967 279.735 748.481C284.409 748.784 289.084 749.066 293.768 749.348C298.039 749.601 302.32 749.843 306.612 750.075C311.759 750.357 316.917 750.629 322.095 750.881C326.064 751.083 330.043 751.275 334.032 751.466C337.608 751.628 341.164 751.789 344.74 751.92C346.735 752.011 348.75 752.102 350.754 752.183C353.676 752.314 356.617 752.425 359.559 752.535C360.767 752.586 361.976 752.626 363.185 752.677C365.532 752.767 367.869 752.858 370.217 752.939C370.67 752.959 371.123 752.969 371.576 752.989C379.122 753.252 386.677 753.504 394.272 753.716C398.282 753.847 402.321 753.947 406.361 754.048C409.423 754.119 412.506 754.2 415.588 754.28C416.616 754.301 417.653 754.331 418.681 754.351C419.376 754.361 420.081 754.361 420.796 754.381C422.217 754.401 423.627 754.432 425.067 754.472C447.29 821.108 460.557 901.764 460.99 998.99L461 999Z" fill="#F9884E"/>
<path d="M939.99 726C858.345 888.551 690.748 1000 497.255 1000C484.709 1000 472.275 999.527 459.962 998.61C459.528 901.533 446.247 820.983 424 754.441C425.069 754.462 426.118 754.492 427.187 754.512C430.212 754.562 433.258 754.623 436.313 754.673C437.997 754.683 439.702 754.723 441.396 754.744C441.91 754.744 442.415 754.764 442.929 754.764C443.473 754.784 443.998 754.784 444.542 754.794C447.033 754.834 449.534 754.864 452.025 754.905C452.65 754.905 453.266 754.925 453.901 754.925C457.703 754.975 461.505 755.015 465.297 755.046C475.916 755.136 486.565 755.187 497.265 755.187C658.215 755.187 809.293 744.582 940 726H939.99Z" fill="#D9662B"/>
<path d="M596.931 14C566.117 27.4775 538.867 53.3765 517.666 80.5428C484.476 123.078 457.135 172.663 411.604 201.418C367.099 229.54 308.159 232.94 260.755 210.088C232.045 196.269 208.127 173.94 179.819 159.316C170.387 154.448 160.028 150.596 149.438 148.343C105.215 192.457 69.2371 244.898 44 303.153C92.7125 294.675 144.455 305.427 191.668 322.314C249.017 342.822 303.327 372.09 362.237 387.549C429.976 405.351 502.556 404.034 569.61 383.787C605.417 372.975 640.389 356.329 666.512 329.435C697.145 297.913 713.302 254.906 741.216 220.92C769.171 186.875 809.126 163.319 852 154.136C784.11 84.1435 695.876 34.2264 596.921 14H596.931ZM632.99 301.303C623.336 315.313 607.481 328.721 586.522 340.579C573.385 347.981 557.419 355.042 537.165 358.21C516.891 361.378 478.437 356.189 469.699 349.782C448.408 334.192 467.051 296.032 506.583 276.198C520.807 269.057 538.071 262.671 558.476 259.492C578.872 256.304 602.639 256.757 618.776 262.228C643.822 270.727 642.463 287.513 632.99 301.303Z" fill="#F9884E"/>
<path d="M330.358 589.901L330.351 589.901C330.193 589.9 330.044 589.881 329.885 589.881C328.056 589.789 326.216 589.719 324.407 589.638C322.588 589.567 320.778 589.476 318.959 589.395C314.858 589.203 310.787 589.011 306.716 588.798C304.494 588.697 302.283 588.586 300.082 588.464C299.388 588.434 298.684 588.393 297.991 588.363C297.679 588.343 297.378 588.323 297.066 588.313C293.558 588.12 290.08 587.938 286.612 587.746C284.391 587.625 282.199 587.503 279.998 587.362C273.193 586.957 266.418 586.552 259.713 586.107C256.346 585.895 253.009 585.682 249.672 585.45C246.355 585.217 243.037 584.994 239.74 584.762C237.107 584.59 234.463 584.387 231.85 584.195C226.613 583.811 221.396 583.416 216.219 583.012C216.149 583.012 216.099 582.991 216.028 582.991C214.209 582.85 212.399 582.708 210.58 582.546C208.761 582.405 206.951 582.243 205.152 582.101C201.956 581.838 198.779 581.575 195.623 581.302C192.276 580.998 188.939 580.715 185.621 580.422C183.129 580.189 180.606 579.977 178.133 579.734C176.494 579.592 174.866 579.43 173.228 579.279C170.956 579.066 168.704 578.854 166.453 578.641C165.407 578.54 164.342 578.429 163.296 578.328C161.588 578.166 159.879 577.994 158.16 577.812C155.363 577.53 152.606 577.249 149.85 576.967C149.832 576.966 149.814 576.964 149.797 576.962C147.022 576.679 144.248 576.375 141.504 576.092C136.84 575.576 132.216 575.08 127.643 574.554C122.476 573.968 117.38 573.371 112.334 572.764L112.326 572.763C109.956 572.48 107.587 572.197 105.207 571.894C102.845 571.611 100.493 571.307 98.1706 571.014C96.7533 570.821 95.326 570.639 93.9087 570.467C92.4914 570.295 91.0942 570.113 89.6969 569.921C87.6564 569.658 85.626 569.375 83.6055 569.112C80.0573 568.636 76.5391 568.161 73.0612 567.665C70.5784 567.311 68.1056 566.957 65.663 566.603C62.6475 566.178 59.6521 565.733 56.6868 565.298C54.4653 564.964 52.274 564.63 50.0727 564.286C47.8713 563.942 45.67 563.619 43.5088 563.265C42.0614 563.032 40.624 562.809 39.1966 562.577C32.0196 561.423 25.0034 560.24 18.1581 559.016C16.8011 558.783 15.4542 558.54 14.1072 558.287C11.3832 557.812 8.67928 557.316 5.98539 556.821C4.01523 538.652 3 520.2 3 501.515C3 487.737 3.5428 474.09 4.63845 460.595C100.651 455.446 233.063 482.51 330.351 589.901C330.363 589.914 330.376 589.928 330.388 589.941L330.358 589.901Z" fill="#F9884E"/>
<path d="M330.351 589.901C330.193 589.9 330.044 589.881 329.885 589.881C328.056 589.789 326.216 589.719 324.407 589.638C322.588 589.567 320.778 589.476 318.959 589.395C314.858 589.203 310.787 589.011 306.716 588.798C304.494 588.697 302.283 588.586 300.082 588.464C299.388 588.434 298.684 588.393 297.991 588.363C297.679 588.343 297.378 588.323 297.066 588.313C293.558 588.12 290.08 587.938 286.612 587.746C284.391 587.625 282.199 587.503 279.998 587.362C273.193 586.957 266.418 586.552 259.713 586.107C256.346 585.895 253.009 585.682 249.672 585.45C246.355 585.217 243.037 584.994 239.74 584.762C237.107 584.59 234.463 584.387 231.85 584.195C226.613 583.811 221.396 583.416 216.219 583.012C216.149 583.012 216.099 582.991 216.028 582.991C214.209 582.85 212.399 582.708 210.58 582.546C208.761 582.405 206.951 582.243 205.152 582.101C201.956 581.838 198.779 581.575 195.623 581.302C192.276 580.998 188.939 580.715 185.621 580.422C183.129 580.189 180.606 579.977 178.133 579.734C176.494 579.592 174.866 579.43 173.228 579.279C170.956 579.066 168.704 578.854 166.453 578.641C165.407 578.54 164.342 578.429 163.296 578.328C161.588 578.166 159.879 577.994 158.16 577.812C155.363 577.53 152.606 577.249 149.85 576.967L149.797 576.962C147.022 576.679 144.248 576.375 141.504 576.092C136.84 575.576 132.216 575.08 127.643 574.554C122.476 573.968 117.38 573.371 112.334 572.764L112.326 572.763C109.956 572.48 107.587 572.197 105.207 571.894C102.845 571.611 100.493 571.307 98.1706 571.014C96.7533 570.821 95.326 570.639 93.9087 570.467C92.4914 570.295 91.0942 570.113 89.6969 569.921C87.6564 569.658 85.626 569.375 83.6055 569.112C80.0573 568.636 76.5391 568.161 73.0612 567.665C70.5784 567.311 68.1056 566.957 65.663 566.603C62.6475 566.178 59.6521 565.733 56.6868 565.298C54.4653 564.964 52.274 564.63 50.0727 564.286C47.8713 563.942 45.67 563.619 43.5088 563.265C42.0614 563.032 40.624 562.809 39.1966 562.577C32.0196 561.423 25.0034 560.24 18.1581 559.016C16.8011 558.783 15.4542 558.54 14.1072 558.287C11.3832 557.812 8.67928 557.316 5.98539 556.821C16.0697 641.481 43.9881 705.459 56.6868 726.865C125.425 743.618 330.203 753.269 424 756C386.366 651.115 345.911 601.592 330.388 589.941C330.376 589.928 330.363 589.914 330.351 589.901Z" fill="#F9884E"/>
<path d="M987.99 434C952.273 414.924 911.526 405.351 871.071 406.879C853.894 407.533 833.036 408.448 823.641 393.967C819.649 387.813 818.883 380.13 819.014 372.79C819.679 337.865 840.214 304.027 870.83 287.425C889.983 277.027 912.675 272.884 932.868 265C945.297 287.988 955.963 312.082 964.723 337.081C972.748 360.029 979.139 383.74 983.776 408.096C985.409 416.643 986.821 425.282 988 433.98L987.99 434Z" fill="#F9884E"/>
<path d="M474 4.01009C461.923 16.3412 451.503 30.9729 442.425 45.3928C421.362 78.8542 400.501 116.16 364.321 132.144C324.329 149.823 276.672 135.494 240.644 110.701C232.095 104.828 223.18 98.2085 214 92.6081C288.424 40.8317 377.618 8.78308 473.99 4L474 4.01009Z" fill="#FF9C69"/>
<path d="M596.98 13.9531C566.132 27.425 538.851 53.3231 517.627 80.4679C484.4 122.985 457.029 172.549 411.447 201.292C366.893 229.402 307.887 232.801 260.431 209.959C231.689 196.135 207.744 173.826 179.405 159.218C169.972 154.352 159.592 150.502 149 148.25C169.398 127.941 191.518 109.392 215.171 92.8842C224.271 98.4539 233.11 105.049 241.585 110.91C277.291 135.612 324.536 149.888 364.192 132.274C400.059 116.349 420.729 79.1811 441.62 45.8432C450.619 31.4766 460.949 16.8988 472.922 4.61327C481.165 4.21113 489.48 4 497.834 4C531.796 4 564.963 7.42829 597 13.9732L596.98 13.9531Z" fill="#D9662B"/>
<path d="M633.68 300.371C623.999 314.567 608.1 328.151 587.093 340.166C573.92 347.667 557.899 354.821 537.589 358.031C517.278 361.241 478.706 355.983 469.934 349.491C448.594 333.685 467.279 295.031 506.921 274.934C521.185 267.698 538.507 261.227 558.959 258.017C579.411 254.787 603.255 255.245 619.427 260.789C644.542 269.4 643.179 286.409 633.68 300.381V300.371Z" fill="#D9662B"/>
<path d="M988.385 433.87C952.684 414.768 911.955 405.192 871.519 406.723C854.349 407.377 833.5 408.283 824.099 393.794C820.109 387.631 819.343 379.938 819.474 372.587C820.139 337.616 840.675 303.732 871.267 287.108C890.412 276.696 913.094 272.547 933.267 264.653C911.341 224.023 883.963 186.806 852.132 154C809.216 163.193 769.223 186.776 741.241 220.861C713.309 254.886 697.136 297.943 666.464 329.5C640.315 356.426 605.31 373.081 569.468 383.915C502.349 404.185 429.698 405.504 361.894 387.681C302.927 372.205 248.565 342.903 191.159 322.371C143.901 305.464 92.1082 294.7 43.3484 303.189C38.5722 314.195 34.199 325.432 30.2088 336.841C22.1779 359.88 15.7693 383.664 11.1341 408.112C7.82905 425.542 5.43085 443.315 4 461.349C100.26 456.224 233.017 483.17 330.536 590.087C334.285 590.248 338.053 590.409 341.812 590.56C342.547 590.591 343.273 590.611 343.998 590.651C345.57 590.701 347.152 590.782 348.724 590.832C351.042 590.923 353.369 591.003 355.687 591.094C356.181 591.114 356.685 591.134 357.198 591.144C359.556 591.235 361.934 591.326 364.302 591.396C366.58 591.487 368.867 591.547 371.164 591.618C374.349 591.728 377.553 591.809 380.757 591.92C380.843 591.922 380.929 591.925 381.015 591.927C384.144 592.015 387.282 592.104 390.41 592.202C390.884 592.202 391.337 592.212 391.811 592.232C395.277 592.322 398.744 592.413 402.21 592.494C405.696 592.584 409.173 592.655 412.679 592.715C416.176 592.806 419.682 592.876 423.199 592.927C425.839 592.977 428.469 593.037 431.109 593.068C433.749 593.098 436.419 593.138 439.059 593.188C444.359 593.279 449.68 593.35 455.04 593.4C469.268 593.561 483.637 593.621 498.117 593.621C693.196 593.621 868.627 579.585 989.987 557.261C991.982 539.126 993 520.719 993 502.06C993 478.92 991.448 456.154 988.395 433.85L988.385 433.87Z" fill="#D9662B"/>
<path d="M341.812 590.56C338.053 590.409 334.285 590.248 330.536 590.087C344.899 599.885 383.78 646.667 424.408 755.417C564.974 773.542 838.307 751.067 937.701 726.417C951.096 701.854 980.305 633.635 989.987 557.261C868.627 579.585 693.196 593.621 498.117 593.621C483.637 593.621 469.268 593.561 455.04 593.4C449.68 593.35 444.359 593.279 439.059 593.188C436.419 593.138 433.749 593.098 431.109 593.068C428.469 593.037 425.839 592.977 423.199 592.927C419.682 592.876 416.176 592.806 412.679 592.715C409.173 592.655 405.696 592.584 402.21 592.494C398.744 592.413 395.277 592.322 391.811 592.232C391.337 592.212 390.884 592.202 390.41 592.202C387.282 592.104 384.144 592.015 381.015 591.927L380.757 591.92C377.553 591.809 374.349 591.728 371.164 591.618C368.867 591.547 366.58 591.487 364.302 591.396C361.934 591.326 359.556 591.235 357.198 591.144C356.685 591.134 356.181 591.114 355.687 591.094C353.369 591.003 351.042 590.923 348.724 590.832C347.152 590.782 345.57 590.701 343.998 590.651C343.273 590.611 342.547 590.591 341.812 590.56Z" fill="#D9662B"/>
<path d="M498 999C771.381 999 993 776.038 993 501C993 225.962 771.381 3 498 3C224.619 3 3 225.962 3 501C3 776.038 224.619 999 498 999Z" stroke="#E8E8E8" stroke-miterlimit="10"/>
</g>
<defs>
<clipPath id="clip0_464_59">
<rect width="1000" height="1000" fill="white"/>
</clipPath>
</defs>
</svg>
