<svg width="33" height="36" viewBox="0 0 33 36" fill="none" xmlns="http://www.w3.org/2000/svg">
<path d="M14.881 1.56986C15.1193 0.275865 17.0018 0.275869 17.2401 1.56986L19.4002 13.298C19.484 13.7531 19.8296 14.1182 20.2845 14.2321L31.1569 16.9542C32.3618 17.2559 32.3618 18.9428 31.1569 19.2445L20.2845 21.9666C19.8296 22.0805 19.484 22.4456 19.4002 22.9007L17.2401 34.6289C17.0018 35.9229 15.1193 35.9229 14.881 34.6289L12.7209 22.9007C12.6371 22.4456 12.2915 22.0805 11.8366 21.9666L0.964209 19.2445C-0.240672 18.9428 -0.240675 17.2559 0.964206 16.9542L11.8366 14.2321C12.2915 14.1182 12.6371 13.7531 12.7209 13.298L14.881 1.56986Z" fill="#E8E8E8"/>
<path d="M26.2871 1.281L27.0549 5.12185L31.0079 5.86783L27.0549 6.61381L26.2871 10.4547L25.5193 6.61381L21.5663 5.86783L25.5193 5.12185L26.2871 1.281Z" fill="#E8E8E8"/>
</svg>
