<svg width="1920" height="1349" viewBox="0 0 1920 1349" fill="none" xmlns="http://www.w3.org/2000/svg">
<g clip-path="url(#clip0_557_145)">
<path d="M1419.45 853.579C1389.84 894.269 1344.22 920.019 1296.59 937.209C1291.24 939.139 1285.86 940.969 1280.49 942.689C1234.73 957.349 1187.2 966.099 1141.33 980.199C1133.77 982.519 1126.26 984.989 1118.81 987.649C1109.32 991.039 1099.88 994.809 1090.61 998.999C1069.13 1008.72 1048.56 1020.67 1030.49 1035.3C1025.28 1039.5 1020.28 1043.93 1015.52 1048.6C1011.8 1044.04 1008.17 1039.42 1004.6 1034.75C995.773 1023.19 987.408 1011.26 979.522 998.999C976.653 994.539 973.845 990.039 971.116 985.499H1121.09C1124.95 985.499 1128.08 982.369 1128.08 978.499V891.289C1132.52 889.899 1136.93 888.489 1141.33 887.049C1191.91 870.449 1239.74 849.479 1278.39 813.459C1290.37 802.279 1301.81 784.559 1293.01 770.729C1285.66 759.189 1269.22 758.809 1255.61 760.099C1217.09 763.749 1178.86 770.359 1141.33 779.769C1136.9 780.879 1132.48 782.029 1128.08 783.209V752.499C1128.08 748.629 1124.95 745.499 1121.09 745.499H969.797C981.281 741.119 992.715 736.589 1004.14 731.999C1045.78 715.259 1087.15 697.659 1129.07 682.919C1166.41 669.789 1204.21 658.939 1243.04 652.989C1255.65 651.059 1268.37 649.649 1281.21 648.839C1286.29 648.519 1291.42 648.319 1296.59 648.279C1333.27 647.919 1371.39 654.719 1400.54 674.349C1409.87 680.629 1418.27 688.219 1425.42 697.299C1438.3 713.679 1445.33 733.249 1447.38 753.699C1450.84 788.189 1440.12 825.179 1419.45 853.579Z" fill="#4B0AA5"/>
<path d="M1278.39 813.46C1239.74 849.48 1191.91 870.45 1141.33 887.05C1136.93 888.49 1132.52 889.9 1128.09 891.29V783.21C1132.48 782.03 1136.9 780.88 1141.33 779.77C1178.86 770.36 1217.09 763.75 1255.61 760.1C1269.22 758.81 1285.66 759.19 1293.01 770.73C1301.82 784.56 1290.37 802.28 1278.39 813.46Z" fill="#3A008B"/>
<path d="M1918.66 957.989C1827.63 1131.02 1646.14 1249 1437.13 1249C1429.5 1249 1421.9 1248.84 1414.34 1248.53C1496.13 1211.37 1569.15 1154.77 1624.9 1084.27C1679.78 1014.88 1721.59 929.619 1799.29 887.329C1835.85 867.429 1876.66 859.229 1918.44 855.869L1918.66 957.989Z" fill="#4B0AA5"/>
<path d="M1665.19 210.77L1614.91 252.7L1539.33 315.71H1580.79L1668.6 242.79L1691.46 223.82L1918 35.72V0L1665.19 210.77ZM1917.67 490.12L1869.28 489.53L1799.19 488.66H1799.18L1731.1 487.82V515.86L1917.73 518.71L1919 518.73V490.14L1917.67 490.12ZM1918.22 747.39C1910.76 744.57 1903.21 741.75 1895.54 738.96C1880.36 733.42 1864.8 727.97 1848.98 722.63V1019.29C1848.98 1037.52 1834.21 1052.29 1815.99 1052.29H1329.57C1325.73 1052.29 1322.05 1051.64 1318.62 1050.43C1305.79 1045.92 1296.58 1033.68 1296.58 1019.29V594.41C1237.65 586.06 1171.64 578.77 1095.61 574.63C1053.48 572.33 1008.27 571 959.5 571C942.259 571 925.718 571.11 909.806 571.31C675.678 574.34 579.668 598.8 465.408 620.21C436.283 625.67 402.47 632.68 365.789 640.99L297.845 498.31L394.794 345.13L394.664 344.76C503.568 289.5 715.677 252 959.5 252C1017.33 252 1073.38 254.11 1126.69 258.07C1195.73 263.19 1260.17 271.41 1317.95 282.15C1368.44 291.54 1413.83 302.85 1452.75 315.71H1528.13C1526.73 314.98 1525.32 314.25 1523.88 313.52C1481.79 292.25 1424.39 273.61 1355.76 258.75C1300.46 246.77 1237.86 237.24 1170.11 230.76C1104.12 224.43 1033.26 221 959.5 221C707.501 221 489.385 261.06 384.06 319.37L0 0V35.72L360.402 334.13L363.811 336.96L276.856 480.95L0 490.14V518.73L273.857 507.5L339.083 647.17C231.639 672.46 104.755 707.8 0 747.69V1349H1919V747.69C1918.74 747.59 1918.48 747.49 1918.22 747.39ZM1128.08 752.5V978.5C1128.08 982.37 1124.94 985.5 1121.09 985.5H822.741C818.873 985.5 815.745 982.37 815.745 978.5V752.5C815.745 748.63 818.873 745.5 822.741 745.5H1121.09C1124.94 745.5 1128.08 748.63 1128.08 752.5Z" fill="#212121"/>
<path d="M1918.27 773.41C1896.02 764.95 1872.79 756.67 1848.98 748.63V1019.29C1848.98 1037.52 1834.21 1052.29 1815.99 1052.29H1329.57C1325.73 1052.29 1322.05 1051.64 1318.62 1050.43C1305.79 1045.92 1296.58 1033.68 1296.58 1019.29V620.41C1221.08 609.72 1133.97 600.75 1029.05 597.93C1006.7 597.32 983.538 597 959.5 597C940.12 597 921.62 597.13 903.909 597.39C674.059 600.75 578.709 624.99 465.408 646.21C346.839 668.42 150.562 716.36 0 773.69V1349H1919V773.69C1918.76 773.6 1918.51 773.51 1918.27 773.41ZM1128.08 752.5V978.5C1128.08 982.37 1124.94 985.5 1121.09 985.5H822.741C818.873 985.5 815.745 982.37 815.745 978.5V752.5C815.745 748.63 818.873 745.5 822.741 745.5H1121.09C1124.94 745.5 1128.08 748.63 1128.08 752.5Z" fill="#333333"/>
<path d="M1848.98 748.63L1697.35 723.51L1400.54 674.35L1296.58 657.13C1278.83 655.6 1260.98 654.22 1243.04 652.99C1151.54 646.71 1057.44 644.17 959.499 644.17C946.986 644.17 934.542 644.21 922.149 644.3C913.603 644.36 905.088 644.44 896.602 644.54C622.905 647.81 378.312 673.68 133.969 749.89C117.748 754.95 106.334 769.52 105.394 786.5C98.9875 902.29 106.713 1083.5 125.574 1224.91C131.85 1271.98 139.366 1314.63 148.002 1349H1771.38C1780.01 1314.63 1787.52 1271.98 1793.8 1224.91C1798.88 1186.87 1803.15 1145.95 1806.54 1104.2C1807.95 1086.99 1809.21 1069.64 1810.31 1052.29H1772.68L1816.2 879.07L1848.98 748.63ZM1128.08 752.5V978.5C1128.08 982.37 1124.94 985.5 1121.09 985.5H822.741C818.873 985.5 815.744 982.37 815.744 978.5V752.5C815.744 748.63 818.873 745.5 822.741 745.5H1121.09C1124.94 745.5 1128.08 748.63 1128.08 752.5Z" fill="#A8A8A8"/>
<path d="M1723.03 951.56C1716.39 913.16 1701.58 879.79 1708.11 854L1569.21 800.56L1447.38 753.7L1296.59 695.69C1238.13 690.09 1181.39 685.87 1129.08 682.92C1063.92 679.23 1005.64 677.5 959.503 677.5C939.734 677.5 917.745 677.82 893.937 678.46C703.906 683.67 398.406 710.23 187.335 767.42C168.535 772.51 155.972 790.22 157.381 809.66C165.477 921.69 179.579 1090.77 202.128 1224.91C210.024 1271.87 218.959 1314.55 229.024 1349H1632.39C1639.37 1325.14 1652.52 1279.5 1668.07 1224.91C1670.74 1215.55 1673.62 1204.95 1676.63 1193.52C1687.87 1150.91 1701.04 1096.77 1712.69 1052.29C1715.61 1041.14 1718.44 1030.6 1721.11 1021C1727.91 996.56 1726.77 973.26 1723.03 951.56ZM815.748 752.5C815.748 748.63 818.877 745.5 822.744 745.5H1121.09C1124.95 745.5 1128.09 748.63 1128.09 752.5V978.5C1128.09 982.37 1124.95 985.5 1121.09 985.5H822.744C818.877 985.5 815.748 982.37 815.748 978.5V752.5Z" fill="#CECECE"/>
<path d="M1128.18 732H815.633C808.377 732 802.5 737.89 802.5 745.15V985.85C802.5 993.11 808.377 999 815.633 999H1128.18C1135.44 999 1141.32 993.11 1141.32 985.85V745.15C1141.32 737.89 1135.44 732 1128.18 732ZM1128.08 978.5C1128.08 982.37 1124.94 985.5 1121.08 985.5H822.739C818.871 985.5 815.743 982.37 815.743 978.5V752.5C815.743 748.63 818.871 745.5 822.739 745.5H1121.08C1124.94 745.5 1128.08 748.63 1128.08 752.5V978.5Z" fill="#080808"/>
<path d="M1038.88 1046.75V1090.75C1038.88 1090.92 1038.88 1091.08 1038.86 1091.25C1038.61 1097.62 1033.31 1102.75 1026.88 1102.75H916.939C910.512 1102.75 905.215 1097.62 904.965 1091.25C904.945 1091.08 904.945 1090.92 904.945 1090.75V1046.75C904.945 1046.58 904.945 1046.42 904.965 1046.25C905.215 1039.88 910.512 1034.75 916.939 1034.75H1026.88C1033.31 1034.75 1038.61 1039.88 1038.86 1046.25C1038.88 1046.42 1038.88 1046.58 1038.88 1046.75Z" fill="#7C7C7C"/>
<path class="mancheLight" d="M904.95 1090.75C904.95 1090.92 904.95 1091.08 904.97 1091.25H895.455C888.858 1091.25 883.461 1085.85 883.461 1079.25V1058.25C883.461 1051.65 888.858 1046.25 895.455 1046.25H904.97C904.95 1046.42 904.95 1046.58 904.95 1046.75V1090.75Z" fill="#E62633"/>
<path class="mancheLight" d="M1060.37 1058.25V1079.25C1060.37 1085.85 1054.97 1091.25 1048.37 1091.25H1038.86C1038.88 1091.08 1038.88 1090.92 1038.88 1090.75V1046.75C1038.88 1046.58 1038.88 1046.42 1038.86 1046.25H1048.37C1054.97 1046.25 1060.37 1051.65 1060.37 1058.25Z" fill="#E62633"/>
<path d="M990.026 1238H953.725C946.799 1238 941.311 1232.14 941.751 1225.23L947.838 1131L949.657 1102.75H993.304L995.313 1131L1001.99 1225.15C1002.48 1232.09 996.982 1238 990.026 1238Z" fill="#8C8C8C"/>
<path d="M1086.04 1256H857.761C848.766 1256 842.449 1247.53 844.508 1239.15C844.668 1238.47 844.888 1237.79 845.168 1237.12L885.797 1139.4C887.915 1134.31 892.883 1131 898.39 1131H947.824L941.737 1225.23C941.298 1232.14 946.785 1238 953.711 1238H990.012C996.969 1238 1002.47 1232.09 1001.98 1225.15L995.3 1131H1046.97C1052.55 1131 1057.57 1134.4 1059.64 1139.57L1098.71 1237.29C1098.99 1237.99 1099.21 1238.7 1099.36 1239.4C1101.23 1247.71 1094.94 1256 1086.04 1256Z" fill="#BFBFBF"/>
<path d="M1100.6 1244V1252.46C1100.6 1263.76 1091.36 1273 1080.07 1273H864.318C853.024 1273 843.789 1263.76 843.789 1252.46V1244C843.789 1242.28 844.159 1240.63 844.829 1239.15C842.77 1247.53 849.086 1256 858.082 1256H1086.36C1095.26 1256 1101.55 1247.71 1099.68 1239.4C1100.28 1240.82 1100.61 1242.37 1100.61 1244H1100.6Z" fill="#A8A8A8"/>
<path d="M290.496 862.27H243.27C238.081 862.27 233.875 866.478 233.875 871.669V907.76C233.875 912.951 238.081 917.159 243.27 917.159H290.496C295.684 917.159 299.891 912.951 299.891 907.76V871.669C299.891 866.478 295.684 862.27 290.496 862.27Z" fill="#A8A8A8"/>
<path class="buttonNave" onclick="openlink('insta')" d="M286.237 869.58H247.528C243.664 869.58 240.531 872.714 240.531 876.58V902.84C240.531 906.706 243.664 909.84 247.528 909.84H286.237C290.101 909.84 293.234 906.706 293.234 902.84V876.58C293.234 872.714 290.101 869.58 286.237 869.58Z" fill="#CA2FEB"/>
<path d="M290.496 955.211H243.27C238.081 955.211 233.875 959.419 233.875 964.611V1000.7C233.875 1005.89 238.081 1010.1 243.27 1010.1H290.496C295.684 1010.1 299.891 1005.89 299.891 1000.7V964.611C299.891 959.419 295.684 955.211 290.496 955.211Z" fill="#A8A8A8"/>
<path class="buttonNave2" onclick="openlink('email')" d="M286.237 962.529H247.528C243.664 962.529 240.531 965.663 240.531 969.529V995.789C240.531 999.655 243.664 1002.79 247.528 1002.79H286.237C290.101 1002.79 293.234 999.655 293.234 995.789V969.529C293.234 965.663 290.101 962.529 286.237 962.529Z" fill="#B015D1"/>
<path d="M290.496 1048.16H243.27C238.081 1048.16 233.875 1052.37 233.875 1057.56V1093.65C233.875 1098.84 238.081 1103.05 243.27 1103.05H290.496C295.684 1103.05 299.891 1098.84 299.891 1093.65V1057.56C299.891 1052.37 295.684 1048.16 290.496 1048.16Z" fill="#A8A8A8"/>
<path class="buttonNave3" d="M286.237 1055.48H247.528C243.664 1055.48 240.531 1058.61 240.531 1062.48V1088.74C240.531 1092.61 243.664 1095.74 247.528 1095.74H286.237C290.101 1095.74 293.234 1092.61 293.234 1088.74V1062.48C293.234 1058.61 290.101 1055.48 286.237 1055.48Z" fill="#9300B2"/>
<path d="M1698.5 314.711H1212.08C1193.86 314.711 1179.09 329.486 1179.09 347.711V1018.29C1179.09 1036.52 1193.86 1051.29 1212.08 1051.29H1698.5C1716.72 1051.29 1731.49 1036.52 1731.49 1018.29V347.711C1731.49 329.486 1716.72 314.711 1698.5 314.711Z" fill="#080808"/>
<path d="M1705.66 373.47V992.54C1705.66 1009.37 1692.28 1023.01 1675.76 1023.01H1234.82C1218.3 1023.01 1204.93 1009.37 1204.93 992.54V373.47C1204.93 356.64 1218.31 343 1234.82 343H1675.76C1692.29 343 1705.66 356.64 1705.66 373.47Z" fill="#212121"/>
<path d="M638.47 813.049C656.576 813.049 671.253 798.364 671.253 780.249C671.253 762.134 656.576 747.449 638.47 747.449C620.365 747.449 605.688 762.134 605.688 780.249C605.688 798.364 620.365 813.049 638.47 813.049Z" fill="#A8A8A8"/>
<path d="M638.468 807.129C653.305 807.129 665.334 795.095 665.334 780.249C665.334 765.404 653.305 753.369 638.468 753.369C623.63 753.369 611.602 765.404 611.602 780.249C611.602 795.095 623.63 807.129 638.468 807.129Z" fill="#FF4551"/>
<path d="M725.384 813.049C743.49 813.049 758.167 798.364 758.167 780.249C758.167 762.134 743.49 747.449 725.384 747.449C707.279 747.449 692.602 762.134 692.602 780.249C692.602 798.364 707.279 813.049 725.384 813.049Z" fill="#A8A8A8"/>
<path class="alarm" d="M725.382 807.129C740.219 807.129 752.248 795.095 752.248 780.249C752.248 765.404 740.219 753.369 725.382 753.369C710.544 753.369 698.516 765.404 698.516 780.249C698.516 795.095 710.544 807.129 725.382 807.129Z" fill="#CC101D"/>
<path d="M729.503 954.881H361.734C346.4 954.881 333.969 967.318 333.969 982.661V982.671C333.969 998.013 346.4 1010.45 361.734 1010.45H729.503C744.837 1010.45 757.268 998.013 757.268 982.671V982.661C757.268 967.318 744.837 954.881 729.503 954.881Z" fill="#A8A8A8"/>
<path d="M375.142 1024.16C398.05 1024.16 416.621 1005.58 416.621 982.66C416.621 959.74 398.05 941.16 375.142 941.16C352.235 941.16 333.664 959.74 333.664 982.66C333.664 1005.58 352.235 1024.16 375.142 1024.16Z" fill="#A8A8A8"/>
<path d="M375.146 1016.66C393.914 1016.66 409.129 1001.44 409.129 982.66C409.129 963.882 393.914 948.66 375.146 948.66C356.378 948.66 341.164 963.882 341.164 982.66C341.164 1001.44 356.378 1016.66 375.146 1016.66Z" fill="#212121"/>
<path d="M393.791 972.779V973.379L376.79 986.399C376.5 986.059 376.29 985.629 376.211 985.169C376.091 984.469 375.931 983.749 375.781 983.339C375.531 982.679 374.431 982.689 374.202 983.359C374.052 983.759 373.922 984.479 373.822 985.179C373.752 985.679 373.542 986.129 373.232 986.489L356.211 973.839V972.779C356.211 970.529 358.05 968.689 360.299 968.689H389.714C391.962 968.689 393.801 970.529 393.801 972.779H393.791Z" fill="#E8E8E8"/>
<path d="M393.794 976.129V991.919C393.794 994.169 391.954 996.009 389.706 996.009H360.291C358.042 996.009 356.203 994.169 356.203 991.919V976.559L370.975 987.539C370.915 987.559 370.855 987.579 370.806 987.599C370.166 987.859 370.166 988.659 370.816 988.909C371.035 988.989 371.425 989.089 371.855 989.179C372.864 989.409 373.654 990.209 373.844 991.239C373.974 991.929 374.134 992.649 374.284 993.059C374.544 993.719 375.633 993.709 375.873 993.039C376.013 992.649 376.143 991.929 376.243 991.239C376.403 990.139 377.232 989.259 378.322 989.049C378.701 988.979 379.051 988.899 379.241 988.819C379.881 988.569 379.881 987.759 379.231 987.519C379.171 987.499 379.101 987.469 379.021 987.449L393.794 976.139V976.129Z" fill="#E8E8E8"/>
<path d="M730.412 844.57H361.734C346.4 844.57 333.969 857.008 333.969 872.35V872.36C333.969 887.703 346.4 900.14 361.734 900.14H730.412C745.747 900.14 758.178 887.703 758.178 872.36V872.35C758.178 857.008 745.747 844.57 730.412 844.57Z" fill="#A8A8A8"/>
<path d="M375.447 913.85C398.355 913.85 416.926 895.269 416.926 872.35C416.926 849.43 398.355 830.85 375.447 830.85C352.539 830.85 333.969 849.43 333.969 872.35C333.969 895.269 352.539 913.85 375.447 913.85Z" fill="#A8A8A8"/>
<path d="M375.443 906.35C394.211 906.35 409.426 891.127 409.426 872.35C409.426 853.572 394.211 838.35 375.443 838.35C356.675 838.35 341.461 853.572 341.461 872.35C341.461 891.127 356.675 906.35 375.443 906.35Z" fill="#212121"/>
<path d="M384.791 852.9H366.1C360.553 852.9 356.016 857.44 356.016 862.99V881.69C356.016 887.24 360.553 891.78 366.1 891.78H384.791C390.338 891.78 394.875 887.24 394.875 881.69V862.99C394.875 857.44 390.338 852.9 384.791 852.9ZM375.446 881.5C370.388 881.5 366.29 877.4 366.29 872.34C366.29 867.28 370.388 863.18 375.446 863.18C380.503 863.18 384.601 867.28 384.601 872.34C384.601 877.4 380.503 881.5 375.446 881.5ZM390.438 860.84C390.298 860.9 390.048 860.95 389.778 861.01C389.768 861.01 389.758 861.01 389.748 861.01C388.928 861.17 388.309 861.83 388.189 862.65C388.119 863.17 388.019 863.71 387.919 864C387.739 864.5 386.92 864.51 386.73 864.01C386.62 863.71 386.5 863.16 386.4 862.65C386.26 861.89 385.67 861.28 384.911 861.11C384.591 861.04 384.291 860.96 384.131 860.91C383.641 860.73 383.641 860.12 384.121 859.93C384.271 859.87 384.541 859.81 384.831 859.74C385.63 859.58 386.25 858.93 386.37 858.11C386.37 858.1 386.37 858.09 386.37 858.07C386.45 857.56 386.54 857.04 386.65 856.74C386.82 856.24 387.649 856.24 387.829 856.73C387.949 857.03 388.059 857.58 388.149 858.1C388.289 858.88 388.888 859.5 389.668 859.66C389.968 859.72 390.258 859.79 390.408 859.85C390.897 860.03 390.897 860.63 390.418 860.82L390.438 860.84Z" fill="#E8E8E8"/>
<path d="M380.12 872.691C379.91 872.771 379.55 872.861 379.14 872.941C379.12 872.941 379.11 872.941 379.09 872.941C377.881 873.171 376.962 874.151 376.792 875.361C376.682 876.131 376.542 876.921 376.392 877.351C376.132 878.091 374.913 878.101 374.633 877.371C374.463 876.921 374.293 876.121 374.143 875.361C373.933 874.231 373.064 873.341 371.944 873.091C371.474 872.981 371.035 872.871 370.795 872.791C370.075 872.521 370.065 871.631 370.785 871.351C371.005 871.261 371.404 871.171 371.834 871.081C373.024 870.841 373.933 869.881 374.103 868.681C374.103 868.661 374.103 868.641 374.103 868.631C374.213 867.871 374.353 867.101 374.513 866.671C374.773 865.941 375.982 865.931 376.262 866.651C376.432 867.101 376.602 867.901 376.742 868.671C376.952 869.831 377.831 870.741 378.98 870.981C379.43 871.071 379.85 871.171 380.08 871.261C380.8 871.521 380.81 872.421 380.09 872.701L380.12 872.691Z" fill="#E8E8E8"/>
<path d="M729.659 1065.18H361.891C346.556 1065.18 334.125 1077.62 334.125 1092.96V1092.97C334.125 1108.31 346.556 1120.75 361.891 1120.75H729.659C744.993 1120.75 757.425 1108.31 757.425 1092.97V1092.96C757.425 1077.62 744.993 1065.18 729.659 1065.18Z" fill="#A8A8A8"/>
<path d="M375.447 1134.47C398.355 1134.47 416.926 1115.89 416.926 1092.97C416.926 1070.05 398.355 1051.47 375.447 1051.47C352.539 1051.47 333.969 1070.05 333.969 1092.97C333.969 1115.89 352.539 1134.47 375.447 1134.47Z" fill="#A8A8A8"/>
<path d="M375.443 1126.97C394.211 1126.97 409.426 1111.75 409.426 1092.97C409.426 1074.19 394.211 1058.97 375.443 1058.97C356.675 1058.97 341.461 1074.19 341.461 1092.97C341.461 1111.75 356.675 1126.97 375.443 1126.97Z" fill="#212121"/>
<path d="M391.966 1090.55C391.966 1089.93 392.146 1089.34 392.465 1088.83C390.876 1080.16 383.28 1073.6 374.165 1073.6C363.89 1073.6 355.555 1081.94 355.555 1092.22C355.555 1102.5 363.89 1110.84 374.165 1110.84C375.494 1110.84 376.794 1110.7 378.043 1110.44C377.343 1110.25 376.824 1110.09 376.444 1109.95H376.414C374.745 1109.27 373.675 1107.74 373.695 1106.02C373.705 1104.31 374.795 1102.79 376.474 1102.16C376.654 1102.09 376.924 1102 377.353 1101.89C377.783 1101.78 378.373 1101.64 379.212 1101.48C380.792 1101.18 382.031 1099.92 382.291 1098.33C382.661 1096.05 383.03 1094.45 383.41 1093.46C384.04 1091.77 385.699 1090.67 387.628 1090.67H387.638C389.587 1090.67 391.246 1091.79 391.876 1093.51C392.076 1094.05 392.266 1094.77 392.465 1095.69C392.645 1094.73 392.755 1093.74 392.775 1092.74C392.266 1092.14 391.976 1091.37 391.976 1090.55H391.966ZM379.502 1098.74C379.102 1099.14 378.573 1099.34 378.043 1099.34C377.513 1099.34 376.984 1099.14 376.584 1098.74L371.526 1093.68C371.137 1093.29 370.927 1092.77 370.927 1092.22V1085.11C370.927 1083.97 371.846 1083.05 372.986 1083.05C374.125 1083.05 375.045 1083.97 375.045 1085.11V1091.37L379.502 1095.83C380.312 1096.64 380.312 1097.94 379.502 1098.75V1098.74Z" fill="#E8E8E8"/>
<path d="M378.983 1104.45C379.392 1104.3 380.112 1104.13 380.912 1103.98C383.09 1103.57 384.78 1101.84 385.139 1099.65C385.369 1098.24 385.659 1096.78 385.969 1095.97C386.459 1094.64 388.688 1094.65 389.167 1095.99C389.417 1096.67 389.647 1097.78 389.857 1098.93C389.897 1099.19 389.947 1099.44 389.987 1099.7C390.047 1100.04 390.127 1100.38 390.247 1100.7C390.687 1101.87 391.516 1102.84 392.596 1103.45C393.035 1103.7 393.505 1103.88 394.015 1103.99C394.225 1104.04 394.435 1104.09 394.634 1104.13C395.204 1104.27 395.704 1104.41 396.014 1104.53C397.313 1105.03 397.303 1106.67 395.994 1107.16C395.594 1107.31 394.894 1107.46 394.115 1107.6C393.825 1107.65 393.535 1107.73 393.265 1107.82C392.136 1108.22 391.196 1108.99 390.577 1109.99C390.207 1110.58 389.957 1111.25 389.837 1111.96C389.607 1113.37 389.337 1114.8 389.037 1115.6C388.538 1116.94 386.309 1116.93 385.819 1115.58C385.529 1114.75 385.229 1113.28 384.99 1111.88C384.64 1109.81 383.08 1108.15 381.042 1107.66C380.182 1107.45 379.382 1107.24 378.953 1107.07C377.653 1106.55 377.663 1104.92 378.973 1104.43L378.983 1104.45Z" fill="#E8E8E8"/>
<path d="M405.758 1091.35C405.508 1091.44 405.078 1091.54 404.609 1091.62C403.249 1091.86 402.2 1092.94 401.98 1094.3C401.84 1095.16 401.67 1096.05 401.49 1096.53C401.18 1097.35 399.821 1097.35 399.511 1096.52C399.331 1096.01 399.151 1095.11 399.002 1094.25C398.782 1092.98 397.832 1091.96 396.573 1091.66C396.043 1091.53 395.553 1091.4 395.283 1091.3C394.484 1090.98 394.494 1089.98 395.283 1089.68C395.533 1089.58 395.983 1089.48 396.473 1089.39C397.812 1089.14 398.852 1088.08 399.071 1086.73C399.211 1085.86 399.391 1084.97 399.581 1084.47C399.881 1083.65 401.25 1083.66 401.55 1084.48C401.73 1084.99 401.91 1085.89 402.05 1086.76C402.26 1088.06 403.239 1089.1 404.529 1089.39C405.028 1089.5 405.498 1089.62 405.758 1089.73C406.558 1090.04 406.548 1091.04 405.758 1091.34V1091.35Z" fill="#E8E8E8"/>
<path d="M1120.6 745.869H822.254C818.39 745.869 815.258 749.003 815.258 752.869V978.869C815.258 982.735 818.39 985.869 822.254 985.869H1120.6C1124.46 985.869 1127.6 982.735 1127.6 978.869V752.869C1127.6 749.003 1124.46 745.869 1120.6 745.869Z" fill="#212121"/>
<g opacity="0.7">
<path d="M951.062 745.75V987" stroke="#E8E8E8" stroke-miterlimit="10"/>
<path d="M971.977 745.75V987" stroke="#E8E8E8" stroke-miterlimit="10"/>
<path d="M991.844 745.75V987" stroke="#E8E8E8" stroke-miterlimit="10"/>
<path d="M1012.75 745.75V987" stroke="#E8E8E8" stroke-miterlimit="10"/>
<path d="M1033.36 745.75V987" stroke="#E8E8E8" stroke-miterlimit="10"/>
<path d="M1054.27 745.75V987" stroke="#E8E8E8" stroke-miterlimit="10"/>
<path d="M1074.14 745.75V987" stroke="#E8E8E8" stroke-miterlimit="10"/>
<path d="M1095.05 745.75V987" stroke="#E8E8E8" stroke-miterlimit="10"/>
<path d="M1114.12 744.75V986" stroke="#E8E8E8" stroke-miterlimit="10"/>
<path d="M828.719 745.75V987" stroke="#E8E8E8" stroke-miterlimit="10"/>
<path d="M849.625 745.75V987" stroke="#E8E8E8" stroke-miterlimit="10"/>
<path d="M870.25 745.75V987" stroke="#E8E8E8" stroke-miterlimit="10"/>
<path d="M891.148 745.75V987" stroke="#E8E8E8" stroke-miterlimit="10"/>
<path d="M911.023 745.75V987" stroke="#E8E8E8" stroke-miterlimit="10"/>
<path d="M931.938 745.75V987" stroke="#E8E8E8" stroke-miterlimit="10"/>
</g>
<g opacity="0.7">
<path d="M815.375 876.701H1127.46" stroke="#E8E8E8" stroke-miterlimit="10"/>
<path d="M815.375 855.791H1127.46" stroke="#E8E8E8" stroke-miterlimit="10"/>
<path d="M815.375 835.9H1127.46" stroke="#E8E8E8" stroke-miterlimit="10"/>
<path d="M815.375 814.98H1127.46" stroke="#E8E8E8" stroke-miterlimit="10"/>
<path d="M815.375 794.361H1127.46" stroke="#E8E8E8" stroke-miterlimit="10"/>
<path d="M815.375 773.441H1127.46" stroke="#E8E8E8" stroke-miterlimit="10"/>
<path d="M815.375 753.561H1127.46" stroke="#E8E8E8" stroke-miterlimit="10"/>
<path d="M815.375 978.191H1127.46" stroke="#E8E8E8" stroke-miterlimit="10"/>
<path d="M815.375 957.561H1127.46" stroke="#E8E8E8" stroke-miterlimit="10"/>
<path d="M815.375 936.65H1127.46" stroke="#E8E8E8" stroke-miterlimit="10"/>
<path d="M815.375 916.76H1127.46" stroke="#E8E8E8" stroke-miterlimit="10"/>
<path d="M815.375 895.85H1127.46" stroke="#E8E8E8" stroke-miterlimit="10"/>
</g>
<path class="locateGps2" d="M870.783 924.39C874.266 924.39 877.09 921.564 877.09 918.08C877.09 914.595 874.266 911.77 870.783 911.77C867.3 911.77 864.477 914.595 864.477 918.08C864.477 921.564 867.3 924.39 870.783 924.39Z" fill="#A8A8A8"/>
<path class="locateGps3" d="M1076.06 963.931C1079.54 963.931 1082.36 961.105 1082.36 957.621C1082.36 954.136 1079.54 951.311 1076.06 951.311C1072.57 951.311 1069.75 954.136 1069.75 957.621C1069.75 961.105 1072.57 963.931 1076.06 963.931Z" fill="#A8A8A8"/>
<path class="locateGps" d="M1013.37 780.44C1016.85 780.44 1019.68 777.615 1019.68 774.13C1019.68 770.645 1016.85 767.82 1013.37 767.82C1009.89 767.82 1007.06 770.645 1007.06 774.13C1007.06 777.615 1009.89 780.44 1013.37 780.44Z" fill="#A8A8A8"/>
<path class="Location" d="M992.76 883.649C996.243 883.649 999.067 880.824 999.067 877.339C999.067 873.854 996.243 871.029 992.76 871.029C989.277 871.029 986.453 873.854 986.453 877.339C986.453 880.824 989.277 883.649 992.76 883.649Z" fill="#A8A8A8"/>
<path class="Location" d="M992.762 891.43C1000.54 891.43 1006.85 885.122 1006.85 877.34C1006.85 869.558 1000.54 863.25 992.762 863.25C984.985 863.25 978.68 869.558 978.68 877.34C978.68 885.122 984.985 891.43 992.762 891.43Z" stroke="#A8A8A8" stroke-width="3.71" stroke-linecap="round" stroke-linejoin="round"/>
<path class="Location" d="M992.763 911.84C1011.81 911.84 1027.25 896.394 1027.25 877.34C1027.25 858.286 1011.81 842.84 992.763 842.84C973.719 842.84 958.281 858.286 958.281 877.34C958.281 896.394 973.719 911.84 992.763 911.84Z" stroke="#A8A8A8" stroke-width="3.71" stroke-linecap="round" stroke-linejoin="round"/>
<path class="Location" d="M992.766 815.971V938.711" stroke="#A8A8A8" stroke-width="3.71" stroke-linecap="round" stroke-linejoin="round"/>
<path class="Location" d="M931.422 877.34H1054.09" stroke="#A8A8A8" stroke-width="3.71" stroke-linecap="round" stroke-linejoin="round"/>
<path class="Location" d="M1016.96 901.551L1036.13 920.731" stroke="#A8A8A8" stroke-width="3.71" stroke-linecap="round" stroke-linejoin="round"/>
<path class="Location" d="M949.383 833.939L967.863 852.429" stroke="#A8A8A8" stroke-width="3.71" stroke-linecap="round" stroke-linejoin="round"/>
<path class="Location" d="M1017.46 852.619L1036.13 833.939" stroke="#A8A8A8" stroke-width="3.71" stroke-linecap="round" stroke-linejoin="round"/>
<path class="Location" d="M949.383 920.729L968.743 901.359" stroke="#A8A8A8" stroke-width="3.71" stroke-linecap="round" stroke-linejoin="round"/>
</g>
<defs>
<clipPath id="clip0_557_145">
<rect width="1920" height="1349" fill="white"/>
</clipPath>
</defs>
</svg>
