<svg width="1921" height="1349" viewBox="0 0 1921 1349" fill="none" xmlns="http://www.w3.org/2000/svg">
<path class="moon" fill-rule="evenodd" clip-rule="evenodd" d="M320 278.24C320 352.379 259.898 412.48 185.76 412.48C111.621 412.48 51.5195 352.379 51.5195 278.24C51.5195 204.101 111.621 144 185.76 144C259.898 144 320 204.101 320 278.24ZM167.197 205.578C186.751 203.52 201.64 192.714 200.453 181.444C199.267 170.173 182.454 162.705 162.9 164.764C143.347 166.822 128.458 177.628 129.645 188.898C130.831 200.169 147.644 207.637 167.197 205.578ZM307.571 263.252C310.191 276.78 305.392 289.088 296.852 290.741C288.312 292.395 279.266 282.769 276.646 269.241C274.026 255.713 278.825 243.405 287.365 241.752C295.905 240.098 304.952 249.724 307.571 263.252ZM234.098 324.3C238.163 324.3 241.458 319.904 241.458 314.48C241.458 309.057 238.163 304.66 234.098 304.66C230.033 304.66 226.738 309.057 226.738 314.48C226.738 319.904 230.033 324.3 234.098 324.3ZM161.86 285.34C161.86 289.035 159.613 292.03 156.84 292.03C154.068 292.03 151.82 289.035 151.82 285.34C151.82 281.645 154.068 278.65 156.84 278.65C159.613 278.65 161.86 281.645 161.86 285.34ZM184.688 393.079C196.37 385.626 201.204 372.318 195.485 363.355C189.766 354.393 175.661 353.17 163.979 360.623C152.298 368.076 147.464 381.384 153.182 390.347C158.901 399.309 173.007 400.533 184.688 393.079ZM136.878 361.39C136.878 368.007 132.406 373.37 126.888 373.37C121.371 373.37 116.898 368.007 116.898 361.39C116.898 354.774 121.371 349.41 126.888 349.41C132.406 349.41 136.878 354.774 136.878 361.39ZM85.1756 277.845C85.4363 268.15 80.6797 260.158 74.5516 259.993C68.4234 259.828 63.2443 267.553 62.9836 277.248C62.723 286.943 67.4796 294.935 73.6077 295.1C79.7359 295.265 84.915 287.539 85.1756 277.845Z" fill="#E8E8E8"/>
<path class="moon" d="M74.5516 259.993C80.6797 260.158 85.4363 268.15 85.1756 277.845C84.915 287.539 79.7359 295.265 73.6077 295.1C67.4796 294.935 62.723 286.943 62.9836 277.248C63.2443 267.553 68.4234 259.828 74.5516 259.993Z" fill="#D9D9D9"/>
<path class="moon" d="M200.453 181.444C201.64 192.714 186.751 203.52 167.197 205.578C147.644 207.637 130.831 200.169 129.645 188.898C128.458 177.628 143.347 166.822 162.9 164.764C182.454 162.705 199.267 170.173 200.453 181.444Z" fill="#D9D9D9"/>
<path class="moon" d="M307.571 263.252C310.191 276.78 305.392 289.088 296.852 290.741C288.312 292.395 279.266 282.769 276.646 269.241C274.026 255.713 278.825 243.405 287.365 241.752C295.905 240.098 304.952 249.724 307.571 263.252Z" fill="#D9D9D9"/>
<path class="moon" d="M136.878 361.39C136.878 368.007 132.406 373.37 126.888 373.37C121.371 373.37 116.898 368.007 116.898 361.39C116.898 354.774 121.371 349.41 126.888 349.41C132.406 349.41 136.878 354.774 136.878 361.39Z" fill="#D9D9D9"/>
<path class="moon" d="M195.485 363.355C201.204 372.318 196.37 385.626 184.688 393.079C173.007 400.533 158.901 399.309 153.182 390.347C147.464 381.384 152.298 368.076 163.979 360.623C175.661 353.17 189.766 354.393 195.485 363.355Z" fill="#BFBFBF"/>
<path class="moon" d="M161.86 285.34C161.86 289.035 159.613 292.03 156.84 292.03C154.068 292.03 151.82 289.035 151.82 285.34C151.82 281.645 154.068 278.65 156.84 278.65C159.613 278.65 161.86 281.645 161.86 285.34Z" fill="#BFBFBF"/>
<path class="moon" d="M241.458 314.48C241.458 319.904 238.163 324.3 234.098 324.3C230.033 324.3 226.738 319.904 226.738 314.48C226.738 309.057 230.033 304.66 234.098 304.66C238.163 304.66 241.458 309.057 241.458 314.48Z" fill="#BFBFBF"/>
<path class="moon" d="M286.638 235.07L275.488 222.92M272.059 249.7L258.289 241.61M270.131 275.16L255.961 277.27M279.77 295.6L275.27 306.53M298.131 298.48L294.531 313.81M73.1211 299.83L78.9511 309.87M85.3711 291.96L93.6111 299.6M90.5586 274.75L100.629 275.43M87.0312 259.24L91.7913 252.4M74.8281 254.5L79.6381 244.49M320 278.24C320 352.379 259.898 412.48 185.76 412.48C111.621 412.48 51.5195 352.379 51.5195 278.24C51.5195 204.101 111.621 144 185.76 144C259.898 144 320 204.101 320 278.24ZM195.485 363.355C201.204 372.318 196.37 385.626 184.688 393.079C173.007 400.533 158.901 399.309 153.182 390.347C147.464 381.384 152.298 368.076 163.979 360.623C175.661 353.17 189.766 354.393 195.485 363.355ZM200.453 181.444C201.64 192.714 186.751 203.52 167.197 205.578C147.644 207.637 130.831 200.169 129.645 188.898C128.458 177.628 143.347 166.822 162.9 164.764C182.454 162.705 199.267 170.173 200.453 181.444ZM136.878 361.39C136.878 368.007 132.406 373.37 126.888 373.37C121.371 373.37 116.898 368.007 116.898 361.39C116.898 354.774 121.371 349.41 126.888 349.41C132.406 349.41 136.878 354.774 136.878 361.39ZM161.86 285.34C161.86 289.035 159.613 292.03 156.84 292.03C154.068 292.03 151.82 289.035 151.82 285.34C151.82 281.645 154.068 278.65 156.84 278.65C159.613 278.65 161.86 281.645 161.86 285.34ZM241.458 314.48C241.458 319.904 238.163 324.3 234.098 324.3C230.033 324.3 226.738 319.904 226.738 314.48C226.738 309.057 230.033 304.66 234.098 304.66C238.163 304.66 241.458 309.057 241.458 314.48ZM307.571 263.252C310.191 276.78 305.392 289.088 296.852 290.741C288.312 292.395 279.266 282.769 276.646 269.241C274.026 255.713 278.825 243.405 287.365 241.752C295.905 240.098 304.952 249.724 307.571 263.252ZM74.5516 259.993C80.6797 260.158 85.4363 268.15 85.1756 277.845C84.915 287.539 79.7359 295.265 73.6077 295.1C67.4796 294.935 62.723 286.943 62.9836 277.248C63.2443 267.553 68.4234 259.828 74.5516 259.993Z" stroke="#BFBFBF" stroke-width="0.91" stroke-linecap="round"/>
<path d="M1918.66 484.27C1853.25 495.25 1784.69 489.81 1718.84 478.39C1630.21 463.04 1543.32 437.37 1453.86 427.96C1277.4 409.4 1101.95 454.75 931.199 506.16C945.289 470.23 963.099 436.17 984.149 404.45C1036.92 408.06 1089.85 407.36 1139.62 390.72C1200.53 370.36 1251.05 328 1304.12 291.85C1380.25 239.99 1464.28 199.87 1552.32 172.82C1609.98 185.15 1664.24 206.63 1713.52 235.65C1669.08 242.41 1624.84 250.48 1580.86 259.83C1556.22 265.06 1526.6 275.99 1523.62 301.01C1521.79 316.25 1531.85 330.98 1544.87 339.13C1557.89 347.29 1573.43 350.17 1588.59 352.64C1682.29 367.91 1777.12 373.74 1872.08 376.91C1889.43 399.83 1905 424.17 1918.59 449.73L1918.66 484.27Z" fill="#4B0AA5"/>
<path d="M1872.08 376.91C1777.12 373.74 1682.29 367.92 1588.59 352.65C1573.43 350.18 1557.88 347.3 1544.86 339.14C1531.85 330.99 1521.79 316.26 1523.61 301.01C1526.6 276 1556.21 265.06 1580.85 259.83C1624.82 250.48 1669.07 242.42 1713.51 235.66C1775.18 271.96 1829.07 320.08 1872.06 376.91H1872.08Z" fill="#3A008B"/>
<path d="M1919.03 659.18C1886.33 666.68 1852.18 669.18 1818.82 667.41C1738.01 663.13 1660.23 636.54 1584.07 609.16C1507.92 581.79 1431.18 553.15 1350.72 544.48C1259.81 534.67 1167.62 550.94 1080.78 579.55C1017.23 600.5 956.138 627.95 895.828 657.1C900.418 604.26 912.578 553.59 931.198 506.16C1101.95 454.75 1277.4 409.4 1453.86 427.96C1543.32 437.37 1630.21 463.04 1718.84 478.39C1784.69 489.81 1853.25 495.25 1918.66 484.27L1919.03 659.18Z" fill="#621FBE"/>
<path d="M1919.2 738.59C1913.8 738.91 1908.41 739.06 1903.06 739.05C1900.88 739.04 1898.7 739.02 1896.53 738.96C1880.94 738.62 1865.43 737.23 1849.94 735.39C1814.4 731.14 1779 724.5 1743.24 722.6C1728.41 721.81 1713.24 722.01 1698.24 723.51C1659.1 727.44 1621.2 740.28 1594.04 767.9C1584.4 777.7 1576.66 788.75 1570.02 800.56C1549.48 837.16 1539.66 881.07 1517.64 917.53C1485.24 971.16 1428.46 1005.27 1370.86 1029.94C1353.88 1037.21 1336.61 1043.86 1319.31 1050.43C1277.91 1066.16 1236.34 1081.44 1198.12 1103.62C1174.17 1117.52 1151.35 1134.86 1132.37 1155.2C1104.15 1136.01 1077.82 1114.25 1053.74 1090.23C1048.87 1085.39 1044.1 1080.45 1039.42 1075.42C1031.34 1066.74 1023.55 1057.79 1016.05 1048.6C1020.81 1043.93 1025.81 1039.5 1031.02 1035.3C1049.1 1020.67 1069.68 1008.72 1091.18 999C1100.45 994.81 1109.9 991.04 1119.39 987.65C1126.84 984.99 1134.36 982.52 1141.92 980.2C1187.82 966.1 1235.37 957.35 1281.15 942.69C1286.53 940.97 1291.91 939.14 1297.26 937.21C1344.92 920.02 1390.56 894.27 1420.19 853.58C1440.87 825.18 1451.59 788.19 1448.13 753.7C1446.08 733.25 1439.05 713.68 1426.16 697.3C1419.01 688.22 1410.6 680.63 1401.27 674.35C1372.1 654.72 1333.96 647.92 1297.26 648.28C1292.09 648.32 1286.96 648.52 1281.88 648.84C1269.03 649.65 1256.3 651.06 1243.69 652.99C1204.84 658.94 1167.02 669.79 1129.66 682.92C1087.71 697.66 1046.32 715.26 1004.66 732C993.232 736.59 981.792 741.12 970.302 745.5H895.262C894.922 741.02 894.652 736.51 894.432 732C893.982 723.02 893.762 713.98 893.762 704.88C893.762 695.78 893.972 687.21 894.402 678.46C894.732 671.3 895.212 664.18 895.832 657.1C904.742 652.79 913.682 648.52 922.632 644.3C957.832 627.72 993.372 611.95 1029.59 597.93C1046.49 591.39 1063.55 585.23 1080.78 579.55C1085.89 577.87 1091.03 576.22 1096.18 574.63C1178.47 549.11 1265.16 535.25 1350.72 544.48C1431.18 553.15 1507.92 581.79 1584.07 609.16C1660.23 636.54 1738.01 663.13 1818.82 667.41C1852.18 669.18 1886.33 666.68 1919.03 659.18L1919.2 738.59Z" fill="#3A008B"/>
<path d="M1420.19 853.58C1390.56 894.27 1344.92 920.02 1297.26 937.21C1291.91 939.14 1286.53 940.97 1281.15 942.69C1235.37 957.35 1187.82 966.1 1141.92 980.2C1134.36 982.52 1126.84 984.99 1119.39 987.65C1109.9 991.04 1100.45 994.81 1091.18 999C1069.68 1008.72 1049.1 1020.67 1031.02 1035.3C1025.81 1039.5 1020.81 1043.93 1016.05 1048.6C1012.33 1044.04 1008.69 1039.42 1005.12 1034.75C996.291 1023.19 987.921 1011.26 980.031 999C977.161 994.54 974.351 990.04 971.621 985.5H1121.67C1125.53 985.5 1128.67 982.37 1128.67 978.5V891.29C1133.11 889.9 1137.52 888.49 1141.92 887.05C1192.53 870.45 1240.38 849.48 1279.05 813.46C1291.04 802.28 1302.49 784.56 1293.68 770.73C1286.33 759.19 1269.88 758.81 1256.26 760.1C1217.72 763.75 1179.47 770.36 1141.92 779.77C1137.49 780.88 1133.07 782.03 1128.67 783.21V752.5C1128.67 748.63 1125.53 745.5 1121.67 745.5H970.301C981.791 741.12 993.231 736.59 1004.66 732C1046.32 715.26 1087.71 697.66 1129.66 682.92C1167.02 669.79 1204.84 658.94 1243.69 652.99C1256.3 651.06 1269.03 649.65 1281.88 648.84C1286.96 648.52 1292.09 648.32 1297.26 648.28C1333.96 647.92 1372.1 654.72 1401.27 674.35C1410.6 680.63 1419.01 688.22 1426.16 697.3C1439.05 713.68 1446.08 733.25 1448.13 753.7C1451.59 788.19 1440.87 825.18 1420.19 853.58Z" fill="#4B0AA5"/>
<path d="M1279.05 813.46C1240.38 849.48 1192.53 870.45 1141.92 887.05C1137.52 888.49 1133.11 889.9 1128.67 891.29V783.21C1133.07 782.03 1137.49 780.88 1141.92 779.77C1179.47 770.36 1217.72 763.75 1256.26 760.1C1269.88 758.81 1286.33 759.19 1293.68 770.73C1302.49 784.56 1291.04 802.28 1279.05 813.46Z" fill="#3A008B"/>
<path d="M1919.44 855.87C1877.64 859.23 1836.81 867.43 1800.23 887.33C1722.49 929.62 1680.65 1014.88 1625.75 1084.27C1569.97 1154.77 1496.91 1211.37 1415.08 1248.53H1415.07C1310.52 1244.22 1213.58 1210.4 1132.37 1155.2C1151.35 1134.86 1174.17 1117.52 1198.12 1103.62C1252.32 1072.17 1313.25 1054.6 1370.86 1029.94C1428.46 1005.27 1485.24 971.16 1517.64 917.53C1546.77 869.31 1554.54 808.05 1594.04 767.9C1631.61 729.69 1689.72 719.76 1743.24 722.6C1796.76 725.44 1849.47 738.91 1903.06 739.05C1908.41 739.06 1913.8 738.91 1919.2 738.59L1919.44 855.87Z" fill="#621FBE"/>
<path d="M1919.66 957.99C1828.58 1131.02 1647 1249 1437.88 1249C1430.24 1249 1422.64 1248.84 1415.08 1248.53C1496.91 1211.37 1569.97 1154.77 1625.75 1084.27C1680.65 1014.88 1722.49 929.62 1800.23 887.33C1836.81 867.43 1877.64 859.23 1919.44 855.87L1919.66 957.99Z" fill="#4B0AA5"/>
<path d="M1552.32 172.82C1464.28 199.87 1380.25 239.99 1304.13 291.85C1251.05 328.01 1200.53 370.36 1139.62 390.73C1089.85 407.37 1036.92 408.07 984.148 404.46C1081.59 257.6 1248.43 160.77 1437.88 160.77C1477.13 160.77 1515.42 164.93 1552.32 172.83V172.82Z" fill="#3A008B"/>
</svg>
