<svg width="1920" height="1349" viewBox="0 0 1920 1349" fill="none" xmlns="http://www.w3.org/2000/svg">
<g clip-path="url(#clip0_570_584)">
<path d="M1796.06 1197C1796.06 1197 1764.08 1230 1756.39 1292C1752.47 1323.64 1756.39 1349 1756.39 1349H1920V1082.45L1816.94 1122L1796.05 1197H1796.06Z" fill="#C4C4C4"/>
<path d="M1919.66 871.81V1080.73C1916.88 1082.37 1914.13 1084.04 1911.39 1085.75C1865.84 1114.16 1825.04 1152.11 1796.6 1195.07C1796.09 1195.82 1795.6 1196.57 1795.11 1197.32C1772.27 1154.01 1758.92 1109.65 1745.89 1062.45C1743.78 1040.27 1748.29 1016.72 1756.98 995.87C1758.2 992.91 1759.52 990.01 1760.91 987.17C1769.23 970.23 1780.09 954.72 1792.16 940.16C1796.34 935.09 1800.68 930.14 1805.1 925.29C1821.4 907.4 1839.32 890.41 1860.93 879.53C1871.49 874.21 1883.65 871.18 1895.97 870.43C1902.28 870.03 1908.63 870.24 1914.85 871.05C1916.47 871.26 1918.07 871.51 1919.66 871.81Z" fill="#CECECE"/>
<path d="M1895.97 870.43C1883.65 871.18 1871.49 874.21 1860.93 879.53C1839.32 890.41 1821.4 907.4 1805.1 925.29C1800.68 930.14 1796.34 935.09 1792.15 940.16C1773.73 934.54 1756 916.38 1749.43 899.15C1741.81 879.22 1741.92 857.31 1741.97 835.97C1742.03 814.64 1741.81 792.67 1733.62 772.97C1732.49 770.25 1731.12 767.49 1729.54 764.72C1717.69 743.87 1694.72 721.95 1681.92 703.84C1668.85 685.35 1659.79 664.02 1655.57 641.77C1653.06 628.58 1653.76 612.02 1665.49 605.52C1673.93 600.85 1684.85 603.81 1692.47 609.73C1700.07 615.64 1705.3 624.02 1711.12 631.71C1716.79 639.2 1723.72 646.71 1731.38 654.06C1751.32 673.21 1776.19 691.21 1796.64 704.69C1824.95 723.34 1853.86 742.32 1874.87 768.92C1894.15 793.32 1902.68 838.25 1895.97 870.43Z" fill="#E8E8E8"/>
<path d="M1914.85 871.05C1908.64 870.24 1902.28 870.03 1895.97 870.43C1902.68 838.25 1894.15 793.32 1874.87 768.92C1853.87 742.32 1824.95 723.34 1796.64 704.69C1776.2 691.21 1751.32 673.21 1731.38 654.06C1731.52 633.09 1731.38 609.11 1731.38 589.14C1759.44 601.44 1786.59 619.78 1809.69 639.93C1835.34 662.33 1858.06 688.49 1874.08 718.56C1889.12 746.77 1904.73 828.82 1914.85 871.05Z" fill="#D8D8D8"/>
<path d="M1792.16 940.16C1780.09 954.72 1769.23 970.23 1760.91 987.17C1759.52 990.01 1758.2 992.91 1756.99 995.87C1746.77 987.5 1733.21 972.43 1729.87 961.82C1718.88 926.82 1729.54 907.85 1729.87 894.82C1730.81 857.33 1715.06 809.3 1729.54 764.72C1731.12 767.49 1732.5 770.25 1733.63 772.97C1741.81 792.67 1742.03 814.64 1741.97 835.97C1741.92 857.31 1741.81 879.22 1749.43 899.15C1756.01 916.38 1773.74 934.54 1792.16 940.16Z" fill="#D8D8D8"/>
</g>
<defs>
<clipPath id="clip0_570_584">
<rect width="1920" height="1349" fill="white"/>
</clipPath>
</defs>
</svg>
