<?xml version="1.0" encoding="UTF-8"?><svg id="Camada_1" xmlns="http://www.w3.org/2000/svg" viewBox="0 0 1000 1000"><defs><style>.cls-1{fill:#d9d9d9;}.cls-1,.cls-2,.cls-3,.cls-4{stroke:#e8e8e8;stroke-miterlimit:10;stroke-width:.66px;}.cls-2{fill:#efefef;}.cls-3{fill:none;}.cls-4{fill:#bfbfbf;}</style></defs><ellipse class="cls-2" cx="500" cy="500" rx="487.02" ry="488.52"/><ellipse class="cls-4" cx="891.46" cy="614.32" rx="53.34" ry="35.09" transform="translate(-172.52 814.42) rotate(-45.22)"/><ellipse class="cls-4" cx="251.02" cy="660.5" rx="69.16" ry="137.52" transform="translate(-392.78 369.29) rotate(-44.85)"/><ellipse class="cls-1" cx="778.72" cy="740.66" rx="55" ry="66.21"/><ellipse class="cls-1" cx="429.13" cy="887.59" rx="48.97" ry="32.88"/><ellipse class="cls-4" cx="555.23" cy="145.62" rx="48.84" ry="101.04" transform="translate(272.89 645.39) rotate(-75.23)"/><line class="cls-3" x1="436.99" y1="142.7" x2="403.97" y2="171.75"/><line class="cls-3" x1="517.29" y1="201.44" x2="504.47" y2="242.01"/><line class="cls-3" x1="623.11" y1="225.23" x2="652.14" y2="274.08"/><line class="cls-3" x1="691.87" y1="206.88" x2="742.63" y2="229.39"/><line class="cls-3" x1="676.97" y1="147.41" x2="744.23" y2="169.88"/><ellipse class="cls-1" cx="307.65" cy="132.41" rx="18.2" ry="24.36"/><ellipse class="cls-1" cx="436.95" cy="768.62" rx="26.69" ry="35.72"/></svg>