<?xml version="1.0" encoding="UTF-8"?><svg id="Camada_1" xmlns="http://www.w3.org/2000/svg" viewBox="0 0 1000 1000"><defs><style>.cls-1{fill:#d9d9d9;}.cls-1,.cls-2,.cls-3,.cls-4{stroke:#e8e8e8;stroke-miterlimit:10;stroke-width:.66px;}.cls-2{fill:#efefef;}.cls-3{fill:none;}.cls-4{fill:#bfbfbf;}</style></defs><ellipse class="cls-2" cx="500" cy="500" rx="487.02" ry="488.52"/><ellipse class="cls-4" cx="221.67" cy="248.67" rx="91.09" ry="69.98" transform="translate(-99.44 159.98) rotate(-32.85)"/><ellipse class="cls-4" cx="568.65" cy="825.15" rx="129.18" ry="74.68" transform="translate(-83.75 64.49) rotate(-6.05)"/><ellipse class="cls-1" cx="303.13" cy="407.28" rx="36.23" ry="43.61"/><ellipse class="cls-1" cx="643.76" cy="691.62" rx="18.2" ry="24.36"/><ellipse class="cls-1" cx="907.09" cy="487.12" rx="26.69" ry="35.72"/><ellipse class="cls-1" cx="134.12" cy="556.63" rx="57.16" ry="90.79" transform="translate(-102.7 35.34) rotate(-10.88)"/><line class="cls-3" x1="153.96" y1="670.08" x2="194.42" y2="714.29"/><line class="cls-3" x1="206.85" y1="616.82" x2="256.82" y2="646.27"/><line class="cls-3" x1="213.86" y1="524.17" x2="265.28" y2="516.49"/><line class="cls-3" x1="178.89" y1="449.79" x2="195.22" y2="410"/><line class="cls-3" x1="112.27" y1="439.31" x2="125.32" y2="383.51"/><ellipse class="cls-1" cx="830.16" cy="690.57" rx="63.86" ry="40.3" transform="translate(-206.36 993.35) rotate(-56.04)"/><line class="cls-3" x1="876.64" y1="624.23" x2="878.44" y2="582.05"/><line class="cls-3" x1="823.82" y1="624.34" x2="813.55" y2="584.75"/><line class="cls-3" x1="774.29" y1="666.93" x2="744.85" y2="645.09"/><line class="cls-3" x1="754.77" y1="721.39" x2="726.85" y2="733.03"/><line class="cls-3" x1="782.76" y1="759.84" x2="748.53" y2="781.09"/></svg>