<svg width="1050" height="1100" viewBox="0 0 1050 1100" fill="none" xmlns="http://www.w3.org/2000/svg">
<path d="M944.021 557.53C943.451 574.69 916.271 782.31 896.841 785.08C883.531 786.98 103.911 801.44 112.731 798.12C121.571 794.82 127.081 783.649 124.881 778.249C119.541 765.009 117.18 351.47 130.93 339.69C133.87 337.16 137.411 333.469 141.281 328.979C140.971 328.609 140.79 328.12 140.79 327.61C140.79 326.39 141.791 325.39 143.001 325.39C143.391 325.39 143.76 325.49 144.08 325.68C160.26 306.12 180.95 274.99 188.94 256.92C193.53 246.51 404.32 58.0997 426.41 66.9397C440.48 72.5597 465.081 52.6797 488.271 53.6897C513.681 54.7897 554.981 54.7897 580.391 53.6897C603.601 52.6797 628.201 72.5597 642.251 66.9397C664.341 58.0997 955.121 220.37 944.021 557.53Z" fill="#3A008C"/>
<path d="M209.817 347.68C209.817 347.98 209.617 348.2 209.307 348.3L208.557 348.53C207.267 348.91 206.137 349.51 205.187 350.32C203.987 351.34 203.157 352.63 202.817 354.05L202.177 356.9C202.097 357.21 201.818 357.41 201.468 357.42H201.458C201.118 357.42 200.818 357.22 200.738 356.93L199.927 354.08C199.527 352.69 198.707 351.41 197.567 350.39C196.647 349.57 195.558 348.95 194.398 348.59L193.618 348.35C193.308 348.25 193.108 348.01 193.118 347.71C193.118 347.63 193.147 347.54 193.187 347.48C193.277 347.3 193.457 347.16 193.687 347.1C193.817 347.07 193.938 347.03 194.078 347C196.988 346.2 199.238 344.01 199.978 341.27L200.797 338.5C200.877 338.2 201.177 337.99 201.537 337.99C201.887 338 202.168 338.2 202.238 338.51L202.868 341.27C203.088 342.31 203.548 343.24 204.198 344.05C205.278 345.42 206.888 346.45 208.848 346.93C208.988 346.99 209.137 347.02 209.287 347.05C209.607 347.12 209.838 347.36 209.838 347.67L209.817 347.68Z" fill="#E8E8E8"/>
<path d="M814.017 682.079C814.017 682.359 813.817 682.569 813.507 682.649L812.757 682.859C811.457 683.199 810.327 683.749 809.377 684.489C808.187 685.419 807.347 686.599 807.007 687.899L806.367 690.509C806.287 690.789 806.007 690.969 805.657 690.979H805.647C805.297 690.979 805.007 690.799 804.917 690.529L804.117 687.919C803.717 686.649 802.897 685.479 801.757 684.549C800.837 683.809 799.737 683.239 798.577 682.899L797.797 682.679C797.487 682.589 797.287 682.359 797.297 682.089C797.297 682.009 797.327 681.939 797.367 681.879C797.457 681.709 797.637 681.579 797.867 681.539C797.997 681.509 798.117 681.469 798.257 681.449C801.167 680.709 803.427 678.709 804.167 676.199L804.987 673.659C805.067 673.379 805.367 673.199 805.727 673.199C806.077 673.209 806.357 673.389 806.427 673.669L807.057 676.199C807.287 677.149 807.737 677.999 808.387 678.749C809.467 679.989 811.097 680.939 813.037 681.379C813.187 681.419 813.337 681.459 813.487 681.489C813.807 681.549 814.037 681.769 814.037 682.049L814.017 682.079Z" fill="#E8E8E8"/>
<path d="M307.041 672.14C307.041 672.42 306.841 672.629 306.531 672.709L305.781 672.919C304.481 673.259 303.351 673.81 302.401 674.55C301.211 675.48 300.371 676.659 300.031 677.959L299.391 680.57C299.311 680.85 299.031 681.03 298.681 681.04H298.671C298.321 681.04 298.031 680.859 297.941 680.589L297.141 677.979C296.741 676.709 295.921 675.539 294.781 674.609C293.861 673.869 292.761 673.299 291.601 672.959L290.821 672.74C290.511 672.65 290.311 672.419 290.321 672.149C290.321 672.069 290.351 671.999 290.391 671.939C290.481 671.769 290.661 671.64 290.891 671.6C291.021 671.57 291.141 671.53 291.281 671.51C294.191 670.77 296.451 668.77 297.191 666.26L298.011 663.72C298.091 663.44 298.391 663.26 298.751 663.26C299.101 663.27 299.381 663.449 299.451 663.729L300.081 666.26C300.311 667.21 300.761 668.06 301.411 668.81C302.491 670.05 304.121 670.999 306.061 671.439C306.211 671.479 306.361 671.52 306.511 671.55C306.831 671.61 307.061 671.829 307.061 672.109L307.041 672.14Z" fill="#E8E8E8"/>
<path d="M240.217 486.66C242.658 486.66 244.637 484.682 244.637 482.24C244.637 479.799 242.658 477.82 240.217 477.82C237.776 477.82 235.797 479.799 235.797 482.24C235.797 484.682 237.776 486.66 240.217 486.66Z" fill="#E8E8E8"/>
<path d="M447.873 758.369C450.314 758.369 452.293 756.39 452.293 753.949C452.293 751.508 450.314 749.529 447.873 749.529C445.432 749.529 443.453 751.508 443.453 753.949C443.453 756.39 445.432 758.369 447.873 758.369Z" fill="#E8E8E8"/>
<path d="M644.468 736.28C645.688 736.28 646.678 735.29 646.678 734.07C646.678 732.849 645.688 731.859 644.468 731.859C643.247 731.859 642.258 732.849 642.258 734.07C642.258 735.29 643.247 736.28 644.468 736.28Z" fill="#E8E8E8"/>
<path d="M821.202 569.49C822.423 569.49 823.412 568.501 823.412 567.28C823.412 566.06 822.423 565.07 821.202 565.07C819.982 565.07 818.992 566.06 818.992 567.28C818.992 568.501 819.982 569.49 821.202 569.49Z" fill="#E8E8E8"/>
<path d="M716.272 467.879C717.493 467.879 718.482 466.89 718.482 465.669C718.482 464.449 717.493 463.459 716.272 463.459C715.052 463.459 714.062 464.449 714.062 465.669C714.062 466.89 715.052 467.879 716.272 467.879Z" fill="#E8E8E8"/>
<path d="M759.351 420.379C760.571 420.379 761.561 419.39 761.561 418.169C761.561 416.949 760.571 415.959 759.351 415.959C758.13 415.959 757.141 416.949 757.141 418.169C757.141 419.39 758.13 420.379 759.351 420.379Z" fill="#E8E8E8"/>
<path d="M812.358 353.01C813.579 353.01 814.569 352.02 814.569 350.8C814.569 349.579 813.579 348.59 812.358 348.59C811.138 348.59 810.148 349.579 810.148 350.8C810.148 352.02 811.138 353.01 812.358 353.01Z" fill="#E8E8E8"/>
<path d="M674.304 288.94C675.524 288.94 676.514 287.95 676.514 286.729C676.514 285.509 675.524 284.52 674.304 284.52C673.083 284.52 672.094 285.509 672.094 286.729C672.094 287.95 673.083 288.94 674.304 288.94Z" fill="#E8E8E8"/>
<path d="M427.991 277.899C429.212 277.899 430.201 276.909 430.201 275.689C430.201 274.468 429.212 273.479 427.991 273.479C426.771 273.479 425.781 274.468 425.781 275.689C425.781 276.909 426.771 277.899 427.991 277.899Z" fill="#E8E8E8"/>
<path d="M345.148 409.34C346.368 409.34 347.358 408.35 347.358 407.13C347.358 405.909 346.368 404.92 345.148 404.92C343.927 404.92 342.938 405.909 342.938 407.13C342.938 408.35 343.927 409.34 345.148 409.34Z" fill="#E8E8E8"/>
<path d="M293.241 341.959C294.462 341.959 295.451 340.97 295.451 339.749C295.451 338.528 294.462 337.539 293.241 337.539C292.021 337.539 291.031 338.528 291.031 339.749C291.031 340.97 292.021 341.959 293.241 341.959Z" fill="#E8E8E8"/>
<path d="M328.577 559.549C329.798 559.549 330.787 558.559 330.787 557.339C330.787 556.118 329.798 555.129 328.577 555.129C327.357 555.129 326.367 556.118 326.367 557.339C326.367 558.559 327.357 559.549 328.577 559.549Z" fill="#E8E8E8"/>
<path d="M173.952 519.789C175.173 519.789 176.162 518.8 176.162 517.579C176.162 516.359 175.173 515.369 173.952 515.369C172.732 515.369 171.742 516.359 171.742 517.579C171.742 518.8 172.732 519.789 173.952 519.789Z" fill="#E8E8E8"/>
<path d="M184.991 603.73C186.212 603.73 187.201 602.741 187.201 601.521C187.201 600.3 186.212 599.311 184.991 599.311C183.771 599.311 182.781 600.3 182.781 601.521C182.781 602.741 183.771 603.73 184.991 603.73Z" fill="#E8E8E8"/>
<path d="M250.163 721.92C251.384 721.92 252.373 720.931 252.373 719.71C252.373 718.489 251.384 717.5 250.163 717.5C248.943 717.5 247.953 718.489 247.953 719.71C247.953 720.931 248.943 721.92 250.163 721.92Z" fill="#E8E8E8"/>
<path d="M727.311 608.15C729.752 608.15 731.731 606.172 731.731 603.73C731.731 601.289 729.752 599.311 727.311 599.311C724.87 599.311 722.891 601.289 722.891 603.73C722.891 606.172 724.87 608.15 727.311 608.15Z" fill="#E8E8E8"/>
<path d="M338.521 269.059C342.182 269.059 345.151 266.091 345.151 262.429C345.151 258.767 342.182 255.799 338.521 255.799C334.859 255.799 331.891 258.767 331.891 262.429C331.891 266.091 334.859 269.059 338.521 269.059Z" fill="#E8E8E8"/>
<path d="M863.169 497.7C866.831 497.7 869.799 494.731 869.799 491.07C869.799 487.408 866.831 484.439 863.169 484.439C859.507 484.439 856.539 487.408 856.539 491.07C856.539 494.731 859.507 497.7 863.169 497.7Z" fill="#E8E8E8"/>
<path d="M508.622 210.52C512.284 210.52 515.252 207.552 515.252 203.89C515.252 200.228 512.284 197.26 508.622 197.26C504.961 197.26 501.992 200.228 501.992 203.89C501.992 207.552 504.961 210.52 508.622 210.52Z" fill="#E8E8E8"/>
<path d="M767.083 282.321C770.745 282.321 773.713 279.352 773.713 275.691C773.713 272.029 770.745 269.061 767.083 269.061C763.422 269.061 760.453 272.029 760.453 275.691C760.453 279.352 763.422 282.321 767.083 282.321Z" fill="#E8E8E8"/>
<path d="M376.933 689.398C376.933 690.318 376.183 691.059 375.273 691.059H371.853V697.749C371.853 698.669 371.113 699.409 370.193 699.409C369.273 699.409 368.533 698.669 368.533 697.749V691.059H365.113C364.203 691.059 363.453 690.318 363.453 689.398C363.453 688.478 364.203 687.739 365.113 687.739H368.533V681.049C368.533 680.129 369.273 679.389 370.193 679.389C371.113 679.389 371.853 680.129 371.853 681.049V687.739H375.273C376.183 687.739 376.933 688.478 376.933 689.398Z" fill="#E8E8E8"/>
<path d="M262.05 575.629C262.05 576.549 261.3 577.289 260.39 577.289H256.97V583.979C256.97 584.899 256.23 585.639 255.31 585.639C254.39 585.639 253.65 584.899 253.65 583.979V577.289H250.23C249.32 577.289 248.57 576.549 248.57 575.629C248.57 574.709 249.32 573.969 250.23 573.969H253.65V567.279C253.65 566.359 254.39 565.619 255.31 565.619C256.23 565.619 256.97 566.359 256.97 567.279V573.969H260.39C261.3 573.969 262.05 574.709 262.05 575.629Z" fill="#E8E8E8"/>
<path d="M168.167 417.69C168.167 418.61 167.418 419.35 166.508 419.35H163.088V426.04C163.088 426.96 162.347 427.7 161.427 427.7C160.507 427.7 159.768 426.96 159.768 426.04V419.35H156.348C155.438 419.35 154.688 418.61 154.688 417.69C154.688 416.77 155.438 416.03 156.348 416.03H159.768V409.34C159.768 408.42 160.507 407.68 161.427 407.68C162.347 407.68 163.088 408.42 163.088 409.34V416.03H166.508C167.418 416.03 168.167 416.77 168.167 417.69Z" fill="#E8E8E8"/>
<path d="M659.683 210.039C659.683 210.959 658.933 211.699 658.023 211.699H654.603V218.389C654.603 219.309 653.863 220.049 652.943 220.049C652.023 220.049 651.283 219.309 651.283 218.389V211.699H647.863C646.953 211.699 646.203 210.959 646.203 210.039C646.203 209.119 646.953 208.379 647.863 208.379H651.283V201.689C651.283 200.769 652.023 200.029 652.943 200.029C653.863 200.029 654.603 200.769 654.603 201.689V208.379H658.023C658.933 208.379 659.683 209.119 659.683 210.039Z" fill="#E8E8E8"/>
<path d="M740.308 701.549C740.308 702.469 739.558 703.209 738.648 703.209H735.228V709.899C735.228 710.819 734.488 711.559 733.568 711.559C732.648 711.559 731.908 710.819 731.908 709.899V703.209H728.488C727.578 703.209 726.828 702.469 726.828 701.549C726.828 700.629 727.578 699.889 728.488 699.889H731.908V693.199C731.908 692.279 732.648 691.539 733.568 691.539C734.488 691.539 735.228 692.279 735.228 693.199V699.889H738.648C739.558 699.889 740.308 700.629 740.308 701.549Z" fill="#E8E8E8"/>
<path d="M653.857 857.549C591.407 946.949 459.057 946.949 396.617 857.549C414.057 836.719 423.117 778.959 427.147 752.099C431.307 724.349 432.697 696.599 429.927 671.619C446.207 684.399 468.777 703.529 492.367 713.249C507.377 719.439 543.117 719.439 558.137 713.249C581.727 703.539 604.317 684.399 620.577 671.619C617.797 696.599 619.187 724.349 623.357 752.099C627.397 778.959 636.437 836.719 653.887 857.549H653.857Z" fill="#9300B2"/>
<path d="M689.029 567.911C685.509 590.191 683.169 605.431 674.959 617.151C661.269 636.721 624.568 671.571 605.788 686.321C592.048 697.121 572.959 713.291 553.029 721.491C540.339 726.721 510.139 726.721 497.459 721.491C477.529 713.281 458.449 697.121 444.699 686.321C425.919 671.571 389.219 636.721 375.529 617.151C367.319 605.431 364.979 590.181 361.459 567.911C355.789 531.951 340.039 505.291 341.529 479.981C343.869 440.121 350.659 366.551 362.629 334.601C398.869 237.881 452.799 167.541 525.239 166.951C596.999 166.361 649.758 235.541 687.848 334.601C700.088 366.451 706.609 440.121 708.949 479.981C710.439 505.291 694.709 531.951 689.019 567.911H689.029Z" fill="#CA2FEB"/>
<path d="M1034.42 873.189V992.52C1034.42 1048.46 806.44 1093.81 525.21 1093.81C243.98 1093.81 16 1048.47 16 992.52V873.189C16 929.129 243.98 974.479 525.21 974.479C806.44 974.479 1034.42 929.139 1034.42 873.189Z" fill="#BFBFBF"/>
<path d="M1034.42 873.19C1034.42 929.13 806.44 974.48 525.21 974.48C243.98 974.48 16 929.14 16 873.19C16 854.28 42.07 836.56 87.46 821.42V845.01C87.46 893.63 235.53 933.53 433.05 943.13C462.77 944.57 493.6 945.34 525.22 945.34C556.84 945.34 587.67 944.58 617.39 943.13C814.9 933.53 962.98 893.62 962.98 845.01V821.42C1008.37 836.56 1034.44 854.28 1034.44 873.19H1034.42Z" fill="#A0A0A0"/>
<path d="M955.447 391.74C917.307 172.14 739.207 6 525.237 6C283.467 6 87.4766 218.14 87.4766 479.83V845.01C87.4766 893.63 235.547 933.53 433.067 943.13C462.787 944.57 493.617 945.34 525.237 945.34C556.857 945.34 587.686 944.58 617.406 943.13C814.917 933.53 962.997 893.62 962.997 845.01V479.83C962.997 449.74 960.407 420.28 955.447 391.74ZM525.237 760.8C437.467 760.8 235.857 767.86 174.827 704.77C132.047 660.55 131.536 462.48 131.536 462.48C131.536 420.23 140.337 374.9 163.447 338.3C188.427 298.76 368.497 187.76 525.237 187.76C681.977 187.76 862.057 298.76 887.027 338.3C902.507 362.83 911.566 391.27 915.856 420.09C917.976 434.27 918.937 448.55 918.937 462.48C918.937 462.48 918.817 512.17 913.307 567.32C907.827 622.29 897.006 682.69 875.646 704.77C814.626 767.86 613.007 760.8 525.237 760.8Z" fill="#BFBFBF"/>
<path d="M1027.05 434.74V574.88C1027.05 598.63 1007.79 617.891 984.036 617.891H962.956V479.831C962.956 449.741 960.366 420.28 955.406 391.74C955.696 391.73 955.986 391.73 956.276 391.73H984.026C1007.78 391.73 1027.04 410.99 1027.04 434.74H1027.05Z" fill="#D9D9D9"/>
<path d="M94.9281 392.131C89.9981 420.561 87.4381 449.861 87.4381 479.831V617.891H61.3381C37.5881 617.891 18.3281 598.63 18.3281 574.88V434.74C18.3281 412.79 34.7682 394.681 56.0082 392.061C57.7582 391.841 59.5281 391.73 61.3381 391.73H89.0881C91.0681 391.73 93.0181 391.871 94.9281 392.131Z" fill="#D9D9D9"/>
<path d="M394.778 182.21C407.039 182.21 416.978 172.271 416.978 160.01C416.978 147.75 407.039 137.811 394.778 137.811C382.517 137.811 372.578 147.75 372.578 160.01C372.578 172.271 382.517 182.21 394.778 182.21Z" fill="#E8E8E8"/>
<path d="M288.628 226.61C298.973 226.61 307.358 218.225 307.358 207.88C307.358 197.536 298.973 189.15 288.628 189.15C278.284 189.15 269.898 197.536 269.898 207.88C269.898 218.225 278.284 226.61 288.628 226.61Z" fill="#E8E8E8"/>
<path d="M655.63 182.21C667.89 182.21 677.83 172.271 677.83 160.01C677.83 147.75 667.89 137.811 655.63 137.811C643.369 137.811 633.43 147.75 633.43 160.01C633.43 172.271 643.369 182.21 655.63 182.21Z" fill="#E8E8E8"/>
<path d="M761.769 226.61C772.113 226.61 780.499 218.225 780.499 207.88C780.499 197.536 772.113 189.15 761.769 189.15C751.425 189.15 743.039 197.536 743.039 207.88C743.039 218.225 751.425 226.61 761.769 226.61Z" fill="#E8E8E8"/>
<path d="M74.0477 131.571V391.731H61.3378C59.5378 391.731 57.7578 391.841 56.0078 392.061V131.571C56.0078 126.591 60.0478 122.551 65.0278 122.551C67.5278 122.551 69.7777 123.561 71.4077 125.191C73.0277 126.831 74.0477 129.081 74.0477 131.571Z" fill="#E8E8E8"/>
<path d="M896.14 1028.59C904.187 1028.59 910.71 1022.07 910.71 1014.02C910.71 1005.97 904.187 999.451 896.14 999.451C888.093 999.451 881.57 1005.97 881.57 1014.02C881.57 1022.07 888.093 1028.59 896.14 1028.59Z" fill="#E8E8E8"/>
<path d="M932.914 1020.26C940.96 1020.26 947.484 1013.74 947.484 1005.69C947.484 997.642 940.96 991.119 932.914 991.119C924.867 991.119 918.344 997.642 918.344 1005.69C918.344 1013.74 924.867 1020.26 932.914 1020.26Z" fill="#E8E8E8"/>
<path d="M969.679 1006.39C977.726 1006.39 984.25 999.867 984.25 991.82C984.25 983.774 977.726 977.25 969.679 977.25C961.633 977.25 955.109 983.774 955.109 991.82C955.109 999.867 961.633 1006.39 969.679 1006.39Z" fill="#E8E8E8"/>
<path d="M541.803 542.35C539.593 545.07 530.453 555.98 525.663 555.98C520.873 555.98 512.033 545.41 509.633 542.48C511.533 542.94 513.263 543.67 515.093 544.44C516.983 545.24 518.903 546.04 521.053 546.55C522.403 546.87 523.843 547.07 525.413 547.07C529.483 547.07 532.663 545.73 535.743 544.43C537.753 543.58 539.663 542.78 541.803 542.34V542.35Z" fill="#9300B2"/>
<path d="M476.119 435.588C471.879 430.768 466.029 421.809 455.739 414.849C453.039 412.999 450.019 411.309 446.639 409.859C441.369 407.589 432.159 405.728 421.209 404.978C412.999 404.418 403.809 404.469 394.569 405.429C390.769 405.819 387.079 405.959 383.609 405.939C388.729 400.489 399.699 391.058 416.109 388.328C434.949 385.198 456.019 393.498 456.019 393.498L458.589 395.909L469.499 405.328C469.499 405.328 475.889 413.099 477.129 416.189C480.479 424.449 476.119 435.588 476.119 435.588Z" fill="#9300B2"/>
<path d="M668.553 412.68C664.963 412.54 661.133 412.24 657.213 411.71C648.043 410.47 638.883 409.97 630.653 410.01C619.683 410.07 610.373 411.1 604.973 412.67C601.503 413.67 598.393 414.89 595.583 416.24C585.073 421.24 578.723 428.02 574.213 431.75C573.463 430.6 570.133 424.64 574.553 416.25C575.843 413.77 582.663 406.43 582.663 406.43L592.163 400.67L597.033 399C597.033 399 618.583 393.35 637.183 396.83C653.403 399.86 663.763 408.04 668.553 412.69V412.68Z" fill="#9300B2"/>
<path d="M566.95 533.249C563.35 537.329 557.91 539.949 551.84 539.949C550.63 539.949 549.47 539.879 548.33 539.809C546.05 539.669 543.89 539.539 541.57 539.979C539.11 540.439 536.94 541.369 534.83 542.259C531.84 543.519 529.01 544.709 525.43 544.709C521.85 544.709 519.02 543.519 516.03 542.249C513.93 541.369 511.74 540.449 509.29 539.979C506.97 539.539 504.83 539.669 502.53 539.809C501.4 539.879 500.23 539.949 499.02 539.949C492.95 539.949 487.53 537.349 483.93 533.279C484.71 531.549 487.57 529.519 497.22 530.909C497.22 532.129 499.52 533.129 502.36 533.129C502.81 533.129 503.25 533.109 503.68 533.059C506.34 532.749 509.02 532.939 511.55 533.839L512.06 534.019C520.94 538.179 526.88 539.359 538.77 534.019L539.29 533.839C541.81 532.939 544.5 532.749 547.16 533.059C547.58 533.109 548.01 533.129 548.48 533.129C551.32 533.129 553.61 532.129 553.61 530.909C561.32 529.529 565.16 531.529 566.97 533.259L566.95 533.249Z" fill="#9300B2"/>
<path d="M525.667 509.079C520.507 509.079 516.477 506.249 516.477 502.639C516.477 499.979 518.737 497.629 522.237 496.659C522.867 496.479 523.527 496.849 523.697 497.489C523.877 498.119 523.507 498.779 522.867 498.949C520.467 499.619 518.847 501.099 518.847 502.649C518.847 504.849 521.967 506.719 525.667 506.719C528.557 506.719 531.217 505.548 532.147 503.878C532.467 503.308 533.187 503.099 533.767 503.419C534.337 503.739 534.547 504.459 534.227 505.039C532.857 507.509 529.497 509.099 525.667 509.099V509.079Z" fill="#3A008C"/>
<path d="M512.035 534.008L511.525 533.828C508.995 532.928 506.315 532.738 503.655 533.048C503.225 533.098 502.785 533.118 502.335 533.118C499.495 533.118 497.195 532.118 497.195 530.898C497.195 529.678 499.495 528.668 502.335 528.668C503.305 528.668 504.495 528.878 505.325 529.088L505.345 529.098H505.365L505.375 529.108C505.585 529.178 505.805 529.248 506.005 529.338C509.795 530.808 512.025 534.018 512.025 534.018L512.035 534.008Z" fill="#3A008C"/>
<path d="M573.803 521.538C573.803 526.748 571.753 531.528 568.393 535.178C568.343 535.238 568.293 535.288 568.253 535.328C564.233 539.618 558.363 542.308 551.843 542.308C550.563 542.308 549.353 542.238 548.183 542.168C546.043 542.028 544.043 541.908 542.023 542.288C541.953 542.298 541.883 542.308 541.813 542.338C539.673 542.778 537.763 543.568 535.753 544.428C532.673 545.718 529.493 547.069 525.423 547.069C523.853 547.069 522.423 546.869 521.063 546.549C518.913 546.039 516.993 545.228 515.103 544.438C513.273 543.668 511.543 542.938 509.643 542.478C509.373 542.418 509.093 542.349 508.823 542.299C507.743 542.099 506.663 542.038 505.553 542.038C504.603 542.048 503.643 542.108 502.663 542.178C501.483 542.248 500.293 542.319 498.993 542.319C486.883 542.319 477.023 532.998 477.023 521.538C477.023 515.148 480.073 509.199 485.383 505.239C485.903 504.839 486.653 504.958 487.043 505.478C487.433 505.998 487.323 506.748 486.803 507.138C482.093 510.648 479.393 515.898 479.393 521.538C479.393 525.988 481.083 530.078 483.893 533.268C487.493 537.338 492.913 539.938 498.983 539.938C500.193 539.938 501.373 539.869 502.493 539.799C504.783 539.659 506.933 539.528 509.253 539.968C511.713 540.428 513.893 541.359 515.993 542.239C518.983 543.509 521.813 544.698 525.393 544.698C528.973 544.698 531.803 543.508 534.793 542.248C536.903 541.358 539.083 540.428 541.533 539.968C543.853 539.528 546.013 539.659 548.293 539.799C549.433 539.869 550.593 539.938 551.803 539.938C557.883 539.938 563.323 537.328 566.913 533.239C569.703 530.059 571.393 525.969 571.393 521.529C571.393 515.889 568.693 510.638 563.993 507.128C563.463 506.738 563.353 505.988 563.743 505.468C564.133 504.948 564.883 504.828 565.403 505.228C570.723 509.198 573.763 515.139 573.763 521.529L573.803 521.538Z" fill="#3A008C"/>
<path d="M553.59 530.898C553.59 532.118 551.3 533.118 548.46 533.118C548 533.118 547.56 533.098 547.14 533.048C544.48 532.738 541.79 532.928 539.27 533.828L538.75 534.008C538.75 534.008 540.99 530.798 544.78 529.328C544.98 529.248 545.2 529.178 545.41 529.098H545.43C545.43 529.098 545.45 529.088 545.47 529.088C546.3 528.878 547.49 528.658 548.46 528.658C551.3 528.658 553.59 529.658 553.59 530.888V530.898Z" fill="#3A008C"/>
<path d="M419.694 440.71C410.834 439.43 406.144 437.39 398.384 434.27C395.104 432.95 391.094 430.55 388.164 428.67C393.134 426.3 402.114 422.19 411.864 418.67C411.594 420.07 411.444 421.52 411.444 422.99C411.444 430.1 414.654 436.45 419.694 440.7V440.71Z" stroke="white" stroke-linecap="round" stroke-linejoin="round"/>
<path d="M476.618 440.69C475.928 441.88 474.718 442.69 473.348 442.84C473.348 442.84 473.328 442.84 473.278 442.84C472.258 442.87 460.098 443.23 447.508 443.08C453.198 439.19 457.108 432.8 457.568 425.4C457.658 423.88 457.608 422.38 457.408 420.93C466.498 427.15 475.678 435.19 476.128 435.58H476.138C477.378 437.01 477.578 439.06 476.628 440.68L476.618 440.69Z" fill="#E8E8E8"/>
<path d="M456.691 430.389C457.161 428.799 457.451 427.129 457.561 425.409C457.651 423.889 457.601 422.389 457.401 420.939C466.491 427.159 475.671 435.199 476.121 435.589C471.881 430.769 466.031 421.809 455.741 414.849C453.041 412.999 450.021 411.309 446.641 409.859C441.371 407.589 432.161 405.729 421.211 404.979C413.001 404.419 403.811 404.469 394.571 405.429C390.771 405.819 387.081 405.959 383.611 405.939C370.271 405.839 360.211 403.289 360.211 403.289C360.211 403.289 367.501 416.819 383.601 428.489L376.531 433.879C376.071 434.229 376.371 434.959 376.941 434.889L390.911 433.299L390.941 433.269C390.941 433.269 390.961 433.299 390.971 433.299H390.911L385.941 440.609C385.651 441.029 386.011 441.579 386.521 441.489L402.121 438.749C407.711 441.009 413.901 442.829 420.741 443.939C421.651 444.089 422.551 444.219 423.461 444.349C430.261 445.309 436.761 445.629 442.751 445.599C456.421 445.509 467.441 443.539 473.291 442.859C472.271 442.889 460.111 443.249 447.521 443.099C451.881 440.109 455.201 435.659 456.711 430.399L456.691 430.389ZM397.611 432.979C394.421 431.459 390.561 428.819 387.751 426.749C392.811 424.709 401.891 421.219 411.731 418.329C411.831 418.299 411.921 418.269 412.021 418.239C412.001 418.289 411.991 418.349 411.991 418.389C411.641 419.719 411.431 421.109 411.341 422.529C410.901 429.629 413.701 436.169 418.481 440.719C409.721 438.889 405.171 436.559 397.611 432.969V432.979ZM421.961 422.519L421.371 424.549C421.301 424.769 421.091 424.899 420.841 424.899H420.831C420.581 424.879 420.381 424.729 420.331 424.509L419.881 422.409C419.711 421.639 419.371 420.899 418.871 420.239C418.701 420.029 418.531 419.829 418.341 419.639C417.711 419.009 416.951 418.509 416.121 418.189L415.561 417.979C415.341 417.889 415.211 417.709 415.231 417.499C415.231 417.439 415.261 417.379 415.291 417.339C415.361 417.209 415.491 417.109 415.661 417.089C415.761 417.069 415.851 417.049 415.951 417.039C418.081 416.589 419.821 415.099 420.471 413.159L421.191 411.179C421.261 410.969 421.491 410.829 421.751 410.849C422.011 410.879 422.201 411.029 422.241 411.259L422.571 413.289C422.691 414.049 422.981 414.739 423.401 415.359C424.121 416.389 425.251 417.209 426.641 417.659C426.741 417.699 426.851 417.729 426.951 417.759C427.181 417.819 427.341 418.009 427.321 418.239C427.311 418.449 427.151 418.609 426.921 418.669L426.361 418.799C425.411 419.009 424.561 419.399 423.841 419.939C423.341 420.309 422.911 420.759 422.581 421.249C422.311 421.649 422.091 422.079 421.951 422.529L421.961 422.519Z" fill="#3A008C"/>
<path d="M674.79 414.509C673 414.849 671.19 415.139 669.39 415.359C670.33 416.639 671.3 417.899 672.35 419.089L675.39 424.899C675.66 425.409 675.08 425.959 674.58 425.649L662.6 418.299V418.249L662.56 418.259L662.6 418.299L664.02 427.009C664.1 427.519 663.54 427.859 663.12 427.569L652.89 420.409C650.84 418.639 648.64 417.059 646.45 415.479C643.52 415.209 640.58 414.829 637.68 414.359C626.12 412.919 613.95 413.719 602.82 417.229C591.33 421.629 580.97 427.669 571.68 436.639C576.75 424.299 587.59 414.849 599.27 408.769C607.79 404.759 617.25 403.149 626.55 403.009C632.12 402.899 637.92 403.659 643.39 404.949C648.5 405.989 653.65 406.889 658.81 407.659C669.25 409.029 679.6 410.509 690.11 408.149C687.9 409.819 685.46 411.239 682.84 412.189C680.3 413.189 677.46 413.969 674.79 414.509Z" fill="#3A008C"/>
<path d="M418.48 440.73C409.72 438.9 405.17 436.57 397.61 432.98C394.42 431.46 390.56 428.82 387.75 426.75C392.86 424.69 402.08 421.15 412.02 418.24C411.66 419.62 411.43 421.06 411.34 422.53C410.9 429.63 413.7 436.17 418.48 440.72V440.73Z" fill="#E8E8E8"/>
<path d="M427.321 418.22C427.311 418.43 427.151 418.59 426.921 418.65L426.361 418.78C425.411 418.99 424.561 419.38 423.841 419.92C422.931 420.6 422.271 421.5 421.951 422.51L421.361 424.54C421.291 424.76 421.081 424.89 420.831 424.89H420.821C420.571 424.87 420.371 424.72 420.321 424.5L419.871 422.4C419.651 421.37 419.111 420.41 418.331 419.63C417.701 419 416.941 418.5 416.111 418.18L415.551 417.97C415.331 417.88 415.201 417.7 415.221 417.49C415.221 417.43 415.251 417.37 415.281 417.33C415.351 417.2 415.481 417.1 415.651 417.08C415.751 417.06 415.841 417.04 415.941 417.03C418.071 416.58 419.811 415.09 420.461 413.15L421.181 411.17C421.251 410.96 421.481 410.82 421.741 410.84C422.001 410.87 422.191 411.02 422.231 411.25L422.561 413.28C422.681 414.04 422.971 414.73 423.391 415.35C424.111 416.38 425.241 417.2 426.631 417.65C426.731 417.69 426.841 417.72 426.941 417.75C427.171 417.81 427.331 418 427.311 418.23L427.321 418.22Z" fill="#E8E8E8"/>
<path d="M475.89 417.63C475.38 417.6 474.92 417.23 474.8 416.7C473.04 408.69 460.92 396.3 456.78 394.99C456.15 394.79 455.81 394.12 456.01 393.5C456.21 392.88 456.87 392.53 457.5 392.73C462.77 394.4 475.25 407.66 477.12 416.19C477.26 416.83 476.85 417.46 476.21 417.6C476.1 417.62 475.99 417.63 475.88 417.63H475.89Z" fill="#3A008C"/>
<path d="M430.878 456.319C426.948 456.079 422.898 455.159 419.608 453.259C419.038 452.929 418.847 452.199 419.177 451.639C419.507 451.069 420.227 450.879 420.797 451.209C427.237 454.949 437.638 454.509 442.258 452.549C442.858 452.289 443.557 452.569 443.817 453.179C444.077 453.779 443.787 454.479 443.187 454.739C440.437 455.909 435.758 456.639 430.878 456.339V456.319Z" fill="#3A008C"/>
<path d="M493.358 354.729C493.358 361.849 488.608 364.229 483.858 365.419C468.888 369.159 424.128 356.339 404.308 360.669C393.728 362.989 371.768 380.299 371.078 380.839C371.358 380.279 390.198 344.019 406.688 341.669C423.218 339.309 443.198 341.239 468.428 344.039C479.118 345.229 483.868 353.539 483.868 353.539C483.868 353.539 485.058 351.169 483.868 348.789C481.958 344.969 476.748 342.849 476.748 342.849C476.748 342.849 482.498 343.849 486.248 347.599C487.438 348.789 488.618 351.159 488.618 351.159C488.618 351.159 489.808 352.349 489.808 348.789C489.808 346.489 486.458 341.959 486.258 341.679C486.618 341.919 493.368 346.629 493.368 354.729H493.358Z" fill="#3A008C"/>
<path d="M575.909 414.58C575.799 414.56 575.699 414.52 575.599 414.46C575.019 414.15 574.809 413.43 575.119 412.85C579.289 405.18 594.949 395.9 600.479 395.76C601.139 395.74 601.679 396.26 601.699 396.92C601.719 397.58 601.199 398.12 600.539 398.14C596.209 398.25 581.119 406.78 577.199 413.99C576.939 414.47 576.399 414.69 575.899 414.58H575.909Z" fill="#3A008C"/>
<path d="M617.814 455.509C612.924 455.509 608.304 454.489 605.624 453.149C605.034 452.859 604.804 452.139 605.094 451.559C605.384 450.969 606.104 450.739 606.684 451.029C611.174 453.269 621.524 454.359 628.184 451.029C628.774 450.739 629.484 450.969 629.774 451.559C630.064 452.149 629.834 452.859 629.244 453.149C625.854 454.849 621.744 455.509 617.814 455.509Z" fill="#3A008C"/>
<path d="M684.865 379.32C684.085 378.92 659.195 366.18 648.355 365.95C628.075 365.53 586.635 386.76 571.225 385.99C566.335 385.74 561.215 384.33 559.835 377.34C558.265 369.4 563.985 363.46 564.295 363.16C564.155 363.48 561.745 368.56 562.185 370.82C562.875 374.31 563.805 372.92 563.805 372.92C563.805 372.92 564.515 370.36 565.445 368.97C568.405 364.56 573.845 362.47 573.845 362.47C573.845 362.47 569.135 365.55 568.005 369.67C567.295 372.23 568.925 374.33 568.925 374.33C568.925 374.33 571.975 365.26 582.235 362.03C606.445 354.4 625.675 348.64 642.355 347.76C658.985 346.88 684.475 378.81 684.865 379.31V379.32Z" fill="#3A008C"/>
<path d="M543.01 674.289C534.26 668.089 515.93 666.919 507.68 674.399C508.05 673.849 514.16 665.209 525.67 665.209C535.88 665.209 541.62 672.309 543.02 674.289H543.01Z" fill="#9300B2"/>
<path d="M543.36 675.99C543.12 676.31 542.77 676.49 542.39 676.49C542.15 676.49 541.91 676.42 541.7 676.26C533.73 670.57 516.56 669.5 509.25 676.18C508.76 676.62 508.02 676.58 507.58 676.1C507.14 675.63 507.18 674.87 507.66 674.43L507.68 674.41C515.93 666.93 534.26 668.11 543.01 674.3C543.03 674.31 543.06 674.34 543.08 674.35C543.6 674.73 543.73 675.47 543.35 676L543.36 675.99Z" fill="#3A008C"/>
<path d="M598.429 594.569C577.249 590.399 560.159 573.129 543.639 573.129C537.679 573.129 525.789 576.699 525.789 576.699C525.789 576.699 513.889 573.129 507.939 573.129C491.429 573.129 471.249 590.399 453.149 594.569C451.959 594.839 452.199 599.929 456.719 601.719C469.349 606.709 473.399 635.069 491.259 646.979C501.979 654.129 516.919 655.319 525.789 655.319C534.659 655.319 549.599 654.129 560.319 646.979C578.189 635.069 582.549 607.449 594.859 601.719C598.699 599.929 599.639 594.809 598.429 594.569Z" fill="#3A008C"/>
<path d="M562.959 605.449C562.959 605.449 541.009 617.088 537.109 618.268C534.329 619.108 530.949 622.398 525.819 622.418C520.229 622.398 516.859 619.198 514.029 618.268C510.659 617.148 489.109 605.449 489.109 605.449C489.109 605.449 501.419 607.499 514.029 600.829C516.659 599.439 520.269 597.868 525.819 597.938C531.769 597.858 534.389 599.489 537.109 600.829C548.599 606.469 562.959 605.449 562.959 605.449Z" fill="#E8E8E8"/>
</svg>
