<svg width="1500" height="361" viewBox="0 0 1500 361" fill="none" xmlns="http://www.w3.org/2000/svg">
<g clip-path="url(#clip0_490_147)">
<path d="M143.29 145.89C144.34 149.64 145.39 152.61 146.44 154.79C147.49 156.97 148.5 158.62 149.48 159.74C150.45 160.87 151.51 161.62 152.63 161.99C153.76 162.37 154.99 162.55 156.35 162.55V166.83H96.8996V162.33C98.9996 162.18 100.46 161.77 101.29 161.09C102.11 160.41 102.53 159.48 102.53 158.28C102.53 157.08 102.3 155.77 101.85 154.34C101.4 152.92 100.87 151.3 100.27 149.5L88.5596 109.87H46.2196L34.0596 149.5C33.4596 151.3 32.8996 152.96 32.3696 154.45C31.8396 155.95 31.5796 157.3 31.5796 158.5C31.5796 159.7 31.9896 160.6 32.8196 161.2C33.6396 161.8 35.1796 162.18 37.4396 162.33V166.83H6.59961V162.55C7.94961 162.55 9.22961 162.36 10.4296 161.99C11.6296 161.62 12.7596 160.86 13.8096 159.74C14.8596 158.61 15.9096 156.96 16.9596 154.79C18.0096 152.62 19.1396 149.65 20.3396 145.89L60.8696 16.6301C60.1196 15.4301 59.1796 14.57 58.0596 14.04C56.9296 13.52 55.5396 13.1 53.8896 12.8V8.52008C56.8896 8.52008 60.3796 8.15008 64.3596 7.39008C68.3396 6.64008 72.3496 5.67008 76.4096 4.46008C80.4596 3.26008 84.2896 1.98007 87.8896 0.630066C91.4896 -0.719934 94.3396 -2.06992 96.4496 -3.41992L100.05 -0.71991L143.29 145.88V145.89ZM85.4196 99.2801C82.5696 89.3701 79.7096 79.5801 76.8596 69.8901C74.0096 60.2101 71.0796 50.4101 68.0796 40.5001C65.0696 50.4101 62.0296 60.2001 58.9596 69.8901C55.8796 79.5701 52.7696 89.3701 49.6096 99.2801H85.4196Z" fill="white"/>
<path d="M307.9 58.2896C307.9 67.2996 307.86 74.5796 307.79 80.1296C307.71 85.6896 307.68 91.2796 307.68 96.9096V149.04C307.68 151.14 308.2 152.64 309.26 153.54C310.31 154.44 311.59 154.89 313.09 154.89C314.74 154.89 316.43 154.44 318.16 153.54C319.88 152.64 321.27 151.37 322.33 149.71L325.26 152.41C323.16 155.41 320.83 158.19 318.28 160.74C315.88 162.99 312.68 164.72 308.69 165.92C304.7 167.12 300.52 167.72 296.14 167.72C292.97 167.72 289.87 167.38 286.85 166.71C283.83 166.03 281.18 164.99 278.92 163.56C276.65 162.13 274.81 160.29 273.37 158.04C271.94 155.79 271.22 153.09 271.22 149.93V58.2797H260.19V51.9696L266.72 51.2896C271.27 50.3896 274.32 48.3597 275.87 45.2097C277.42 42.0597 278.35 38.0797 278.66 33.2697V30.7896C278.66 22.9896 276.51 17.3196 272.21 13.7896C267.91 10.2596 263.04 8.49963 257.61 8.49963C254.59 8.49963 251.65 8.98966 248.78 9.95966C245.91 10.9397 243.35 12.3596 241.08 14.2396C238.82 16.1196 237.01 18.3696 235.65 20.9996C234.29 23.6296 233.61 26.5897 233.61 29.8997V31.3596C233.61 31.8896 233.68 32.3696 233.84 32.8196C234.44 37.7696 236.39 42.7696 239.69 47.7996C242.99 52.8296 246.29 57.6696 249.6 62.3196L246.67 89.3397H242.62C240.67 85.5897 238.49 81.6796 236.09 77.6296C233.69 73.5796 230.83 69.8296 227.53 66.3696C224.08 62.7696 220.58 60.1796 217.06 58.5996C213.53 57.0196 210.19 56.2396 207.04 56.2396C202.84 56.2396 199.35 57.3996 196.57 59.7296C193.79 62.0596 192.4 65.0196 192.4 68.6296C192.4 71.3296 193.38 74.2196 195.33 77.2996C197.28 80.3796 200.51 83.4196 205.01 86.4196C211.32 90.3296 217.96 94.0796 224.94 97.6796C231.92 101.28 238.64 105.26 245.09 109.62C248.99 112.32 251.88 115.55 253.76 119.3C255.64 123.05 256.57 126.96 256.57 131.01C256.57 135.06 255.74 138.82 254.09 142.72C252.44 146.63 250.11 150.08 247.11 153.08C242.3 158.03 236.08 162.13 228.42 165.35C220.76 168.58 212.21 170.19 202.75 170.19H201.17C192.61 169.89 184.77 168.24 177.64 165.24C170.51 162.24 164.24 159.24 158.84 156.23L164.02 118.62H168.3C169.8 121.62 171.34 124.81 172.92 128.19C174.5 131.57 176.22 134.87 178.1 138.1C179.97 141.33 182.04 144.37 184.29 147.22C186.54 150.07 189.02 152.48 191.72 154.43C194.57 156.53 197.46 158.03 200.39 158.93C203.32 159.83 206.13 160.28 208.83 160.28C213.63 160.28 217.69 159.08 220.99 156.68C224.29 154.28 225.94 151.28 225.94 147.67C225.94 145.12 224.93 142.38 222.9 139.45C220.87 136.52 217.46 133.63 212.65 130.78C208.29 128.08 203.15 125.38 197.22 122.67C191.29 119.97 185.62 116.89 180.22 113.44C174.82 109.99 170.23 105.97 166.48 101.39C162.73 96.8096 160.85 91.3696 160.85 85.0596C160.85 79.8096 162.05 74.9696 164.45 70.5396C166.85 66.1096 170.23 62.2496 174.58 58.9396C178.93 55.6396 184.11 53.0897 190.12 51.2797C196.12 49.4797 202.8 48.5797 210.16 48.5797H211.96C216.76 48.5797 220.97 49.0296 224.57 49.9296C222.77 44.5296 221.87 39.5696 221.87 35.0696C221.87 29.6696 223 24.7896 225.26 20.4296C227.52 16.0796 230.49 12.4396 234.18 9.50964C237.87 6.57964 242.08 4.32963 246.82 2.74963C251.56 1.16963 256.49 0.389648 261.61 0.389648C267.18 0.389648 272.75 1.39963 278.32 3.42963C283.89 5.45963 288.85 8.53961 293.22 12.6596C297.58 16.7896 301.12 22.1197 303.83 28.6497C306.54 35.1797 307.89 42.9497 307.89 51.9597H325.23V58.2697H307.89L307.9 58.2896Z" fill="white"/>
<path d="M434.46 68.8801C434.61 69.7801 434.72 70.61 434.8 71.36C434.87 72.11 434.91 72.86 434.91 73.61C434.91 76.91 434.27 79.9201 433 82.6201C431.72 85.3201 430 87.65 427.82 89.6C425.64 91.55 423.16 93.06 420.39 94.1C417.61 95.15 414.65 95.6801 411.49 95.6801C408.33 95.6801 404.88 95.0001 401.58 93.6501C403.53 91.1001 404.51 88.1001 404.51 84.6401C404.51 81.1801 403.5 78.1901 401.47 75.6301C399.44 73.0801 396.93 71.8 393.93 71.8C390.47 71.8 386.87 73.7501 383.12 77.6501C381.47 79.3001 380.04 81.0301 378.84 82.8301C377.64 84.6301 376.59 86.3601 375.69 88.0101V149.94C375.69 153.99 376.63 157.19 378.5 159.51C380.38 161.84 382.22 163 384.02 163V167.05H330.65V163C332.6 163 334.52 161.73 336.39 159.17C338.27 156.62 339.2 153.17 339.2 148.81V76.3C339.2 71.95 338.3 68.53 336.5 66.05C334.7 63.57 332.82 62.3301 330.87 62.3301V58.2801H334.25C341.01 58.2801 347.87 57.34 354.86 55.47C361.84 53.59 367.66 51.3801 372.31 48.8301L375.69 51.3101V73.1501C379.44 65.4901 384.59 59.6801 391.12 55.7001C397.65 51.7201 404.14 49.73 410.6 49.73C416.3 49.73 421.33 51.23 425.69 54.23C430.04 57.23 432.97 62.1101 434.47 68.8701L434.46 68.8801Z" fill="white"/>
<path d="M674.96 151.07C675.26 154.82 676.31 157.75 678.11 159.85C679.91 161.95 681.64 163 683.29 163V167.05H630.14V163C632.09 163 634 161.73 635.88 159.17C637.76 156.62 638.69 153.17 638.69 148.81V86.66C638.69 79.76 637.64 74.9101 635.54 72.1401C633.44 69.3601 630.89 67.97 627.88 67.97C625.63 67.97 623.26 68.68 620.79 70.11C618.31 71.54 616.02 73.3801 613.92 75.6301C611.82 77.8801 610.09 80.4 608.74 83.17C607.39 85.95 606.71 88.6901 606.71 91.3901V149.94C606.71 153.85 607.65 157 609.52 159.4C611.4 161.8 613.24 163 615.04 163V167.05H561.67V163C563.62 163 565.54 161.73 567.41 159.17C569.29 156.62 570.22 153.17 570.22 148.81V76.3C570.22 71.95 569.32 68.53 567.52 66.05C565.72 63.57 563.84 62.3301 561.89 62.3301V58.2801H565.27C572.03 58.2801 578.89 57.34 585.88 55.47C592.86 53.59 598.68 51.3801 603.33 48.8301L606.71 51.3101L606.63 70.6801C611.42 64.3701 617.04 59.6101 623.48 56.3801C629.92 53.1501 636.29 51.54 642.58 51.54C646.77 51.54 650.86 52.2501 654.83 53.6801C658.8 55.1101 662.28 57.3201 665.28 60.3201C668.27 63.3301 670.67 67.0801 672.47 71.5801C674.27 76.0801 675.17 81.3401 675.17 87.3401C675.17 98.0001 675.13 108.7 675.06 119.43C674.98 130.16 674.95 140.71 674.95 151.07H674.96Z" fill="white"/>
<path d="M813.9 152.42C812.85 153.92 811.68 155.39 810.41 156.81C809.13 158.24 807.89 159.55 806.69 160.75C804.29 163 801.1 164.73 797.12 165.93C793.14 167.13 788.97 167.73 784.62 167.73C781.47 167.73 778.39 167.39 775.39 166.72C772.39 166.04 769.72 164.96 767.4 163.45C765.07 161.95 763.19 160.07 761.77 157.82C760.34 155.57 759.63 152.87 759.63 149.71V144.31C757.08 148.22 754.07 151.78 750.62 155.01C747.16 158.24 743.26 160.9 738.91 163C733.06 165.7 727.12 167.05 721.12 167.05C717.07 167.05 713.24 166.45 709.64 165.25C706.04 164.05 702.85 162.25 700.07 159.85C697.29 157.45 695.04 154.52 693.31 151.07C691.59 147.62 690.72 143.64 690.72 139.13C690.72 135.83 691.28 132.49 692.41 129.11C693.54 125.73 695.26 122.58 697.59 119.65C699.92 116.72 702.84 114.02 706.37 111.54C709.9 109.06 714.14 107.08 719.09 105.57C723.14 104.37 727.35 103.32 731.7 102.42C736.05 101.52 740.14 100.47 743.97 99.2698C747.8 98.0698 751.1 96.4898 753.88 94.5398C756.66 92.5898 758.57 89.8898 759.62 86.4298V83.9498C759.62 75.3898 758.34 69.2798 755.79 65.5998C753.24 61.9198 750.31 60.0798 747.01 60.0798C743.41 60.0798 739.95 61.8798 736.65 65.4798C733.35 69.0798 731.47 73.7398 731.02 79.4398V80.7898C731.02 82.7398 731.32 84.9598 731.92 87.4298C732.52 89.9098 733.57 91.5998 735.07 92.4998C733.42 94.5998 731.09 96.2198 728.09 97.3398C725.09 98.4698 721.86 99.0298 718.41 99.0298C715.86 99.0298 713.34 98.6898 710.87 98.0198C708.39 97.3398 706.18 96.2998 704.23 94.8698C702.28 93.4398 700.7 91.5698 699.5 89.2398C698.3 86.9098 697.7 84.0998 697.7 80.7998C697.7 75.9998 699.05 71.6398 701.75 67.7398C704.45 63.8398 708.02 60.4998 712.45 57.7198C716.88 54.9398 721.91 52.7998 727.54 51.2998C733.17 49.7998 738.99 49.0498 744.99 49.0498H746.79C752.94 49.1998 758.99 49.9898 764.92 51.4098C770.85 52.8398 776.1 55.1298 780.68 58.2798C785.26 61.4298 788.97 65.5198 791.83 70.5498C794.68 75.5798 796.11 81.7698 796.11 89.1298V148.81C796.11 150.91 796.67 152.41 797.8 153.31C798.93 154.21 800.24 154.66 801.74 154.66C803.39 154.66 805.08 154.21 806.81 153.31C808.53 152.41 809.92 151.14 810.98 149.48L813.91 152.41L813.9 152.42ZM749.5 145.44C751.3 144.39 753.1 142.96 754.9 141.16C756.7 139.36 758.28 137.03 759.63 134.18V97.6998C754.98 100.7 750.06 104.23 744.88 108.28C739.7 112.33 735.38 116.76 731.93 121.57C729.08 125.77 727.65 129.98 727.65 134.18C727.65 138.09 728.81 141.39 731.14 144.09C733.47 146.79 736.58 148.14 740.49 148.14C743.34 148.14 746.34 147.24 749.5 145.44Z" fill="white"/>
<path d="M928.64 155.91C930.52 158.39 932.43 159.63 934.38 159.63V163.68H931C924.07 163.68 917.06 164.36 909.96 165.71C902.86 167.06 897.05 169.01 892.51 171.56L889.11 168.86L889.26 149.72C884.71 156.93 879.25 162.18 872.87 165.48C866.5 168.78 860.13 170.43 853.75 170.43C849.13 170.43 844.69 169.57 840.44 167.84C836.19 166.12 832.42 163.6 829.14 160.3C825.86 157 823.25 152.91 821.31 148.03C819.37 143.15 818.4 137.48 818.4 131.03V74.5098C818.4 70.6098 817.46 67.6098 815.59 65.4998C813.71 63.3998 811.87 62.3498 810.07 62.3498V58.2998C817.56 58.2998 825.08 57.3998 832.61 55.5998C840.14 53.7998 846.52 51.5498 851.74 48.8398L854.88 51.3198V132.84C854.88 139.75 856.16 144.63 858.73 147.48C861.3 150.33 864.4 151.76 868.02 151.76C870.44 151.76 872.93 151.2 875.5 150.07C878.07 148.94 880.37 147.48 882.41 145.68C884.45 143.88 886.11 141.78 887.4 139.37C888.68 136.97 889.33 134.49 889.33 131.94V75.8698C889.33 71.5198 888.39 68.1798 886.52 65.8498C884.64 63.5198 882.73 62.3598 880.78 62.3598V58.3098C888.3 58.3098 895.83 57.4098 903.39 55.6098C910.94 53.8098 917.36 51.5598 922.65 48.8498L925.82 51.3298V145.69C925.82 150.05 926.76 153.46 928.63 155.94L928.64 155.91Z" fill="white"/>
<path d="M987.3 57.8405V150.17C987.3 152.27 987.82 153.77 988.88 154.67C989.93 155.57 991.21 156.02 992.71 156.02C994.36 156.02 996.05 155.57 997.78 154.67C999.5 153.77 1000.89 152.5 1001.95 150.84L1005.1 153.77C1004.05 155.27 1002.88 156.74 1001.61 158.16C1000.33 159.59 999.09 160.9 997.89 162.1C995.49 164.35 992.29 166.08 988.32 167.28C984.34 168.48 980.17 169.08 975.82 169.08C972.67 169.08 969.59 168.74 966.59 168.07C963.59 167.39 960.92 166.31 958.6 164.8C956.27 163.3 954.39 161.42 952.97 159.17C951.54 156.92 950.83 154.22 950.83 151.06V57.8304H939.8V51.3004C943.85 51.0004 947.95 49.5404 952.07 46.9104C956.2 44.2904 960.21 41.1304 964.12 37.4504C968.02 33.7704 971.66 29.7904 975.04 25.5104C978.42 21.2304 981.38 17.2904 983.94 13.6904L987.32 15.4904V51.3004H1005.11V57.8304H987.32L987.3 57.8405Z" fill="white"/>
<path d="M1132.77 152.42C1131.72 153.92 1130.55 155.39 1129.28 156.81C1128 158.24 1126.76 159.55 1125.56 160.75C1123.16 163 1119.96 164.73 1115.99 165.93C1112.01 167.13 1107.84 167.73 1103.49 167.73C1100.34 167.73 1097.26 167.39 1094.26 166.72C1091.25 166.04 1088.59 164.96 1086.27 163.45C1083.94 161.95 1082.07 160.07 1080.64 157.82C1079.21 155.57 1078.5 152.87 1078.5 149.71V144.31C1075.95 148.22 1072.94 151.78 1069.49 155.01C1066.03 158.24 1062.13 160.9 1057.78 163C1051.93 165.7 1045.99 167.05 1039.99 167.05C1035.94 167.05 1032.11 166.45 1028.51 165.25C1024.91 164.05 1021.71 162.25 1018.94 159.85C1016.16 157.45 1013.91 154.52 1012.18 151.07C1010.46 147.62 1009.59 143.64 1009.59 139.13C1009.59 135.83 1010.15 132.49 1011.28 129.11C1012.41 125.73 1014.13 122.58 1016.46 119.65C1018.79 116.72 1021.71 114.02 1025.24 111.54C1028.77 109.06 1033.01 107.08 1037.96 105.57C1042.01 104.37 1046.21 103.32 1050.57 102.42C1054.92 101.52 1059.01 100.47 1062.84 99.2698C1066.67 98.0698 1069.97 96.4898 1072.75 94.5398C1075.53 92.5898 1077.44 89.8898 1078.49 86.4298V83.9498C1078.49 75.3898 1077.21 69.2798 1074.66 65.5998C1072.11 61.9198 1069.18 60.0798 1065.88 60.0798C1062.28 60.0798 1058.82 61.8798 1055.52 65.4798C1052.22 69.0798 1050.34 73.7398 1049.89 79.4398V80.7898C1049.89 82.7398 1050.19 84.9598 1050.79 87.4298C1051.39 89.9098 1052.44 91.5998 1053.94 92.4998C1052.29 94.5998 1049.96 96.2198 1046.96 97.3398C1043.95 98.4698 1040.73 99.0298 1037.28 99.0298C1034.73 99.0298 1032.21 98.6898 1029.74 98.0198C1027.27 97.3498 1025.05 96.2998 1023.1 94.8698C1021.15 93.4398 1019.57 91.5698 1018.37 89.2398C1017.17 86.9098 1016.57 84.0998 1016.57 80.7998C1016.57 75.9998 1017.92 71.6398 1020.62 67.7398C1023.32 63.8398 1026.89 60.4998 1031.32 57.7198C1035.75 54.9398 1040.78 52.7998 1046.41 51.2998C1052.04 49.7998 1057.86 49.0498 1063.86 49.0498H1065.66C1071.81 49.1998 1077.86 49.9898 1083.79 51.4098C1089.72 52.8398 1094.97 55.1298 1099.55 58.2798C1104.13 61.4298 1107.84 65.5198 1110.7 70.5498C1113.55 75.5798 1114.98 81.7698 1114.98 89.1298V148.81C1114.98 150.91 1115.54 152.41 1116.67 153.31C1117.8 154.21 1119.11 154.66 1120.61 154.66C1122.26 154.66 1123.95 154.21 1125.68 153.31C1127.4 152.41 1128.79 151.14 1129.85 149.48L1132.78 152.41L1132.77 152.42ZM1068.37 145.44C1070.17 144.39 1071.97 142.96 1073.77 141.16C1075.57 139.36 1077.15 137.03 1078.5 134.18V97.6998C1073.84 100.7 1068.93 104.23 1063.75 108.28C1058.57 112.33 1054.25 116.76 1050.8 121.57C1047.95 125.77 1046.52 129.98 1046.52 134.18C1046.52 138.09 1047.68 141.39 1050.01 144.09C1052.34 146.79 1055.45 148.14 1059.36 148.14C1062.21 148.14 1065.21 147.24 1068.37 145.44Z" fill="white"/>
<path d="M554.33 115.69C554.54 114.13 554.66 111.52 554.66 109.4C554.66 101.35 553.14 93.7295 550.09 86.5595C547.02 79.3995 542.83 73.1195 537.54 67.7595C532.23 62.3695 526.01 58.1695 518.83 55.0995C511.67 52.0495 504.08 50.2695 496.01 50.2695C489.97 50.2695 477.21 52.6195 469.58 56.4695C464.47 59.0495 458.88 63.2595 454.45 67.7595C449.16 73.1195 444.97 79.3995 441.92 86.5595C438.85 93.7195 437.33 101.35 437.33 109.4C437.33 117.45 438.86 125.06 441.92 132.14C444.97 139.22 449.16 145.46 454.45 150.83C459.76 156.22 465.99 160.42 473.16 163.49C480.32 166.54 487.95 168.08 496 168.08C504.05 168.08 511.67 166.54 518.84 163.49C526.02 160.42 532.24 156.21 537.55 150.83C542.84 145.46 547.03 139.23 550.1 132.14C551.05 129.96 552.04 127.149 552.47 125.419C553.08 123.019 554.01 118.15 554.34 115.69H554.33ZM538.53 110.609C537.97 111.539 537.03 112.26 535.92 112.5C534.44 112.83 532.13 113.45 529.46 114.28C523.69 116.06 516.27 118.87 511.85 122.21C511.48 122.48 511.14 122.78 510.8 123.06C505.17 128.03 500.8 143.33 499.58 148.82C499.16 150.71 497.49 152.06 495.54 152.08H495.52C493.59 152.08 491.91 150.75 491.47 148.87C490.26 143.59 485.72 128.749 479.56 123.609C479.49 123.559 479.43 123.51 479.36 123.46C470.07 115.82 455.33 112.54 455.18 112.51C453.25 112.09 451.89 110.4 451.91 108.44C451.93 106.48 453.31 104.78 455.22 104.39C455.39 104.36 470.84 101.079 479.85 93.4195C480.03 93.2495 480.22 93.0995 480.4 92.9395C488.73 85.4495 491.4 68.5495 491.43 68.3795C491.51 67.8795 491.68 67.3995 491.91 66.9695C492.61 65.7195 493.9 64.8895 495.38 64.8395H495.53C497.06 64.8395 498.42 65.6695 499.12 66.9495C499.34 67.2995 499.49 67.6795 499.59 68.0995C500.74 73.2195 505.02 87.6295 511.14 92.7895L511.19 92.8395C520.69 100.75 535.8 104.389 535.95 104.419C537.83 104.869 539.16 106.549 539.16 108.469C539.16 109.249 538.93 109.979 538.54 110.609H538.53Z" fill="white"/>
<path d="M1267.9 145.43C1273.86 144.69 1278.94 142.75 1283.11 139.61C1287.28 136.48 1290.49 133.05 1292.73 129.32L1296.76 130.66C1294.52 136.03 1291.73 140.99 1288.37 145.54C1285.01 150.09 1281.02 154.04 1276.4 157.4C1271.78 160.76 1266.67 163.41 1261.08 165.34C1255.49 167.28 1249.34 168.25 1242.62 168.25C1234.57 168.25 1226.99 166.68 1219.91 163.55C1212.82 160.42 1206.63 156.13 1201.34 150.69C1196.05 145.25 1191.87 138.95 1188.81 131.79C1185.75 124.63 1184.22 117.02 1184.22 108.97C1184.22 100.92 1185.75 93.31 1188.81 86.15C1191.87 78.99 1196.05 72.6899 1201.34 67.2499C1206.63 61.8099 1212.82 57.48 1219.91 54.27C1226.99 51.06 1234.56 49.46 1242.62 49.46C1250.68 49.46 1258.13 51.06 1264.99 54.27C1271.85 57.48 1277.74 61.7999 1282.66 67.2499C1287.58 72.6999 1291.46 78.99 1294.29 86.15C1297.12 93.31 1298.54 100.92 1298.54 108.97H1222.48C1223.37 113.89 1224.86 118.59 1226.95 123.06C1229.04 127.53 1231.68 131.45 1234.89 134.8C1238.1 138.16 1241.97 140.84 1246.52 142.85C1251.07 144.86 1256.33 145.87 1262.29 145.87C1263.18 145.87 1264.08 145.84 1264.97 145.76C1265.86 145.69 1266.83 145.57 1267.88 145.42L1267.9 145.43ZM1261.86 101.36C1259.32 87.3399 1255.74 77.1599 1251.12 70.8199C1246.49 64.4799 1241.8 61.3099 1237.03 61.3099C1232.56 61.3099 1228.68 63.9599 1225.4 69.2499C1222.12 74.5499 1220.48 82.11 1220.48 91.96C1220.48 94.95 1220.7 98.0799 1221.15 101.36H1261.87H1261.86Z" fill="white"/>
<path d="M1485.13 150.13C1485.43 153.86 1486.47 156.769 1488.26 158.849C1490.05 160.939 1491.76 161.979 1493.4 161.979V166.01H1440.38V161.969C1442.32 161.969 1444.22 160.699 1446.08 158.159C1447.94 155.619 1448.88 152.18 1448.88 147.84V85.9495C1448.88 79.0695 1447.83 74.2495 1445.75 71.4895C1443.66 68.7295 1441.13 67.3395 1438.14 67.3395C1435.9 67.3395 1433.55 68.0095 1431.09 69.3595C1428.63 70.7095 1426.39 72.4995 1424.38 74.7395C1422.37 76.9795 1420.69 79.4495 1419.35 82.1395C1418.01 84.8295 1417.26 87.5195 1417.11 90.2095C1417.26 94.0995 1417.37 97.9495 1417.45 101.76C1417.52 105.57 1417.56 109.42 1417.56 113.31C1417.56 119.59 1417.52 125.75 1417.45 131.81C1417.37 137.86 1417.26 143.96 1417.11 150.08C1417.41 153.82 1418.45 156.73 1420.24 158.82C1422.03 160.91 1423.74 161.96 1425.39 161.96V166H1372.37V161.96C1374.31 161.96 1376.21 160.69 1378.07 158.15C1379.93 155.61 1380.87 152.17 1380.87 147.83V85.9395C1380.87 79.0595 1379.82 74.2395 1377.74 71.4795C1375.65 68.7195 1373.11 67.3295 1370.13 67.3295C1367.89 67.3295 1365.54 68.0395 1363.08 69.4595C1360.62 70.8795 1358.34 72.7095 1356.26 74.9495C1354.17 77.1895 1352.46 79.6995 1351.12 82.4595C1349.78 85.2295 1349.11 87.9495 1349.11 90.6395V148.94C1349.11 152.98 1350.04 156.149 1351.91 158.469C1353.77 160.789 1355.6 161.94 1357.39 161.94V165.979H1304.37V161.95C1306.31 161.95 1308.21 160.68 1310.07 158.15C1311.94 155.62 1312.87 152.189 1312.87 147.859V75.8195C1312.87 71.4995 1311.97 68.0995 1310.19 65.6395C1308.4 63.1795 1306.54 61.9495 1304.6 61.9495V57.9195H1307.96C1314.67 57.9195 1321.5 56.9895 1328.43 55.1195C1335.36 53.2595 1341.14 51.0595 1345.77 48.5195L1349.13 50.9795V70.2195C1353.9 63.9595 1359.49 59.2195 1365.91 56.0095C1372.32 52.7995 1378.66 51.1995 1384.93 51.1995C1391.64 51.1995 1397.76 52.9895 1403.28 56.5695C1408.8 60.1495 1412.75 65.6695 1415.14 73.1195C1419.91 65.8095 1425.65 60.2895 1432.37 56.5695C1439.08 52.8395 1445.87 50.9795 1452.73 50.9795C1456.9 50.9795 1460.97 51.7295 1464.92 53.2195C1468.87 54.7095 1472.38 56.9095 1475.43 59.8195C1478.49 62.7295 1480.91 66.4595 1482.7 71.0095C1484.49 75.5595 1485.38 80.8195 1485.38 86.7795L1485.16 150.09L1485.13 150.13Z" fill="white"/>
<path d="M100.65 342.65C100.65 346.47 101.44 349.5 103.02 351.73C104.6 353.97 106.31 355.09 108.15 355.09V358.64H68.6602V342.85C66.0302 347.46 62.5702 351.24 58.2902 354.2C54.0102 357.16 48.4502 358.64 41.6102 358.64C35.5502 358.64 30.2202 357.26 25.6202 354.49C21.0102 351.73 17.1302 348.11 13.9702 343.63C10.8102 339.16 8.44023 334.05 6.86023 328.33C5.28023 322.61 4.49023 316.72 4.49023 310.66C4.49023 304.21 5.41023 297.8 7.25023 291.41C9.09023 285.03 11.9202 279.3 15.7402 274.23C19.5602 269.16 24.3602 265.08 30.1502 261.99C35.9402 258.9 42.7202 257.35 50.4902 257.35H51.4802C55.3002 257.35 58.5902 257.94 61.3502 259.13C64.1102 260.31 66.6102 261.76 68.8502 263.47V236.62C68.8502 232.8 68.0302 229.81 66.3802 227.64C64.7302 225.47 63.0502 224.38 61.3502 224.38V220.83C68.0502 220.83 74.6702 220.04 81.2102 218.46C87.7502 216.88 93.1802 214.91 97.5002 212.54L100.64 214.71V342.65H100.65ZM49.9902 349.36C52.9002 349.36 55.5202 347.82 57.8302 344.73C60.1502 341.65 62.1002 337.67 63.6902 332.81C65.2802 327.95 66.5002 322.53 67.3602 316.56C68.2202 310.59 68.6502 304.65 68.6502 298.74C68.6502 294.41 68.3802 290.24 67.8502 286.23C67.3202 282.23 66.5602 278.68 65.5702 275.59C64.5802 272.5 63.2502 270.07 61.6002 268.3C59.9402 266.53 58.0602 265.64 55.9402 265.64C52.7602 265.64 49.9802 267.15 47.6002 270.17C45.2202 273.19 43.2002 277.1 41.5402 281.89C39.8802 286.68 38.6202 292.03 37.7602 297.94C36.9002 303.85 36.4702 309.76 36.4702 315.67C36.4702 320 36.7302 324.14 37.2602 328.08C37.7902 332.02 38.5502 335.53 39.5502 338.62C40.5502 341.71 41.8002 344.2 43.3202 346.1C44.8402 348 46.6602 349.09 48.7802 349.35H49.9702L49.9902 349.36Z" fill="white"/>
<path d="M187.52 340.48C192.78 339.82 197.26 338.11 200.95 335.35C204.63 332.59 207.47 329.56 209.44 326.27L212.99 327.45C211.02 332.19 208.55 336.57 205.59 340.58C202.63 344.6 199.11 348.08 195.03 351.04C190.95 354 186.44 356.34 181.51 358.05C176.57 359.76 171.14 360.62 165.22 360.62C158.11 360.62 151.43 359.24 145.18 356.47C138.93 353.71 133.46 349.92 128.79 345.12C124.12 340.32 120.43 334.75 117.73 328.44C115.03 322.12 113.68 315.41 113.68 308.3C113.68 301.19 115.03 294.48 117.73 288.16C120.43 281.84 124.12 276.28 128.79 271.48C133.46 266.68 138.92 262.86 145.18 260.03C151.43 257.2 158.11 255.79 165.22 255.79C172.33 255.79 178.91 257.21 184.96 260.03C191.01 262.86 196.21 266.68 200.56 271.48C204.9 276.29 208.32 281.85 210.83 288.16C213.33 294.48 214.58 301.19 214.58 308.3H147.45C148.24 312.64 149.55 316.79 151.4 320.74C153.24 324.69 155.58 328.14 158.41 331.11C161.24 334.07 164.66 336.44 168.68 338.22C172.69 340 177.33 340.89 182.6 340.89C183.39 340.89 184.18 340.86 184.97 340.79C185.76 340.72 186.61 340.63 187.54 340.49L187.52 340.48ZM182.19 301.59C179.95 289.22 176.79 280.24 172.71 274.64C168.63 269.05 164.48 266.25 160.27 266.25C156.32 266.25 152.9 268.59 150 273.26C147.1 277.93 145.66 284.61 145.66 293.3C145.66 295.93 145.86 298.7 146.25 301.59H182.18H182.19Z" fill="white"/>
<path d="M229.379 315.8C230.689 318.56 232.079 321.43 233.529 324.39C234.979 327.35 236.519 330.25 238.169 333.08C239.809 335.91 241.619 338.58 243.599 341.08C245.569 343.58 247.749 345.69 250.119 347.4C252.619 349.24 255.149 350.59 257.719 351.45C260.289 352.31 262.819 352.73 265.319 352.73C269.529 352.73 273.049 351.71 275.879 349.67C278.709 347.63 280.119 345.03 280.119 341.87C280.119 339.63 279.199 337.23 277.359 334.66C275.519 332.09 272.489 329.56 268.279 327.06C264.459 324.56 259.949 322.09 254.759 319.66C249.559 317.23 244.589 314.46 239.849 311.37C235.109 308.28 231.059 304.73 227.709 300.71C224.349 296.7 222.679 291.92 222.679 286.4C222.679 281.79 223.769 277.52 225.939 273.57C228.109 269.62 231.099 266.23 234.919 263.4C238.739 260.57 243.339 258.33 248.739 256.69C254.139 255.05 260.059 254.22 266.509 254.22H267.889C271.569 254.22 274.899 254.55 277.859 255.21C280.819 255.87 283.589 256.76 286.149 257.88C288.719 259 291.179 260.28 293.549 261.73C295.919 263.18 298.419 264.76 301.049 266.47L298.479 290.16H294.929C293.219 286.87 291.279 283.42 289.109 279.79C286.939 276.17 284.469 272.91 281.709 270.02C278.679 266.73 275.589 264.39 272.429 263.01C269.269 261.63 266.309 260.94 263.549 260.94C259.729 260.94 256.609 262 254.169 264.1C251.729 266.21 250.519 268.84 250.519 272C250.519 274.37 251.369 276.9 253.089 279.6C254.799 282.3 257.699 284.96 261.779 287.6C267.309 291.02 273.159 294.35 279.349 297.57C285.539 300.8 291.459 304.32 297.119 308.13C300.539 310.5 303.069 313.33 304.719 316.62C306.359 319.91 307.189 323.4 307.189 327.08C307.189 334.32 304.429 340.7 298.899 346.23C294.689 350.71 289.189 354.36 282.409 357.19C275.629 360.02 268.099 361.44 259.799 361.44H258.419C250.919 361.18 244.009 359.73 237.689 357.1C231.369 354.47 225.839 351.84 221.109 349.2L225.649 315.83H229.399L229.379 315.8Z" fill="white"/>
<path d="M387.52 340.48C392.78 339.82 397.26 338.11 400.95 335.35C404.63 332.59 407.47 329.56 409.44 326.27L412.99 327.45C411.02 332.19 408.55 336.57 405.59 340.58C402.63 344.6 399.11 348.08 395.03 351.04C390.95 354 386.44 356.34 381.51 358.05C376.57 359.76 371.14 360.62 365.22 360.62C358.11 360.62 351.43 359.24 345.18 356.47C338.93 353.71 333.46 349.92 328.79 345.12C324.12 340.32 320.43 334.75 317.73 328.44C315.03 322.12 313.68 315.41 313.68 308.3C313.68 301.19 315.03 294.48 317.73 288.16C320.43 281.84 324.12 276.28 328.79 271.48C333.46 266.68 338.92 262.86 345.18 260.03C351.43 257.2 358.11 255.79 365.22 255.79C372.33 255.79 378.91 257.21 384.96 260.03C391.01 262.86 396.21 266.68 400.56 271.48C404.9 276.29 408.32 281.85 410.83 288.16C413.33 294.48 414.58 301.19 414.58 308.3H347.45C348.24 312.64 349.55 316.79 351.4 320.74C353.24 324.69 355.58 328.14 358.41 331.11C361.24 334.07 364.66 336.44 368.68 338.22C372.69 340 377.33 340.89 382.6 340.89C383.39 340.89 384.18 340.86 384.97 340.79C385.76 340.72 386.61 340.63 387.54 340.49L387.52 340.48ZM382.19 301.59C379.95 289.22 376.79 280.24 372.71 274.64C368.63 269.05 364.48 266.25 360.27 266.25C356.32 266.25 352.9 268.59 350 273.26C347.1 277.93 345.66 284.61 345.66 293.3C345.66 295.93 345.86 298.7 346.25 301.59H382.18H382.19Z" fill="white"/>
<path d="M519.01 344.63C519.27 347.92 520.19 350.49 521.77 352.33C523.35 354.17 524.86 355.09 526.31 355.09V358.64H479.72V355.09C481.43 355.09 483.11 353.97 484.75 351.73C486.39 349.49 487.22 346.47 487.22 342.65V288.16C487.22 282.11 486.3 277.86 484.46 275.43C482.61 273 480.38 271.78 477.75 271.78C475.78 271.78 473.7 272.41 471.53 273.66C469.36 274.91 467.35 276.52 465.51 278.5C463.67 280.47 462.15 282.68 460.97 285.11C459.79 287.55 459.19 289.95 459.19 292.32V343.65C459.19 347.07 460.01 349.84 461.66 351.94C463.3 354.05 464.92 355.1 466.5 355.1V358.65H419.71V355.1C421.42 355.1 423.1 353.98 424.74 351.74C426.39 349.5 427.21 346.48 427.21 342.66V279.09C427.21 275.27 426.42 272.28 424.84 270.11C423.26 267.94 421.62 266.85 419.9 266.85V263.3H422.86C428.78 263.3 434.8 262.48 440.93 260.83C447.05 259.19 452.15 257.25 456.23 255.01L459.19 257.18L459.12 274.16C463.32 268.63 468.25 264.46 473.9 261.62C479.55 258.79 485.13 257.37 490.65 257.37C494.33 257.37 497.91 258 501.39 259.25C504.87 260.5 507.92 262.44 510.55 265.07C513.17 267.7 515.28 270.99 516.85 274.94C518.43 278.89 519.22 283.5 519.22 288.76C519.22 298.11 519.19 307.49 519.12 316.89C519.05 326.3 519.02 335.55 519.02 344.63H519.01Z" fill="white"/>
<path d="M630.761 257.16V260.91C628.651 260.91 626.781 261.57 625.131 262.88C623.481 264.2 622.001 265.84 620.691 267.82C619.371 269.79 618.221 271.97 617.241 274.34C616.251 276.71 615.361 278.95 614.571 281.05C614.441 281.32 614.371 281.51 614.371 281.64C614.371 281.77 614.301 281.9 614.171 282.03L584.161 358.63H569.351L533.221 274.52C531.911 271.49 530.691 269.06 529.571 267.21C528.451 265.37 527.401 263.99 526.411 263.06C525.421 262.14 524.441 261.52 523.451 261.18C522.461 260.85 521.441 260.69 520.391 260.69V257.14H567.581V260.89C564.821 261.02 563.431 261.88 563.431 263.46C563.431 264.52 563.761 265.7 564.421 267.01C565.081 268.33 565.731 269.91 566.391 271.75L588.311 323.28L604.891 280.24C605.811 278 606.441 275.96 606.771 274.12C607.101 272.28 607.261 270.63 607.261 269.18C607.261 263.65 605.021 260.89 600.551 260.89V257.14H630.761V257.16Z" fill="white"/>
<path d="M676.56 255.98C683.67 255.98 690.38 257.331 696.7 260.031C703.02 262.731 708.51 266.45 713.19 271.19C717.86 275.93 721.55 281.461 724.25 287.771C726.95 294.091 728.3 300.8 728.3 307.91C728.3 315.02 726.95 321.701 724.25 327.951C721.55 334.201 717.86 339.7 713.19 344.44C708.52 349.18 703.02 352.901 696.7 355.591C690.38 358.291 683.67 359.641 676.56 359.641C669.45 359.641 662.74 358.291 656.42 355.591C650.1 352.891 644.6 349.17 639.93 344.44C635.26 339.7 631.57 334.211 628.87 327.951C626.17 321.701 624.82 315.02 624.82 307.91C624.82 300.8 626.17 294.091 628.87 287.771C631.57 281.451 635.25 275.92 639.93 271.19C644.6 266.45 650.1 262.731 656.42 260.031C662.74 257.331 669.45 255.98 676.56 255.98ZM676.56 264.271C674.19 264.271 671.95 265.45 669.85 267.82C667.74 270.18 665.9 273.4 664.32 277.47C662.74 281.54 661.49 286.34 660.57 291.85C659.65 297.37 659.19 303.21 659.19 309.38C659.19 315.55 659.65 321.6 660.57 327.11C661.49 332.63 662.74 337.42 664.32 341.49C665.9 345.56 667.74 348.781 669.85 351.141C671.95 353.501 674.19 354.68 676.56 354.68C678.93 354.68 681.17 353.501 683.27 351.141C685.37 348.781 687.22 345.56 688.8 341.49C690.38 337.42 691.63 332.62 692.55 327.11C693.47 321.59 693.93 315.68 693.93 309.38C693.93 303.08 693.47 297.36 692.55 291.85C691.63 286.33 690.38 281.54 688.8 277.47C687.22 273.4 685.38 270.18 683.27 267.82C681.16 265.46 678.93 264.271 676.56 264.271Z" fill="white"/>
<path d="M772.121 342.65C772.121 346.47 772.911 349.5 774.491 351.73C776.071 353.97 777.711 355.09 779.431 355.09V358.64H732.641V355.09C734.221 355.09 735.801 354.07 737.381 352.03C738.961 349.99 739.881 347.19 740.141 343.64V238.21C740.141 234.39 739.321 231.37 737.671 229.13C736.031 226.89 734.351 225.77 732.641 225.77V222.22C739.221 222.22 745.831 221.46 752.481 219.95C759.121 218.44 764.691 216.49 769.161 214.13L772.121 216.3V342.66V342.65Z" fill="white"/>
<path d="M889.39 257.16V260.91C887.28 260.91 885.41 261.57 883.76 262.88C882.11 264.2 880.63 265.84 879.32 267.82C878 269.79 876.85 271.97 875.87 274.34C874.88 276.71 873.99 278.95 873.2 281.05C873.07 281.32 873 281.51 873 281.64C873 281.77 872.929 281.9 872.799 282.03L842.789 358.63H827.979L791.849 274.52C790.539 271.49 789.32 269.06 788.2 267.21C787.08 265.37 786.029 263.99 785.039 263.06C784.049 262.14 783.07 261.52 782.08 261.18C781.09 260.85 780.07 260.69 779.02 260.69V257.14H826.21V260.89C823.45 261.02 822.06 261.88 822.06 263.46C822.06 264.52 822.389 265.7 823.049 267.01C823.709 268.33 824.36 269.91 825.02 271.75L846.94 323.28L863.52 280.24C864.44 278 865.07 275.96 865.4 274.12C865.73 272.28 865.89 270.63 865.89 269.18C865.89 263.65 863.65 260.89 859.18 260.89V257.14H889.39V257.16Z" fill="white"/>
<path d="M931.63 343.64C931.63 347.19 932.45 349.99 934.1 352.03C935.74 354.07 937.36 355.09 938.94 355.09V358.64H892.15V355.09C893.86 355.09 895.54 353.97 897.18 351.73C898.83 349.49 899.65 346.47 899.65 342.65V279.08C899.65 275.26 898.86 272.27 897.28 270.1C895.7 267.93 894.06 266.84 892.34 266.84V263.29C898.79 263.29 905.37 262.5 912.08 260.92C918.79 259.34 924.32 257.37 928.66 255L931.62 257.17V343.65L931.63 343.64Z" fill="white"/>
<path d="M1105.77 344.63C1106.03 347.92 1106.95 350.49 1108.53 352.33C1110.11 354.17 1111.62 355.09 1113.07 355.09V358.64H1066.28V355.08C1067.99 355.08 1069.67 353.96 1071.31 351.72C1072.95 349.48 1073.78 346.44 1073.78 342.62V288C1073.78 281.93 1072.86 277.68 1071.02 275.24C1069.18 272.8 1066.94 271.58 1064.31 271.58C1062.34 271.58 1060.26 272.17 1058.09 273.36C1055.92 274.55 1053.94 276.13 1052.17 278.11C1050.39 280.09 1048.91 282.27 1047.73 284.64C1046.55 287.02 1045.89 289.39 1045.76 291.76C1045.89 295.19 1045.99 298.59 1046.06 301.95C1046.12 305.31 1046.16 308.71 1046.16 312.14C1046.16 317.68 1046.13 323.12 1046.06 328.46C1045.99 333.8 1045.89 339.18 1045.76 344.59C1046.02 347.89 1046.94 350.46 1048.52 352.3C1050.1 354.15 1051.61 355.07 1053.06 355.07V358.63H1006.27V355.07C1007.98 355.07 1009.66 353.95 1011.3 351.71C1012.94 349.47 1013.77 346.43 1013.77 342.61V287.99C1013.77 281.92 1012.85 277.67 1011.01 275.23C1009.17 272.79 1006.93 271.57 1004.3 271.57C1002.33 271.57 1000.25 272.2 998.08 273.45C995.91 274.7 993.9 276.32 992.06 278.3C990.21 280.28 988.7 282.49 987.52 284.93C986.34 287.37 985.74 289.78 985.74 292.15V343.6C985.74 347.16 986.56 349.97 988.21 352.01C989.85 354.06 991.47 355.08 993.05 355.08V358.64H946.26V355.09C947.97 355.09 949.65 353.97 951.29 351.73C952.94 349.49 953.76 346.47 953.76 342.65V279.08C953.76 275.26 952.97 272.27 951.39 270.1C949.81 267.93 948.17 266.84 946.45 266.84V263.29H949.41C955.33 263.29 961.36 262.47 967.48 260.82C973.6 259.18 978.7 257.24 982.78 255L985.74 257.17V274.15C989.95 268.62 994.89 264.45 1000.55 261.61C1006.21 258.78 1011.8 257.36 1017.33 257.36C1023.25 257.36 1028.65 258.94 1033.52 262.1C1038.39 265.26 1041.88 270.13 1043.98 276.71C1048.19 270.26 1053.26 265.39 1059.18 262.1C1065.1 258.81 1071.09 257.16 1077.15 257.16C1080.83 257.16 1084.42 257.82 1087.91 259.13C1091.4 260.45 1094.49 262.39 1097.19 264.95C1099.89 267.52 1102.03 270.81 1103.61 274.82C1105.19 278.84 1105.98 283.48 1105.98 288.74L1105.78 344.61L1105.77 344.63Z" fill="white"/>
<path d="M1191.85 340.48C1197.11 339.82 1201.59 338.11 1205.28 335.35C1208.96 332.59 1211.79 329.56 1213.77 326.27L1217.32 327.45C1215.35 332.19 1212.88 336.57 1209.92 340.58C1206.96 344.6 1203.43 348.08 1199.36 351.04C1195.28 354 1190.77 356.34 1185.84 358.05C1180.9 359.76 1175.47 360.62 1169.55 360.62C1162.44 360.62 1155.76 359.24 1149.51 356.47C1143.26 353.71 1137.79 349.92 1133.12 345.12C1128.45 340.32 1124.76 334.75 1122.06 328.44C1119.36 322.12 1118.01 315.41 1118.01 308.3C1118.01 301.19 1119.36 294.48 1122.06 288.16C1124.76 281.84 1128.45 276.28 1133.12 271.48C1137.79 266.68 1143.25 262.86 1149.51 260.03C1155.76 257.2 1162.44 255.79 1169.55 255.79C1176.66 255.79 1183.24 257.21 1189.29 260.03C1195.34 262.86 1200.54 266.68 1204.89 271.48C1209.23 276.29 1212.65 281.85 1215.16 288.16C1217.66 294.48 1218.91 301.19 1218.91 308.3H1151.78C1152.57 312.64 1153.88 316.79 1155.73 320.74C1157.57 324.69 1159.91 328.14 1162.74 331.11C1165.57 334.07 1168.99 336.44 1173.01 338.22C1177.02 340 1181.66 340.89 1186.93 340.89C1187.72 340.89 1188.51 340.86 1189.3 340.79C1190.09 340.72 1190.94 340.63 1191.87 340.49L1191.85 340.48ZM1186.52 301.59C1184.28 289.22 1181.12 280.24 1177.04 274.64C1172.96 269.05 1168.81 266.25 1164.6 266.25C1160.65 266.25 1157.23 268.59 1154.33 273.26C1151.43 277.93 1149.99 284.61 1149.99 293.3C1149.99 295.93 1150.19 298.7 1150.58 301.59H1186.51H1186.52Z" fill="white"/>
<path d="M1323.34 344.63C1323.6 347.92 1324.52 350.49 1326.1 352.33C1327.68 354.17 1329.19 355.09 1330.64 355.09V358.64H1284.05V355.09C1285.76 355.09 1287.44 353.97 1289.08 351.73C1290.72 349.49 1291.55 346.47 1291.55 342.65V288.16C1291.55 282.11 1290.63 277.86 1288.79 275.43C1286.95 273 1284.71 271.78 1282.08 271.78C1280.11 271.78 1278.03 272.41 1275.86 273.66C1273.69 274.91 1271.68 276.52 1269.84 278.5C1268 280.47 1266.48 282.68 1265.3 285.11C1264.12 287.55 1263.52 289.95 1263.52 292.32V343.65C1263.52 347.07 1264.34 349.84 1265.99 351.94C1267.63 354.05 1269.25 355.1 1270.83 355.1V358.65H1224.04V355.1C1225.75 355.1 1227.43 353.98 1229.07 351.74C1230.72 349.5 1231.54 346.48 1231.54 342.66V279.09C1231.54 275.27 1230.75 272.28 1229.17 270.11C1227.59 267.94 1225.95 266.85 1224.23 266.85V263.3H1227.19C1233.11 263.3 1239.14 262.48 1245.26 260.83C1251.38 259.19 1256.48 257.25 1260.56 255.01L1263.52 257.18L1263.45 274.16C1267.65 268.63 1272.58 264.46 1278.23 261.62C1283.88 258.79 1289.46 257.37 1294.97 257.37C1298.65 257.37 1302.23 258 1305.71 259.25C1309.19 260.5 1312.24 262.44 1314.87 265.07C1317.5 267.7 1319.6 270.99 1321.17 274.94C1322.75 278.89 1323.54 283.5 1323.54 288.76C1323.54 298.11 1323.51 307.49 1323.44 316.89C1323.37 326.3 1323.34 335.55 1323.34 344.63Z" fill="white"/>
<path d="M1376.25 262.89V343.84C1376.25 345.68 1376.71 347 1377.63 347.79C1378.55 348.58 1379.67 348.97 1380.99 348.97C1382.44 348.97 1383.92 348.58 1385.43 347.79C1386.94 347 1388.16 345.88 1389.08 344.43L1391.84 347C1390.92 348.32 1389.9 349.6 1388.78 350.85C1387.66 352.1 1386.57 353.25 1385.52 354.31C1383.41 356.28 1380.62 357.8 1377.13 358.85C1373.64 359.91 1369.99 360.43 1366.17 360.43C1363.41 360.43 1360.71 360.13 1358.08 359.54C1355.45 358.95 1353.11 357.99 1351.07 356.68C1349.03 355.37 1347.38 353.72 1346.13 351.74C1344.88 349.76 1344.25 347.4 1344.25 344.63V262.89H1334.58V257.16C1338.13 256.9 1341.72 255.61 1345.34 253.31C1348.96 251.01 1352.48 248.24 1355.9 245.02C1359.32 241.8 1362.51 238.31 1365.48 234.56C1368.44 230.81 1371.04 227.35 1373.28 224.19L1376.24 225.77V257.16H1391.84V262.89H1376.24H1376.25Z" fill="white"/>
<path d="M1443.77 255.98C1450.88 255.98 1457.59 257.331 1463.91 260.031C1470.23 262.731 1475.72 266.45 1480.4 271.19C1485.07 275.93 1488.76 281.461 1491.46 287.771C1494.16 294.091 1495.51 300.8 1495.51 307.91C1495.51 315.02 1494.16 321.701 1491.46 327.951C1488.76 334.201 1485.07 339.7 1480.4 344.44C1475.73 349.18 1470.23 352.901 1463.91 355.591C1457.59 358.291 1450.88 359.641 1443.77 359.641C1436.66 359.641 1429.95 358.291 1423.63 355.591C1417.31 352.891 1411.81 349.17 1407.14 344.44C1402.47 339.7 1398.78 334.211 1396.08 327.951C1393.38 321.701 1392.03 315.02 1392.03 307.91C1392.03 300.8 1393.38 294.091 1396.08 287.771C1398.78 281.451 1402.46 275.92 1407.14 271.19C1411.81 266.45 1417.31 262.731 1423.63 260.031C1429.95 257.331 1436.66 255.98 1443.77 255.98ZM1443.77 264.271C1441.4 264.271 1439.16 265.45 1437.06 267.82C1434.95 270.18 1433.11 273.4 1431.53 277.47C1429.95 281.54 1428.7 286.34 1427.78 291.85C1426.86 297.37 1426.4 303.21 1426.4 309.38C1426.4 315.55 1426.86 321.6 1427.78 327.11C1428.7 332.63 1429.95 337.42 1431.53 341.49C1433.11 345.56 1434.95 348.781 1437.06 351.141C1439.16 353.501 1441.4 354.68 1443.77 354.68C1446.14 354.68 1448.38 353.501 1450.48 351.141C1452.58 348.781 1454.43 345.56 1456.01 341.49C1457.59 337.42 1458.84 332.62 1459.76 327.11C1460.68 321.59 1461.14 315.68 1461.14 309.38C1461.14 303.08 1460.68 297.36 1459.76 291.85C1458.84 286.33 1457.59 281.54 1456.01 277.47C1454.43 273.4 1452.59 270.18 1450.48 267.82C1448.37 265.46 1446.14 264.271 1443.77 264.271Z" fill="white"/>
<path d="M912.91 236.91C914.2 236.91 915.33 236.02 915.63 234.76C915.64 234.73 916.1 232.83 917.05 230.36C917.99 227.89 919.41 224.83 921.37 222.49C923.84 219.53 931.17 217.35 933.54 216.83C934.81 216.55 935.72 215.41 935.72 214.11C935.72 214.09 935.72 214.05 935.71 214.02C935.67 212.67 934.67 211.56 933.35 211.36C931.02 211 924.31 209.34 921.3 205.99C918.01 202.33 916.11 195.77 915.65 193.54C915.38 192.25 914.25 191.32 912.93 191.31C911.61 191.31 910.47 192.22 910.19 193.52C910.18 193.59 908.53 201.01 904.72 205.59C902.51 208.23 895.91 210.56 892.28 211.41C891.01 211.7 890.12 212.83 890.12 214.12V214.14C890.13 215.43 891.03 216.56 892.3 216.84C896.08 217.68 902.88 219.91 905.01 222.31C907.6 225.25 909.64 232.3 910.2 234.76C910.49 236.02 911.62 236.92 912.91 236.92V236.91Z" fill="white"/>
</g>
<defs>
<clipPath id="clip0_490_147">
<rect width="1500" height="361" fill="white"/>
</clipPath>
</defs>
</svg>
