<svg width="1500" height="414" viewBox="0 0 1500 414" fill="none" xmlns="http://www.w3.org/2000/svg">
<g clip-path="url(#clip0_490_195)">
<path d="M267.54 184.12C264.56 187.99 263.06 193.35 263.06 200.2V384.83C263.06 391.68 264.55 397.04 267.54 400.91C270.52 404.78 273.56 406.71 276.66 406.71V413.01H190.14V406.71C193.23 406.71 196.27 404.78 199.26 400.91C202.24 397.05 203.73 391.69 203.73 384.83V224.72L134.45 397.09H105.94L42.96 230.69V384.83C42.96 391.68 44.67 397.04 48.1 400.91C51.52 404.78 55 406.71 58.54 406.71V413.01H5.5V406.71C9.04 406.71 12.51 404.78 15.94 400.91C19.36 397.05 21.08 391.69 21.08 384.83V200.2C21.08 193.35 19.36 187.99 15.94 184.12C12.51 180.26 9.04 178.32 5.5 178.32V172.35H83.73L142.07 325.83L203.73 172.35H276.66V178.32C273.56 178.32 270.53 180.26 267.54 184.12Z" fill="white"/>
<path d="M353.55 388.15C353.55 394.12 354.93 398.81 357.69 402.24C360.45 405.67 363.16 407.38 365.81 407.38V413.35H287.25V407.38C290.12 407.38 292.94 405.51 295.7 401.74C298.47 397.98 299.84 392.9 299.84 386.49V279.75C299.84 273.34 298.51 268.31 295.86 264.67C293.21 261.02 290.45 259.2 287.57 259.2V253.23C298.4 253.23 309.45 251.9 320.72 249.25C331.99 246.6 341.27 243.28 348.56 239.31L353.53 242.96V388.15H353.55Z" fill="white"/>
<path d="M544.82 389.81C545.26 395.34 546.81 399.65 549.46 402.74C552.11 405.84 554.65 407.38 557.08 407.38V413.35H478.85V407.38C481.72 407.38 484.54 405.51 487.3 401.74C490.06 397.98 491.44 392.9 491.44 386.49V295C491.44 284.84 489.89 277.71 486.8 273.62C483.7 269.53 479.95 267.49 475.53 267.49C472.21 267.49 468.73 268.54 465.09 270.64C461.44 272.74 458.07 275.45 454.98 278.76C451.88 282.08 449.34 285.78 447.36 289.86C445.37 293.95 444.38 297.98 444.38 301.96V388.15C444.38 393.9 445.76 398.54 448.52 402.07C451.28 405.61 453.99 407.37 456.64 407.37V413.34H378.08V407.37C380.96 407.37 383.77 405.5 386.53 401.73C389.3 397.97 390.67 392.89 390.67 386.48V279.74C390.67 273.33 389.34 268.3 386.69 264.66C384.04 261.01 381.28 259.19 378.4 259.19V253.22H383.37C393.31 253.22 403.43 251.84 413.7 249.08C423.98 246.32 432.54 243.06 439.39 239.3L444.36 242.95L444.25 271.46C451.3 262.18 459.58 255.17 469.06 250.41C478.54 245.66 487.91 243.28 497.17 243.28C503.34 243.28 509.35 244.33 515.19 246.43C521.03 248.53 526.16 251.79 530.57 256.21C534.98 260.63 538.51 266.15 541.15 272.78C543.8 279.41 545.12 287.15 545.12 295.98C545.12 311.67 545.06 327.42 544.95 343.22C544.84 359.02 544.79 374.54 544.79 389.79L544.82 389.81Z" fill="white"/>
<path d="M733.76 389.81C733.76 395.56 735.14 399.92 737.9 402.9C740.66 405.88 743.37 407.38 746.02 407.38V413.35H667.13V407.38C670 407.38 672.82 405.51 675.58 401.74C678.34 397.98 679.72 392.9 679.72 386.49V295C679.72 284.84 678.23 277.71 675.25 273.62C672.27 269.53 668.56 267.49 664.15 267.49C660.83 267.49 657.41 268.49 653.87 270.47C650.33 272.46 647.07 275 644.09 278.09C641.11 281.19 638.56 284.67 636.47 288.53C634.37 292.4 633.21 296.32 632.99 300.3V387.48C632.99 393.89 634.37 398.81 637.13 402.23C639.89 405.66 642.6 407.37 645.25 407.37V413.34H566.69V407.37C569.56 407.37 572.38 405.5 575.14 401.73C577.91 397.97 579.28 392.89 579.28 386.48V211.13C579.28 204.72 577.9 199.64 575.14 195.88C572.38 192.12 569.56 190.24 566.69 190.24V184.27C577.74 184.27 588.84 183 600 180.46C611.16 177.92 620.5 174.66 628.01 170.68L632.98 174.33V271.45C640.05 262.17 648.28 255.16 657.68 250.4C667.07 245.65 676.41 243.27 685.69 243.27C691.87 243.27 697.9 244.32 703.76 246.42C709.61 248.52 714.7 251.78 719.01 256.2C723.32 260.62 726.8 266.14 729.45 272.77C732.1 279.4 733.43 287.14 733.43 295.97C733.43 311.88 733.48 327.57 733.59 343.04C733.7 358.51 733.76 374.09 733.76 389.78V389.81Z" fill="white"/>
<path d="M936.62 391.8C935.07 394.01 933.36 396.17 931.48 398.26C929.6 400.36 927.78 402.29 926.01 404.06C922.47 407.37 917.77 409.92 911.92 411.68C906.06 413.45 899.93 414.33 893.52 414.33C888.88 414.33 884.35 413.83 879.93 412.84C875.51 411.85 871.59 410.24 868.16 408.03C864.73 405.82 861.97 403.06 859.87 399.74C857.77 396.42 856.72 392.45 856.72 387.81V379.85C852.96 385.6 848.54 390.85 843.46 395.6C838.38 400.35 832.63 404.28 826.22 407.37C817.6 411.35 808.87 413.34 800.03 413.34C794.06 413.34 788.43 412.46 783.12 410.69C777.82 408.92 773.12 406.27 769.03 402.73C764.94 399.2 761.63 394.89 759.09 389.8C756.55 384.72 755.28 378.86 755.28 372.23C755.28 367.37 756.11 362.45 757.77 357.48C759.43 352.51 761.97 347.87 765.39 343.56C768.82 339.25 773.12 335.27 778.32 331.63C783.51 327.98 789.76 325.06 797.05 322.85C803.02 321.08 809.2 319.54 815.61 318.21C822.02 316.88 828.04 315.34 833.68 313.57C839.31 311.8 844.17 309.48 848.26 306.61C852.35 303.74 855.16 299.76 856.71 294.68V291.03C856.71 278.43 854.83 269.43 851.07 264.01C847.31 258.6 843 255.89 838.14 255.89C832.84 255.89 827.75 258.54 822.89 263.85C818.03 269.15 815.27 276.01 814.6 284.4V286.39C814.6 289.26 815.04 292.52 815.93 296.17C816.81 299.82 818.36 302.3 820.57 303.63C818.14 306.73 814.71 309.1 810.29 310.76C805.87 312.42 801.12 313.25 796.04 313.25C792.28 313.25 788.58 312.75 784.94 311.76C781.29 310.77 778.03 309.22 775.16 307.12C772.29 305.02 769.97 302.26 768.2 298.83C766.43 295.41 765.55 291.26 765.55 286.4C765.55 279.33 767.54 272.92 771.52 267.17C775.5 261.43 780.74 256.51 787.26 252.42C793.78 248.33 801.18 245.19 809.47 242.97C817.76 240.76 826.32 239.66 835.16 239.66H837.81C846.87 239.88 855.76 241.04 864.49 243.14C873.22 245.24 880.95 248.61 887.69 253.25C894.43 257.89 899.9 263.91 904.1 271.32C908.29 278.73 910.4 287.84 910.4 298.67V386.51C910.4 389.61 911.23 391.81 912.89 393.14C914.55 394.47 916.48 395.13 918.69 395.13C921.12 395.13 923.61 394.47 926.15 393.14C928.69 391.81 930.73 389.94 932.28 387.51L936.59 391.82L936.62 391.8ZM841.82 381.52C844.47 379.98 847.12 377.87 849.78 375.22C852.44 372.57 854.75 369.14 856.74 364.94V311.24C849.89 315.66 842.65 320.85 835.03 326.82C827.41 332.79 821.05 339.31 815.97 346.38C811.77 352.57 809.67 358.76 809.67 364.94C809.67 370.69 811.38 375.55 814.81 379.52C818.23 383.5 822.82 385.49 828.57 385.49C832.77 385.49 837.19 384.16 841.83 381.51L841.82 381.52Z" fill="white"/>
<path d="M324.2 233.63C326.25 233.57 328 232.1 328.41 230.09C328.43 230.04 329.06 227.01 330.45 223.04C331.82 219.07 333.94 214.16 336.94 210.35C340.72 205.53 352.24 201.73 355.98 200.78C357.98 200.28 359.38 198.43 359.32 196.36C359.32 196.32 359.32 196.27 359.3 196.22C359.16 194.08 357.54 192.36 355.42 192.11C351.71 191.66 340.98 189.34 336.04 184.16C330.65 178.52 327.31 168.19 326.48 164.68C325.99 162.64 324.15 161.23 322.06 161.27C319.97 161.33 318.2 162.84 317.81 164.9C317.8 165.01 315.53 176.86 309.7 184.32C306.32 188.62 295.97 192.63 290.24 194.15C288.24 194.67 286.88 196.5 286.94 198.55V198.59C287.02 200.64 288.51 202.38 290.54 202.77C296.58 203.92 307.47 207.13 310.96 210.85C315.2 215.4 318.78 226.48 319.8 230.36C320.32 232.34 322.15 233.72 324.2 233.66V233.63Z" fill="white"/>
<path d="M1174.62 242.94V249.24C1171.08 249.24 1167.93 250.35 1165.17 252.55C1162.4 254.76 1159.92 257.52 1157.71 260.84C1155.5 264.16 1153.57 267.8 1151.91 271.78C1150.25 275.76 1148.76 279.52 1147.44 283.05C1147.22 283.5 1147.11 283.83 1147.11 284.04C1147.11 284.25 1147 284.49 1146.78 284.7L1096.4 413.32H1071.54L1010.88 272.11C1008.67 267.03 1006.63 262.94 1004.75 259.85C1002.88 256.76 1001.1 254.44 999.45 252.89C997.79 251.35 996.13 250.29 994.48 249.74C992.82 249.19 991.11 248.91 989.34 248.91V242.94H1068.56V249.24C1063.92 249.46 1061.6 250.9 1061.6 253.55C1061.6 255.32 1062.15 257.31 1063.26 259.52C1064.36 261.73 1065.47 264.38 1066.57 267.48L1103.37 354L1131.21 281.74C1132.75 277.98 1133.81 274.56 1134.36 271.46C1134.91 268.37 1135.19 265.61 1135.19 263.17C1135.19 253.89 1131.43 249.25 1123.92 249.25V242.95H1174.64L1174.62 242.94Z" fill="white"/>
<path d="M1437.82 399.4C1447.1 397.86 1454.84 395.42 1461.02 392.11C1467.2 388.8 1472.29 384.38 1476.27 378.85C1480.25 373.33 1484 366.37 1487.54 357.97L1493.18 358.96L1489.2 413.32H1342.02V404.04L1431.52 252.22C1420.25 252.67 1410.36 253.71 1401.85 255.37C1393.34 257.03 1385.88 259.51 1379.47 262.83C1373.06 266.14 1367.59 270.35 1363.06 275.43C1358.53 280.52 1354.61 286.7 1351.29 293.99L1345.65 293L1349.96 242.95H1490.51L1494.49 248.24L1403 402.06C1416.92 401.84 1428.52 400.96 1437.81 399.41L1437.82 399.4Z" fill="white"/>
<path d="M1337.77 336.31C1338.08 333.98 1338.26 330.1 1338.26 326.94C1338.26 314.95 1335.99 303.59 1331.45 292.93C1326.88 282.26 1320.64 272.92 1312.76 264.93C1304.85 256.91 1295.6 250.64 1284.9 246.07C1274.23 241.53 1262.93 238.88 1250.91 238.88C1241.91 238.88 1222.9 242.38 1211.55 248.12C1203.94 251.97 1195.62 258.24 1189.01 264.94C1181.13 272.93 1174.89 282.28 1170.35 292.94C1165.78 303.61 1163.51 314.96 1163.51 326.95C1163.51 338.94 1165.78 350.27 1170.35 360.82C1174.89 371.37 1181.13 380.66 1189.01 388.65C1196.92 396.67 1206.2 402.94 1216.87 407.51C1227.54 412.05 1238.89 414.35 1250.88 414.35C1262.87 414.35 1274.22 412.05 1284.89 407.51C1295.59 402.94 1304.84 396.67 1312.75 388.65C1320.63 380.66 1326.87 371.37 1331.44 360.82C1332.85 357.57 1334.33 353.39 1334.98 350.81C1335.88 347.23 1337.27 339.98 1337.77 336.32V336.31ZM1314.24 328.75C1313.4 330.14 1312.01 331.2 1310.35 331.57C1308.15 332.06 1304.71 332.98 1300.72 334.22C1292.13 336.87 1281.07 341.05 1274.49 346.03C1273.95 346.43 1273.43 346.87 1272.93 347.29C1264.54 354.69 1258.03 377.48 1256.22 385.65C1255.6 388.47 1253.1 390.48 1250.21 390.5H1250.19C1247.32 390.5 1244.82 388.52 1244.15 385.72C1242.34 377.85 1235.59 355.75 1226.4 348.1C1226.3 348.03 1226.2 347.95 1226.1 347.88C1212.26 336.5 1190.31 331.62 1190.09 331.57C1187.22 330.95 1185.19 328.43 1185.22 325.51C1185.24 322.59 1187.3 320.07 1190.14 319.47C1190.39 319.42 1213.4 314.54 1226.82 303.14C1227.09 302.89 1227.36 302.67 1227.64 302.42C1240.04 291.26 1244.02 266.09 1244.07 265.84C1244.19 265.1 1244.44 264.38 1244.79 263.74C1245.83 261.88 1247.76 260.65 1249.96 260.57H1250.18C1252.46 260.57 1254.49 261.81 1255.53 263.71C1255.85 264.23 1256.08 264.8 1256.22 265.42C1257.93 273.04 1264.31 294.5 1273.42 302.2L1273.49 302.27C1287.65 314.05 1310.14 319.47 1310.37 319.52C1313.17 320.19 1315.15 322.69 1315.15 325.56C1315.15 326.72 1314.8 327.81 1314.23 328.75H1314.24Z" fill="white"/>
<path d="M1295.91 204.31C1290.28 174.72 1276.54 146.73 1259.08 122.37C1238.35 93.4505 1211.67 68.7805 1180.9 50.8505C1153.23 34.7205 1122.25 24.7905 1091.23 17.3505C1060.71 10.0305 1029.55 5.46049 998.29 2.76049C928.08 -3.31951 857.11 -0.0595417 787.3 8.98046C713.84 18.5005 641.14 34.5005 570.57 57.0305C504.44 78.1405 439.63 104.92 379.62 139.99C372.68 144.04 365.82 148.22 359.03 152.51C354.94 155.1 358.49 160.9 362.77 158.91C417.28 133.54 474.65 114.521 532.92 99.9005C594.06 84.5705 656.44 74.0805 719.19 68.1505C779.51 62.4505 840.33 60.8305 900.82 64.5905C953.91 67.8905 1007.15 75.1705 1058.31 90.0705C1086.07 98.1505 1111.33 111.35 1134.52 128.6C1156.87 145.22 1178.85 165.8 1191.79 190.83C1194.34 195.77 1196.39 200.89 1197.8 206.27C1199.01 210.88 1206.16 208.93 1204.95 204.3C1198.32 179 1179.12 157.52 1160.29 140.3C1137.95 119.88 1112.08 102.58 1084.06 91.0005C1060.39 81.2205 1034.56 75.6005 1009.5 70.6805C982.57 65.3905 955.31 61.7305 927.98 59.2405C867.26 53.7305 806.02 54.0405 745.25 58.5405C681.25 63.2805 617.53 72.7005 554.96 87.0005C494.68 100.78 435.29 119.14 378.51 143.74C371.98 146.57 365.48 149.5 359.03 152.5C360.28 154.63 361.52 156.77 362.77 158.9C420.12 122.68 482.61 94.9005 546.62 72.7805C615.34 49.0305 686.34 31.6805 758.18 20.5305C827.57 9.76051 898.18 4.73049 968.37 8.14049C1029.09 11.0905 1091.81 19.8005 1148.42 43.0005C1210.44 68.4105 1263.53 122.65 1283.89 187.02C1285.89 193.33 1287.52 199.75 1288.75 206.25C1289.64 210.93 1296.79 208.951 1295.9 204.281L1295.91 204.31Z" fill="white"/>
</g>
<defs>
<clipPath id="clip0_490_195">
<rect width="1500" height="414" fill="white"/>
</clipPath>
</defs>
</svg>
