<svg width="651" height="867" viewBox="0 0 651 867" fill="none" xmlns="http://www.w3.org/2000/svg">
<g clip-path="url(#clip0_388_35)">
<path d="M521.86 827.722C503.953 836.998 437.775 866.945 328.075 866.945C225.058 866.945 153.496 836.768 134.144 827.596C131.044 826.129 129.369 822.738 130.061 819.365L154.061 703.537L154.46 703.474C205.477 695.39 265.205 678.595 327.217 654.89C388.642 678.616 448.287 694.595 499.744 701.086L500.77 701.212L525.691 819.616C526.361 822.862 524.812 826.17 521.859 827.72L521.86 827.722Z" fill="white"/>
<path d="M499.347 692.566C451.43 686.408 395.994 671.812 338.904 650.368C350.611 645.74 362.109 641.007 373.103 636.254C409.816 620.423 444.833 603.25 477.105 585.178L499.346 692.566H499.347Z" fill="white"/>
<path d="M411.617 269.212L452.204 204.691C453.817 202.094 452.287 198.702 449.292 198.2L411.617 191.896V122.789L447.492 122.307C451.89 122.264 454.738 117.679 452.853 113.7C441.837 90.7061 406.318 28.4058 341.458 21.1598V12.0914C341.458 5.41091 336.013 -0.0332031 329.332 -0.0332031H326.358C319.698 -0.0332031 314.233 5.41219 314.233 12.0914V21.1598C249.373 28.4058 213.854 90.7061 202.838 113.7C200.932 117.679 203.802 122.264 208.199 122.307L244.074 122.789V190.848L206.23 198.094C203.277 198.66 201.832 202.01 203.424 204.545L244.074 269.212L181.204 574.561L182.105 575.105C213.456 593.89 247.216 611.397 282.463 627.167C297.103 633.721 312.16 640.025 327.239 645.909C341.563 640.38 355.867 634.537 369.774 628.548C406.467 612.758 441.587 595.481 474.175 577.221L475.075 576.718L411.618 269.214L411.617 269.212ZM353.585 172.504C353.585 174.954 351.616 176.923 349.186 176.923H306.504C304.075 176.923 302.086 174.954 302.086 172.504V144.024C302.086 129.868 313.667 118.287 327.845 118.287C334.923 118.287 341.354 121.177 346.023 125.846C350.694 130.517 353.583 136.945 353.583 144.023V172.503L353.585 172.504Z" fill="white"/>
<path d="M315.594 650.326C258.441 671.645 203.277 687.016 155.884 694.785L179.025 583.021C210.293 601.68 243.948 619.124 279.048 634.83C291.299 640.317 303.593 645.51 315.594 650.327V650.326Z" fill="white"/>
<path d="M641.297 666.012C630.323 690.535 597.715 703.309 547.746 703.309C533.442 703.309 517.671 702.241 500.582 700.125L499.555 693.884C499.911 693.78 500.288 693.758 500.665 693.801C573.651 702.994 622.825 691.937 635.558 663.457C648.249 635.123 624.019 591.313 569.085 543.273C567.787 542.143 567.661 540.153 568.792 538.855C569.944 537.535 571.933 537.41 573.232 538.562C631.223 589.261 655.39 634.537 641.296 666.012H641.297Z" fill="white"/>
<path d="M544.468 522.255C543.801 522.255 543.13 522.043 542.56 521.608C518.426 503.11 490.958 484.962 460.914 467.67C459.41 466.805 458.894 464.885 459.76 463.38C460.624 461.876 462.546 461.36 464.05 462.226C494.33 479.655 522.032 497.956 546.383 516.622C547.76 517.677 548.021 519.649 546.966 521.027C546.347 521.834 545.414 522.257 544.471 522.257L544.468 522.255Z" fill="white"/>
<path d="M114.951 538.286C114.292 538.286 113.627 538.078 113.062 537.652C35.0163 478.764 -1.84718 421.869 14.4529 385.455C31.9277 346.413 105.423 337.378 211.048 361.291C212.741 361.674 213.803 363.356 213.418 365.047C213.035 366.741 211.349 367.799 209.662 367.417C108.705 344.565 36.1048 352.459 20.1865 388.022C5.16657 421.575 41.3 475.637 116.844 532.637C118.23 533.682 118.505 535.651 117.46 537.036C116.842 537.855 115.901 538.286 114.951 538.286Z" fill="white"/>
<path d="M180.931 575.629L179.34 581.764C178.984 581.701 178.649 581.575 178.335 581.388C164.345 573.011 150.816 564.341 138.082 555.63C136.658 554.645 136.302 552.698 137.265 551.253C138.249 549.829 140.218 549.473 141.642 550.436C154.061 558.96 167.297 567.441 180.931 575.629Z" fill="white"/>
<path d="M477.754 583.628C477.461 583.795 477.125 583.921 476.812 583.963L475.325 577.765C590.782 513.013 658.01 445.54 642.595 409.814C640.752 405.562 637.694 401.772 633.506 398.548C632.124 397.5 631.851 395.533 632.919 394.15C633.967 392.768 635.935 392.516 637.318 393.564C642.386 397.437 646.092 402.065 648.375 407.344C665.401 446.839 598.426 516.051 477.754 583.629V583.628Z" fill="white"/>
<path d="M456.283 401.682C454.872 401.682 453.591 400.725 453.236 399.296C452.818 397.612 453.846 395.908 455.53 395.491C467.098 392.627 491.707 386.992 501.997 384.933C503.705 384.584 505.353 385.697 505.694 387.397C506.034 389.099 504.93 390.753 503.23 391.093C493.201 393.101 468.303 398.801 457.042 401.59C456.788 401.653 456.534 401.682 456.283 401.682Z" fill="white"/>
<path d="M28.6718 637.971C28.114 637.971 27.551 637.823 27.0408 637.512C25.5588 636.61 25.0897 634.679 25.9919 633.197C48.7943 595.77 106.496 549.044 184.301 505C185.81 504.143 187.727 504.675 188.581 506.186C189.436 507.695 188.905 509.611 187.395 510.466C110.493 554 53.6193 599.924 31.3555 636.465C30.7643 637.437 29.7295 637.973 28.6705 637.973L28.6718 637.971Z" fill="white"/>
<path d="M153.543 696.434L152.009 702.751C130.259 705.315 110.664 706.298 93.5923 705.712C71.5238 704.955 53.6634 701.575 40.709 695.662C39.1281 694.937 38.4302 693.069 39.1641 691.481C39.8774 689.913 41.7539 689.223 43.3554 689.949C65.4328 700.052 103.161 702.291 152.433 696.375C152.826 696.326 153.195 696.359 153.543 696.434Z" fill="white"/>
<path d="M615.578 386.301L611.254 387.753C593.884 393.587 580.703 407.191 576.823 425.097L573.183 443.59C572.681 445.906 569.398 445.963 568.817 443.665L564.103 425.097C559.841 408.233 547.212 393.675 530.812 387.874L526.33 386.288C524.24 385.549 524.376 382.548 526.524 382.001L526.563 381.99C545.314 377.211 559.643 361.523 564.105 342.694L568.81 324.639C569.364 322.3 572.711 322.354 573.19 324.71L576.825 342.695C580.842 362.473 595.777 377.249 615.394 381.995C617.581 382.525 617.713 385.585 615.581 386.301H615.578Z" fill="white"/>
<path d="M21.9744 689.571C34.1192 689.571 43.9644 679.727 43.9644 667.583C43.9644 655.439 34.1192 645.594 21.9744 645.594C9.82964 645.594 -0.015625 655.439 -0.015625 667.583C-0.015625 679.727 9.82964 689.571 21.9744 689.571Z" fill="white"/>
</g>
<defs>
<clipPath id="clip0_388_35">
<rect width="651" height="867" fill="white"/>
</clipPath>
</defs>
</svg>
