<?xml version="1.0" encoding="UTF-8"?><svg id="Camada_1" xmlns="http://www.w3.org/2000/svg" viewBox="0 0 1000 1000"><defs><style>.cls-1{fill:#4b0aa6;}.cls-2{fill:#3a008c;}.cls-3{fill:none;stroke:#e8e8e8;stroke-miterlimit:10;stroke-width:.66px;}.cls-4{fill:#621fbf;}</style></defs><path class="cls-1" d="m947.77,297.69c-63.16,13.32-130.13,8.46-194.25-2.68-79.97-13.89-158.37-37.13-239.09-45.65-159.23-16.8-317.54,24.25-471.61,70.78,12.72-32.52,28.79-63.35,47.78-92.06,47.62,3.27,95.38,2.64,140.28-12.43,54.96-18.43,100.54-56.77,148.44-89.49,68.69-46.94,144.51-83.25,223.95-107.73,52.03,11.16,100.99,30.61,145.46,56.87-40.1,6.12-80.02,13.42-119.7,21.88-22.23,4.74-48.96,14.63-51.65,37.27-1.65,13.8,7.43,27.13,19.17,34.51,11.75,7.39,25.78,9.99,39.46,12.23,84.55,13.82,170.12,19.09,255.8,21.96,21.99,29.15,40.82,60.83,55.98,94.54Z"/><path class="cls-2" d="m891.79,203.15c-85.68-2.87-171.25-8.14-255.8-21.96-13.68-2.24-27.71-4.84-39.46-12.23-11.74-7.38-20.82-20.71-19.17-34.51,2.69-22.64,29.42-32.53,51.65-37.27,39.68-8.46,79.6-15.76,119.7-21.88h0c55.65,32.86,104.27,76.41,143.06,127.85Z"/><path class="cls-4" d="m987.42,440.45c-43.99,20.64-94.79,28.23-143.69,25.63-72.92-3.87-143.1-27.94-211.82-52.72-68.72-24.77-137.96-50.69-210.56-58.55-82.03-8.87-165.22,5.85-243.57,31.75-57.34,18.96-112.47,43.8-166.88,70.18,4.14-47.82,15.11-93.69,31.91-136.61,154.07-46.53,312.38-87.58,471.61-70.78,80.72,8.52,159.12,31.76,239.09,45.65,64.12,11.14,131.09,16,194.25,2.68,19.99,44.47,33.61,92.45,39.65,142.76Z"/><path class="cls-2" d="m990.97,500c0,6.41-.13,12.8-.37,19.15h0c-22.35,8.3-47.07,11.84-70.86,11.78-48.36-.13-95.92-12.32-144.22-14.89-48.29-2.57-100.72,6.41-134.63,41-35.64,36.35-42.65,91.79-68.93,135.43-29.23,48.54-80.47,79.42-132.45,101.74-51.97,22.32-106.96,38.22-155.86,66.69-21.61,12.58-42.21,28.27-59.33,46.68-39.49-26.92-74.85-59.46-104.96-96.48,25.61-25.2,59.1-42.93,93.24-55.16,47.57-17.05,97.85-25.25,145.96-40.7,48.12-15.46,95.72-39.68,125.46-80.65,29.73-40.96,36.64-101.64,5.39-141.45-29.48-37.56-82.63-46.86-130.18-43.86-121.42,7.64-229.98,75.51-346.68,110.05-2.33-19.45-3.53-39.25-3.53-59.33,0-14.57.63-29,1.87-43.25,54.41-26.38,109.54-51.22,166.88-70.18,78.35-25.9,161.54-40.62,243.57-31.75,72.6,7.85,141.84,33.78,210.56,58.55,68.72,24.78,138.9,48.85,211.82,52.72,48.9,2.6,99.7-4.99,143.69-25.63,2.34,19.52,3.55,39.39,3.55,59.55Z"/><path class="cls-1" d="m484.04,634.59c-29.74,40.96-77.34,65.19-125.46,80.65-48.11,15.45-98.39,23.65-145.96,40.7-34.14,12.23-67.63,29.96-93.24,55.16-22.4-27.54-41.89-57.56-57.99-89.58,96.4-45.49,216.8-49.9,295.29-123.25,10.82-10.11,21.15-26.15,13.2-38.67-6.63-10.44-21.48-10.79-33.77-9.62-107.1,10.17-211.67,45.73-303.06,102.62-9.72-29.93-16.65-61.12-20.49-93.26,116.7-34.54,225.26-102.41,346.68-110.05,47.56-3,100.7,6.31,130.18,43.86,31.25,39.81,24.35,100.48-5.39,141.45Z"/><path class="cls-2" d="m356.68,598.27c-78.5,73.35-198.89,77.76-295.29,123.25-11.1-22.07-20.6-45.1-28.33-68.93,91.39-56.88,195.97-92.45,303.06-102.62,12.29-1.16,27.13-.82,33.77,9.62,7.95,12.52-2.38,28.56-13.2,38.67Z"/><path class="cls-4" d="m990.6,519.16c-1.52,39.97-7.79,78.72-18.27,115.7-50.6,1.08-101.39,6.27-145.38,30.28-70.14,38.28-107.89,115.44-157.43,178.24-50.33,63.81-116.25,115.04-190.09,148.67h0c-94.34-3.9-181.81-34.5-255.09-84.47,17.12-18.41,37.72-34.1,59.33-46.68,48.9-28.47,103.88-44.37,155.86-66.69,51.98-22.32,103.21-53.2,132.45-101.74,26.28-43.64,33.3-99.08,68.93-135.43,33.9-34.58,86.34-43.57,134.63-41,48.29,2.57,95.86,14.76,144.22,14.89,23.79.06,48.51-3.47,70.86-11.77Z"/><path class="cls-1" d="m972.33,634.86c-58.46,206.43-247.8,357.62-472.33,357.62-6.9,0-13.75-.15-20.57-.43,73.84-33.63,139.76-84.85,190.09-148.67,49.54-62.8,87.29-139.97,157.43-178.24,43.99-24.01,94.78-29.2,145.38-30.28Z"/><path class="cls-2" d="m603.26,18.43c-79.44,24.48-155.26,60.8-223.95,107.73-47.89,32.73-93.48,71.06-148.44,89.49-44.91,15.06-92.67,15.7-140.28,12.43C178.51,95.16,329.05,7.52,500,7.52c35.42,0,69.97,3.77,103.26,10.91Z"/><ellipse class="cls-3" cx="500" cy="500" rx="492.29" ry="493.8"/></svg>