<?xml version="1.0" encoding="UTF-8"?><svg id="Camada_1" xmlns="http://www.w3.org/2000/svg" viewBox="0 0 1000 1000"><defs><style>.cls-1{fill:#d9662b;}.cls-2{fill:#f9884e;}.cls-3{fill:none;stroke:#e8e8e8;stroke-miterlimit:10;stroke-width:.66px;}.cls-4{fill:#ff9c69;}</style></defs><path class="cls-2" d="m763.57,789.25c-8.42,8.44-13.64,20.08-13.64,32.89,0,25.62,20.89,46.57,46.43,46.57h30.12c-86.83,77.41-201.18,124.43-326.48,124.43-183.35,0-343.27-100.69-427.79-249.95h276.97c12.77,0,24.38-5.24,32.79-13.68,8.42-8.44,13.64-20.08,13.64-32.89,0-25.62-20.89-46.57-46.43-46.57h125.13c12.77,0,24.38-5.24,32.79-13.68,8.42-8.44,13.64-20.08,13.64-32.89,0-25.62-20.89-46.57-46.43-46.57H11.61c-2.14-18.67-3.24-37.66-3.24-56.9,0-95.78,27.22-185.18,74.33-260.85h262.54c12.77,0,24.38-5.24,32.79-13.68,8.42-8.44,13.64-20.08,13.64-32.89,0-25.62-20.89-46.57-46.43-46.57h-187.52C246.23,59.88,366.94,6.86,500,6.86c212.07,0,392.79,134.7,461.75,323.46h-459.77c-12.77,0-24.38,5.24-32.79,13.68-8.42,8.44-13.64,20.08-13.64,32.89,0,25.62,20.89,46.57,46.43,46.57h483.76c3.88,24.94,5.89,50.5,5.89,76.54,0,102.06-30.91,196.89-83.86,275.56h-111.41c-12.77,0-24.38,5.24-32.79,13.68Z"/><path class="cls-4" d="m391.66,192.58c0,12.81-5.22,24.46-13.64,32.89-8.41,8.44-20.02,13.68-32.79,13.68H82.7c21.21-34.05,46.43-65.33,75.02-93.15h187.52c25.54,0,46.43,20.95,46.43,46.57Z"/><path class="cls-1" d="m985.74,423.46h-483.76c-25.54,0-46.43-20.95-46.43-46.57,0-12.81,5.22-24.46,13.64-32.89,8.41-8.44,20.02-13.68,32.79-13.68h459.77c10.89,29.81,18.99,60.96,23.99,93.15Z"/><path class="cls-1" d="m907.77,775.56c-23.14,34.38-50.48,65.68-81.29,93.15h-30.12c-25.54,0-46.43-20.95-46.43-46.57,0-12.81,5.22-24.46,13.64-32.89,8.41-8.44,20.02-13.68,32.79-13.68h111.41Z"/><path class="cls-4" d="m520.75,603.48c0,12.81-5.22,24.46-13.64,32.89-8.41,8.44-20.02,13.68-32.79,13.68H31.55c-9.52-29.91-16.26-61.06-19.94-93.15h462.7c25.54,0,46.43,20.95,46.43,46.57Z"/><path class="cls-1" d="m395.62,696.62c0,12.81-5.22,24.46-13.64,32.89-8.41,8.44-20.02,13.68-32.79,13.68H72.21c-16.6-29.3-30.28-60.49-40.67-93.15h317.64c25.54,0,46.43,20.95,46.43,46.57Z"/><ellipse class="cls-3" cx="500" cy="500" rx="492.29" ry="493.8"/></svg>