<?xml version="1.0" encoding="UTF-8"?><svg id="Camada_1" xmlns="http://www.w3.org/2000/svg" viewBox="0 0 1000 1000"><defs><style>.cls-1{fill:#9300b2;}.cls-2{fill:#b015d1;}.cls-3{fill:none;stroke:#e8e8e8;stroke-miterlimit:10;stroke-width:.66px;}.cls-4{fill:#ca2feb;}</style></defs><path class="cls-4" d="m984.43,401.13c-87.05,38.55-188.82,44.47-278.66,12.44-109.1-38.9-193.25-125.37-287.8-192.4-73.53-52.12-165.08-93.43-251.79-86.78C254.12,53.54,371.32,4.22,500,4.22c69.69,0,136.02,14.47,196.14,40.57-7.48,10.33-13.18,21.91-16.45,34.19-13.54,50.81,9.13,106.79,48.17,141.89,39.05,35.1,91.86,51.55,144.1,56.04,23.05,1.98,46.28,1.81,69.31-.48,19.63,38.9,34.29,80.75,43.16,124.7Z"/><path class="cls-2" d="m984.43,401.13c-87.05,38.55-188.82,44.47-278.66,12.44-109.1-38.9-193.25-125.37-287.8-192.4-73.53-52.12-165.08-93.43-251.79-86.78-29.05,26.7-54.91,56.83-76.92,89.76,27.72,9.26,51.8,31.08,60.8,59.2,15.23,47.62-12.55,103.89-58.35,123.62-24.51,10.56-52.38,10.7-77.76,2.58-5.39,29.33-8.21,59.57-8.21,90.46,0,36.5,3.93,72.09,11.4,106.35,51.76-70.31,155.75-93.85,242.51-72.22,95.95,23.93,175.25,89.84,249.61,155.2,74.37,65.37,150.39,133.87,244.25,165.04,24.54,8.15,50.7,13.01,76.99,14.29,100.54-90.75,163.77-222.29,163.77-368.65,0-33.86-3.39-66.92-9.83-98.87Zm-212.11,343.3c-62.38,0-112.95-50.72-112.95-113.29s50.57-113.29,112.95-113.29,112.95,50.72,112.95,113.29-50.57,113.29-112.95,113.29Z"/><path class="cls-1" d="m830.49,868.65c-49.38,44.57-107.76,79.31-172.07,101.12-41.22-20.06-78.81-52.26-108.84-87.05-58.08-67.28-102.72-148.15-174.71-200.17-96.96-70.07-236.98-70.2-336.89-6.04-8.6-22.64-15.6-46.06-20.84-70.16h0c51.76-70.31,155.75-93.86,242.51-72.23,95.95,23.93,175.25,89.84,249.61,155.2,74.37,65.37,150.39,133.87,244.25,165.04,24.54,8.15,50.7,13.01,76.99,14.29Z"/><path class="cls-2" d="m658.43,969.77c-49.74,16.87-103.01,26.01-158.43,26.01s-112.19-9.76-163.31-27.71c10.35-32.67,9.93-68.88-2.51-100.87-19.24-49.49-66.48-86.89-118.93-94.16-37.84-5.25-77.31,5.32-108.34,27.54-28.56-37.52-51.89-79.23-68.93-124.07,99.91-64.16,239.93-64.03,336.89,6.04,71.99,52.02,116.63,132.89,174.71,200.17,30.03,34.79,67.62,66.99,108.84,87.05Z"/><path class="cls-4" d="m336.69,968.08c-92.08-32.32-171.72-91.2-229.78-167.49,31.03-22.22,70.5-32.79,108.34-27.54,52.46,7.27,99.69,44.67,118.93,94.16,12.44,31.99,12.86,68.19,2.51,100.87Z"/><path class="cls-1" d="m941.27,276.43c-23.02,2.29-46.26,2.46-69.31.48-52.24-4.49-105.06-20.94-144.1-56.04-39.04-35.1-61.71-91.08-48.17-141.89,3.27-12.27,8.97-23.86,16.45-34.19,106.21,46.11,193.11,128.52,245.13,231.64Z"/><path class="cls-1" d="m91.71,406.97c-24.51,10.56-52.38,10.7-77.76,2.58,12.43-67.6,38.52-130.4,75.31-185.4,27.72,9.26,51.8,31.08,60.8,59.2,15.23,47.62-12.55,103.89-58.35,123.62Z"/><ellipse class="cls-1" cx="772.32" cy="631.13" rx="112.95" ry="113.29"/><ellipse class="cls-3" cx="500" cy="500" rx="492.29" ry="493.8"/></svg>