<?xml version="1.0" encoding="UTF-8"?><svg id="Camada_1" xmlns="http://www.w3.org/2000/svg" viewBox="0 0 1000 1000"><defs><style>.cls-1{fill:#cc101d;}.cls-2{fill:#ff4551;}.cls-3{fill:#e62633;}.cls-4{fill:none;stroke:#e8e8e8;stroke-miterlimit:10;stroke-width:.66px;}</style></defs><path class="cls-3" d="m820.63,474.08c16.67-7.27,35.66-.17,53.77,1.42,18.11,1.6,41.28-8.35,39.74-26.51-2.34-27.54-52.41-23.25-61.39-49.39-7.65-22.26,21.1-39.06,30.05-60.83,11.26-27.42-11.2-56.84-34.67-74.88-23.47-18.05-51.8-35.42-58.33-64.35-5.38-23.85,6.73-48.93,24.64-65.52,2.62-2.43,5.35-4.7,8.17-6.85C736.21,51.91,623.41,6.36,500,6.36c-92.18,0-178.44,25.41-252.21,69.63,12.6,19.93,42.53,17.24,66.15,13.48,81.58-13,166.28-5.87,244.56,20.57,5.3,1.79,11,4,13.86,8.82,6.75,11.38-7.68,24.12-20.61,26.79-12.93,2.68-28.66,3.1-35.51,14.42-8.65,14.29,6.49,32.9,22.89,35.83,16.39,2.93,32.84-3.49,49.34-5.73,16.51-2.25,36.68,1.98,42.95,17.46,6.51,16.06-6.97,34.38-23.23,40.25-16.25,5.87-34.13,3.19-51.38,2.14-54.37-3.33-109.68,10.73-155.9,39.64-13.83,8.65-28.03,27.24-16.85,39.13,5.24,5.57,13.75,6.19,20.5,9.75,19.43,10.26,16.3,41.71-.36,56.06-16.67,14.35-40.2,16.5-62.06,18.6-78.23,7.5-155.75,22.5-231.16,44.7-7.53,2.22-16.05,5.43-18.67,12.86-3.52,9.98,6.5,19.95,16.67,22.77s21.27,1.68,31.08,5.57c9.82,3.89,17.65,16.58,11.18,24.94-45.42,15.66-92.84,25.5-140.72,29.27,7.97,74.78,32.59,144.57,70.06,205.56,2.47-3.07,5.1-6,7.85-8.77,22.31-22.41,51.71-36,80.44-49.12,41.13-18.8,82.26-37.59,123.39-56.38,13.6-6.21,30.68-12.09,42.39-2.79,20.2,16.06-2.83,49.6,5.26,74.15,6.67,20.22,31.46,26.93,52.55,29.37,21.09,2.44,45.57,5.63,56.52,23.87,10.74,17.89,3.63,43.89,17.91,59.11,8.73,9.31,22.5,11.15,34.49,15.47,30.3,10.9,51.41,39.73,61.25,70.48,7.66,23.92,9.53,49.13,10.07,74.36,113.66-16.87,214.65-72.71,289.06-153.55-.39-1.05-.76-2.1-1.09-3.17-10.36-33.18-.23-68.87,8.87-102.42,9.1-33.56,16.94-70.44,2.62-102.11-12.86-28.47-41.03-46.64-59.21-72.03-18.17-25.38-20.91-68.8,7.67-81.25Zm-153.57,11.72c-8.01,19.2-34.09,31.17-31.52,51.82,2.11,16.87,23.3,26.66,24.69,43.61.98,12.01-8.69,22.31-19,28.53-10.31,6.21-22.13,10.3-30.68,18.78-7.39,7.34-11.57,17.23-16.65,26.34-5.08,9.11-11.88,18.14-21.76,21.41-9.89,3.27-24.67-27.54-29.38-36.85-13.24-26.23-43.74-44.54-56.13-71.18-3.18-6.83-6.08-14.49-3.98-21.72,4.42-15.18,24.85-16.27,39.44-22.28,27.31-11.24,37.16-44.36,56.72-66.54,14.62-16.58,37.47-27.5,58.94-22.37,21.46,5.14,37.82,30.04,29.3,50.46Z"/><path class="cls-1" d="m572.71,988.61c-23.72,3.53-48,5.35-72.71,5.35-177.32,0-332.74-94.04-419.41-235.11,2.47-3.07,5.1-6,7.85-8.77,22.31-22.41,51.71-36,80.44-49.12,41.13-18.8,82.26-37.59,123.39-56.38,13.6-6.21,30.68-12.09,42.39-2.79,20.2,16.06-2.83,49.6,5.26,74.15,6.67,20.22,31.46,26.93,52.55,29.37,21.09,2.44,45.57,5.63,56.52,23.87,10.74,17.89,3.63,43.89,17.91,59.11,8.73,9.31,22.5,11.15,34.49,15.47,30.3,10.9,51.41,39.73,61.25,70.48,7.66,23.92,9.53,49.13,10.07,74.36Z"/><path class="cls-2" d="m992.29,500.16c0,129.24-49.5,246.89-130.51,334.9-.39-1.05-.76-2.1-1.09-3.17-10.36-33.18-.23-68.87,8.87-102.42,9.1-33.56,16.94-70.44,2.62-102.11-12.86-28.47-41.03-46.64-59.21-72.03-18.17-25.38-20.91-68.8,7.67-81.25,16.67-7.27,35.66-.17,53.77,1.42,18.11,1.6,41.28-8.35,39.74-26.51-2.34-27.54-52.41-23.25-61.39-49.39-7.65-22.26,21.1-39.06,30.05-60.83,11.26-27.42-11.2-56.84-34.67-74.88-23.47-18.05-51.8-35.42-58.33-64.35-5.38-23.85,6.73-48.93,24.64-65.52,2.62-2.43,5.35-4.7,8.17-6.85,103.95,90.53,169.68,224.07,169.68,373Z"/><path class="cls-2" d="m608.2,247.88c-16.25,5.87-34.13,3.19-51.38,2.14-54.37-3.33-109.68,10.73-155.9,39.64-13.83,8.65-28.03,27.24-16.85,39.13,5.24,5.57,13.75,6.19,20.5,9.75,19.43,10.26,16.3,41.71-.36,56.06-16.67,14.35-40.2,16.5-62.06,18.6-78.23,7.5-155.75,22.5-231.16,44.7-7.53,2.22-16.05,5.43-18.67,12.86-3.52,9.98,6.5,19.95,16.67,22.77s21.27,1.68,31.08,5.57c9.82,3.89,17.65,16.58,11.18,24.94-45.42,15.66-92.84,25.5-140.72,29.27-1.87-17.45-2.82-35.18-2.82-53.14,0-180.25,96.29-337.96,240.08-424.17,12.6,19.93,42.53,17.24,66.15,13.48,81.58-13,166.28-5.87,244.56,20.57,5.3,1.79,11,4,13.86,8.82,6.75,11.38-7.68,24.12-20.61,26.79-12.93,2.68-28.66,3.1-35.51,14.42-8.65,14.29,6.49,32.9,22.89,35.83,16.39,2.93,32.84-3.49,49.34-5.73,16.51-2.25,36.68,1.98,42.95,17.46,6.51,16.06-6.97,34.38-23.23,40.25Z"/><path class="cls-1" d="m667.06,485.8c-8.01,19.2-34.09,31.17-31.52,51.82,2.11,16.87,23.3,26.66,24.69,43.61.98,12.01-8.69,22.31-19,28.53-10.31,6.21-22.13,10.3-30.68,18.78-7.39,7.34-11.57,17.23-16.65,26.34-5.08,9.11-11.88,18.14-21.76,21.41-9.89,3.27-24.67-27.54-29.38-36.85-13.24-26.23-43.74-44.54-56.13-71.18-3.18-6.83-6.08-14.49-3.98-21.72,4.42-15.18,24.85-16.27,39.44-22.28,27.31-11.24,37.16-44.36,56.72-66.54,14.62-16.58,37.47-27.5,58.94-22.37,21.46,5.14,37.82,30.04,29.3,50.46Z"/><ellipse class="cls-4" cx="500" cy="499.84" rx="492.29" ry="493.8"/></svg>