<?xml version="1.0" encoding="UTF-8"?><svg id="Camada_1" xmlns="http://www.w3.org/2000/svg" viewBox="0 0 1800 1000"><defs><style>.cls-1{fill:#d9662b;}.cls-2{fill:#f9884e;}.cls-3{fill:none;stroke:#e8e8e8;stroke-miterlimit:10;stroke-width:.66px;}.cls-4{fill:#ff9c69;}</style></defs><path class="cls-2" d="m861.02,993.53c-176.07-13.19-326.32-119.74-402.04-270.68,16.21,2.31,32.73,4.49,49.54,6.54,4.21.51,8.43,1.01,12.66,1.52,8.77,1.03,17.63,2.01,26.58,2.97,4,.44,8.03.86,12.06,1.28,4.22.44,8.46.86,12.71,1.28,1.95.19,3.88.38,5.82.56,3.28.33,6.58.65,9.88.94,4.97.45,9.97.91,14.97,1.35,4.32.38,8.65.77,13.01,1.12,3.33.28,6.69.56,10.03.82,3.81.31,7.63.61,11.45.89,2.99.24,5.98.47,8.96.68,3.38.24,6.76.49,10.15.73,8.06.56,16.16,1.1,24.28,1.61,4.64.3,9.28.58,13.93.86,4.24.25,8.49.49,12.75.72,5.11.28,10.23.55,15.37.8,3.94.2,7.89.39,11.85.58,3.55.16,7.08.32,10.63.45,1.98.09,3.98.18,5.97.26,2.9.13,5.82.24,8.74.35,1.2.05,2.4.09,3.6.14,2.33.09,4.65.18,6.98.26.45.02.9.03,1.35.05,7.49.26,14.99.51,22.53.72,3.98.13,7.99.23,12,.33,3.04.07,6.1.15,9.16.23,1.02.02,2.05.05,3.07.07.69.01,1.39.01,2.1.03,1.41.02,2.81.05,4.24.09,22.06,66.07,35.23,146.04,35.66,242.44Z"/><path class="cls-1" d="m1337.01,722.85c-80.96,161.4-247.15,272.06-439.02,272.06-12.44,0-24.77-.47-36.98-1.38-.43-96.39-13.6-176.37-35.66-242.44,1.06.02,2.1.05,3.16.07,3,.05,6.02.11,9.05.16,1.67.01,3.36.05,5.04.07.51,0,1.01.02,1.52.02.54.02,1.06.02,1.6.03,2.47.04,4.95.07,7.42.11.62,0,1.23.02,1.86.02,3.77.05,7.54.09,11.3.12,10.53.09,21.09.14,31.7.14,159.6,0,309.41-10.53,439.02-28.98Z"/><path class="cls-2" d="m996.4,15c-30.61,13.4-57.68,39.15-78.74,66.16-32.97,42.29-60.13,91.59-105.36,120.18-44.21,27.96-102.76,31.34-149.85,8.62-28.52-13.74-52.28-35.94-80.4-50.48-9.37-4.84-19.66-8.67-30.18-10.91-43.93,43.86-79.67,96-104.74,153.92,48.39-8.43,99.79,2.26,146.69,19.05,56.97,20.39,110.92,49.49,169.44,64.86,67.29,17.7,139.39,16.39,206-3.74,35.57-10.75,70.31-27.3,96.26-54.04,30.43-31.34,46.48-74.1,74.21-107.89,27.77-33.85,67.46-57.27,110.05-66.4-67.44-69.59-155.09-119.22-253.39-139.33Zm35.82,285.65c-9.59,13.93-25.34,27.26-46.16,39.05-13.05,7.36-28.91,14.38-49.03,17.53-20.14,3.15-58.34-2.01-67.02-8.38-21.15-15.5-2.63-53.44,36.64-73.16,14.13-7.1,31.28-13.45,51.55-16.61,20.26-3.17,43.87-2.72,59.9,2.72,24.88,8.45,23.53,25.14,14.12,38.85Z"/><path class="cls-1" d="m1385,432.27c-35.43-18.97-75.85-28.48-115.98-26.96-17.04.65-37.73,1.55-47.06-12.84-3.96-6.12-4.72-13.76-4.59-21.06.66-34.73,21.04-68.38,51.4-84.89,19-10.34,41.51-14.46,61.53-22.3-21.76-40.35-48.93-77.31-80.52-109.89-42.59,9.13-82.28,32.55-110.05,66.4-27.72,33.79-43.77,76.55-74.21,107.89-25.95,26.74-60.69,43.28-96.26,54.04-66.61,20.13-138.71,21.44-206,3.74-58.52-15.37-112.47-44.47-169.44-64.86-46.9-16.79-98.3-27.48-146.69-19.05-4.74,10.93-9.08,22.09-13.04,33.42-7.97,22.88-14.33,46.5-18.93,70.78-3.28,17.31-5.66,34.96-7.08,52.87,95.53-5.09,227.28,21.67,324.06,127.85,3.72.16,7.46.32,11.19.47.73.03,1.45.05,2.17.09,1.56.05,3.13.13,4.69.18,2.3.09,4.61.17,6.91.26.49.02.99.04,1.5.05,2.34.09,4.7.18,7.05.25,2.26.09,4.53.15,6.81.22,3.16.11,6.34.19,9.52.3,3.19.09,6.39.18,9.58.28.47,0,.92.01,1.39.03,3.44.09,6.88.18,10.32.26,3.46.09,6.91.16,10.39.22,3.47.09,6.95.16,10.44.21,2.62.05,5.23.11,7.85.14,2.62.03,5.27.07,7.89.12,5.26.09,10.54.16,15.86.21,14.12.16,28.38.22,42.75.22,193.6,0,367.7-13.94,488.14-36.11,1.98-18.01,2.99-36.29,2.99-54.82,0-22.98-1.54-45.59-4.57-67.74Z"/><path class="cls-2" d="m732.14,587.41c-.16,0-.31-.02-.47-.02-1.82-.09-3.65-.16-5.45-.24-1.81-.07-3.61-.16-5.42-.24-4.08-.19-8.13-.38-12.18-.59-2.21-.1-4.41-.21-6.6-.33-.69-.03-1.39-.07-2.08-.1-.31-.02-.61-.04-.92-.05-3.49-.19-6.95-.37-10.4-.56-2.21-.12-4.39-.24-6.58-.38-6.77-.4-13.51-.8-20.18-1.24-3.35-.21-6.67-.42-9.99-.65-3.3-.23-6.6-.45-9.88-.68-2.62-.17-5.25-.37-7.85-.56-5.21-.38-10.4-.77-15.55-1.17-.07,0-.12-.02-.19-.02-1.81-.14-3.61-.28-5.42-.44-1.81-.14-3.61-.3-5.4-.44-3.18-.26-6.34-.52-9.48-.79-3.33-.3-6.65-.58-9.95-.87-2.48-.23-4.99-.44-7.45-.68-1.63-.14-3.25-.3-4.88-.45-2.26-.21-4.5-.42-6.74-.63-1.04-.1-2.1-.21-3.14-.31-1.7-.16-3.4-.33-5.11-.51-2.8-.28-5.56-.56-8.32-.84-2.76-.28-5.52-.58-8.25-.86-4.64-.51-9.24-1-13.79-1.52-5.14-.58-10.21-1.17-15.23-1.77-2.36-.28-4.72-.56-7.09-.86-2.35-.28-4.69-.58-7-.87-1.41-.19-2.83-.37-4.24-.54-1.41-.17-2.8-.35-4.19-.54-2.03-.26-4.05-.54-6.06-.8-3.53-.47-7.03-.94-10.49-1.43-2.47-.35-4.93-.7-7.36-1.05-3-.42-5.98-.86-8.93-1.29-2.21-.33-4.39-.66-6.58-1s-4.38-.66-6.53-1.01c-1.44-.23-2.87-.45-4.29-.68-7.14-1.14-14.12-2.31-20.93-3.52-1.35-.23-2.69-.47-4.03-.72-2.71-.47-5.4-.96-8.08-1.45-1.96-17.96-2.97-36.2-2.97-54.67,0-13.62.54-27.11,1.63-40.45,95.53-5.09,227.28,21.67,324.07,127.86Z"/><path class="cls-2" d="m1384.99,432.27c-35.43-18.97-75.85-28.49-115.98-26.97-17.04.65-37.73,1.56-47.05-12.84-3.96-6.12-4.72-13.76-4.59-21.06.66-34.73,21.03-68.38,51.4-84.89,19-10.34,41.51-14.46,61.54-22.3,12.33,22.86,22.91,46.82,31.6,71.68,7.96,22.82,14.3,46.4,18.9,70.62,1.62,8.5,3.02,17.09,4.19,25.74Z"/><path class="cls-4" d="m873.28,5.7c-11.88,12.22-22.13,26.72-31.06,41.01-20.72,33.16-41.24,70.13-76.83,85.97-39.34,17.52-86.22,3.32-121.66-21.25-8.41-5.82-17.18-12.38-26.21-17.93,73.21-51.31,160.95-83.07,255.75-87.81Z"/><path class="cls-1" d="m996.4,15c-30.61,13.4-57.68,39.16-78.74,66.16-32.97,42.29-60.13,91.59-105.36,120.18-44.21,27.96-102.76,31.34-149.85,8.62-28.52-13.75-52.28-35.94-80.4-50.47-9.36-4.84-19.66-8.67-30.17-10.91,20.24-20.2,42.19-38.65,65.66-55.07,9.03,5.54,17.8,12.1,26.21,17.93,35.43,24.57,82.31,38.77,121.66,21.25,35.59-15.84,56.1-52.81,76.83-85.97,8.93-14.29,19.18-28.79,31.06-41.01,8.18-.4,16.43-.61,24.72-.61,33.7,0,66.61,3.41,98.4,9.92Z"/><path class="cls-1" d="m1032.21,300.65c-9.59,13.93-25.34,27.26-46.15,39.05-13.05,7.36-28.92,14.38-49.04,17.53-20.12,3.15-58.33-2.01-67.02-8.38-21.14-15.51-2.63-53.44,36.64-73.16,14.13-7.1,31.29-13.45,51.55-16.6,20.26-3.17,43.88-2.72,59.9,2.72,24.88,8.45,23.53,25.14,14.12,38.85Z"/><ellipse class="cls-3" cx="896.68" cy="499.22" rx="492.29" ry="493.8"/><path class="cls-4" d="m1790.37,527.55c0,83.75-182.66,156.8-453.35,195.31-129.61,18.45-279.42,28.98-439.02,28.98-10.61,0-21.17-.05-31.7-.14-3.77-.03-7.54-.07-11.3-.12-.63,0-1.24-.02-1.86-.02-2.47-.03-4.95-.07-7.42-.11-.54-.01-1.06-.01-1.6-.03-.51,0-1.01-.02-1.52-.02-1.68-.01-3.37-.05-5.04-.07-3.02-.05-6.04-.11-9.05-.16-1.06-.02-2.1-.05-3.16-.07-1.43-.03-2.83-.07-4.24-.09-.71-.02-1.41-.02-2.1-.03-1.03-.02-2.05-.05-3.07-.07-3.06-.09-6.12-.16-9.16-.23-4.01-.1-8.03-.2-12-.33-7.54-.21-15.04-.45-22.53-.72-.45-.02-.9-.03-1.35-.05-2.33-.09-4.65-.17-6.98-.26-1.2-.05-2.4-.09-3.6-.14-2.92-.11-5.84-.22-8.74-.35-1.99-.09-3.99-.18-5.97-.26-3.55-.14-7.08-.3-10.63-.45-3.96-.19-7.9-.38-11.85-.58-5.14-.26-10.26-.52-15.37-.8-4.26-.22-8.51-.47-12.75-.72-4.66-.28-9.3-.56-13.93-.86-8.12-.51-16.22-1.05-24.28-1.61-3.39-.24-6.77-.49-10.15-.73-2.98-.21-5.97-.44-8.96-.68-3.82-.28-7.64-.58-11.45-.89-3.35-.26-6.7-.55-10.03-.82-4.34-.37-8.69-.74-13.01-1.12-5-.44-10.01-.9-14.97-1.35-3.3-.3-6.6-.61-9.88-.94-1.94-.18-3.87-.37-5.82-.56-4.25-.42-8.49-.84-12.71-1.28-4.03-.42-8.06-.84-12.06-1.28-8.95-.96-17.81-1.94-26.58-2.97-4.24-.51-8.46-1.01-12.66-1.52-16.81-2.05-33.33-4.23-49.54-6.54C188.29,684.35,5.63,611.29,5.63,527.55s171.52-152.26,428.45-191.64c-7.97,22.88-14.33,46.5-18.93,70.78-108.65,19.57-175.03,45.75-175.03,74.51s64.06,54.03,169.28,73.47c1.33.25,2.68.49,4.03.74,1.34.24,2.7.48,4.05.72,1.33.24,2.68.49,4.03.72,6.81,1.21,13.79,2.38,20.93,3.51,1.43.23,2.85.45,4.29.68,2.16.35,4.34.68,6.53,1.01,2.18.33,4.38.67,6.58.99,2.96.44,5.93.88,8.93,1.3,2.43.35,4.9.7,7.37,1.05,3.45.49,6.97.96,10.49,1.44,2.01.26,4.03.54,6.06.8,1.39.19,2.78.37,4.19.54,1.41.18,2.83.35,4.24.55,2.31.3,4.66.59,7,.87,2.36.3,4.73.58,7.09.86,5.02.6,10.09,1.19,15.23,1.77,4.55.52,9.15,1.01,13.79,1.52,2.73.28,5.49.57,8.25.86,2.76.3,5.53.57,8.32.84,1.7.18,3.41.35,5.11.51,1.04.11,2.1.21,3.14.32,2.24.21,4.48.42,6.74.63,1.63.15,3.24.31,4.88.45,2.47.24,4.96.45,7.45.68,3.3.3,6.62.58,9.95.88,3.15.26,6.31.53,9.49.78,1.79.14,3.6.3,5.4.44,1.81.16,3.61.3,5.42.43.07,0,.12.02.19.02,5.14.4,10.34.78,15.54,1.17,2.61.19,5.23.38,7.86.56,3.28.22,6.58.45,9.88.68,3.32.23,6.64.44,9.99.65,1.67.11,3.34.22,5.02.32,5.02.32,10.09.63,15.17.92,2.18.14,4.38.26,6.58.38,3.46.2,6.91.37,10.41.56.31.02.61.04.92.05.7.04,1.39.07,2.09.11,2.19.13,4.4.23,6.6.34,4.05.21,8.09.4,12.18.59,1.81.09,3.61.18,5.42.24,1.81.09,3.63.16,5.46.24.16,0,.31.02.46.02,3.72.16,7.46.32,11.19.47.73.03,1.45.05,2.17.09,1.56.05,3.13.13,4.69.18,2.3.09,4.61.17,6.91.26.49.02.99.04,1.5.05,2.34.09,4.7.18,7.05.25,2.26.09,4.53.15,6.81.22,3.16.11,6.34.19,9.52.3,3.19.09,6.39.18,9.58.28.47,0,.92.01,1.39.03,3.44.09,6.88.18,10.32.26,3.46.09,6.91.16,10.39.22,3.47.09,6.95.16,10.44.21,2.62.05,5.23.11,7.85.14,2.62.03,5.27.07,7.89.12,5.26.09,10.54.16,15.86.21,14.12.16,28.38.22,42.75.22,193.6,0,367.7-13.94,488.14-36.11,105.77-19.46,170.17-45.29,170.17-73.63s-66.75-55.11-175.94-74.67c-4.61-24.22-10.94-47.79-18.9-70.62,256.93,39.38,428.45,110.47,428.45,191.64Z"/></svg>