<?xml version="1.0" encoding="UTF-8"?><svg id="Camada_1" xmlns="http://www.w3.org/2000/svg" viewBox="0 0 1800 1000"><defs><style>.cls-1{fill:#9300b2;}.cls-2{fill:#b015d1;}.cls-3{fill:#3a008c;}.cls-4{stroke:#e8e8e8;stroke-miterlimit:10;stroke-width:.66px;}.cls-4,.cls-5{fill:none;}.cls-6{fill:#621fbf;}.cls-7{fill:#ca2feb;}</style></defs><path class="cls-1" d="m1386.66,558.22c-2.48,21.46-6.34,42.5-11.5,63.02-58.69-1.48-129.32-5.6-208.12-12.26,78.69-17.02,152.45-34.09,219.62-50.76Z"/><path class="cls-1" d="m690.49,643.61c-93.63,15.74-177.66,28.39-246.51,37.26-6.47-16.46-12.08-33.37-16.77-50.66-2.03-7.5-3.9-15.06-5.56-22.7-1.16-5.21-2.23-10.44-3.22-15.72,11.72,2.6,23.64,5.21,35.73,7.78,17.52,3.73,35.44,7.43,53.73,11.08,57.53,11.51,118.68,22.56,182.6,32.94Z"/><path class="cls-5" d="m1389.98,500.28c-23.62,6.11-49.57,12.54-77.57,19.22-91.62,21.87-205.07,46.33-329.93,70.82-28.38-3.28-57.33-6.84-86.71-10.62-51.2-6.62-100.93-13.61-148.58-20.88-22.39-3.41-44.3-6.88-65.69-10.37h-.02c-106.14-17.37-199.29-35.69-271.4-53.14.31-28.33,3-56.06,7.9-83.05,2.39-13.13,5.28-26.06,8.69-38.81C482.59,163.75,673.32,9.35,900.01,9.35c96.93,0,187.29,28.23,263.35,76.96-18.08,6.98-37.12,12.17-55.81,16.72-45.26,11.01-92.75,20.64-129.64,49.16-36.89,28.51-58.94,82.88-35.35,123.16,24.32,41.53,82.96,47.74,129.19,34.7,46.23-13.03,88.17-40.03,135.45-48.43,38.36-6.82,78.27-.99,116.5-7.77,30.46,52.46,51.51,111.08,60.84,173.55,1.16,7.73,2.13,15.51,2.92,23.34,1.53,15.16,2.38,30.53,2.5,46.08.02,1.16.02,2.31.02,3.47Z"/><path class="cls-3" d="m1392.28,497.33c-.77-.17-1.54-.35-2.32-.52.02,1.16.02,2.31.02,3.47.77-.2,1.54-.4,2.31-.6.43-.11.86-.22,1.28-.34,1.19-.31,2.36-.62,3.53-.92-1.6-.36-3.21-.73-4.81-1.09Z"/><path class="cls-6" d="m426.67,373.45c-3.4,12.75-6.3,25.68-8.69,38.81-.79-.01-1.57-.03-2.36-.04,2.37-13.14,5.26-26.09,8.65-38.84.8.02,1.6.05,2.4.07Z"/><path class="cls-2" d="m1222.97,871.09c-86.23,75.87-199.23,121.86-322.95,121.86-149.8,0-283.9-67.42-373.76-173.68,43.82-35.74,107.79-48.03,165.57-41.5,75.55,8.54,145.62,42.15,218.27,64.65,100.79,31.22,208.1,40.84,312.87,28.66Z"/><path class="cls-1" d="m1342.47,712.15c-28.83,60.66-69.7,114.45-119.51,158.28-104.77,12.17-212.08,2.56-312.87-28.66-72.64-22.5-142.72-56.11-218.27-64.65-57.78-6.53-121.75,5.76-165.57,41.5-22.15-26.18-41.6-54.71-57.95-85.17,117.99-16.08,253.01-37.75,396.73-64.17,6.14.82,12.31,1.62,18.49,2.42,167.13,21.58,324.24,35.01,458.94,40.46Z"/><path class="cls-1" d="m1392.29,499.68c-.76.2-1.53.4-2.31.6-23.62,6.11-49.57,12.54-77.57,19.22-91.62,21.87-205.07,46.33-329.93,70.82-28.38-3.28-57.33-6.84-86.71-10.62-51.2-6.62-100.93-13.61-148.58-20.88-22.39-3.41-44.3-6.88-65.69-10.37h-.02c-106.14-17.37-199.29-35.69-271.4-53.14-.78-.18-1.55-.38-2.32-.56.34-28.14,3.02-55.71,7.86-82.53,2.37-13.14,5.26-26.09,8.65-38.84C480.29,162.43,672.06,7.02,900.01,7.02c246.91,0,451.36,182.33,486.83,420.09,1.16,7.73,2.13,15.52,2.92,23.36,1.56,15.43,2.41,31.06,2.52,46.87,0,.78.01,1.57,0,2.35Z"/><path class="cls-2" d="m1324.36,253.18c-38.22,6.78-78.13.95-116.5,7.77-47.28,8.4-89.22,35.4-135.45,48.43-46.23,13.03-104.87,6.83-129.19-34.7-23.58-40.28-1.53-94.65,35.35-123.16,36.89-28.51,84.38-38.14,129.64-49.16,18.68-4.55,37.73-9.74,55.81-16.72,65.83,42.17,120.95,99.69,160.34,167.54Z"/><ellipse class="cls-4" cx="899.27" cy="500" rx="492.29" ry="493.8"/><path class="cls-2" d="m982.48,590.32c-25.56,5.02-51.58,10.04-78,15.02-74.86,14.14-146.88,26.99-213.99,38.26-63.91-10.38-125.07-21.43-182.6-32.94-18.29-3.65-36.2-7.35-53.73-11.08-12.1-2.57-24.01-5.18-35.73-7.78l-2.47-.55C171.26,536.53-5.05,475.14.82,429.41c5.73-44.54,183.71-63.62,423.45-56.03-3.39,12.75-6.28,25.7-8.65,38.84-99.46-1.66-177.57,4.98-179.59,20.62-2.03,15.78,73.49,37.99,171.73,61.91.78.18,1.55.38,2.32.56,72.11,17.45,165.26,35.77,271.4,53.14h.02c21.38,3.49,43.3,6.96,65.69,10.37,47.65,7.26,97.38,14.26,148.58,20.88,29.38,3.79,58.33,7.35,86.71,10.62Z"/><path class="cls-2" d="m1799.19,657.33c-5.97,46.41-197.55,65.19-454.18,54.92-.85-.03-1.69-.07-2.54-.1-134.7-5.45-291.82-18.88-458.94-40.46-6.18-.8-12.34-1.6-18.49-2.42,16.31-3,32.74-6.06,49.27-9.18,88.1-16.64,172.94-33.85,252.72-51.11,78.79,6.67,149.42,10.78,208.12,12.26.8.02,1.59.04,2.38.06,108.01,2.58,175-3.93,177.11-20.33,1.8-14.03-44.2-33.14-123.42-53.99,27.48-7.06,53.67-14,78.43-20.82,172.01,46.06,294.34,93.83,289.54,131.17Z"/><path class="cls-7" d="m1511.63,526.16c-24.76,6.82-50.95,13.77-78.43,20.82-13.74,3.53-27.79,7.07-42.15,10.64-.8.2-1.61.4-2.42.6-67.16,16.67-140.93,33.74-219.62,50.76-79.78,17.26-164.62,34.47-252.72,51.11-16.54,3.12-32.97,6.18-49.27,9.18-143.72,26.42-278.74,48.09-396.73,64.17-.82.11-1.65.22-2.47.34-258.56,35.08-451.71,43.12-456.94,15.26-5.08-27.06,169.22-81.39,410.47-140.96,1.69,7.64,3.54,15.21,5.58,22.71-108.52,27.4-191.17,49.16-189.31,59.1,1.91,10.15,90.83,6.1,205.96-8.71.79-.11,1.59-.2,2.38-.31,68.84-8.87,152.88-21.53,246.51-37.26,67.11-11.27,139.13-24.13,213.99-38.26,26.42-4.98,52.44-10,78-15.02,124.86-24.48,238.31-48.95,329.93-70.82,28-6.69,53.95-13.11,77.57-19.22.77-.2,1.54-.4,2.31-.6.43-.11.86-.22,1.28-.34,1.19-.31,2.36-.62,3.53-.92,92.25-24.12,146.92-43.08,145.22-52.17-1.7-9.04-60.84-6.83-154.55,4.21-.79-7.84-1.77-15.63-2.92-23.36,229.54-29.11,401.39-34.27,406.26-8.34,4.1,21.86-114.84,61.53-281.46,107.39Z"/></svg>