<?xml version="1.0" encoding="UTF-8"?><svg id="_ícones" xmlns="http://www.w3.org/2000/svg" viewBox="0 0 1000 1000"><defs><style>.cls-1{fill:#010101;}</style></defs><path class="cls-1" d="m478.41,517.87c-13.11,215.17-114.83,335.38-179.16,362.81-12.9,5.51-20.16-8.12-14.27-20.8,29.56-63.44,53.57-150.84,49.43-212.18-3.25-48.02-36.52-85.39-59.21-82.87-19.65,2.18-37.12,4.4-54.59,4.4-118.25,0-214.11-95.9-214.11-214.15S120.09,127.89,240.26,140.96c54.47,5.98,260.5,9.53,238.16,376.91Z"/><path class="cls-1" d="m991.81,496c-13.07,215.22-114.79,335.38-179.16,362.85-12.86,5.47-20.12-8.12-14.23-20.8,29.56-63.48,53.57-150.88,49.43-212.23-3.25-47.97-36.52-85.35-59.21-82.83-19.65,2.18-37.12,4.36-54.64,4.36-118.2,0-214.11-95.86-214.11-214.11s113.63-227.22,233.8-214.11c54.47,5.94,260.5,9.53,238.11,376.86Z"/></svg>