<?xml version="1.0" encoding="UTF-8"?><svg id="_ícones" xmlns="http://www.w3.org/2000/svg" viewBox="0 0 1000 1000"><defs><style>.cls-1{fill:#010101;}</style></defs><path class="cls-1" d="m648.72,117.06h-297.46c-95.27,0-181.9,35.91-244.69,93.73C43.79,268.65,4.81,348.42,4.81,436.19c0,127.71,69.69,205.07,138.27,252.97l-123.07,166.89c-6.11,15.97,10.58,31.33,27.9,25.7l175.29-56.98,213.72-69.46h211.8c95.28,0,181.89-35.91,244.69-93.73,62.8-57.86,101.78-137.63,101.78-225.39,0-175.53-155.92-319.13-346.47-319.13Zm60.2,181.62c-1.27,8.8-2.87,17.81-4.62,22.79-3.01,8.44-16.89,8.58-20.11.21-1.91-5.14-3.91-14.31-5.54-23-2.43-12.89-12.32-23.08-25.12-25.96-5.38-1.21-10.39-2.46-13.15-3.46-8.19-3.09-8.3-13.26-.17-16.49,2.52-1.01,7.05-2.1,12.04-3.12,13.57-2.78,23.94-13.75,25.96-27.45,1.3-8.84,2.97-17.99,4.81-23.04,2.95-8.37,16.83-8.51,20.01-.21,1.97,5.13,3.91,14.33,5.48,23.12,2.36,13.21,12.52,23.66,25.65,26.38,5.15,1.07,9.9,2.21,12.58,3.22,8.19,3.01,8.3,13.23.17,16.41-2.49,1.01-6.85,2.01-11.67,2.93-13.79,2.62-24.32,13.79-26.32,27.68Zm212.82,111.12c-4.3,1.73-11.84,3.48-20.17,5.06-23.82,4.52-42.02,23.83-45.47,47.83-2.19,15.21-4.95,30.78-7.98,39.37-5.2,14.59-29.18,14.83-34.75.36-3.32-8.89-6.76-24.73-9.58-39.74-4.19-22.28-21.28-39.87-43.4-44.85-9.29-2.09-17.95-4.25-22.71-5.98-14.15-5.36-14.33-22.92-.29-28.5,4.36-1.74,12.18-3.63,20.79-5.4,23.45-4.8,41.38-23.74,44.86-47.42,2.25-15.29,5.13-31.07,8.31-39.82,5.1-14.46,29.08-14.71,34.57-.35,3.4,8.87,6.75,24.76,9.46,39.94,4.08,22.82,21.62,40.88,44.32,45.59,8.9,1.84,17.11,3.81,21.73,5.56,14.15,5.2,14.33,22.86.29,28.35Z"/></svg>