<svg width="1000" height="1000" viewBox="0 0 1000 1000" fill="none" xmlns="http://www.w3.org/2000/svg">
<path d="M993.758 248.47V264.24L547.128 605.91C539.428 596.88 534.058 585.83 531.888 573.64C528.628 555.38 524.588 536.26 520.508 525.59C513.898 508.33 485.048 508.62 478.928 526.02C475.098 536.53 471.628 555.53 468.928 573.91C467.008 586.91 461.478 598.73 453.348 608.28L6.23828 276.22V248.47C6.23828 189.37 54.5983 141 113.708 141H886.278C945.388 141 993.758 189.36 993.758 248.47Z" fill="black"/>
<path d="M993.758 336.52V750.97C993.758 810.08 945.398 858.45 886.278 858.45H113.708C54.6083 858.45 6.23828 810.09 6.23828 750.97V347.72L394.298 635.94C392.638 636.46 391.158 636.96 389.928 637.46C373.028 644.17 373.258 665.3 390.278 671.74C395.988 673.82 406.418 676.41 417.598 678.93C444.198 684.93 464.748 706.09 469.798 732.89C473.198 750.94 477.338 770 481.328 780.7C488.028 798.11 516.878 797.81 523.128 780.27C526.778 769.93 530.108 751.2 532.728 732.91C536.878 704.03 558.768 680.81 587.428 675.37C597.448 673.47 606.518 671.37 611.688 669.28C628.588 662.67 628.358 641.43 611.338 635.18C609.788 634.59 607.888 633.98 605.728 633.36L993.758 336.52Z" fill="black"/>
</svg>
