<svg width="1000" height="1000" viewBox="0 0 1000 1000" fill="none" xmlns="http://www.w3.org/2000/svg">
<path d="M890.63 556.63C872.41 563.98 840.47 571.38 805.17 578.08C704.2 597.25 627.09 679.06 612.47 780.79C603.2 845.25 591.5 911.22 578.64 947.64C556.61 1009.44 454.98 1010.49 431.37 949.16C417.32 911.49 402.73 844.35 390.75 780.73C372.98 686.32 300.57 611.76 206.85 590.66C167.48 581.8 130.76 572.63 110.62 565.33C50.6304 542.65 49.8604 468.2 109.37 444.54C127.86 437.16 161.02 429.14 197.51 421.67C296.88 401.31 372.87 321.05 387.64 220.69C397.18 155.92 409.35 88.9899 422.85 51.9499C444.44 -9.32005 546.07 -10.3701 569.37 50.4399C583.77 88.0299 597.98 155.35 609.47 219.7C626.74 316.4 701.09 392.95 797.27 412.89C834.97 420.71 869.79 429.05 889.39 436.48C949.37 458.51 950.14 533.35 890.63 556.62V556.63Z" fill="#D9D9D9"/>
</svg>
