<svg width="514" height="1000" viewBox="0 0 514 1000" fill="none" xmlns="http://www.w3.org/2000/svg">
<g clip-path="url(#clip0_498_277)">
<path d="M350.17 141.61H168.23C197.19 78.56 226.73 33.35 243.27 10.14C249.82 0.950032 263.42 0.840031 270.12 9.92003C284.61 29.58 308.94 64.77 333.97 110.56C339.36 120.43 344.79 130.79 350.17 141.61Z" fill="#010101"/>
<path d="M102.26 659.52C91.0504 666.24 78.5004 675.62 67.8904 688.23C58.1804 699.76 49.2704 712.35 42.3304 722.86C35.0304 733.91 18.3404 732.45 13.2104 720.24C0.960376 691.14 -10.7296 638.32 15.3704 565.23C25.1004 538.02 51.0304 510.46 71.5804 491.76C81.4204 574.84 99.8304 649.83 102.26 659.53V659.52Z" fill="#010101"/>
<path d="M418.409 318.55C413.839 266.06 388.139 215.83 364.349 172.02H152.889C131.659 213.88 109.299 263.2 98.9892 318.55C90.4792 364.27 89.8492 423.62 96.4592 479.31C106.299 562.39 124.709 637.38 127.139 647.08C127.309 647.78 127.399 648.14 127.399 648.14H192.049V562.35C192.049 526.58 221.159 497.49 256.919 497.49C274.219 497.49 290.499 504.23 302.779 516.47C315.039 528.74 321.779 545.02 321.779 562.35V648.14H388.599C388.599 648.14 388.659 647.89 388.749 647.39C390.549 639.1 406.659 562.92 416.319 476.97C422.359 423.24 422.499 365.7 418.389 318.54L418.409 318.55ZM315.809 305.58C313.009 306.69 308.019 307.9 302.519 309.03C299.599 309.63 296.799 310.57 294.179 311.83C283.419 316.94 275.649 327.15 273.859 339.32C272.439 349.08 270.589 359.18 268.549 364.76C265.299 373.99 249.989 374.14 246.479 365C244.279 359.32 242.169 349.16 240.419 339.47C238.009 325.92 228.129 314.99 215.089 311.11C214.119 310.81 213.129 310.56 212.119 310.35C206.449 309.17 201.179 307.91 198.229 306.79C189.189 303.47 189.079 292.17 198.059 288.68C200.799 287.57 205.609 286.45 210.939 285.45C226.169 282.57 237.789 270.23 239.979 254.89C241.379 245.18 243.129 235.22 245.089 229.74C248.409 220.42 263.729 220.27 267.279 229.5C269.409 235.17 271.599 245.29 273.399 254.88C276.079 269.11 286.989 280.36 301.109 283.52C307.049 284.88 312.589 286.25 315.619 287.34C324.679 290.76 324.789 301.99 315.809 305.56V305.58Z" fill="#010101"/>
<path d="M500.792 720.23C495.652 732.44 478.972 733.9 471.672 722.85C464.732 712.35 455.822 699.75 446.112 688.22C435.662 675.81 423.352 666.52 412.262 659.83C414.062 651.54 430.172 575.36 439.832 489.41C460.742 508.11 488.492 536.84 498.622 565.22C524.722 638.31 513.032 691.12 500.782 720.23H500.792Z" fill="#010101"/>
<path d="M301.059 562.35V706.28C301.059 730.65 281.299 750.41 256.929 750.41C232.559 750.41 212.789 730.65 212.789 706.28V562.35C212.789 537.98 232.549 518.22 256.929 518.22C269.119 518.22 280.149 523.17 288.139 531.14C296.129 539.13 301.059 550.17 301.059 562.35Z" fill="#010101"/>
<path d="M257.001 996.82C250.891 996.82 245.941 991.87 245.941 985.76V793.65C245.941 787.54 250.891 782.59 257.001 782.59C263.111 782.59 268.061 787.54 268.061 793.65V985.76C268.061 991.87 263.111 996.82 257.001 996.82Z" fill="#010101"/>
<path d="M176.15 867.2C170.04 867.2 165.09 862.25 165.09 856.14V750.81C165.09 744.7 170.04 739.75 176.15 739.75C182.26 739.75 187.21 744.7 187.21 750.81V856.14C187.21 862.25 182.26 867.2 176.15 867.2Z" fill="#010101"/>
<path d="M337.849 867.2C331.739 867.2 326.789 862.25 326.789 856.14V750.81C326.789 744.7 331.739 739.75 337.849 739.75C343.959 739.75 348.909 744.7 348.909 750.81V856.14C348.909 862.25 343.959 867.2 337.849 867.2Z" fill="#010101"/>
</g>
<defs>
<clipPath id="clip0_498_277">
<rect width="514" height="1000" fill="white"/>
</clipPath>
</defs>
</svg>
