<svg width="1000" height="1000" viewBox="0 0 1000 1000" fill="none" xmlns="http://www.w3.org/2000/svg">
<path d="M673.138 140H326.877C224.094 140 140 224.095 140 326.869V673.131C140 775.913 224.095 860 326.869 860H673.131C775.906 860 860 775.906 860 673.131V326.869C860 224.087 775.906 140 673.131 140H673.138ZM500.004 669.486C406.403 669.486 330.521 593.605 330.521 500.004C330.521 406.403 406.403 330.521 500.004 330.521C593.605 330.521 669.486 406.403 669.486 500.004C669.486 593.605 593.605 669.486 500.004 669.486ZM777.665 286.973C775.033 288.03 770.494 289.102 765.438 290.078C765.253 290.115 765.061 290.152 764.869 290.189C749.752 293.064 738.205 305.306 736.017 320.534C734.627 330.188 732.882 340.064 730.953 345.52C727.656 354.775 712.435 354.93 708.909 345.749C706.803 340.109 704.622 330.055 702.825 320.534C700.164 306.4 689.32 295.238 675.289 292.074C669.398 290.751 663.898 289.376 660.882 288.282C651.9 284.889 651.789 273.741 660.697 270.2C663.469 269.091 668.429 267.894 673.892 266.777C688.773 263.732 700.142 251.712 702.352 236.684C702.389 236.454 702.419 236.225 702.456 235.996C703.868 226.512 705.657 216.835 707.63 211.424C710.861 202.25 726.074 202.088 729.563 211.195C731.722 216.828 733.851 226.904 735.566 236.543C738.153 251.017 749.286 262.475 763.686 265.462C769.326 266.637 774.538 267.886 777.473 268.995C786.454 272.292 786.573 283.499 777.657 286.981L777.665 286.973Z" fill="#010101" stroke="#010101" stroke-width="0.81" stroke-miterlimit="10"/>
<path d="M586.648 512.541C582.75 514.11 576.029 515.687 568.544 517.13C568.262 517.182 567.981 517.241 567.699 517.293C545.303 521.535 528.207 539.663 524.961 562.196C522.901 576.475 520.314 591.087 517.454 599.163C512.57 612.857 490.026 613.087 484.794 599.496C481.682 591.154 478.443 576.282 475.79 562.188C471.847 541.277 455.788 524.755 435.001 520.084C426.271 518.122 418.126 516.086 413.658 514.473C400.355 509.446 400.185 492.954 413.384 487.713C417.482 486.077 424.833 484.301 432.933 482.643C454.973 478.135 471.818 460.354 475.101 438.117C475.153 437.784 475.197 437.436 475.249 437.103C477.346 423.076 479.977 408.752 482.912 400.743C487.692 387.167 510.235 386.937 515.408 400.41C518.602 408.737 521.752 423.653 524.301 437.91C528.133 459.333 544.622 476.284 565.95 480.711C574.309 482.443 582.031 484.286 586.382 485.937C599.684 490.815 599.854 507.396 586.656 512.555L586.648 512.541Z" fill="#010101"/>
</svg>
