<?xml version="1.0" encoding="UTF-8"?><svg id="_ícones" xmlns="http://www.w3.org/2000/svg" viewBox="0 0 1000 1000"><defs><style>.cls-1{fill:#010101;}</style></defs><path class="cls-1" d="m723.08,31c-92.14,0-165.19,49.9-214.71,126.38-49.53-76.48-139.31-126.38-231.45-126.38C126.01,31,3.65,165.02,3.65,330.3c0,179.82,319.55,495,450.11,616.3,31.73,29.44,78.08,29.93,110.26,1.03,127.99-114.89,432.32-409.91,432.32-617.34,0-165.28-122.36-299.3-273.27-299.3Zm-23.96,213.3c-1.33,9.22-3,18.66-4.84,23.87-3.15,8.84-17.69,8.99-21.07.22-2-5.39-4.09-14.99-5.8-24.09-2.54-13.5-12.9-24.17-26.3-27.18-5.63-1.27-10.88-2.58-13.77-3.63-8.58-3.24-8.69-13.89-.17-17.27,2.64-1.05,7.38-2.2,12.61-3.27,14.21-2.91,25.08-14.4,27.19-28.75,1.36-9.26,3.11-18.84,5.04-24.13,3.09-8.77,17.62-8.91,20.95-.22,2.06,5.37,4.09,15,5.73,24.21,2.47,13.83,13.11,24.78,26.86,27.63,5.39,1.12,10.37,2.31,13.18,3.37,8.58,3.15,8.69,13.86.17,17.18-2.61,1.05-7.17,2.11-12.22,3.07-14.44,2.75-25.47,14.44-27.56,28.99Zm222.88,116.37c-4.51,1.82-12.4,3.65-21.12,5.3-24.95,4.74-44.01,24.96-47.62,50.09-2.29,15.93-5.18,32.23-8.36,41.23-5.45,15.28-30.56,15.53-36.39.38-3.48-9.31-7.08-25.9-10.04-41.62-4.39-23.34-22.29-41.76-45.45-46.97-9.73-2.19-18.8-4.46-23.78-6.26-14.82-5.61-15.01-24.01-.31-29.85,4.57-1.82,12.76-3.8,21.78-5.65,24.56-5.03,43.34-24.87,46.99-49.67,2.36-16.01,5.37-32.54,8.7-41.7,5.34-15.14,30.45-15.4,36.21-.37,3.56,9.29,7.07,25.93,9.91,41.83,4.27,23.9,22.64,42.82,46.41,47.75,9.32,1.93,17.92,3.99,22.76,5.83,14.82,5.45,15.01,23.94.31,29.69Z"/></svg>