<svg width="1000" height="1000" viewBox="0 0 1000 1000" fill="none" xmlns="http://www.w3.org/2000/svg">
<path d="M499.544 476.58C629.491 476.58 734.834 371.237 734.834 241.29C734.834 111.343 629.491 6 499.544 6C369.597 6 264.254 111.343 264.254 241.29C264.254 371.237 369.597 476.58 499.544 476.58Z" fill="#010101"/>
<path d="M847.553 994.42C875.053 994.42 896.903 971.12 894.953 943.69C894.943 943.51 894.923 943.34 894.913 943.16C875.213 672.62 705.763 541.34 499.643 541.34C293.523 541.34 122.783 671.15 104.153 943.16C104.133 943.4 104.123 943.64 104.103 943.89C102.313 971.24 124.113 994.41 151.523 994.41H847.553V994.42Z" fill="#010101"/>
</svg>
