<svg width="1000" height="1000" viewBox="0 0 1000 1000" fill="none" xmlns="http://www.w3.org/2000/svg">
<path d="M713.78 411.79C713.88 399.72 717.31 388.28 723.41 378.43C692.49 210.34 545.21 83 368.19 83C168.71 83 7 244.71 7 444.2C7 643.69 168.71 805.4 368.2 805.4C394.01 805.4 419.18 802.7 443.46 797.54C429.9 793.92 419.81 790.83 412.46 788.04L411.81 787.78C379.44 774.92 358.7 745.13 358.96 711.88C359.22 678.7 380.37 649.3 412.83 636.98C416.41 635.62 421.52 633.86 429.81 631.68C438.11 629.49 449.6 626.87 465.93 623.8C496.57 618.04 520.54 593.52 525.59 562.78C532.84 518.49 539.94 487.56 547.3 468.28C559.61 435.4 591.69 414.21 629.15 414.21H629.43C667.25 414.31 699.53 435.91 711.68 469.23C715.52 479.77 719.32 493.71 723.15 511.42C726.65 492.8 728.73 473.68 729.25 454.17C719.32 442.51 713.67 427.64 713.79 411.78L713.78 411.79ZM471.88 570.68C464.06 578.49 453.83 582.39 443.59 582.39C433.35 582.39 423.12 578.49 415.3 570.68L317.1 472.48C309.6 464.98 305.39 454.8 305.39 444.19V306.19C305.39 284.1 323.3 266.19 345.39 266.19C367.48 266.19 385.39 284.1 385.39 306.19V427.62L471.88 514.1C487.5 529.72 487.5 555.05 471.88 570.68Z" fill="#010101"/>
<path d="M461.86 681.5C469.76 678.5 483.86 675.33 499.39 672.41C541.67 664.46 574.44 630.96 581.4 588.5C585.89 561.11 591.51 532.8 597.49 517.19C607.07 491.36 650.18 491.62 659.64 517.57C664.43 530.69 669.01 552.26 672.96 574.67C673.83 579.63 674.66 584.65 675.47 589.61C676.56 596.29 678.27 602.76 680.58 608.94C689.02 631.63 705.28 650.52 726.23 662.27C734.7 667.04 743.95 670.62 753.76 672.83C757.9 673.76 761.94 674.7 765.81 675.64C776.89 678.33 786.55 681.03 792.66 683.47C817.94 693.23 817.75 724.97 792.36 734.42C784.58 737.41 770.99 740.33 755.97 742.93C750.26 743.92 744.72 745.37 739.39 747.27C717.56 755.02 699.26 769.99 687.18 789.31C680.03 800.73 675.07 813.68 672.84 827.55C668.46 854.82 663.05 882.72 657.34 898.07C647.57 924.13 604.47 923.87 594.88 897.7C589.19 881.63 583.47 853.06 578.82 825.99C571.94 785.84 541.76 753.72 502.16 744.13C485.52 740.09 470.02 735.96 461.53 732.73C436.25 722.69 436.44 691.12 461.84 681.5H461.86Z" fill="#010101"/>
<path d="M981.443 427.4C976.673 429.24 968.323 431.03 959.103 432.62C932.743 437.18 912.323 458.15 908.083 484.57C905.393 501.31 902.073 518.43 898.563 527.86C892.563 543.85 866.103 543.7 860.223 527.63C856.723 517.77 853.213 500.23 850.363 483.61C846.143 458.96 827.603 439.24 803.293 433.35C793.083 430.88 783.563 428.33 778.353 426.35C762.833 420.19 762.953 400.81 778.543 394.9C783.383 393.06 792.053 391.11 801.583 389.32C827.533 384.44 847.653 363.87 851.933 337.81C854.693 320.99 858.143 303.62 861.813 294.04C867.693 278.18 894.153 278.34 899.963 294.27C903.553 304.12 906.963 321.7 909.683 338.5C913.773 363.75 932.793 383.99 957.753 389.59C967.533 391.78 976.563 394.1 981.633 396.12C997.153 402.11 997.033 421.6 981.443 427.4Z" fill="#010101"/>
</svg>
