<?xml version="1.0" encoding="UTF-8"?><svg id="_ícones" xmlns="http://www.w3.org/2000/svg" viewBox="0 0 1000 1000"><defs><style>.cls-1{fill:#010101;}</style></defs><g id="notificação"><path class="cls-1" d="m920.24,796.32c0,39.64-28.61,72.7-66.28,79.6-.11.02-.23.05-.33.07-4.66.83-9.44,1.27-14.32,1.27h-189.9c-20.77,67.76-79.46,116.58-148.62,116.58s-127.83-48.82-148.6-116.58h-191.52c-44.63,0-80.93-36.29-80.93-80.93v-.51c.16-25.6,12.74-49.95,33.69-65.19,61.07-44.47,97.54-116.06,97.54-191.49v-.45c-.02-6.15-.27-12.36-.74-18.48-.04-.44-.07-.86-.12-1.29-1-10.46-4.57-26.45-8.03-41.92-1.33-5.94-2.63-11.78-3.83-17.46-5.83-23.8-8.92-48.69-8.92-74.29,0-154.04,111.84-281.97,258.76-306.99v-20.38c0-28.44,23.27-51.71,51.71-51.71,14.22,0,27.15,5.82,36.52,15.19,9.37,9.37,15.19,22.3,15.19,36.52v20.05c147.86,24.23,260.68,152.6,260.68,307.32,0,44.08-22.07,130.79-22.34,133.67-.05.45-.08.87-.11,1.29-.48,6.27-.75,12.64-.75,18.93,0,75.44,36.47,147.02,97.54,191.49,21.1,15.34,33.69,39.91,33.69,65.69Z"/></g></svg>