<svg width="40" height="40" viewBox="0 0 40 40" fill="none" xmlns="http://www.w3.org/2000/svg">
<path d="M5.24729 18.6523C5.13822 18.6105 4.94756 18.5694 4.73689 18.5331C4.13449 18.4289 3.66782 17.9497 3.57102 17.3459C3.50969 16.9633 3.43369 16.5721 3.35369 16.3566C3.21662 15.991 2.61209 15.9947 2.47742 16.3619C2.39742 16.5873 2.31716 16.9881 2.25209 17.3678C2.15556 17.931 1.73209 18.3817 1.17662 18.5163C0.943292 18.5729 0.725692 18.631 0.606758 18.6763C0.252091 18.8171 0.254758 19.2601 0.611025 19.395C0.721691 19.4371 0.919825 19.4817 1.13742 19.5225C1.73049 19.6339 2.19022 20.1041 2.28782 20.6995C2.35076 21.0838 2.42969 21.4809 2.51369 21.6998C2.64809 22.0622 3.25262 22.0585 3.38542 21.6945C3.46756 21.4694 3.54542 21.0675 3.60756 20.6838C3.70089 20.107 4.13582 19.6443 4.70596 19.5163C4.92942 19.4662 5.13582 19.4131 5.25156 19.367C5.60622 19.2302 5.60356 18.7849 5.24729 18.6523Z" fill="#010101"/>
<path d="M28.9964 12.291C29.0025 12.4038 29.0841 12.4979 29.1948 12.5198C30.3241 12.7419 33.4644 13.4726 35.0916 14.9771C35.8929 15.7171 36.3164 16.5491 36.3513 17.4502C36.3561 17.5766 36.4628 17.6747 36.5889 17.6699C36.715 17.6651 36.8137 17.5587 36.8086 17.4326C36.7692 16.4057 36.2958 15.4662 35.4022 14.6409C35.2705 14.519 35.1297 14.4003 34.9814 14.2849C33.3785 13.0387 30.6622 12.3233 29.2926 12.0369C29.1342 12.0038 28.9876 12.1297 28.9961 12.2915L28.9964 12.291Z" fill="#010101"/>
<path d="M4.26356 25.7033C4.47022 25.7819 4.83982 25.8649 5.24649 25.9414C6.35396 26.1494 7.21209 27.027 7.39449 28.139C7.51209 28.8566 7.65929 29.5977 7.81583 30.0067C8.06676 30.6833 9.19583 30.6763 9.44356 29.9969C9.56889 29.6531 9.68889 29.0883 9.79236 28.5014C9.81503 28.3713 9.83689 28.2401 9.85823 28.1099C9.88676 27.935 9.93156 27.7657 9.99209 27.6035C10.2132 27.0091 10.8489 26.3211 11.5014 26.1123C12.6366 25.7491 17.442 26.5787 20.1617 26.6374C24.9166 26.7398 29.8297 25.7387 33.642 23.891C37.4148 22.0622 39.6068 19.695 39.6561 17.3966C39.6862 16.0121 38.951 14.6505 37.5468 13.4329C36.9321 12.9001 36.1889 12.3945 35.3254 11.9265C33.1966 10.7729 29.882 9.88674 28.2468 9.50354C27.9118 9.42514 27.591 9.67954 27.591 10.0233C27.591 10.2745 27.7657 10.4915 28.011 10.5449C29.4161 10.8513 33.0041 11.7102 34.8889 12.7315C37.4076 14.0963 38.7756 15.7462 38.7404 17.3766C38.699 19.2907 36.6438 21.4179 33.242 23.0667C29.5564 24.8531 24.7958 25.8209 20.1809 25.7214C19.8801 25.715 19.5814 25.7054 19.2844 25.6934C19.7444 25.6529 20.2038 25.6054 20.6625 25.5523C22.3244 25.3601 23.9782 25.0918 25.6137 24.7387C27.1982 24.3966 28.77 23.9769 30.2985 23.4337C31.6236 22.963 32.9361 22.4038 34.1276 21.6505C35.0532 21.0654 35.9572 20.3379 36.5081 19.3737C36.6388 19.1451 36.2862 18.9403 36.1561 19.1678C36.0988 19.2681 36.0374 19.3657 35.9724 19.4611C35.9374 19.5121 35.9012 19.5625 35.8641 19.6121C35.8577 19.6206 35.8513 19.6291 35.8449 19.6377C35.8449 19.6377 35.8449 19.6377 35.8449 19.6382C35.8441 19.639 35.8433 19.6401 35.8428 19.6409C35.8422 19.6417 35.8414 19.6427 35.8406 19.6435C35.8401 19.6443 35.8396 19.6451 35.8388 19.6462C35.838 19.6473 35.8372 19.6481 35.8366 19.6491C35.8353 19.6505 35.8345 19.6518 35.8337 19.6526C35.8142 19.6777 35.7942 19.7025 35.7745 19.727C35.6942 19.8254 35.6105 19.9209 35.5238 20.0134C35.3404 20.2094 35.143 20.3929 34.9377 20.5657C34.5054 20.9289 33.9961 21.2678 33.479 21.5665C32.2505 22.275 30.9369 22.7998 29.5937 23.2457C28.0516 23.7574 26.4724 24.1547 24.8806 24.4763C23.2836 24.799 21.6705 25.0446 20.0497 25.2121C18.7289 25.3486 18.6038 25.3027 19.519 25.1697C23.1665 24.6401 26.9729 23.5571 29.9254 21.9089C32.8612 20.2694 34.4486 18.4953 34.2801 17.0409C34.139 15.8241 32.9012 14.8139 30.6761 14.2094C29.4132 13.8662 27.7681 13.3702 25.1596 13.0838C24.8836 13.0534 24.6726 13.3358 24.7268 13.6081C24.7276 13.6118 24.7284 13.6153 24.7292 13.619C24.7702 13.8249 24.9518 13.9505 25.1606 13.9721C27.6641 14.2318 29.283 14.7801 30.4238 15.0894C32.2116 15.5737 33.2782 16.3499 33.371 17.1462C33.4894 18.1675 31.962 19.7235 29.4793 21.1091C26.6284 22.7011 22.9596 23.8497 19.4137 24.2601C17.4489 24.4878 12.99 24.5977 11.5329 23.9801C10.9742 23.7433 10.4817 23.3851 10.1654 22.879C9.97822 22.5798 9.84809 22.2406 9.78996 21.8774C9.67529 21.163 9.53343 20.4323 9.38383 20.0305C9.12782 19.3481 7.99929 19.3547 7.74809 20.0401C7.59903 20.4609 7.44916 21.2094 7.32756 21.9182C7.14729 22.9699 6.35689 23.8113 5.31956 24.0625C4.88382 24.1683 4.47769 24.2766 4.25529 24.3611C3.59316 24.6241 3.59822 25.451 4.26329 25.703L4.26356 25.7033Z" fill="#010101"/>
</svg>
