<?xml version="1.0" encoding="UTF-8"?><svg id="_ícones" xmlns="http://www.w3.org/2000/svg" viewBox="0 0 1000 1000"><defs><style>.cls-1{fill:#010101;}</style></defs><path class="cls-1" d="m978.59,470.62c-80.23-73.79-268.03-261.13-478.59-261.13S101.63,396.83,21.41,470.62c-18.03,16.62-18.03,42.15,0,58.77,80.23,73.79,268.03,261.13,478.59,261.13s398.37-187.34,478.59-261.13c18.03-16.62,18.03-42.15,0-58.77Zm-338.75,49.66c-6.53,2.63-17.96,5.28-30.6,7.68-36.14,6.86-63.75,36.15-68.99,72.57-3.32,23.07-7.5,46.69-12.11,59.73-7.9,22.13-44.27,22.51-52.72.55-5.04-13.49-10.26-37.52-14.54-60.3-6.36-33.81-32.28-60.49-65.84-68.05-14.1-3.18-27.24-6.45-34.45-9.06-21.47-8.12-21.74-34.78-.45-43.24,6.62-2.64,18.49-5.5,31.55-8.19,35.57-7.28,62.79-36.02,68.07-71.95,3.42-23.19,7.78-47.14,12.61-60.41,7.74-21.93,44.12-22.31,52.45-.53,5.16,13.46,10.24,37.56,14.36,60.59,6.18,34.62,32.8,62.02,67.23,69.17,13.5,2.79,25.96,5.78,32.98,8.44,21.47,7.89,21.74,34.68.45,43.01Z"/></svg>